<?xml version="1.0" encoding="UTF-8" standalone="no"?>
<!-- Created with Inkscape (http://www.inkscape.org/) -->

<svg
   xmlns:dc="http://purl.org/dc/elements/1.1/"
   xmlns:cc="http://creativecommons.org/ns#"
   xmlns:rdf="http://www.w3.org/1999/02/22-rdf-syntax-ns#"
   xmlns:svg="http://www.w3.org/2000/svg"
   xmlns="http://www.w3.org/2000/svg"
   xmlns:sodipodi="http://sodipodi.sourceforge.net/DTD/sodipodi-0.dtd"
   xmlns:inkscape="http://www.inkscape.org/namespaces/inkscape"
   width="23.684999"
   height="23.685026"
   viewBox="0 0 6.2666558 6.2666629"
   version="1.1"
   id="svg16908"
   inkscape:version="0.92.2 (5c3e80d, 2017-08-06)"
   sodipodi:docname="Coirt_OutPort.svg">
  <defs
     id="defs16902">
    <clipPath
       clipPathUnits="userSpaceOnUse"
       id="clipPath6367">
      <path
         d="M 0,3193 H 2089 V 0 H 0 Z"
         id="path6365"
         inkscape:connector-curvature="0" />
    </clipPath>
  </defs>
  <sodipodi:namedview
     id="base"
     pagecolor="#ffffff"
     bordercolor="#666666"
     borderopacity="1.0"
     inkscape:pageopacity="0.0"
     inkscape:pageshadow="2"
     inkscape:zoom="22.627417"
     inkscape:cx="5.0905344"
     inkscape:cy="15.194869"
     inkscape:document-units="px"
     inkscape:current-layer="layer1"
     showgrid="false"
     fit-margin-top="0"
     fit-margin-left="0"
     fit-margin-right="0"
     fit-margin-bottom="0"
     inkscape:window-width="2560"
     inkscape:window-height="1422"
     inkscape:window-x="0"
     inkscape:window-y="18"
     inkscape:window-maximized="0"
     units="px"
     inkscape:snap-global="false">
    <inkscape:grid
       type="xygrid"
       id="grid2095"
       originx="1.8543002"
       originy="1.8541052" />
  </sodipodi:namedview>
  <metadata
     id="metadata16905">
    <rdf:RDF>
      <cc:Work
         rdf:about="">
        <dc:format>image/svg+xml</dc:format>
        <dc:type
           rdf:resource="http://purl.org/dc/dcmitype/StillImage" />
        <dc:title></dc:title>
      </cc:Work>
    </rdf:RDF>
  </metadata>
  <g
     inkscape:label="Layer 1"
     inkscape:groupmode="layer"
     id="layer1"
     transform="translate(-228.24155,-128.34527)">
    <path
       inkscape:connector-curvature="0"
       id="path7255-5"
       d="m 231.37488,134.51818 c -1.67637,0 -3.03958,-1.3632 -3.03958,-3.03959 0,-1.67635 1.36321,-3.03957 3.03958,-3.03957 1.67636,0 3.03957,1.36322 3.03957,3.03957 0,1.67639 -1.36321,3.03959 -3.03957,3.03959"
       style="fill:#fffff4;fill-opacity:1;fill-rule:nonzero;stroke:#787463;stroke-width:0.18749821;stroke-miterlimit:4;stroke-dasharray:none;stroke-opacity:1" />
    <path
       inkscape:connector-curvature="0"
       id="path7261-0"
       d="m 231.37488,133.66761 c -1.20715,0 -2.189,-0.98187 -2.189,-2.18902 0,-1.20714 0.98185,-2.18898 2.189,-2.18898 1.20715,0 2.18898,0.98184 2.18898,2.18898 0,1.20715 -0.98183,2.18902 -2.18898,2.18902"
       style="fill:#808080;fill-opacity:1;fill-rule:nonzero;stroke:#636655;stroke-width:0.18749821;stroke-miterlimit:4;stroke-dasharray:none;stroke-opacity:1" />
    <path
       inkscape:connector-curvature="0"
       id="path7265-7"
       d="m 232.84986,131.47859 c 0,0.81429 -0.66069,1.47501 -1.47498,1.47501 -0.8143,0 -1.47499,-0.66072 -1.47499,-1.47501 0,-0.81429 0.66069,-1.47496 1.47499,-1.47496 0.81429,0 1.47498,0.66067 1.47498,1.47496"
       style="fill:#000000;fill-opacity:1;fill-rule:nonzero;stroke:none;stroke-width:0.28912428" />
  </g>
</svg>
