<?xml version="1.0" encoding="UTF-8" standalone="no"?>
<!-- Created with Inkscape (http://www.inkscape.org/) -->

<svg
   xmlns:dc="http://purl.org/dc/elements/1.1/"
   xmlns:cc="http://creativecommons.org/ns#"
   xmlns:rdf="http://www.w3.org/1999/02/22-rdf-syntax-ns#"
   xmlns:svg="http://www.w3.org/2000/svg"
   xmlns="http://www.w3.org/2000/svg"
   xmlns:sodipodi="http://sodipodi.sourceforge.net/DTD/sodipodi-0.dtd"
   xmlns:inkscape="http://www.inkscape.org/namespaces/inkscape"
   width="90"
   height="380"
   viewBox="0 0 23.812501 100.54167"
   version="1.1"
   id="svg8"
   inkscape:version="0.92.2 (5c3e80d, 2017-08-06)"
   sodipodi:docname="MicroTuner.svg">
  <defs
     id="defs2" />
  <sodipodi:namedview
     id="base"
     pagecolor="#ffffff"
     bordercolor="#666666"
     borderopacity="1.0"
     inkscape:pageopacity="0.0"
     inkscape:pageshadow="2"
     inkscape:zoom="2"
     inkscape:cx="138.23305"
     inkscape:cy="256.75831"
     inkscape:document-units="mm"
     inkscape:current-layer="layer1"
     showgrid="false"
     units="px"
     inkscape:snap-bbox="true"
     inkscape:snap-page="true"
     inkscape:bbox-nodes="true"
     inkscape:snap-bbox-edge-midpoints="true"
     inkscape:window-width="732"
     inkscape:window-height="1987"
     inkscape:window-x="1323"
     inkscape:window-y="27"
     inkscape:window-maximized="0" />
  <metadata
     id="metadata5">
    <rdf:RDF>
      <cc:Work
         rdf:about="">
        <dc:format>image/svg+xml</dc:format>
        <dc:type
           rdf:resource="http://purl.org/dc/dcmitype/StillImage" />
        <dc:title></dc:title>
      </cc:Work>
    </rdf:RDF>
  </metadata>
  <g
     inkscape:label="Layer 1"
     inkscape:groupmode="layer"
     id="layer1"
     transform="translate(0,-196.45832)">
    <path
       style="opacity:1;vector-effect:none;fill:#f0f0f0;fill-opacity:1;fill-rule:evenodd;stroke:none;stroke-width:0.48607069;stroke-linecap:butt;stroke-linejoin:round;stroke-miterlimit:4;stroke-dasharray:none;stroke-dashoffset:0;stroke-opacity:1;paint-order:normal"
       d="M 0,196.45831 H 23.8125 V 296.99999 H 0 Z"
       id="rect817"
       inkscape:connector-curvature="0" />
    <g
       aria-label="Ahornberg"
       style="font-style:normal;font-weight:normal;font-size:10.58333302px;line-height:1.25;font-family:sans-serif;letter-spacing:0px;word-spacing:0px;fill:#000000;fill-opacity:1;stroke:none;stroke-width:0.26458332"
       id="text3789">
      <path
         d="m 5.6789473,289.84267 q -0.096635,0.30317 -0.4623318,0.30317 H 4.0911028 l -0.3562229,0.98529 H 3.0565406 l 0.3562229,-0.98529 H 2.8310591 q -0.9549805,1.15204 -1.86638052,1.15204 -0.26527236,0 -0.44717341,-0.0985 -0.22927111,-0.12506 -0.22927111,-0.36759 0,-0.20654 0.17053223,-0.4036 0.27474637,-0.31643 0.83181831,-0.46801 0.4358046,-0.11748 0.9625597,-0.11748 H 2.620736 l 1.1482504,-1.37752 h 0.9132948 l -0.4888591,1.37752 z m -1.765956,-1.06299 -0.8299235,1.06299 h 0.422541 z m -1.5480536,1.36616 q -0.710551,0 -0.9966662,0.20464 -0.2368503,0.17053 -0.2368503,0.3619 0,0.16296 0.1705322,0.16296 0.2349555,0 0.5873888,-0.26528 0.3088528,-0.22927 0.4755955,-0.46422 z"
         style="font-style:normal;font-variant:normal;font-weight:normal;font-stretch:normal;font-size:3.88055563px;font-family:Magneto;-inkscape-font-specification:Magneto;stroke-width:0.26458332"
         id="path4253" />
      <path
         d="m 7.2914242,290.82797 q -0.049265,0.16674 -0.2103231,0.24632 -0.115583,0.0568 -0.2482192,0.0568 H 6.0256961 q -0.2141127,0 -0.2141127,-0.15537 0,-0.0606 0.028422,-0.14779 l 0.1364258,-0.4036 -0.7181302,0.59118 q -0.1326362,0.11558 -0.2804308,0.11558 H 4.5875409 l 0.8109755,-2.28892 h 0.6821289 l -0.5703355,1.61058 0.5779147,-0.4737 q 0.2235867,-0.18379 0.5078071,-0.18379 0.1894803,0 0.1894803,0.19327 0,0.0701 -0.034107,0.16106 l -0.2406399,0.67834 z"
         style="font-style:normal;font-variant:normal;font-weight:normal;font-stretch:normal;font-size:3.88055563px;font-family:Magneto;-inkscape-font-specification:Magneto;stroke-width:0.26458332"
         id="path4255" />
      <path
         d="m 10.516378,289.84267 q -0.07579,0.30317 -0.454753,0.30317 H 8.8754789 q 0.062528,0.0417 0.1023193,0.15348 0.039791,0.10989 0.032212,0.19137 -0.026527,0.31643 -0.2785359,0.49644 -0.24064,0.17243 -0.6252849,0.17432 -0.4471734,0.004 -0.6878133,-0.17622 -0.2141127,-0.15916 -0.2141127,-0.41875 0,-0.0512 0.00947,-0.10232 0.049265,-0.28611 0.2842204,-0.44906 0.2501139,-0.17243 0.6669705,-0.17243 z m -2.0653349,0.30317 H 8.0171333 l -0.1705322,0.48507 q -0.013264,0.0379 -0.013264,0.072 0,0.16295 0.3031685,0.16295 0.036001,0 0.062528,-0.002 z"
         style="font-style:normal;font-variant:normal;font-weight:normal;font-stretch:normal;font-size:3.88055563px;font-family:Magneto;-inkscape-font-specification:Magneto;stroke-width:0.26458332"
         id="path4257" />
      <path
         d="m 11.768843,290.82797 q 0,0.13263 -0.1459,0.22358 -0.128847,0.0796 -0.269062,0.0796 h -0.725709 q -0.28801,0 -0.28801,-0.23874 0,-0.0606 0.02463,-0.13074 l 0.214113,-0.61581 h -0.403593 l -0.2103233,0.54381 q -0.053055,0.13832 -0.2292711,0.13832 H 9.5348705 l 0.2482191,-0.68213 q -0.1174777,-0.0265 -0.191375,-0.11748 -0.072002,-0.0928 -0.072002,-0.21222 0,-0.2179 0.2027439,-0.33727 0.1686374,-0.0985 0.401698,-0.0985 h 0.306958 l -0.159163,0.46233 h 1.047826 l -0.344855,0.9853 z"
         style="font-style:normal;font-variant:normal;font-weight:normal;font-stretch:normal;font-size:3.88055563px;font-family:Magneto;-inkscape-font-specification:Magneto;stroke-width:0.26458332"
         id="path4259" />
      <path
         d="m 14.366616,290.82797 q -0.04927,0.16674 -0.217902,0.24632 -0.119373,0.0568 -0.255798,0.0568 h -0.756027 q -0.259587,0 -0.259587,-0.17053 0,-0.0568 0.02653,-0.13263 l 0.144005,-0.40739 -0.651812,0.55139 q -0.229271,0.15916 -0.377066,0.15916 h -0.348644 l 0.452858,-1.28846 h 0.684024 l -0.214113,0.60634 0.577915,-0.47371 q 0.234955,-0.19137 0.509702,-0.18379 0.18569,0.008 0.18569,0.19706 0,0.0701 -0.03032,0.15727 l -0.24443,0.68213 z"
         style="font-style:normal;font-variant:normal;font-weight:normal;font-stretch:normal;font-size:3.88055563px;font-family:Magneto;-inkscape-font-specification:Magneto;stroke-width:0.26458332"
         id="path4261" />
      <path
         d="m 17.777261,289.84267 q -0.125057,0.30317 -0.418751,0.30317 h -1.023193 q -0.0739,0.54191 -0.558967,0.79771 -0.356223,0.18758 -0.831818,0.18758 h -0.344854 q -0.09285,0 -0.162954,-0.0455 -0.09285,-0.0606 -0.09285,-0.1838 0,-0.0701 0.03032,-0.15916 l 0.676445,-1.8967 h 0.682128 l -0.706761,1.97818 q 0.407383,0.009 0.57981,-0.32591 -0.176217,-0.1099 -0.176217,-0.29938 0,-0.14779 0.113688,-0.25201 0.115583,-0.10421 0.274747,-0.10421 z"
         style="font-style:normal;font-variant:normal;font-weight:normal;font-stretch:normal;font-size:3.88055563px;font-family:Magneto;-inkscape-font-specification:Magneto;stroke-width:0.26458332"
         id="path4263" />
      <path
         d="m 19.003198,290.82797 q -0.03979,0.1459 -0.181901,0.22927 -0.126952,0.0739 -0.289905,0.0739 h -1.055405 q -0.920874,0 -0.920874,-0.55517 0,-0.35623 0.314538,-0.55897 0.270956,-0.17432 0.644232,-0.17432 h 0.274747 q 0.24064,0 0.422541,0.0739 0.242535,0.0985 0.253903,0.29937 0.0095,0.20275 -0.195164,0.33728 h -0.62718 l 0.204639,-0.40738 h -0.399804 l -0.155373,0.45664 q -0.01326,0.0398 -0.01326,0.072 0,0.15348 0.246324,0.15348 z"
         style="font-style:normal;font-variant:normal;font-weight:normal;font-stretch:normal;font-size:3.88055563px;font-family:Magneto;-inkscape-font-specification:Magneto;stroke-width:0.26458332"
         id="path4265" />
      <path
         d="m 21.212539,290.82797 q 0,0.13263 -0.1459,0.22358 -0.128847,0.0796 -0.269062,0.0796 h -0.725709 q -0.28801,0 -0.28801,-0.23874 0,-0.0606 0.02463,-0.13074 l 0.214113,-0.61581 H 19.61901 l -0.210323,0.54381 q -0.05306,0.13832 -0.229271,0.13832 h -0.200849 l 0.248219,-0.68213 q -0.117478,-0.0265 -0.191375,-0.11748 -0.072,-0.0928 -0.072,-0.21222 0,-0.2179 0.202744,-0.33727 0.168637,-0.0985 0.401698,-0.0985 h 0.306958 l -0.159163,0.46233 h 1.047826 l -0.344855,0.9853 z"
         style="font-style:normal;font-variant:normal;font-weight:normal;font-stretch:normal;font-size:3.88055563px;font-family:Magneto;-inkscape-font-specification:Magneto;stroke-width:0.26458332"
         id="path4267" />
      <path
         d="m 23.673888,290.82797 q -0.08716,0.30316 -0.562757,0.30316 h -0.337275 q -0.168637,0.45855 -0.33538,0.66318 -0.244429,0.29938 -0.6196,0.29938 -0.212218,0 -0.33917,-0.11937 -0.125057,-0.11748 -0.125057,-0.3278 0,-0.41117 0.24064,-0.53054 -0.178111,-0.0417 -0.293694,-0.16485 -0.134531,-0.14022 -0.134531,-0.33917 0,-0.0777 0.02463,-0.16295 0.08148,-0.30886 0.358118,-0.46613 0.242535,-0.14021 0.583599,-0.14021 h 1.083827 l -0.346749,0.9853 z m -1.248675,-0.68213 H 22.02162 l -0.151585,0.48128 q -0.01326,0.0436 -0.01326,0.0796 0,0.16106 0.234955,0.16106 0.01516,0 0.04358,-0.002 0.03032,-0.002 0.04548,-0.002 z m -0.333486,1.03645 q -0.123162,0 -0.231166,0.14022 -0.106108,0.14211 -0.106108,0.28232 0,0.12506 0.108003,0.20085 z"
         style="font-style:normal;font-variant:normal;font-weight:normal;font-stretch:normal;font-size:3.88055563px;font-family:Magneto;-inkscape-font-specification:Magneto;stroke-width:0.26458332"
         id="path4269" />
    </g>
    <g
       aria-label="Micro"
       style="font-style:normal;font-weight:normal;font-size:10.58333302px;line-height:1.25;font-family:sans-serif;letter-spacing:0px;word-spacing:0px;fill:#000000;fill-opacity:1;stroke:none;stroke-width:0.26458332"
       id="text3793">
      <path
         d="m 10.273275,204.9251 q -0.08682,0.33073 -0.5746424,0.33073 H 8.9565591 q -0.3472656,0 -0.3472656,-0.20051 0,-0.0703 0.043408,-0.18396 l 0.3431315,-0.89297 -1.0252604,1.12448 q -0.1653646,0.18396 -0.361735,0.18396 -0.037207,0 -0.078548,-0.006 -0.2356445,-0.0269 -0.2356445,-0.23564 0,-0.0806 0.037207,-0.17363 l 0.5084961,-1.31259 -1.2753743,1.53996 q -0.1281575,0.1571 -0.3762044,0.1571 H 5.7691569 L 6.604248,202.86838 H 5.4570313 l 0.3121256,-0.5209 h 1.3807942 q 0.2852539,0 0.2852539,0.20877 0,0.0806 -0.039274,0.19431 l -0.4444173,1.28157 0.8888346,-1.00666 q 0.1694987,-0.1943 0.2604492,-0.25218 0.1508952,-0.0951 0.3906738,-0.0951 0.068213,0 0.142627,0.0475 0.1136881,0.0744 0.1136881,0.22118 0,0.0909 -0.045475,0.20463 l -0.4010091,1.0418 0.795817,-0.79995 q 0.1694987,-0.1695 0.2253092,-0.20464 0.097152,-0.0558 0.2790527,-0.0537 0.072347,0 0.1529623,0.0537 0.1240234,0.0806 0.1240234,0.23565 0,0.0889 -0.041341,0.19637 l -0.4940267,1.30431 z"
         style="font-style:normal;font-variant:normal;font-weight:normal;font-stretch:normal;font-size:4.23333311px;font-family:Magneto;-inkscape-font-specification:Magneto;stroke-width:0.26458332"
         id="path4158" />
      <path
         d="m 11.69541,203.00274 q 0,0.2067 -0.161231,0.3514 -0.159163,0.14469 -0.384472,0.14469 -0.229444,0 -0.390674,-0.14469 -0.159164,-0.1447 -0.159164,-0.3514 0,-0.20464 0.159164,-0.34934 0.16123,-0.14469 0.390674,-0.14469 0.225309,0 0.384472,0.14469 0.161231,0.1447 0.161231,0.34934 z m 0.148828,1.92236 q -0.05374,0.1819 -0.223242,0.26872 -0.121957,0.062 -0.264584,0.062 h -0.816487 q -0.295589,0 -0.295589,-0.24805 0,-0.0703 0.02894,-0.15089 l 0.359668,-1.00666 h 0.750342 l -0.382406,1.07487 z"
         style="font-style:normal;font-variant:normal;font-weight:normal;font-stretch:normal;font-size:4.23333311px;font-family:Magneto;-inkscape-font-specification:Magneto;stroke-width:0.26458332"
         id="path4160" />
      <path
         d="m 14.434261,204.9251 q -0.04548,0.16123 -0.19017,0.25011 -0.132291,0.0806 -0.307991,0.0806 h -1.244369 q -0.355534,0 -0.597379,-0.11989 -0.305925,-0.1509 -0.305925,-0.45475 0,-0.0331 0.0041,-0.0682 0.04134,-0.37 0.384473,-0.57877 0.30179,-0.18397 0.713135,-0.18397 h 0.520898 q 0.1757,0 0.299724,0.11162 0.124023,0.11162 0.124023,0.27285 0,0.1633 -0.126091,0.27699 -0.124023,0.11369 -0.297656,0.11369 -0.1757,0 -0.299723,-0.11369 -0.121956,-0.11576 -0.119889,-0.28112 0,0 0,-0.0496 h -0.250114 l -0.161231,0.45682 q -0.02067,0.0579 -0.02067,0.10542 0,0.1819 0.287321,0.1819 z"
         style="font-style:normal;font-variant:normal;font-weight:normal;font-stretch:normal;font-size:4.23333311px;font-family:Magneto;-inkscape-font-specification:Magneto;stroke-width:0.26458332"
         id="path4162" />
      <path
         d="m 16.823779,204.9251 q 0,0.14469 -0.159163,0.24391 -0.14056,0.0868 -0.293523,0.0868 h -0.791682 q -0.314193,0 -0.314193,-0.26045 0,-0.0662 0.02687,-0.14263 l 0.233577,-0.67179 h -0.440283 l -0.229443,0.59324 q -0.05788,0.1509 -0.250114,0.1509 h -0.219108 l 0.270784,-0.74414 q -0.128158,-0.0289 -0.208773,-0.12816 -0.07855,-0.10128 -0.07855,-0.23151 0,-0.23771 0.221175,-0.36794 0.183968,-0.10748 0.438216,-0.10748 h 0.334864 l -0.173633,0.50436 h 1.143082 l -0.376204,1.07487 z"
         style="font-style:normal;font-variant:normal;font-weight:normal;font-stretch:normal;font-size:4.23333311px;font-family:Magneto;-inkscape-font-specification:Magneto;stroke-width:0.26458332"
         id="path4164" />
      <path
         d="m 20.343977,203.85023 q -0.08268,0.33073 -0.496094,0.33073 h -1.293978 q 0.06821,0.0455 0.111621,0.16743 0.04341,0.11989 0.03514,0.20877 -0.02894,0.3452 -0.303857,0.54157 -0.262517,0.1881 -0.682129,0.19017 -0.487826,0.004 -0.750342,-0.19223 -0.233577,-0.17364 -0.233577,-0.45682 0,-0.0558 0.01033,-0.11163 0.05374,-0.31212 0.310058,-0.48989 0.272852,-0.1881 0.727605,-0.1881 z m -2.253093,0.33073 h -0.473356 l -0.186035,0.52917 q -0.01447,0.0413 -0.01447,0.0785 0,0.17777 0.330729,0.17777 0.03927,0 0.06821,-0.002 z"
         style="font-style:normal;font-variant:normal;font-weight:normal;font-stretch:normal;font-size:4.23333311px;font-family:Magneto;-inkscape-font-specification:Magneto;stroke-width:0.26458332"
         id="path4166" />
    </g>
    <g
       aria-label="Tuner"
       style="font-style:normal;font-weight:normal;font-size:10.58333302px;line-height:1.25;font-family:sans-serif;letter-spacing:0px;word-spacing:0px;fill:#000000;fill-opacity:1;stroke:none;stroke-width:0.26458332"
       id="text3793-3">
      <path
         d="m 9.5136316,206.034 -0.2790527,0.5209 H 8.4677006 l -0.6304524,1.77354 q -0.2191081,0.61391 -0.8474934,0.61391 H 5.5428147 q 0.09095,-0.23151 0.1591634,-0.32866 0.1198893,-0.17157 0.2811198,-0.17157 0.024805,0 0.051676,0.004 L 7.00009,208.59922 7.7235601,206.5549 H 6.528801 q -0.2645833,0 -0.4754231,0.15503 -0.2315105,0.1695 -0.2315105,0.42581 0,0.17777 0.1198894,0.20258 0.059945,-0.20878 0.2253092,-0.32453 0.1508952,-0.10335 0.3410644,-0.10335 0.2418457,0 0.3906738,0.15502 0.1384929,0.1447 0.1384929,0.3452 0,0.21291 -0.1632975,0.35347 -0.1839681,0.16123 -0.5146973,0.16123 -0.361735,0 -0.6201171,-0.2005 -0.2935222,-0.22738 -0.2935222,-0.62012 0,-0.42375 0.3410645,-0.72761 0.3844726,-0.34313 1.047998,-0.34313 z"
         style="font-style:normal;font-variant:normal;font-weight:normal;font-stretch:normal;font-size:4.23333311px;font-family:Magneto;-inkscape-font-specification:Magneto;stroke-width:0.26458332"
         id="path4169" />
      <path
         d="m 11.334709,208.61162 q -0.04341,0.17157 -0.190169,0.26045 -0.115755,0.0703 -0.24598,0.0703 h -0.86403 q -0.3038573,0 -0.3038573,-0.1943 -0.1612305,0.1943 -0.4361491,0.1943 H 8.9307215 q -0.1674316,0 -0.2604492,-0.0868 -0.086816,-0.0806 -0.086816,-0.21291 0,-0.0744 0.028939,-0.15296 l 0.3472656,-0.95292 h 0.7503418 l -0.3865397,1.07487 H 9.743075 l 0.384473,-1.07487 h 0.742073 l -0.376204,1.07487 z"
         style="font-style:normal;font-variant:normal;font-weight:normal;font-stretch:normal;font-size:4.23333311px;font-family:Magneto;-inkscape-font-specification:Magneto;stroke-width:0.26458332"
         id="path4171" />
      <path
         d="m 14.160376,208.61162 q -0.05374,0.1819 -0.237711,0.26872 -0.130225,0.062 -0.279053,0.062 h -0.824756 q -0.283187,0 -0.283187,-0.18603 0,-0.062 0.02894,-0.1447 l 0.157096,-0.44441 -0.711067,0.60151 q -0.250114,0.17363 -0.411345,0.17363 h -0.380338 l 0.494027,-1.4056 h 0.746207 l -0.233577,0.66146 0.630452,-0.51676 q 0.256315,-0.20878 0.556039,-0.20051 0.202571,0.008 0.202571,0.21498 0,0.0765 -0.03307,0.17156 l -0.26665,0.74414 z"
         style="font-style:normal;font-variant:normal;font-weight:normal;font-stretch:normal;font-size:4.23333311px;font-family:Magneto;-inkscape-font-specification:Magneto;stroke-width:0.26458332"
         id="path4173" />
      <path
         d="m 16.737997,208.61162 q -0.04341,0.15917 -0.198437,0.25012 -0.138493,0.0806 -0.31626,0.0806 h -1.151351 q -1.00459,0 -1.00459,-0.60565 0,-0.3886 0.343132,-0.60978 0.295589,-0.19017 0.702799,-0.19017 h 0.299723 q 0.262517,0 0.460954,0.0806 0.264583,0.10749 0.276986,0.32659 0.01033,0.22118 -0.212907,0.36794 H 15.25385 l 0.223242,-0.44442 h -0.436149 l -0.169499,0.49816 q -0.01447,0.0434 -0.01447,0.0785 0,0.16743 0.268717,0.16743 z"
         style="font-style:normal;font-variant:normal;font-weight:normal;font-stretch:normal;font-size:4.23333311px;font-family:Magneto;-inkscape-font-specification:Magneto;stroke-width:0.26458332"
         id="path4175" />
      <path
         d="m 19.148186,208.61162 q 0,0.1447 -0.159164,0.24392 -0.14056,0.0868 -0.293522,0.0868 h -0.791683 q -0.314193,0 -0.314193,-0.26045 0,-0.0661 0.02687,-0.14262 l 0.233578,-0.6718 H 17.40979 l -0.229443,0.59325 q -0.05788,0.15089 -0.250114,0.15089 h -0.219108 l 0.270785,-0.74414 q -0.128158,-0.0289 -0.208773,-0.12815 -0.07855,-0.10129 -0.07855,-0.23152 0,-0.23771 0.221175,-0.36793 0.183968,-0.10749 0.438216,-0.10749 h 0.334863 l -0.173633,0.50436 h 1.143083 l -0.376204,1.07487 z"
         style="font-style:normal;font-variant:normal;font-weight:normal;font-stretch:normal;font-size:4.23333311px;font-family:Magneto;-inkscape-font-specification:Magneto;stroke-width:0.26458332"
         id="path4177" />
    </g>
    <g
       aria-label="fine tune"
       style="font-style:normal;font-weight:normal;font-size:10.58333302px;line-height:1.25;font-family:sans-serif;letter-spacing:0px;word-spacing:0px;fill:#000000;fill-opacity:1;stroke:none;stroke-width:0.26458332"
       id="text3815">
      <path
         d="M 7.9581707,230.64735 H 7.6019478 v 0.90003 h 0.3145373 v 0.22169 H 7.6019478 v 1.62195 H 7.3537287 v -1.62195 H 7.139616 v -0.22169 h 0.2141127 v -0.90761 q 0,-0.21411 0.2122179,-0.21411 h 0.3922241 z"
         style="font-style:normal;font-variant:normal;font-weight:normal;font-stretch:normal;font-size:3.88055563px;font-family:'Agency FB';-inkscape-font-specification:'Agency FB';stroke-width:0.26458332"
         id="path4197" />
      <path
         d="M 8.4527142,231.14379 H 8.1969159 v -0.31833 h 0.2557983 z m -0.00379,2.24723 H 8.2007055 v -1.84364 h 0.2482191 z"
         style="font-style:normal;font-variant:normal;font-weight:normal;font-stretch:normal;font-size:3.88055563px;font-family:'Agency FB';-inkscape-font-specification:'Agency FB';stroke-width:0.26458332"
         id="path4199" />
      <path
         d="M 9.9344498,233.39102 H 9.682441 v -1.61816 l -0.5551771,0.0152 v 1.603 H 8.8752552 v -1.84364 h 0.2520087 v 0.0512 q 0.1477946,-0.019 0.297484,-0.0398 0.181901,-0.0227 0.2993788,-0.0227 0.2103231,0 0.2103231,0.20653 z"
         style="font-style:normal;font-variant:normal;font-weight:normal;font-stretch:normal;font-size:3.88055563px;font-family:'Agency FB';-inkscape-font-specification:'Agency FB';stroke-width:0.26458332"
         id="path4201" />
      <path
         d="m 11.376395,233.17691 q 0,0.21411 -0.212218,0.21411 H 10.55784 q -0.212218,0 -0.212218,-0.21411 v -1.41542 q 0,-0.21411 0.212218,-0.21411 h 0.606337 q 0.212218,0 0.212218,0.21411 v 0.66318 l -0.08527,0.0891 h -0.701077 v 0.66697 h 0.541913 v -0.33728 h 0.24443 z m -0.24443,-0.86403 v -0.55518 h -0.541913 v 0.55518 z"
         style="font-style:normal;font-variant:normal;font-weight:normal;font-stretch:normal;font-size:3.88055563px;font-family:'Agency FB';-inkscape-font-specification:'Agency FB';stroke-width:0.26458332"
         id="path4203" />
      <path
         d="m 13.214353,233.39102 h -0.358117 q -0.212218,0 -0.212218,-0.21411 v -1.40784 h -0.221692 v -0.22169 h 0.221692 v -0.57413 h 0.248219 v 0.57413 h 0.322116 v 0.22169 h -0.322116 v 1.40026 h 0.322116 z"
         style="font-style:normal;font-variant:normal;font-weight:normal;font-stretch:normal;font-size:3.88055563px;font-family:'Agency FB';-inkscape-font-specification:'Agency FB';stroke-width:0.26458332"
         id="path4205" />
      <path
         d="m 14.591875,233.39102 h -0.24822 v -0.0512 q -0.151584,0.0208 -0.301273,0.0398 -0.181901,0.0227 -0.301274,0.0227 -0.204638,0 -0.204638,-0.20464 v -1.65037 h 0.248219 v 1.61816 l 0.558966,-0.0152 v -1.603 h 0.24822 z"
         style="font-style:normal;font-variant:normal;font-weight:normal;font-stretch:normal;font-size:3.88055563px;font-family:'Agency FB';-inkscape-font-specification:'Agency FB';stroke-width:0.26458332"
         id="path4207" />
      <path
         d="m 16.066031,233.39102 h -0.252009 v -1.61816 l -0.555177,0.0152 v 1.603 h -0.252009 v -1.84364 h 0.252009 v 0.0512 q 0.147795,-0.019 0.297484,-0.0398 0.181901,-0.0227 0.299379,-0.0227 0.210323,0 0.210323,0.20653 z"
         style="font-style:normal;font-variant:normal;font-weight:normal;font-stretch:normal;font-size:3.88055563px;font-family:'Agency FB';-inkscape-font-specification:'Agency FB';stroke-width:0.26458332"
         id="path4209" />
      <path
         d="m 17.507976,233.17691 q 0,0.21411 -0.212218,0.21411 h -0.606337 q -0.212218,0 -0.212218,-0.21411 v -1.41542 q 0,-0.21411 0.212218,-0.21411 h 0.606337 q 0.212218,0 0.212218,0.21411 v 0.66318 l -0.08527,0.0891 h -0.701077 v 0.66697 h 0.541913 v -0.33728 h 0.24443 z m -0.24443,-0.86403 v -0.55518 h -0.541913 v 0.55518 z"
         style="font-style:normal;font-variant:normal;font-weight:normal;font-stretch:normal;font-size:3.88055563px;font-family:'Agency FB';-inkscape-font-specification:'Agency FB';stroke-width:0.26458332"
         id="path4211" />
    </g>
    <g
       aria-label="-3%"
       style="font-style:normal;font-weight:normal;font-size:10.58333302px;line-height:1.25;font-family:sans-serif;letter-spacing:0px;word-spacing:0px;fill:#000000;fill-opacity:1;stroke:none;stroke-width:0.26458332"
       id="text3815-4">
      <path
         d="M 2.9331544,229.26552 H 2.2944337 v -0.19224 h 0.6387207 z"
         style="font-style:normal;font-variant:normal;font-weight:normal;font-stretch:normal;font-size:3.17499995px;font-family:'Agency FB';-inkscape-font-specification:'Agency FB';stroke-width:0.26458332"
         id="path4190" />
      <path
         d="m 4.2447022,229.92284 q 0,0.076 -0.048059,0.12403 -0.048059,0.048 -0.1240234,0.048 H 3.4478516 q -0.075964,0 -0.1240234,-0.048 -0.048059,-0.0481 -0.048059,-0.12403 v -0.61546 h 0.2154907 v 0.59686 h 0.5364014 v -0.74259 l -0.4278809,-0.32091 v -0.0481 l 0.4247803,-0.31626 V 227.8594 H 3.4943604 v 0.54571 H 3.2788697 v -0.56431 q 0,-0.076 0.048059,-0.12402 0.048059,-0.0481 0.1240234,-0.0481 h 0.6185669 q 0.075964,0 0.1240234,0.0481 0.048059,0.048 0.048059,0.12402 v 0.59066 q 0,0.11627 -0.093018,0.18138 l -0.2883544,0.20309 0.291455,0.20309 q 0.093018,0.0636 0.093018,0.18449 z"
         style="font-style:normal;font-variant:normal;font-weight:normal;font-stretch:normal;font-size:3.17499995px;font-family:'Agency FB';-inkscape-font-specification:'Agency FB';stroke-width:0.26458332"
         id="path4192" />
      <path
         d="m 6.2151245,227.68267 -1.3332519,2.41225 H 4.7035889 v -0.0124 l 1.3348022,-2.4138 h 0.1767334 z m 0.1968872,2.25413 q 0,0.0651 -0.044958,0.11162 -0.043408,0.0465 -0.1069702,0.0465 H 5.8089478 q -0.057361,0 -0.1038696,-0.0496 -0.044958,-0.0512 -0.044958,-0.10852 v -0.91623 q 0,-0.0558 0.046509,-0.10697 0.046509,-0.0527 0.1023194,-0.0527 H 6.260083 q 0.060461,0 0.1054199,0.0496 0.046509,0.0496 0.046509,0.11007 z m -0.1875854,-0.0155 v -0.87901 H 5.8477051 v 0.87901 z m -0.9580811,-1.17667 q 0,0.0651 -0.044958,0.11162 -0.043408,0.0465 -0.1069703,0.0465 H 4.6632813 q -0.057361,0 -0.1038696,-0.0496 -0.044958,-0.0512 -0.044958,-0.10852 v -0.91622 q 0,-0.0558 0.046509,-0.10697 0.046509,-0.0527 0.1023193,-0.0527 h 0.4511352 q 0.060461,0 0.10542,0.0496 0.046509,0.0496 0.046509,0.11007 z m -0.1875854,-0.0155 V 227.8501 H 4.7020386 v 0.87902 z"
         style="font-style:normal;font-variant:normal;font-weight:normal;font-stretch:normal;font-size:3.17499995px;font-family:'Agency FB';-inkscape-font-specification:'Agency FB';stroke-width:0.26458332"
         id="path4194" />
    </g>
    <g
       aria-label="Note Out"
       style="font-style:normal;font-weight:normal;font-size:10.58333302px;line-height:1.25;font-family:sans-serif;letter-spacing:0px;word-spacing:0px;fill:#000000;fill-opacity:1;stroke:none;stroke-width:0.26458332"
       id="text3815-4-2">
      <path
         d="M 8.9849637,280.8226 H 8.8030626 l -0.7920275,-2.18092 v 2.18092 H 7.762816 v -2.96536 h 0.1970595 l 0.776869,2.14302 v -2.14302 h 0.2482192 z"
         style="font-style:normal;font-variant:normal;font-weight:normal;font-stretch:normal;font-size:3.88055563px;font-family:'Agency FB';-inkscape-font-specification:'Agency FB';stroke-width:0.26458332"
         id="path4238" />
      <path
         d="m 10.489437,280.60849 q 0,0.21411 -0.214113,0.21411 H 9.6424601 q -0.2122179,0 -0.2122179,-0.21411 v -1.41542 q 0,-0.21411 0.2122179,-0.21411 h 0.6328639 q 0.214113,0 0.214113,0.21411 z m -0.252009,-0.008 v -1.40026 H 9.682251 v 1.40026 z"
         style="font-style:normal;font-variant:normal;font-weight:normal;font-stretch:normal;font-size:3.88055563px;font-family:'Agency FB';-inkscape-font-specification:'Agency FB';stroke-width:0.26458332"
         id="path4240" />
      <path
         d="m 11.56379,280.8226 h -0.358118 q -0.212218,0 -0.212218,-0.21411 v -1.40784 h -0.221692 v -0.22169 h 0.221692 v -0.57413 h 0.24822 v 0.57413 h 0.322116 v 0.22169 h -0.322116 v 1.40026 h 0.322116 z"
         style="font-style:normal;font-variant:normal;font-weight:normal;font-stretch:normal;font-size:3.88055563px;font-family:'Agency FB';-inkscape-font-specification:'Agency FB';stroke-width:0.26458332"
         id="path4242" />
      <path
         d="m 12.916679,280.60849 q 0,0.21411 -0.212218,0.21411 h -0.606337 q -0.212218,0 -0.212218,-0.21411 v -1.41542 q 0,-0.21411 0.212218,-0.21411 h 0.606337 q 0.212218,0 0.212218,0.21411 v 0.66318 l -0.08527,0.0891 h -0.701077 v 0.66697 h 0.541913 V 280.275 h 0.24443 z m -0.24443,-0.86403 v -0.55518 h -0.541913 v 0.55518 z"
         style="font-style:normal;font-variant:normal;font-weight:normal;font-stretch:normal;font-size:3.88055563px;font-family:'Agency FB';-inkscape-font-specification:'Agency FB';stroke-width:0.26458332"
         id="path4244" />
      <path
         d="m 15.374238,280.61228 q 0,0.0928 -0.06063,0.15158 -0.05874,0.0587 -0.151584,0.0587 h -0.829924 q -0.09285,0 -0.151584,-0.0587 -0.05874,-0.0587 -0.05874,-0.15158 v -2.54472 q 0,-0.0928 0.05874,-0.15159 0.05874,-0.0587 0.151584,-0.0587 h 0.829924 q 0.09285,0 0.151584,0.0587 0.06063,0.0587 0.06063,0.15159 z m -0.263378,-0.0227 v -2.49924 h -0.725709 v 2.49924 z"
         style="font-style:normal;font-variant:normal;font-weight:normal;font-stretch:normal;font-size:3.88055563px;font-family:'Agency FB';-inkscape-font-specification:'Agency FB';stroke-width:0.26458332"
         id="path4246" />
      <path
         d="m 16.874921,280.8226 h -0.248219 v -0.0512 q -0.151584,0.0208 -0.301273,0.0398 -0.181902,0.0227 -0.301274,0.0227 -0.204639,0 -0.204639,-0.20464 v -1.65037 h 0.248219 v 1.61816 l 0.558967,-0.0152 v -1.603 h 0.248219 z"
         style="font-style:normal;font-variant:normal;font-weight:normal;font-stretch:normal;font-size:3.88055563px;font-family:'Agency FB';-inkscape-font-specification:'Agency FB';stroke-width:0.26458332"
         id="path4248" />
      <path
         d="m 17.953065,280.8226 h -0.358118 q -0.212218,0 -0.212218,-0.21411 v -1.40784 h -0.221692 v -0.22169 h 0.221692 v -0.57413 h 0.248219 v 0.57413 h 0.322117 v 0.22169 h -0.322117 v 1.40026 h 0.322117 z"
         style="font-style:normal;font-variant:normal;font-weight:normal;font-stretch:normal;font-size:3.88055563px;font-family:'Agency FB';-inkscape-font-specification:'Agency FB';stroke-width:0.26458332"
         id="path4250" />
    </g>
    <g
       aria-label="Note In"
       style="font-style:normal;font-weight:normal;font-size:10.58333302px;line-height:1.25;font-family:sans-serif;letter-spacing:0px;word-spacing:0px;fill:#000000;fill-opacity:1;stroke:none;stroke-width:0.26458332"
       id="text3815-4-1">
      <path
         d="M 9.1802323,252.64363 H 8.9983312 l -0.7920274,-2.18092 v 2.18092 H 7.9580846 v -2.96537 h 0.1970595 l 0.7768691,2.14303 v -2.14303 h 0.2482191 z"
         style="font-style:normal;font-variant:normal;font-weight:normal;font-stretch:normal;font-size:3.88055563px;font-family:'Agency FB';-inkscape-font-specification:'Agency FB';stroke-width:0.26458332"
         id="path4214" />
      <path
         d="m 10.684705,252.42952 q 0,0.21411 -0.214112,0.21411 H 9.8377287 q -0.2122178,0 -0.2122178,-0.21411 v -1.41542 q 0,-0.21411 0.2122178,-0.21411 h 0.6328643 q 0.214112,0 0.214112,0.21411 z m -0.252008,-0.008 v -1.40026 H 9.8775196 v 1.40026 z"
         style="font-style:normal;font-variant:normal;font-weight:normal;font-stretch:normal;font-size:3.88055563px;font-family:'Agency FB';-inkscape-font-specification:'Agency FB';stroke-width:0.26458332"
         id="path4216" />
      <path
         d="m 11.759059,252.64363 h -0.358118 q -0.212218,0 -0.212218,-0.21411 v -1.40784 h -0.221692 v -0.22169 h 0.221692 v -0.57413 h 0.248219 v 0.57413 h 0.322117 v 0.22169 h -0.322117 v 1.40026 h 0.322117 z"
         style="font-style:normal;font-variant:normal;font-weight:normal;font-stretch:normal;font-size:3.88055563px;font-family:'Agency FB';-inkscape-font-specification:'Agency FB';stroke-width:0.26458332"
         id="path4218" />
      <path
         d="m 13.111947,252.42952 q 0,0.21411 -0.212217,0.21411 h -0.606337 q -0.212218,0 -0.212218,-0.21411 v -1.41542 q 0,-0.21411 0.212218,-0.21411 h 0.606337 q 0.212217,0 0.212217,0.21411 v 0.66318 l -0.08527,0.0891 h -0.701077 v 0.66697 h 0.541914 v -0.33728 h 0.244429 z m -0.244429,-0.86403 v -0.55518 h -0.541914 v 0.55518 z"
         style="font-style:normal;font-variant:normal;font-weight:normal;font-stretch:normal;font-size:3.88055563px;font-family:'Agency FB';-inkscape-font-specification:'Agency FB';stroke-width:0.26458332"
         id="path4220" />
      <path
         d="M 14.595578,252.64363 H 14.3322 v -2.96537 h 0.263378 z"
         style="font-style:normal;font-variant:normal;font-weight:normal;font-stretch:normal;font-size:3.88055563px;font-family:'Agency FB';-inkscape-font-specification:'Agency FB';stroke-width:0.26458332"
         id="path4222" />
      <path
         d="M 16.118999,252.64363 H 15.86699 v -1.61816 l -0.555177,0.0152 v 1.603 h -0.252009 v -1.84364 h 0.252009 v 0.0512 q 0.147795,-0.0189 0.297484,-0.0398 0.181901,-0.0227 0.299379,-0.0227 0.210323,0 0.210323,0.20653 z"
         style="font-style:normal;font-variant:normal;font-weight:normal;font-stretch:normal;font-size:3.88055563px;font-family:'Agency FB';-inkscape-font-specification:'Agency FB';stroke-width:0.26458332"
         id="path4224" />
    </g>
    <g
       aria-label="+3%"
       style="font-style:normal;font-weight:normal;font-size:10.58333302px;line-height:1.25;font-family:sans-serif;letter-spacing:0px;word-spacing:0px;fill:#000000;fill-opacity:1;stroke:none;stroke-width:0.26458332"
       id="text3815-4-22">
      <path
         d="m 18.551323,229.11979 h -0.446484 v 0.43873 h -0.190686 v -0.43873 h -0.446484 v -0.17983 h 0.446484 v -0.43874 h 0.190686 v 0.43874 h 0.446484 z"
         style="font-style:normal;font-variant:normal;font-weight:normal;font-stretch:normal;font-size:3.17499995px;font-family:'Agency FB';-inkscape-font-specification:'Agency FB';stroke-width:0.26458332"
         id="path4183" />
      <path
         d="m 19.824114,229.92284 q 0,0.076 -0.04806,0.12403 -0.04806,0.048 -0.124024,0.048 h -0.624768 q -0.07596,0 -0.124023,-0.048 -0.04806,-0.0481 -0.04806,-0.12403 v -0.61546 h 0.21549 v 0.59686 h 0.536402 v -0.74259 l -0.427881,-0.32091 v -0.0481 l 0.42478,-0.31626 v -0.61702 h -0.5302 v 0.54571 h -0.215491 v -0.56431 q 0,-0.076 0.04806,-0.12402 0.04806,-0.0481 0.124024,-0.0481 h 0.618567 q 0.07596,0 0.124023,0.0481 0.04806,0.048 0.04806,0.12402 v 0.59066 q 0,0.11627 -0.09302,0.18138 l -0.288355,0.20309 0.291455,0.20309 q 0.09302,0.0636 0.09302,0.18449 z"
         style="font-style:normal;font-variant:normal;font-weight:normal;font-stretch:normal;font-size:3.17499995px;font-family:'Agency FB';-inkscape-font-specification:'Agency FB';stroke-width:0.26458332"
         id="path4185" />
      <path
         d="m 21.794536,227.68267 -1.333252,2.41225 h -0.178283 v -0.0124 l 1.334802,-2.4138 h 0.176733 z m 0.196887,2.25413 q 0,0.0651 -0.04496,0.11162 -0.04341,0.0465 -0.10697,0.0465 H 21.38836 q -0.05736,0 -0.10387,-0.0496 -0.04496,-0.0512 -0.04496,-0.10852 v -0.91623 q 0,-0.0558 0.04651,-0.10697 0.04651,-0.0527 0.10232,-0.0527 h 0.451135 q 0.06046,0 0.10542,0.0496 0.04651,0.0496 0.04651,0.11007 z m -0.187585,-0.0155 v -0.87901 h -0.376721 v 0.87901 z m -0.958081,-1.17667 q 0,0.0651 -0.04496,0.11162 -0.04341,0.0465 -0.10697,0.0465 h -0.451135 q -0.05736,0 -0.10387,-0.0496 -0.04496,-0.0512 -0.04496,-0.10852 v -0.91622 q 0,-0.0558 0.04651,-0.10697 0.04651,-0.0527 0.102319,-0.0527 h 0.451135 q 0.06046,0 0.10542,0.0496 0.04651,0.0496 0.04651,0.11007 z m -0.187585,-0.0155 V 227.8501 H 20.28145 v 0.87902 z"
         style="font-style:normal;font-variant:normal;font-weight:normal;font-stretch:normal;font-size:3.17499995px;font-family:'Agency FB';-inkscape-font-specification:'Agency FB';stroke-width:0.26458332"
         id="path4187" />
    </g>
    <g
       aria-label="33ed4"
       style="font-style:normal;font-weight:normal;font-size:10.58333302px;line-height:1.25;font-family:sans-serif;letter-spacing:0px;word-spacing:0px;fill:#000000;fill-opacity:1;stroke:none;stroke-width:0.26458332"
       id="text3793-3-1">
      <path
         d="m 8.2808042,264.83148 -0.6556017,0.95498 q 0.1970594,0.10421 0.33538,0.30127 0.1496894,0.21033 0.1496894,0.42065 0,0.44717 -0.33538,0.71813 -0.2804308,0.22548 -0.7522366,0.29938 -0.2993788,0.0474 -0.6859186,0.0303 -0.200849,-0.009 -0.3486436,-0.13643 -0.1553738,-0.13453 -0.1553738,-0.3297 0,-0.19705 0.1553738,-0.32969 0.1477946,-0.12506 0.344854,-0.12506 0.2008491,0 0.3486437,0.12506 0.1553738,0.13264 0.1553738,0.32969 0,0.091 -0.034106,0.16675 0.2122179,-0.0114 0.3486436,-0.1819 0.1326362,-0.16485 0.1326362,-0.39602 0,-0.26906 -0.2387451,-0.45854 -0.2008491,-0.15727 -0.432015,-0.17811 L 7.1628707,265.3715 H 6.1283085 l 0.2084282,-0.54002 z"
         style="font-style:normal;font-variant:normal;font-weight:normal;font-stretch:normal;font-size:3.88055563px;font-family:Magneto;-inkscape-font-specification:Magneto;stroke-width:0.26458332"
         id="path4227" />
      <path
         d="m 10.971424,264.83148 -0.655602,0.95498 q 0.19706,0.10421 0.33538,0.30127 0.14969,0.21033 0.14969,0.42065 0,0.44717 -0.33538,0.71813 -0.280431,0.22548 -0.752237,0.29938 -0.2993788,0.0474 -0.6859185,0.0303 -0.2008491,-0.009 -0.3486437,-0.13643 -0.1553738,-0.13453 -0.1553738,-0.3297 0,-0.19705 0.1553738,-0.32969 0.1477946,-0.12506 0.344854,-0.12506 0.2008491,0 0.3486437,0.12506 0.1553738,0.13264 0.1553738,0.32969 0,0.091 -0.034106,0.16675 0.2122179,-0.0114 0.3486437,-0.1819 0.1326361,-0.16485 0.1326361,-0.39602 0,-0.26906 -0.2387451,-0.45854 -0.2008491,-0.15727 -0.432015,-0.17811 L 9.8534904,265.3715 H 8.8189282 l 0.2084283,-0.54002 z"
         style="font-style:normal;font-variant:normal;font-weight:normal;font-stretch:normal;font-size:3.88055563px;font-family:Magneto;-inkscape-font-specification:Magneto;stroke-width:0.26458332"
         id="path4229" />
      <path
         d="m 13.351296,267.1943 q -0.03979,0.1459 -0.181901,0.22927 -0.126952,0.0739 -0.289905,0.0739 h -1.055405 q -0.920874,0 -0.920874,-0.55518 0,-0.35622 0.314537,-0.55897 0.270957,-0.17432 0.644233,-0.17432 h 0.274747 q 0.240639,0 0.42254,0.0739 0.242535,0.0985 0.253904,0.29938 0.0095,0.20274 -0.195165,0.33727 h -0.627179 l 0.204638,-0.40738 h -0.399803 l -0.155374,0.45665 q -0.01326,0.0398 -0.01326,0.072 0,0.15348 0.246324,0.15348 z"
         style="font-style:normal;font-variant:normal;font-weight:normal;font-stretch:normal;font-size:3.88055563px;font-family:Magneto;-inkscape-font-specification:Magneto;stroke-width:0.26458332"
         id="path4231" />
      <path
         d="m 15.875173,267.1943 q -0.09474,0.30317 -0.464226,0.30317 h -0.72192 q -0.312643,0 -0.306958,-0.19706 -0.208429,0.24443 -0.558967,0.24443 -0.229271,0 -0.371381,-0.12885 -0.147795,-0.13264 -0.147795,-0.36001 0,-0.41117 0.333485,-0.64423 0.293695,-0.20275 0.72192,-0.20275 h 0.394119 l 0.354328,-1.00045 h 0.689708 l -0.704866,1.98575 z m -1.225937,-0.68213 h -0.48128 l -0.144005,0.40738 q -0.01895,0.0568 -0.01895,0.10232 0,0.12695 0.161058,0.16106 0.05684,0.0114 0.242535,0.0114 z"
         style="font-style:normal;font-variant:normal;font-weight:normal;font-stretch:normal;font-size:3.88055563px;font-family:Magneto;-inkscape-font-specification:Magneto;stroke-width:0.26458332"
         id="path4233" />
      <path
         d="m 18.62832,266.209 -0.197059,0.54002 h -0.488859 l -0.272852,0.74845 h -0.682129 l 0.267168,-0.74845 h -0.989087 q -0.28801,0 -0.28801,-0.2179 0,-0.0985 0.07769,-0.1819 l 0.621495,-0.67266 q -0.14969,-0.0455 -0.24443,-0.16295 -0.09285,-0.11937 -0.09285,-0.26717 0,-0.19706 0.155374,-0.32969 0.149689,-0.12506 0.348643,-0.12317 0.212218,0 0.360013,0.14211 0.147795,0.14022 0.147795,0.35054 0,0.17432 -0.159164,0.34486 l -0.538124,0.57791 h 0.767395 l 0.504018,-1.37752 h 0.687813 l -0.48128,1.37752 z"
         style="font-style:normal;font-variant:normal;font-weight:normal;font-stretch:normal;font-size:3.88055563px;font-family:Magneto;-inkscape-font-specification:Magneto;stroke-width:0.26458332"
         id="path4235" />
    </g>
    <g
       aria-label="0"
       style="font-style:normal;font-weight:normal;font-size:10.58333302px;line-height:1.25;font-family:sans-serif;letter-spacing:0px;word-spacing:0px;fill:#000000;fill-opacity:1;stroke:none;stroke-width:0.26458332"
       id="text3815-4-22-3">
      <path
         d="m 12.704648,218.13685 q 0,0.076 -0.04961,0.12402 -0.04961,0.0481 -0.125574,0.0481 h -0.643371 q -0.07597,0 -0.124024,-0.0481 -0.04806,-0.0481 -0.04806,-0.12402 v -2.08205 q 0,-0.076 0.04806,-0.12402 0.04806,-0.0481 0.124024,-0.0481 h 0.643371 q 0.07597,0 0.125574,0.0481 0.04961,0.0481 0.04961,0.12402 z m -0.21549,-0.0186 v -2.04483 h -0.559656 v 2.04483 z"
         style="font-style:normal;font-variant:normal;font-weight:normal;font-stretch:normal;font-size:3.17499995px;font-family:'Agency FB';-inkscape-font-specification:'Agency FB';stroke-width:0.26458332"
         id="path4180" />
    </g>
  </g>
</svg>
