<?xml version="1.0" encoding="UTF-8" standalone="no"?>
<!-- Created with Inkscape (http://www.inkscape.org/) -->

<svg
   xmlns:dc="http://purl.org/dc/elements/1.1/"
   xmlns:cc="http://creativecommons.org/ns#"
   xmlns:rdf="http://www.w3.org/1999/02/22-rdf-syntax-ns#"
   xmlns:svg="http://www.w3.org/2000/svg"
   xmlns="http://www.w3.org/2000/svg"
   xmlns:sodipodi="http://sodipodi.sourceforge.net/DTD/sodipodi-0.dtd"
   xmlns:inkscape="http://www.inkscape.org/namespaces/inkscape"
   width="30"
   height="380"
   viewBox="0 0 7.9375005 100.54167"
   version="1.1"
   id="svg8"
   inkscape:version="0.92.5 (2060ec1f9f, 2020-04-08)"
   sodipodi:docname="MIDIPolyExpression.svg">
  <defs
     id="defs2" />
  <sodipodi:namedview
     id="base"
     pagecolor="#ffffff"
     bordercolor="#666666"
     borderopacity="1.0"
     inkscape:pageopacity="0.0"
     inkscape:pageshadow="2"
     inkscape:zoom="2.6720448"
     inkscape:cx="2.6995623"
     inkscape:cy="169.21849"
     inkscape:document-units="mm"
     inkscape:current-layer="layer1"
     showgrid="false"
     units="px"
     inkscape:snap-bbox="true"
     inkscape:snap-page="true"
     inkscape:bbox-nodes="true"
     inkscape:snap-bbox-edge-midpoints="true"
     inkscape:window-width="2304"
     inkscape:window-height="1355"
     inkscape:window-x="-8"
     inkscape:window-y="0"
     inkscape:window-maximized="0"
     inkscape:snap-global="true"
     inkscape:snap-bbox-midpoints="true"
     showguides="true"
     inkscape:guide-bbox="true">
    <sodipodi:guide
       position="3.9687501,79.375003"
       orientation="1,0"
       id="guide946"
       inkscape:locked="false"
       inkscape:label=""
       inkscape:color="rgb(0,0,255)" />
    <sodipodi:guide
       position="20.81637,10.583334"
       orientation="0,1"
       id="guide948"
       inkscape:locked="false"
       inkscape:label=""
       inkscape:color="rgb(0,0,255)" />
    <sodipodi:guide
       position="37.878969,18.520834"
       orientation="0,1"
       id="guide950"
       inkscape:locked="false"
       inkscape:label=""
       inkscape:color="rgb(0,0,255)" />
    <sodipodi:guide
       position="25.252646,26.458334"
       orientation="0,1"
       id="guide952"
       inkscape:locked="false"
       inkscape:label=""
       inkscape:color="rgb(0,0,255)" />
    <sodipodi:guide
       position="34.238948,34.395835"
       orientation="0,1"
       id="guide954"
       inkscape:locked="false"
       inkscape:label=""
       inkscape:color="rgb(0,0,255)" />
    <sodipodi:guide
       position="16.380095,71.437503"
       orientation="0,1"
       id="guide970"
       inkscape:locked="false"
       inkscape:label="Magneto"
       inkscape:color="rgb(0,0,255)" />
  </sodipodi:namedview>
  <metadata
     id="metadata5">
    <rdf:RDF>
      <cc:Work
         rdf:about="">
        <dc:format>image/svg+xml</dc:format>
        <dc:type
           rdf:resource="http://purl.org/dc/dcmitype/StillImage" />
        <dc:title></dc:title>
      </cc:Work>
    </rdf:RDF>
  </metadata>
  <g
     inkscape:label="Layer 1"
     inkscape:groupmode="layer"
     id="layer1"
     transform="translate(0,-196.45832)"
     style="display:inline">
    <path
       style="opacity:1;vector-effect:none;fill:#eeffee;fill-opacity:1;fill-rule:evenodd;stroke:none;stroke-width:0.34370384;stroke-linecap:butt;stroke-linejoin:round;stroke-miterlimit:4;stroke-dasharray:none;stroke-dashoffset:0;stroke-opacity:1;paint-order:normal"
       d="M 0,196.45832 V 296.99999 H 7.9375 V 196.45832 Z m 0.99218748,0.79427 c 0.32870662,0 0.59520582,0.53276 0.59531252,1.1901 3.6e-5,0.65755 -0.266505,1.19063 -0.59531252,1.19063 -0.3288075,0 -0.59534852,-0.53308 -0.59531249,-1.19063 1.0666e-4,-0.65734 0.26660589,-1.1901 0.59531249,-1.1901 z M 2.9765625,293.8255 c 0.3287068,0 0.5952061,0.53277 0.5953124,1.19011 3.6e-5,0.65754 -0.266505,1.19063 -0.5953124,1.19063 -0.3288075,0 -0.5953485,-0.53309 -0.5953125,-1.19063 1.063e-4,-0.65734 0.2666056,-1.19011 0.5953125,-1.19011 z"
       id="rect817"
       inkscape:connector-curvature="0"
       sodipodi:nodetypes="cccccscscsscscs" />
    <path
       style="opacity:1;vector-effect:none;fill:#c2eec2;fill-opacity:1;fill-rule:evenodd;stroke:none;stroke-width:0.85494161;stroke-linecap:butt;stroke-linejoin:round;stroke-miterlimit:4;stroke-dasharray:none;stroke-dashoffset:0;stroke-opacity:1;paint-order:normal"
       d="M 30,354.59766 0,362.64453 V 380 h 30 z"
       transform="matrix(0.26458333,0,0,0.26458333,0,196.45832)"
       id="path854"
       inkscape:connector-curvature="0"
       sodipodi:nodetypes="ccccc" />
    <g
       aria-label="Ahornberg"
       transform="rotate(-15,-2.7675018,0.49093408)"
       style="font-style:normal;font-weight:normal;font-size:10.58333302px;line-height:1.25;font-family:sans-serif;letter-spacing:0px;word-spacing:0px;fill:#000000;fill-opacity:1;stroke:none;stroke-width:0.26458332"
       id="text3789">
      <path
         d="m -70.389839,285.03322 q -0.09664,0.30317 -0.462332,0.30317 h -1.125513 l -0.356223,0.9853 h -0.678339 l 0.356223,-0.9853 h -0.581705 q -0.95498,1.15204 -1.86638,1.15204 -0.265273,0 -0.447174,-0.0985 -0.229271,-0.12506 -0.229271,-0.36759 0,-0.20654 0.170533,-0.4036 0.274746,-0.31643 0.831818,-0.46801 0.435804,-0.11748 0.96256,-0.11748 h 0.367591 l 1.148251,-1.37752 h 0.913294 l -0.488859,1.37752 z m -1.765956,-1.06298 -0.829924,1.06298 h 0.422541 z m -1.548054,1.36615 q -0.710551,0 -0.996666,0.20464 -0.236851,0.17053 -0.236851,0.3619 0,0.16296 0.170533,0.16296 0.234955,0 0.587388,-0.26527 0.308853,-0.22928 0.475596,-0.46423 z"
         style="font-style:normal;font-variant:normal;font-weight:normal;font-stretch:normal;font-size:3.88055563px;font-family:Magneto;-inkscape-font-specification:Magneto;stroke-width:0.26458332"
         id="path4533"
         inkscape:connector-curvature="0" />
    </g>
    <path
       style="opacity:1;vector-effect:none;fill:#c2eec2;fill-opacity:1;fill-rule:evenodd;stroke:none;stroke-width:0.85494161;stroke-linecap:butt;stroke-linejoin:round;stroke-miterlimit:4;stroke-dasharray:none;stroke-dashoffset:0;stroke-opacity:1;paint-order:normal"
       d="M 0,0 V 50.921875 L 30,42.875 V 0 Z"
       transform="matrix(0.26458333,0,0,0.26458333,0,196.45832)"
       id="path848"
       inkscape:connector-curvature="0"
       sodipodi:nodetypes="ccccc" />
    <g
       aria-label="Midi"
       transform="rotate(-15,-9.976857,-1.3134783)"
       style="font-style:normal;font-variant:normal;font-weight:bold;font-stretch:semi-expanded;font-size:2.99861121px;line-height:1.25;font-family:Magneto;-inkscape-font-specification:'Magneto, Bold Semi-Expanded';font-variant-ligatures:normal;font-variant-caps:normal;font-variant-numeric:normal;font-feature-settings:normal;text-align:start;letter-spacing:0px;word-spacing:0px;writing-mode:lr-tb;text-anchor:start;fill:#000000;fill-opacity:1;stroke:none;stroke-width:0.26458332"
       id="text912">
      <path
         d="m -48.774648,196.63918 q -0.0615,0.23426 -0.407038,0.23426 h -0.525636 q -0.245979,0 -0.245979,-0.14202 0,-0.0498 0.03075,-0.13031 l 0.243052,-0.63252 -0.726227,0.79651 q -0.117133,0.13031 -0.256229,0.13031 -0.02636,0 -0.05564,-0.004 -0.166915,-0.019 -0.166915,-0.16691 0,-0.0571 0.02636,-0.12299 l 0.360185,-0.92975 -0.90339,1.09081 q -0.09078,0.11127 -0.266478,0.11127 h -0.297226 l 0.591523,-1.69111 h -0.812612 l 0.221089,-0.36897 h 0.978063 q 0.202055,0 0.202055,0.14788 0,0.0571 -0.02782,0.13763 l -0.314795,0.90779 0.629591,-0.71305 q 0.120062,-0.13763 0.184485,-0.17863 0.106884,-0.0674 0.276727,-0.0674 0.04832,0 0.101028,0.0337 0.08053,0.0527 0.08053,0.15667 0,0.0644 -0.03221,0.14495 l -0.284048,0.73794 0.563704,-0.56663 q 0.120061,-0.12006 0.159594,-0.14495 0.06882,-0.0395 0.197662,-0.0381 0.05125,0 0.108348,0.0381 0.08785,0.0571 0.08785,0.16691 0,0.063 -0.02928,0.1391 l -0.349936,0.92389 z"
         style="font-style:normal;font-variant:normal;font-weight:bold;font-stretch:semi-expanded;font-size:2.99861121px;font-family:Magneto;-inkscape-font-specification:'Magneto, Bold Semi-Expanded';font-variant-ligatures:normal;font-variant-caps:normal;font-variant-numeric:normal;font-feature-settings:normal;text-align:start;writing-mode:lr-tb;text-anchor:start;stroke-width:0.26458332"
         id="path914"
         inkscape:connector-curvature="0" />
      <path
         d="m -47.767302,195.2775 q 0,0.14642 -0.114205,0.24891 -0.112741,0.10249 -0.272335,0.10249 -0.162522,0 -0.276727,-0.10249 -0.112741,-0.10249 -0.112741,-0.24891 0,-0.14495 0.112741,-0.24744 0.114205,-0.10249 0.276727,-0.10249 0.159594,0 0.272335,0.10249 0.114205,0.10249 0.114205,0.24744 z m 0.10542,1.36168 q -0.03807,0.12884 -0.15813,0.19034 -0.08639,0.0439 -0.187413,0.0439 h -0.578346 q -0.209375,0 -0.209375,-0.1757 0,-0.0498 0.0205,-0.10688 l 0.254765,-0.71305 h 0.531492 l -0.270871,0.76137 z"
         style="font-style:normal;font-variant:normal;font-weight:bold;font-stretch:semi-expanded;font-size:2.99861121px;font-family:Magneto;-inkscape-font-specification:'Magneto, Bold Semi-Expanded';font-variant-ligatures:normal;font-variant-caps:normal;font-variant-numeric:normal;font-feature-settings:normal;text-align:start;writing-mode:lr-tb;text-anchor:start;stroke-width:0.26458332"
         id="path916"
         inkscape:connector-curvature="0" />
      <path
         d="m -45.701364,196.63918 q -0.07321,0.23426 -0.358721,0.23426 h -0.557847 q -0.241587,0 -0.237195,-0.15227 -0.161058,0.18888 -0.431929,0.18888 -0.177164,0 -0.286976,-0.0996 -0.114205,-0.10249 -0.114205,-0.27819 0,-0.31772 0.257693,-0.49781 0.226946,-0.15667 0.557847,-0.15667 h 0.304547 l 0.273799,-0.77308 h 0.532956 l -0.54467,1.53445 z m -0.947315,-0.5271 h -0.371898 l -0.111277,0.31479 q -0.01464,0.0439 -0.01464,0.0791 0,0.0981 0.124454,0.12445 0.04393,0.009 0.187414,0.009 z"
         style="font-style:normal;font-variant:normal;font-weight:bold;font-stretch:semi-expanded;font-size:2.99861121px;font-family:Magneto;-inkscape-font-specification:'Magneto, Bold Semi-Expanded';font-variant-ligatures:normal;font-variant-caps:normal;font-variant-numeric:normal;font-feature-settings:normal;text-align:start;writing-mode:lr-tb;text-anchor:start;stroke-width:0.26458332"
         id="path918"
         inkscape:connector-curvature="0" />
      <path
         d="m -44.698411,195.2775 q 0,0.14642 -0.114205,0.24891 -0.112741,0.10249 -0.272335,0.10249 -0.162522,0 -0.276727,-0.10249 -0.112741,-0.10249 -0.112741,-0.24891 0,-0.14495 0.112741,-0.24744 0.114205,-0.10249 0.276727,-0.10249 0.159594,0 0.272335,0.10249 0.114205,0.10249 0.114205,0.24744 z m 0.10542,1.36168 q -0.03807,0.12884 -0.15813,0.19034 -0.08639,0.0439 -0.187413,0.0439 h -0.578346 q -0.209375,0 -0.209375,-0.1757 0,-0.0498 0.0205,-0.10688 l 0.254765,-0.71305 h 0.531492 l -0.270871,0.76137 z"
         style="font-style:normal;font-variant:normal;font-weight:bold;font-stretch:semi-expanded;font-size:2.99861121px;font-family:Magneto;-inkscape-font-specification:'Magneto, Bold Semi-Expanded';font-variant-ligatures:normal;font-variant-caps:normal;font-variant-numeric:normal;font-feature-settings:normal;text-align:start;writing-mode:lr-tb;text-anchor:start;stroke-width:0.26458332"
         id="path920"
         inkscape:connector-curvature="0" />
    </g>
    <g
       aria-label="Poly"
       transform="rotate(-15,-13.868533,-1.8258269)"
       style="font-style:normal;font-variant:normal;font-weight:bold;font-stretch:semi-expanded;font-size:2.82222223px;line-height:1.25;font-family:Magneto;-inkscape-font-specification:'Magneto, Bold Semi-Expanded';font-variant-ligatures:normal;font-variant-caps:normal;font-variant-numeric:normal;font-feature-settings:normal;text-align:start;letter-spacing:0px;word-spacing:0px;writing-mode:lr-tb;text-anchor:start;fill:#000000;fill-opacity:1;stroke:none;stroke-width:0.26458332"
       id="text870">
      <path
         d="m -50.545803,199.71498 q 0,0.4079 -0.563618,0.70005 -0.376204,0.19706 -0.895725,0.29903 l -0.16812,0.47956 h -0.502984 l 0.502984,-1.41387 h 0.49885 l -0.237023,0.66284 q 0.267339,-0.0606 0.474045,-0.18879 0.28801,-0.18053 0.299034,-0.4203 0.0069,-0.15435 -0.103352,-0.20258 -0.06615,-0.0289 -0.238401,-0.0289 h -1.408355 l 0.214974,-0.34726 h 1.419379 q 0.311437,0 0.475423,0.0772 0.232889,0.10886 0.232889,0.38309 z"
         style="font-style:normal;font-variant:normal;font-weight:bold;font-stretch:semi-expanded;font-size:2.82222223px;font-family:Magneto;-inkscape-font-specification:'Magneto, Bold Semi-Expanded';font-variant-ligatures:normal;font-variant-caps:normal;font-variant-numeric:normal;font-feature-settings:normal;text-align:start;writing-mode:lr-tb;text-anchor:start;fill:#000000;fill-opacity:1;stroke-width:0.26458332"
         id="path876"
         inkscape:connector-curvature="0" />
      <path
         d="m -48.42638,200.25655 q -0.05512,0.22049 -0.33073,0.22049 h -0.862652 q 0.04548,0.0303 0.07442,0.11162 0.02894,0.0799 0.02343,0.13918 -0.01929,0.23013 -0.202571,0.36105 -0.175011,0.1254 -0.454753,0.12678 -0.325217,0.003 -0.500228,-0.12816 -0.155718,-0.11576 -0.155718,-0.30455 0,-0.0372 0.0069,-0.0744 0.03583,-0.20808 0.206706,-0.3266 0.181901,-0.1254 0.485069,-0.1254 z m -1.502062,0.22049 h -0.315571 l -0.124023,0.35278 q -0.0096,0.0276 -0.0096,0.0524 0,0.11851 0.220487,0.11851 0.02618,0 0.04547,-0.001 z"
         style="font-style:normal;font-variant:normal;font-weight:bold;font-stretch:semi-expanded;font-size:2.82222223px;font-family:Magneto;-inkscape-font-specification:'Magneto, Bold Semi-Expanded';font-variant-ligatures:normal;font-variant-caps:normal;font-variant-numeric:normal;font-feature-settings:normal;text-align:start;writing-mode:lr-tb;text-anchor:start;fill:#000000;fill-opacity:1;stroke-width:0.26458332"
         id="path878"
         inkscape:connector-curvature="0" />
      <path
         d="m -48.062578,200.97313 q -0.03445,0.12127 -0.158475,0.17915 -0.08682,0.0413 -0.186035,0.0413 h -0.530545 q -0.203949,0 -0.203949,-0.13918 0,-0.0358 0.01516,-0.0813 l 0.511252,-1.44143 h 0.487826 l -0.514008,1.44143 z"
         style="font-style:normal;font-variant:normal;font-weight:bold;font-stretch:semi-expanded;font-size:2.82222223px;font-family:Magneto;-inkscape-font-specification:'Magneto, Bold Semi-Expanded';font-variant-ligatures:normal;font-variant-caps:normal;font-variant-numeric:normal;font-feature-settings:normal;text-align:start;writing-mode:lr-tb;text-anchor:start;fill:#000000;fill-opacity:1;stroke-width:0.26458332"
         id="path880"
         inkscape:connector-curvature="0" />
      <path
         d="m -46.236678,200.97313 q -0.0813,0.22049 -0.304546,0.22049 h -0.336241 q -0.11989,0.32522 -0.252181,0.48231 -0.184658,0.21773 -0.458887,0.21773 -0.172255,0 -0.265962,-0.10059 -0.0813,-0.0882 -0.0813,-0.22738 0,-0.11024 0.04685,-0.2136 0.04823,-0.10335 0.125402,-0.15847 h -0.104731 q -0.09095,0 -0.151584,-0.0551 -0.05926,-0.0565 -0.05926,-0.14056 0,-0.0386 0.01378,-0.0786 l 0.239778,-0.66284 h 0.500228 l -0.257693,0.71658 h 0.279742 l 0.253559,-0.71658 h 0.497472 l -0.253559,0.71658 z m -1.153418,0.2577 q -0.09095,0 -0.169498,0.10197 -0.07717,0.10335 -0.07717,0.20533 0,0.0909 0.07993,0.14607 z"
         style="font-style:normal;font-variant:normal;font-weight:bold;font-stretch:semi-expanded;font-size:2.82222223px;font-family:Magneto;-inkscape-font-specification:'Magneto, Bold Semi-Expanded';font-variant-ligatures:normal;font-variant-caps:normal;font-variant-numeric:normal;font-feature-settings:normal;text-align:start;writing-mode:lr-tb;text-anchor:start;fill:#000000;fill-opacity:1;stroke-width:0.26458332"
         id="path882"
         inkscape:connector-curvature="0" />
    </g>
    <path
       style="display:inline;opacity:1;fill:#c2eec2;fill-opacity:1;stroke-width:0.51181155"
       d="M 5.3908854,225.56249 H 2.5466145 v 61.64791 h 2.8442709 z"
       id="rect4537"
       inkscape:connector-curvature="0" />
    <g
       aria-label="W"
       style="font-style:normal;font-variant:normal;font-weight:normal;font-stretch:condensed;font-size:3.17499995px;line-height:1.25;font-family:'Agency FB';-inkscape-font-specification:'Agency FB, Condensed';font-variant-ligatures:normal;font-variant-caps:normal;font-variant-numeric:normal;font-feature-settings:normal;text-align:center;letter-spacing:0px;word-spacing:0px;writing-mode:lr-tb;text-anchor:middle;fill:#000000;fill-opacity:1;stroke:none;stroke-width:0.26458332"
       id="text914"
       transform="translate(0,-22.886458)">
      <path
         d="m 7.3897299,260.17175 -0.3302124,2.43241 H 6.8843344 l -0.2635498,-1.82934 q -0.00155,-0.0481 -0.0062,-0.14263 0,0.0496 -0.0062,0.14263 l -0.2635498,1.82934 H 6.1696493 l -0.3302124,-2.43241 h 0.2139405 l 0.2061889,1.75028 q 0.00155,0.0589 0.0062,0.17364 -0.00155,-0.0589 0.0062,-0.17364 l 0.2511474,-1.75028 H 6.707601 l 0.2495971,1.75028 q 0.0031,0.0589 0.0062,0.17364 0,-0.0589 0.00775,-0.17364 l 0.2061889,-1.75028 z"
         style="font-style:normal;font-variant:normal;font-weight:normal;font-stretch:condensed;font-size:3.17499995px;font-family:'Agency FB';-inkscape-font-specification:'Agency FB, Condensed';font-variant-ligatures:normal;font-variant-caps:normal;font-variant-numeric:normal;font-feature-settings:normal;text-align:center;writing-mode:lr-tb;text-anchor:middle;stroke-width:0.26458332"
         id="path956"
         inkscape:connector-curvature="0" />
    </g>
    <g
       aria-label="X"
       style="font-style:normal;font-variant:normal;font-weight:normal;font-stretch:condensed;font-size:3.17499995px;line-height:1.25;font-family:'Agency FB';-inkscape-font-specification:'Agency FB, Condensed';font-variant-ligatures:normal;font-variant-caps:normal;font-variant-numeric:normal;font-feature-settings:normal;text-align:center;letter-spacing:0px;word-spacing:0px;writing-mode:lr-tb;text-anchor:middle;fill:#000000;fill-opacity:1;stroke:none;stroke-width:0.26458332"
       id="text918"
       transform="translate(0,-20.902082)">
      <path
         d="M 7.157175,270.54166 H 6.9354831 l -0.3240113,-0.99684 -0.3240112,0.99684 H 6.0719699 q 0,-0.0109 0,-0.0124 l 0.4325317,-1.22938 q -0.4092773,-1.17822 -0.407727,-1.18442 h 0.2263428 l 0.291455,0.92087 0.3023072,-0.92087 h 0.2154907 q 0,0.0109 0,0.0139 l -0.4030762,1.15807 q 0.4309814,1.24799 0.4278809,1.25419 z"
         style="font-style:normal;font-variant:normal;font-weight:normal;font-stretch:condensed;font-size:3.17499995px;font-family:'Agency FB';-inkscape-font-specification:'Agency FB, Condensed';font-variant-ligatures:normal;font-variant-caps:normal;font-variant-numeric:normal;font-feature-settings:normal;text-align:center;writing-mode:lr-tb;text-anchor:middle;stroke-width:0.26458332"
         id="path959"
         inkscape:connector-curvature="0" />
    </g>
    <g
       aria-label="Y"
       style="font-style:normal;font-variant:normal;font-weight:normal;font-stretch:condensed;font-size:3.17499995px;line-height:1.25;font-family:'Agency FB';-inkscape-font-specification:'Agency FB, Condensed';font-variant-ligatures:normal;font-variant-caps:normal;font-variant-numeric:normal;font-feature-settings:normal;text-align:center;letter-spacing:0px;word-spacing:0px;writing-mode:lr-tb;text-anchor:middle;fill:#000000;fill-opacity:1;stroke:none;stroke-width:0.26458332"
       id="text922"
       transform="translate(0,-7.2760418)">
      <path
         d="m 7.1641621,276.0669 -0.2945557,0.98134 q -0.055811,0.14727 -0.1472778,0.49144 v 0.93948 H 6.5068378 v -0.93948 q -0.021704,-0.11782 -0.066663,-0.24805 -0.074414,-0.22324 -0.080615,-0.24339 L 6.0650044,276.0669 q 0,-0.002 0,-0.0139 h 0.2185913 l 0.3333129,1.21388 0.3302124,-1.21388 h 0.2170411 q 0,0.0109 0,0.0139 z"
         style="font-style:normal;font-variant:normal;font-weight:normal;font-stretch:condensed;font-size:3.17499995px;font-family:'Agency FB';-inkscape-font-specification:'Agency FB, Condensed';font-variant-ligatures:normal;font-variant-caps:normal;font-variant-numeric:normal;font-feature-settings:normal;text-align:center;writing-mode:lr-tb;text-anchor:middle;stroke-width:0.26458332"
         id="path962"
         inkscape:connector-curvature="0" />
    </g>
    <g
       aria-label="Channel"
       style="font-style:normal;font-variant:normal;font-weight:normal;font-stretch:condensed;font-size:2.82222223px;line-height:1.25;font-family:'Agency FB';-inkscape-font-specification:'Agency FB, Condensed';font-variant-ligatures:normal;font-variant-caps:normal;font-variant-numeric:normal;font-feature-settings:normal;text-align:start;letter-spacing:0px;word-spacing:0px;writing-mode:lr-tb;text-anchor:start;fill:#000000;fill-opacity:1;stroke:none;stroke-width:0.26458332"
       id="text930"
       transform="translate(0,4.8020867)">
      <path
         d="m 1.4875921,213.52071 q 0,0.0675 -0.044097,0.11025 -0.044097,0.0427 -0.1116211,0.0427 H 0.7765244 q -0.0675239,0 -0.11024305,-0.0427 -0.0427192,-0.0427 -0.0427192,-0.11025 v -1.8507 q 0,-0.0675 0.0427192,-0.11025 0.0427192,-0.0427 0.11024305,-0.0427 h 0.5553494 q 0.067524,0 0.1116211,0.0427 0.044097,0.0427 0.044097,0.11025 v 0.5016 H 1.2946668 v -0.48507 H 0.81510947 v 1.81764 H 1.2946668 v -0.53055 h 0.1929253 z"
         style="font-style:normal;font-variant:normal;font-weight:normal;font-stretch:condensed;font-size:2.82222223px;font-family:'Agency FB';-inkscape-font-specification:'Agency FB, Condensed';font-variant-ligatures:normal;font-variant-caps:normal;font-variant-numeric:normal;font-feature-settings:normal;text-align:start;writing-mode:lr-tb;text-anchor:start;stroke-width:0.26458332"
         id="path972"
         inkscape:connector-curvature="0" />
      <path
         d="M 2.5734862,213.67368 H 2.3902071 v -1.17685 l -0.4037652,0.011 v 1.16582 h -0.183279 v -2.15663 h 0.183279 v 0.853 q 0.1088651,-0.0138 0.2177301,-0.0276 0.1378038,-0.0179 0.216352,-0.0179 0.1529622,0 0.1529622,0.1502 z"
         style="font-style:normal;font-variant:normal;font-weight:normal;font-stretch:condensed;font-size:2.82222223px;font-family:'Agency FB';-inkscape-font-specification:'Agency FB, Condensed';font-variant-ligatures:normal;font-variant-caps:normal;font-variant-numeric:normal;font-feature-settings:normal;text-align:start;writing-mode:lr-tb;text-anchor:start;stroke-width:0.26458332"
         id="path974"
         inkscape:connector-curvature="0" />
      <path
         d="m 3.6304416,213.67368 h -0.180523 v -0.0372 q -0.108865,0.0152 -0.21773,0.0289 -0.1350478,0.0165 -0.216352,0.0165 -0.1502062,0 -0.1502062,-0.14882 v -0.48921 q 0,-0.15434 0.1557183,-0.15434 h 0.431326 v -0.40376 H 3.0585558 v 0.22875 h -0.177767 v -0.226 q 0,-0.15572 0.1543403,-0.15572 h 0.4409722 q 0.1543403,0 0.1543403,0.15572 z m -0.1777669,-0.16675 v -0.47404 H 3.0433973 v 0.48231 z"
         style="font-style:normal;font-variant:normal;font-weight:normal;font-stretch:condensed;font-size:2.82222223px;font-family:'Agency FB';-inkscape-font-specification:'Agency FB, Condensed';font-variant-ligatures:normal;font-variant-caps:normal;font-variant-numeric:normal;font-feature-settings:normal;text-align:start;writing-mode:lr-tb;text-anchor:start;stroke-width:0.26458332"
         id="path976"
         inkscape:connector-curvature="0" />
      <path
         d="M 4.7011774,213.67368 H 4.5178983 v -1.17685 l -0.4037652,0.011 v 1.16582 H 3.930854 v -1.34084 h 0.1832791 v 0.0372 q 0.107487,-0.0138 0.216352,-0.0289 0.1322917,-0.0165 0.21773,-0.0165 0.1529623,0 0.1529623,0.1502 z"
         style="font-style:normal;font-variant:normal;font-weight:normal;font-stretch:condensed;font-size:2.82222223px;font-family:'Agency FB';-inkscape-font-specification:'Agency FB, Condensed';font-variant-ligatures:normal;font-variant-caps:normal;font-variant-numeric:normal;font-feature-settings:normal;text-align:start;writing-mode:lr-tb;text-anchor:start;stroke-width:0.26458332"
         id="path978"
         inkscape:connector-curvature="0" />
      <path
         d="M 5.7705348,213.67368 H 5.5872557 v -1.17685 l -0.4037652,0.011 v 1.16582 H 5.0002114 v -1.34084 h 0.1832791 v 0.0372 q 0.107487,-0.0138 0.216352,-0.0289 0.1322916,-0.0165 0.21773,-0.0165 0.1529623,0 0.1529623,0.1502 z"
         style="font-style:normal;font-variant:normal;font-weight:normal;font-stretch:condensed;font-size:2.82222223px;font-family:'Agency FB';-inkscape-font-specification:'Agency FB, Condensed';font-variant-ligatures:normal;font-variant-caps:normal;font-variant-numeric:normal;font-feature-settings:normal;text-align:start;writing-mode:lr-tb;text-anchor:start;stroke-width:0.26458332"
         id="path980"
         inkscape:connector-curvature="0" />
      <path
         d="m 6.8192221,213.51796 q 0,0.15572 -0.1543403,0.15572 H 6.2239096 q -0.1543403,0 -0.1543403,-0.15572 v -1.0294 q 0,-0.15572 0.1543403,-0.15572 h 0.4409722 q 0.1543403,0 0.1543403,0.15572 v 0.48232 l -0.062012,0.0648 H 6.2473362 v 0.48507 h 0.3941189 v -0.24529 h 0.177767 z m -0.177767,-0.62839 v -0.40376 H 6.2473362 v 0.40376 z"
         style="font-style:normal;font-variant:normal;font-weight:normal;font-stretch:condensed;font-size:2.82222223px;font-family:'Agency FB';-inkscape-font-specification:'Agency FB, Condensed';font-variant-ligatures:normal;font-variant-caps:normal;font-variant-numeric:normal;font-feature-settings:normal;text-align:start;writing-mode:lr-tb;text-anchor:start;stroke-width:0.26458332"
         id="path982"
         inkscape:connector-curvature="0" />
      <path
         d="m 7.3139377,213.67368 h -0.180523 v -2.15663 h 0.180523 z"
         style="font-style:normal;font-variant:normal;font-weight:normal;font-stretch:condensed;font-size:2.82222223px;font-family:'Agency FB';-inkscape-font-specification:'Agency FB, Condensed';font-variant-ligatures:normal;font-variant-caps:normal;font-variant-numeric:normal;font-feature-settings:normal;text-align:start;writing-mode:lr-tb;text-anchor:start;stroke-width:0.26458332"
         id="path984"
         inkscape:connector-curvature="0" />
    </g>
    <g
       aria-label="Range"
       style="font-style:normal;font-variant:normal;font-weight:normal;font-stretch:condensed;font-size:2.82222223px;line-height:1.25;font-family:'Agency FB';-inkscape-font-specification:'Agency FB, Condensed';font-variant-ligatures:normal;font-variant-caps:normal;font-variant-numeric:normal;font-feature-settings:normal;text-align:start;letter-spacing:0px;word-spacing:0px;writing-mode:lr-tb;text-anchor:start;fill:#000000;fill-opacity:1;stroke:none;stroke-width:0.26458332"
       id="text934"
       transform="translate(0,4.8020867)">
      <path
         d="M 2.3233724,216.62265 H 2.1221788 l -0.4010091,-1.1548 0.026183,-0.0386 H 2.0891062 V 214.6355 H 1.5971463 v 1.98713 H 1.405599 V 214.466 h 0.722092 q 0.067524,0 0.110243,0.0427 0.042719,0.0427 0.042719,0.11024 v 0.81856 q 0,0.15572 -0.2094618,0.15572 -0.020671,0 -0.060634,-0.001 -0.039963,-0.003 -0.057878,-0.003 0.1860352,0.51539 0.3706923,1.03353 z"
         style="font-style:normal;font-variant:normal;font-weight:normal;font-stretch:condensed;font-size:2.82222223px;font-family:'Agency FB';-inkscape-font-specification:'Agency FB, Condensed';font-variant-ligatures:normal;font-variant-caps:normal;font-variant-numeric:normal;font-feature-settings:normal;text-align:start;writing-mode:lr-tb;text-anchor:start;stroke-width:0.26458332"
         id="path987"
         inkscape:connector-curvature="0" />
      <path
         d="m 3.3486328,216.62265 h -0.180523 v -0.0372 q -0.108865,0.0152 -0.21773,0.0289 -0.1350478,0.0165 -0.216352,0.0165 -0.1502062,0 -0.1502062,-0.14883 v -0.4892 q 0,-0.15434 0.1557183,-0.15434 h 0.431326 v -0.40377 h -0.394119 v 0.22876 H 2.59898 v -0.226 q 0,-0.15572 0.1543403,-0.15572 h 0.4409722 q 0.1543403,0 0.1543403,0.15572 z m -0.1777669,-0.16674 v -0.47405 H 2.7615885 v 0.48232 z"
         style="font-style:normal;font-variant:normal;font-weight:normal;font-stretch:condensed;font-size:2.82222223px;font-family:'Agency FB';-inkscape-font-specification:'Agency FB, Condensed';font-variant-ligatures:normal;font-variant-caps:normal;font-variant-numeric:normal;font-feature-settings:normal;text-align:start;writing-mode:lr-tb;text-anchor:start;stroke-width:0.26458332"
         id="path989"
         inkscape:connector-curvature="0" />
      <path
         d="m 4.4193685,216.62265 h -0.183279 v -1.17684 l -0.4037652,0.011 v 1.16582 H 3.6490452 v -1.34083 h 0.1832791 v 0.0372 q 0.1074869,-0.0138 0.216352,-0.0289 0.1322916,-0.0165 0.21773,-0.0165 0.1529622,0 0.1529622,0.15021 z"
         style="font-style:normal;font-variant:normal;font-weight:normal;font-stretch:condensed;font-size:2.82222223px;font-family:'Agency FB';-inkscape-font-specification:'Agency FB, Condensed';font-variant-ligatures:normal;font-variant-caps:normal;font-variant-numeric:normal;font-feature-settings:normal;text-align:start;writing-mode:lr-tb;text-anchor:start;stroke-width:0.26458332"
         id="path991"
         inkscape:connector-curvature="0" />
      <path
         d="m 5.4804579,216.97543 q 0,0.15572 -0.1557183,0.15572 h -0.43546 q -0.1584744,0 -0.1584744,-0.19706 0,-0.0234 0.00138,-0.0703 0.00276,-0.0455 0.00276,-0.0661 h 0.180523 v 0.17777 h 0.3830946 v -0.35278 H 4.9967665 q -0.1226454,0 -0.2039496,-0.0813 -0.081304,-0.0827 -0.081304,-0.20671 v -0.7841 q 0,-0.11851 0.071658,-0.19706 0.071658,-0.0799 0.1887912,-0.0799 0.031695,0 0.3265951,0.0455 v -0.0372 h 0.181901 z m -0.181901,-0.51401 v -1.01286 q -0.21773,-0.0138 -0.253559,-0.0138 -0.1515842,0 -0.1515842,0.15434 v 0.71796 q 0,0.15434 0.1515842,0.15434 z"
         style="font-style:normal;font-variant:normal;font-weight:normal;font-stretch:condensed;font-size:2.82222223px;font-family:'Agency FB';-inkscape-font-specification:'Agency FB, Condensed';font-variant-ligatures:normal;font-variant-caps:normal;font-variant-numeric:normal;font-feature-settings:normal;text-align:start;writing-mode:lr-tb;text-anchor:start;stroke-width:0.26458332"
         id="path993"
         inkscape:connector-curvature="0" />
      <path
         d="m 6.531901,216.46693 q 0,0.15572 -0.1543403,0.15572 H 5.9365885 q -0.1543403,0 -0.1543403,-0.15572 v -1.02939 q 0,-0.15572 0.1543403,-0.15572 h 0.4409722 q 0.1543403,0 0.1543403,0.15572 v 0.48231 l -0.062012,0.0648 H 5.9600151 v 0.48507 h 0.394119 V 216.2244 H 6.531901 Z m -0.1777669,-0.62838 v -0.40377 h -0.394119 v 0.40377 z"
         style="font-style:normal;font-variant:normal;font-weight:normal;font-stretch:condensed;font-size:2.82222223px;font-family:'Agency FB';-inkscape-font-specification:'Agency FB, Condensed';font-variant-ligatures:normal;font-variant-caps:normal;font-variant-numeric:normal;font-feature-settings:normal;text-align:start;writing-mode:lr-tb;text-anchor:start;stroke-width:0.26458332"
         id="path995"
         inkscape:connector-curvature="0" />
    </g>
    <g
       aria-label="z"
       style="font-style:normal;font-variant:normal;font-weight:normal;font-stretch:condensed;font-size:3.17499995px;line-height:1.25;font-family:'Agency FB';-inkscape-font-specification:'Agency FB, Condensed';font-variant-ligatures:normal;font-variant-caps:normal;font-variant-numeric:normal;font-feature-settings:normal;text-align:start;letter-spacing:0px;word-spacing:0px;writing-mode:lr-tb;text-anchor:start;fill:#000000;fill-opacity:1;stroke:none;stroke-width:0.26458332"
       id="text883"
       transform="translate(0.0446412,0.39687501)">
      <path
         d="m 6.9416952,284.31165 h -0.79375 v -0.0946 l 0.550354,-1.22938 H 6.2053061 v -0.18449 h 0.7363891 v 0.0961 l -0.5519043,1.22783 h 0.5519043 z"
         style="font-style:normal;font-variant:normal;font-weight:normal;font-stretch:condensed;font-size:3.17499995px;font-family:'Agency FB';-inkscape-font-specification:'Agency FB, Condensed';font-variant-ligatures:normal;font-variant-caps:normal;font-variant-numeric:normal;font-feature-settings:normal;text-align:start;writing-mode:lr-tb;text-anchor:start;stroke-width:0.26458332"
         id="path886"
         inkscape:connector-curvature="0" />
    </g>
    <g
       aria-label="Expr"
       transform="rotate(-15,-10.307087,-1.0187982)"
       style="font-style:normal;font-variant:normal;font-weight:bold;font-stretch:semi-expanded;font-size:2.99861121px;line-height:1.25;font-family:Magneto;-inkscape-font-specification:'Magneto, Bold Semi-Expanded';font-variant-ligatures:normal;font-variant-caps:normal;font-variant-numeric:normal;font-feature-settings:normal;text-align:start;letter-spacing:0px;word-spacing:0px;writing-mode:lr-tb;text-anchor:start;fill:#000000;fill-opacity:1;stroke:none;stroke-width:0.26458332"
       id="text869">
      <path
         d="m -51.525604,201.88942 q 0,0.14495 -0.114205,0.24744 -0.112741,0.10249 -0.275263,0.10249 -0.159594,0 -0.273799,-0.10249 -0.112741,-0.10249 -0.112741,-0.24744 0,-0.0674 0.0205,-0.11714 h -0.172772 q -0.08346,0 -0.142024,0.0703 -0.0571,0.0688 -0.0571,0.15374 0,0.0688 0.04685,0.19766 0.04685,0.12739 0.04685,0.1962 0,0.082 -0.169843,0.16399 -0.244516,0.11713 -0.31626,0.17716 -0.171307,0.14349 -0.171307,0.37776 0,0.1757 0.199126,0.22841 0.0981,0.0264 0.341151,0.0264 h 1.067377 q -0.01903,0.11274 -0.133239,0.17863 -0.09956,0.0556 -0.224018,0.0556 h -1.20208 q -0.269406,0 -0.455355,-0.0922 -0.240123,-0.12007 -0.240123,-0.36019 0,-0.26062 0.260621,-0.47585 0.213768,-0.1757 0.503673,-0.25623 -0.08346,-0.18302 -0.08346,-0.33237 0,-0.28551 0.301618,-0.43046 0.232802,-0.11274 0.553454,-0.11274 h 0.446571 q 0.147881,0 0.251836,0.10542 0.103956,0.10395 0.103956,0.24598 z"
         style="font-style:normal;font-variant:normal;font-weight:bold;font-stretch:semi-expanded;font-size:2.99861121px;font-family:Magneto;-inkscape-font-specification:'Magneto, Bold Semi-Expanded';font-variant-ligatures:normal;font-variant-caps:normal;font-variant-numeric:normal;font-feature-settings:normal;text-align:start;writing-mode:lr-tb;text-anchor:start;stroke-width:0.26458332"
         id="path871"
         inkscape:connector-curvature="0" />
      <path
         d="m -50.099507,202.60247 -0.578345,0.42314 0.380683,0.57249 h -0.594451 l -0.188878,-0.27819 -0.383611,0.27819 h -0.458284 l 0.686694,-0.5066 -0.332366,-0.48903 h 0.610557 l 0.125919,0.18887 0.254764,-0.18887 z"
         style="font-style:normal;font-variant:normal;font-weight:bold;font-stretch:semi-expanded;font-size:2.99861121px;font-family:Magneto;-inkscape-font-specification:'Magneto, Bold Semi-Expanded';font-variant-ligatures:normal;font-variant-caps:normal;font-variant-numeric:normal;font-feature-settings:normal;text-align:start;writing-mode:lr-tb;text-anchor:start;stroke-width:0.26458332"
         id="path873"
         inkscape:connector-curvature="0" />
      <path
         d="m -48.229767,203.36383 q -0.01318,0.11274 -0.118598,0.17717 -0.09371,0.0571 -0.221089,0.0571 h -0.79797 q -0.180092,0 -0.184485,-0.18595 0.06735,-0.0278 0.136168,-0.0542 0.09663,-0.0439 0.146416,-0.10689 0.06735,-0.0835 0.06735,-0.21377 0,-0.0805 -0.07467,-0.14202 -0.07467,-0.0615 -0.16545,-0.0586 l -0.458284,1.32507 h -0.531492 l 0.660338,-1.91366 h 0.530028 l -0.121525,0.35433 q 0.329437,0 0.436321,0.0307 0.260622,0.0718 0.250372,0.3353 -0.0059,0.11713 -0.103955,0.23573 -0.101028,0.12299 -0.232803,0.15959 z"
         style="font-style:normal;font-variant:normal;font-weight:bold;font-stretch:semi-expanded;font-size:2.99861121px;font-family:Magneto;-inkscape-font-specification:'Magneto, Bold Semi-Expanded';font-variant-ligatures:normal;font-variant-caps:normal;font-variant-numeric:normal;font-feature-settings:normal;text-align:start;writing-mode:lr-tb;text-anchor:start;stroke-width:0.26458332"
         id="path875"
         inkscape:connector-curvature="0" />
      <path
         d="m -46.510837,203.36383 q 0,0.10249 -0.11274,0.17277 -0.09956,0.0615 -0.207912,0.0615 h -0.560775 q -0.222554,0 -0.222554,-0.18449 0,-0.0469 0.01904,-0.10102 l 0.16545,-0.47586 H -47.7422 l -0.162522,0.42022 q -0.041,0.10688 -0.177164,0.10688 h -0.155202 l 0.191806,-0.5271 q -0.09078,-0.0205 -0.147881,-0.0908 -0.05564,-0.0717 -0.05564,-0.16398 0,-0.16838 0.156665,-0.26062 0.130311,-0.0761 0.310403,-0.0761 h 0.237195 l -0.12299,0.35726 h 0.809684 l -0.266478,0.76136 z"
         style="font-style:normal;font-variant:normal;font-weight:bold;font-stretch:semi-expanded;font-size:2.99861121px;font-family:Magneto;-inkscape-font-specification:'Magneto, Bold Semi-Expanded';font-variant-ligatures:normal;font-variant-caps:normal;font-variant-numeric:normal;font-feature-settings:normal;text-align:start;writing-mode:lr-tb;text-anchor:start;stroke-width:0.26458332"
         id="path877"
         inkscape:connector-curvature="0" />
    </g>
  </g>
</svg>
