<?xml version="1.0" encoding="UTF-8" standalone="no"?>
<!-- Created with Inkscape (http://www.inkscape.org/) -->

<svg
   xmlns:dc="http://purl.org/dc/elements/1.1/"
   xmlns:cc="http://creativecommons.org/ns#"
   xmlns:rdf="http://www.w3.org/1999/02/22-rdf-syntax-ns#"
   xmlns:svg="http://www.w3.org/2000/svg"
   xmlns="http://www.w3.org/2000/svg"
   xmlns:sodipodi="http://sodipodi.sourceforge.net/DTD/sodipodi-0.dtd"
   xmlns:inkscape="http://www.inkscape.org/namespaces/inkscape"
   width="30"
   height="380"
   viewBox="0 0 7.9375003 100.54167"
   version="1.1"
   id="svg8"
   inkscape:version="0.92.5 (2060ec1f9f, 2020-04-08)"
   sodipodi:docname="MIDIOverAudio.svg">
  <defs
     id="defs2" />
  <sodipodi:namedview
     id="base"
     pagecolor="#ffffff"
     bordercolor="#666666"
     borderopacity="1.0"
     inkscape:pageopacity="0.0"
     inkscape:pageshadow="2"
     inkscape:zoom="2.8527143"
     inkscape:cx="-153.99315"
     inkscape:cy="190"
     inkscape:document-units="mm"
     inkscape:current-layer="layer1"
     showgrid="false"
     units="px"
     inkscape:snap-bbox="true"
     inkscape:snap-page="true"
     inkscape:bbox-nodes="true"
     inkscape:snap-bbox-edge-midpoints="true"
     inkscape:window-width="1920"
     inkscape:window-height="1440"
     inkscape:window-x="-8"
     inkscape:window-y="0"
     inkscape:window-maximized="0"
     inkscape:snap-global="true"
     inkscape:snap-bbox-midpoints="true" />
  <metadata
     id="metadata5">
    <rdf:RDF>
      <cc:Work
         rdf:about="">
        <dc:format>image/svg+xml</dc:format>
        <dc:type
           rdf:resource="http://purl.org/dc/dcmitype/StillImage" />
        <dc:title />
      </cc:Work>
    </rdf:RDF>
  </metadata>
  <g
     inkscape:label="Layer 1"
     inkscape:groupmode="layer"
     id="layer1"
     transform="translate(0,-196.45832)"
     style="display:inline">
    <path
       style="opacity:1;vector-effect:none;fill:#201820;fill-opacity:1;fill-rule:evenodd;stroke:none;stroke-width:1.83711743;stroke-linecap:butt;stroke-linejoin:round;stroke-miterlimit:4;stroke-dasharray:none;stroke-dashoffset:0;stroke-opacity:1;paint-order:normal"
       d="M 0,0 V 380 H 30 V 0 Z M 7.5,3.0019531 A 4.5000004,4.4995068 0 0 1 12,7.5 4.5000004,4.4995068 0 0 1 7.5,12 4.5000004,4.4995068 0 0 1 3,7.5 4.5000004,4.4995068 0 0 1 7.5,3.0019531 Z M 22.5,368.00195 A 4.5000004,4.4995068 0 0 1 27,372.5 4.5000004,4.4995068 0 0 1 22.5,377 4.5000004,4.4995068 0 0 1 18,372.5 a 4.5000004,4.4995068 0 0 1 4.5,-4.49805 z"
       transform="matrix(0.26458333,0,0,0.26458333,0,196.45832)"
       id="rect817"
       inkscape:connector-curvature="0" />
    <path
       style="opacity:1;vector-effect:none;fill:#000000;fill-opacity:1;fill-rule:evenodd;stroke:none;stroke-width:0.85494161;stroke-linecap:butt;stroke-linejoin:round;stroke-miterlimit:4;stroke-dasharray:none;stroke-dashoffset:0;stroke-opacity:1;paint-order:normal"
       d="M 30,354.59766 0,362.64453 V 380 h 30 z"
       transform="matrix(0.26458333,0,0,0.26458333,0,196.45832)"
       id="path854"
       inkscape:connector-curvature="0"
       sodipodi:nodetypes="ccccc" />
    <g
       aria-label="Ahornberg"
       transform="rotate(-15,-2.7675018,0.49093408)"
       style="font-style:normal;font-weight:normal;font-size:10.58333302px;line-height:1.25;font-family:sans-serif;letter-spacing:0px;word-spacing:0px;fill:#908890;fill-opacity:1;stroke:none;stroke-width:0.26458332"
       id="text3789">
      <path
         d="m -70.389839,285.03322 q -0.09664,0.30317 -0.462332,0.30317 h -1.125513 l -0.356223,0.9853 h -0.678339 l 0.356223,-0.9853 h -0.581705 q -0.95498,1.15204 -1.86638,1.15204 -0.265273,0 -0.447174,-0.0985 -0.229271,-0.12506 -0.229271,-0.36759 0,-0.20654 0.170533,-0.4036 0.274746,-0.31643 0.831818,-0.46801 0.435804,-0.11748 0.96256,-0.11748 h 0.367591 l 1.148251,-1.37752 h 0.913294 l -0.488859,1.37752 z m -1.765956,-1.06298 -0.829924,1.06298 h 0.422541 z m -1.548054,1.36615 q -0.710551,0 -0.996666,0.20464 -0.236851,0.17053 -0.236851,0.3619 0,0.16296 0.170533,0.16296 0.234955,0 0.587388,-0.26527 0.308853,-0.22928 0.475596,-0.46423 z"
         style="font-style:normal;font-variant:normal;font-weight:normal;font-stretch:normal;font-size:3.88055563px;font-family:Magneto;-inkscape-font-specification:Magneto;fill:#908890;fill-opacity:1;stroke-width:0.26458332"
         id="path4533"
         inkscape:connector-curvature="0" />
    </g>
    <path
       style="opacity:1;vector-effect:none;fill:#000000;fill-opacity:1;fill-rule:evenodd;stroke:none;stroke-width:0.85494161;stroke-linecap:butt;stroke-linejoin:round;stroke-miterlimit:4;stroke-dasharray:none;stroke-dashoffset:0;stroke-opacity:1;paint-order:normal"
       d="M 0,0 V 50.921875 L 30,42.875 V 0 Z"
       transform="matrix(0.26458333,0,0,0.26458333,0,196.45832)"
       id="path848"
       inkscape:connector-curvature="0"
       sodipodi:nodetypes="ccccc" />
    <g
       aria-label="Audio"
       transform="rotate(-15)"
       style="font-style:normal;font-variant:normal;font-weight:bold;font-stretch:semi-expanded;font-size:2.24013877px;line-height:1.25;font-family:Magneto;-inkscape-font-specification:'Magneto, Bold Semi-Expanded';font-variant-ligatures:normal;font-variant-caps:normal;font-variant-numeric:normal;font-feature-settings:normal;text-align:start;letter-spacing:0px;word-spacing:0px;writing-mode:lr-tb;text-anchor:start;fill:#908890;fill-opacity:1;stroke:none;stroke-width:0.26458332"
       id="text897">
      <path
         d="m -50.686726,200.68609 q -0.05579,0.17501 -0.266892,0.17501 h -0.649728 l -0.205637,0.56879 h -0.391587 l 0.205638,-0.56879 h -0.335802 q -0.551285,0.66504 -1.077411,0.66504 -0.153134,0 -0.258141,-0.0569 -0.132352,-0.0722 -0.132352,-0.2122 0,-0.11922 0.09844,-0.23298 0.158603,-0.18267 0.480186,-0.27017 0.251578,-0.0678 0.555659,-0.0678 h 0.212201 l 0.662853,-0.79521 h 0.527221 l -0.282205,0.79521 z m -1.019438,-0.61363 -0.479093,0.61363 h 0.243922 z m -0.89365,0.78864 q -0.410181,0 -0.575348,0.11813 -0.136727,0.0984 -0.136727,0.20892 0,0.0941 0.09844,0.0941 0.135633,0 0.339083,-0.15313 0.178292,-0.13236 0.274548,-0.26799 z"
         style="font-style:normal;font-variant:normal;font-weight:bold;font-stretch:semi-expanded;font-size:2.24013877px;font-family:Magneto;-inkscape-font-specification:'Magneto, Bold Semi-Expanded';font-variant-ligatures:normal;font-variant-caps:normal;font-variant-numeric:normal;font-feature-settings:normal;text-align:start;writing-mode:lr-tb;text-anchor:start;fill:#908890;fill-opacity:1;stroke-width:0.26458332"
         id="path932"
         inkscape:connector-curvature="0" />
      <path
         d="m -49.800734,201.25488 q -0.02297,0.0908 -0.100631,0.13782 -0.06125,0.0372 -0.130165,0.0372 h -0.457215 q -0.160792,0 -0.160792,-0.10282 -0.08532,0.10282 -0.230795,0.10282 h -0.192512 q -0.0886,0 -0.137821,-0.0459 -0.04594,-0.0427 -0.04594,-0.11267 0,-0.0394 0.01531,-0.0809 l 0.183761,-0.50425 h 0.397056 l -0.204544,0.56879 h 0.222045 l 0.20345,-0.56879 h 0.392681 l -0.199075,0.56879 z"
         style="font-style:normal;font-variant:normal;font-weight:bold;font-stretch:semi-expanded;font-size:2.24013877px;font-family:Magneto;-inkscape-font-specification:'Magneto, Bold Semi-Expanded';font-variant-ligatures:normal;font-variant-caps:normal;font-variant-numeric:normal;font-feature-settings:normal;text-align:start;writing-mode:lr-tb;text-anchor:start;fill:#908890;fill-opacity:1;stroke-width:0.26458332"
         id="path934"
         inkscape:connector-curvature="0" />
      <path
         d="m -48.341581,201.25488 q -0.05469,0.17501 -0.267985,0.17501 h -0.416745 q -0.18048,0 -0.177198,-0.11376 -0.12032,0.1411 -0.322677,0.1411 -0.132352,0 -0.214388,-0.0744 -0.08532,-0.0766 -0.08532,-0.20782 0,-0.23736 0.192512,-0.3719 0.169542,-0.11704 0.416745,-0.11704 h 0.227514 l 0.204544,-0.57754 h 0.398149 l -0.4069,1.14633 z m -0.7077,-0.39378 h -0.27783 l -0.08313,0.23517 q -0.01094,0.0328 -0.01094,0.0591 0,0.0733 0.09297,0.093 0.03281,0.007 0.140009,0.007 z"
         style="font-style:normal;font-variant:normal;font-weight:bold;font-stretch:semi-expanded;font-size:2.24013877px;font-family:Magneto;-inkscape-font-specification:'Magneto, Bold Semi-Expanded';font-variant-ligatures:normal;font-variant-caps:normal;font-variant-numeric:normal;font-feature-settings:normal;text-align:start;writing-mode:lr-tb;text-anchor:start;fill:#908890;fill-opacity:1;stroke-width:0.26458332"
         id="path936"
         inkscape:connector-curvature="0" />
      <path
         d="m -47.592316,200.23762 q 0,0.10939 -0.08532,0.18595 -0.08422,0.0766 -0.20345,0.0766 -0.121414,0 -0.206731,-0.0766 -0.08422,-0.0766 -0.08422,-0.18595 0,-0.10828 0.08422,-0.18485 0.08532,-0.0766 0.206731,-0.0766 0.119226,0 0.20345,0.0766 0.08532,0.0766 0.08532,0.18485 z m 0.07875,1.01726 q -0.02844,0.0962 -0.118132,0.14219 -0.06454,0.0328 -0.140009,0.0328 h -0.432058 q -0.156416,0 -0.156416,-0.13126 0,-0.0372 0.01531,-0.0798 l 0.190325,-0.53269 h 0.397056 l -0.202357,0.56879 z"
         style="font-style:normal;font-variant:normal;font-weight:bold;font-stretch:semi-expanded;font-size:2.24013877px;font-family:Magneto;-inkscape-font-specification:'Magneto, Bold Semi-Expanded';font-variant-ligatures:normal;font-variant-caps:normal;font-variant-numeric:normal;font-feature-settings:normal;text-align:start;writing-mode:lr-tb;text-anchor:start;fill:#908890;fill-opacity:1;stroke-width:0.26458332"
         id="path938"
         inkscape:connector-curvature="0" />
      <path
         d="m -45.649696,200.68609 q -0.04375,0.17501 -0.262516,0.17501 h -0.68473 q 0.0361,0.0241 0.05907,0.0886 0.02297,0.0634 0.01859,0.11048 -0.01531,0.18266 -0.160791,0.28658 -0.138915,0.0995 -0.36096,0.10063 -0.258141,0.002 -0.397056,-0.10173 -0.123601,-0.0919 -0.123601,-0.24173 0,-0.0295 0.0055,-0.0591 0.02844,-0.16516 0.164073,-0.25923 0.144384,-0.0995 0.385023,-0.0995 z m -1.192261,0.17501 h -0.250484 l -0.09844,0.28002 q -0.0077,0.0219 -0.0077,0.0416 0,0.0941 0.175011,0.0941 0.02078,0 0.0361,-10e-4 z"
         style="font-style:normal;font-variant:normal;font-weight:bold;font-stretch:semi-expanded;font-size:2.24013877px;font-family:Magneto;-inkscape-font-specification:'Magneto, Bold Semi-Expanded';font-variant-ligatures:normal;font-variant-caps:normal;font-variant-numeric:normal;font-feature-settings:normal;text-align:start;writing-mode:lr-tb;text-anchor:start;fill:#908890;fill-opacity:1;stroke-width:0.26458332"
         id="path940"
         inkscape:connector-curvature="0" />
    </g>
    <g
       aria-label="over"
       transform="rotate(-15)"
       style="font-style:normal;font-variant:normal;font-weight:bold;font-stretch:semi-expanded;font-size:2.24013877px;line-height:1.25;font-family:Magneto;-inkscape-font-specification:'Magneto, Bold Semi-Expanded';font-variant-ligatures:normal;font-variant-caps:normal;font-variant-numeric:normal;font-feature-settings:normal;text-align:start;letter-spacing:0px;word-spacing:0px;writing-mode:lr-tb;text-anchor:start;fill:#908890;fill-opacity:1;stroke:none;stroke-width:0.26458332"
       id="text908">
      <path
         d="m -49.652486,198.24905 q -0.04375,0.17501 -0.262516,0.17501 h -0.68473 q 0.0361,0.0241 0.05907,0.0886 0.02297,0.0634 0.0186,0.11047 -0.01531,0.18267 -0.160791,0.28658 -0.138915,0.0995 -0.36096,0.10063 -0.258141,0.002 -0.397056,-0.10172 -0.123602,-0.0919 -0.123602,-0.24173 0,-0.0295 0.0055,-0.0591 0.02844,-0.16517 0.164072,-0.25924 0.144384,-0.0995 0.385024,-0.0995 z m -1.192262,0.17501 h -0.250484 l -0.09844,0.28002 q -0.0077,0.0219 -0.0077,0.0416 0,0.0941 0.175011,0.0941 0.02078,0 0.0361,-10e-4 z"
         style="font-style:normal;font-variant:normal;font-weight:bold;font-stretch:semi-expanded;font-size:2.24013877px;font-family:Magneto;-inkscape-font-specification:'Magneto, Bold Semi-Expanded';font-variant-ligatures:normal;font-variant-caps:normal;font-variant-numeric:normal;font-feature-settings:normal;text-align:start;writing-mode:lr-tb;text-anchor:start;fill:#908890;fill-opacity:1;stroke-width:0.26458332"
         id="path923"
         inkscape:connector-curvature="0" />
      <path
         d="m -48.568513,198.24905 q -0.02734,0.0962 -0.125789,0.14219 -0.06891,0.0328 -0.147665,0.0328 h -0.459404 l -0.462685,0.56878 h -0.437527 l -0.04703,-0.74379 h 0.397056 l 0.0066,0.53816 0.410182,-0.53816 z"
         style="font-style:normal;font-variant:normal;font-weight:bold;font-stretch:semi-expanded;font-size:2.24013877px;font-family:Magneto;-inkscape-font-specification:'Magneto, Bold Semi-Expanded';font-variant-ligatures:normal;font-variant-caps:normal;font-variant-numeric:normal;font-feature-settings:normal;text-align:start;writing-mode:lr-tb;text-anchor:start;fill:#908890;fill-opacity:1;stroke-width:0.26458332"
         id="path925"
         inkscape:connector-curvature="0" />
      <path
         d="m -47.693459,198.81783 q -0.02297,0.0842 -0.105006,0.13235 -0.07329,0.0427 -0.167354,0.0427 h -0.609257 q -0.531595,0 -0.531595,-0.32048 0,-0.20564 0.181574,-0.32268 0.156416,-0.10063 0.371898,-0.10063 h 0.158603 q 0.138915,0 0.243922,0.0427 0.140008,0.0569 0.146571,0.17282 0.0055,0.11704 -0.112663,0.1947 h -0.362054 l 0.118133,-0.23517 h -0.230796 l -0.08969,0.26361 q -0.0077,0.023 -0.0077,0.0416 0,0.0886 0.142197,0.0886 z"
         style="font-style:normal;font-variant:normal;font-weight:bold;font-stretch:semi-expanded;font-size:2.24013877px;font-family:Magneto;-inkscape-font-specification:'Magneto, Bold Semi-Expanded';font-variant-ligatures:normal;font-variant-caps:normal;font-variant-numeric:normal;font-feature-settings:normal;text-align:start;writing-mode:lr-tb;text-anchor:start;fill:#908890;fill-opacity:1;stroke-width:0.26458332"
         id="path927"
         inkscape:connector-curvature="0" />
      <path
         d="m -46.418067,198.81783 q 0,0.0766 -0.08422,0.12907 -0.07438,0.0459 -0.155322,0.0459 h -0.418932 q -0.166261,0 -0.166261,-0.13782 0,-0.035 0.01422,-0.0755 l 0.123601,-0.35549 h -0.232983 l -0.121414,0.31392 q -0.03063,0.0798 -0.132352,0.0798 h -0.115944 l 0.14329,-0.39377 q -0.06782,-0.0153 -0.110476,-0.0678 -0.04156,-0.0536 -0.04156,-0.12251 0,-0.12578 0.117039,-0.1947 0.09735,-0.0569 0.231889,-0.0569 h 0.177199 l -0.09188,0.26689 h 0.604881 l -0.199075,0.56878 z"
         style="font-style:normal;font-variant:normal;font-weight:bold;font-stretch:semi-expanded;font-size:2.24013877px;font-family:Magneto;-inkscape-font-specification:'Magneto, Bold Semi-Expanded';font-variant-ligatures:normal;font-variant-caps:normal;font-variant-numeric:normal;font-feature-settings:normal;text-align:start;writing-mode:lr-tb;text-anchor:start;fill:#908890;fill-opacity:1;stroke-width:0.26458332"
         id="path929"
         inkscape:connector-curvature="0" />
    </g>
    <g
       aria-label="Midi"
       transform="rotate(-15)"
       style="font-style:normal;font-variant:normal;font-weight:bold;font-stretch:semi-expanded;font-size:2.99861121px;line-height:1.25;font-family:Magneto;-inkscape-font-specification:'Magneto, Bold Semi-Expanded';font-variant-ligatures:normal;font-variant-caps:normal;font-variant-numeric:normal;font-feature-settings:normal;text-align:start;letter-spacing:0px;word-spacing:0px;writing-mode:lr-tb;text-anchor:start;fill:#908890;fill-opacity:1;stroke:none;stroke-width:0.26458332"
       id="text912">
      <path
         d="m -48.774648,196.63918 q -0.0615,0.23426 -0.407038,0.23426 h -0.525636 q -0.245979,0 -0.245979,-0.14202 0,-0.0498 0.03075,-0.13031 l 0.243052,-0.63252 -0.726227,0.79651 q -0.117133,0.13031 -0.256229,0.13031 -0.02636,0 -0.05564,-0.004 -0.166915,-0.019 -0.166915,-0.16691 0,-0.0571 0.02636,-0.12299 l 0.360185,-0.92975 -0.90339,1.09081 q -0.09078,0.11127 -0.266478,0.11127 h -0.297226 l 0.591523,-1.69111 h -0.812612 l 0.221089,-0.36897 h 0.978063 q 0.202055,0 0.202055,0.14788 0,0.0571 -0.02782,0.13763 l -0.314795,0.90779 0.629591,-0.71305 q 0.120062,-0.13763 0.184485,-0.17863 0.106884,-0.0674 0.276727,-0.0674 0.04832,0 0.101028,0.0337 0.08053,0.0527 0.08053,0.15667 0,0.0644 -0.03221,0.14495 l -0.284048,0.73794 0.563704,-0.56663 q 0.120061,-0.12006 0.159594,-0.14495 0.06882,-0.0395 0.197662,-0.0381 0.05125,0 0.108348,0.0381 0.08785,0.0571 0.08785,0.16691 0,0.063 -0.02928,0.1391 l -0.349936,0.92389 z"
         style="font-style:normal;font-variant:normal;font-weight:bold;font-stretch:semi-expanded;font-size:2.99861121px;font-family:Magneto;-inkscape-font-specification:'Magneto, Bold Semi-Expanded';font-variant-ligatures:normal;font-variant-caps:normal;font-variant-numeric:normal;font-feature-settings:normal;text-align:start;writing-mode:lr-tb;text-anchor:start;fill:#908890;fill-opacity:1;stroke-width:0.26458332"
         id="path914"
         inkscape:connector-curvature="0" />
      <path
         d="m -47.767302,195.2775 q 0,0.14642 -0.114205,0.24891 -0.112741,0.10249 -0.272335,0.10249 -0.162522,0 -0.276727,-0.10249 -0.112741,-0.10249 -0.112741,-0.24891 0,-0.14495 0.112741,-0.24744 0.114205,-0.10249 0.276727,-0.10249 0.159594,0 0.272335,0.10249 0.114205,0.10249 0.114205,0.24744 z m 0.10542,1.36168 q -0.03807,0.12884 -0.15813,0.19034 -0.08639,0.0439 -0.187413,0.0439 h -0.578346 q -0.209375,0 -0.209375,-0.1757 0,-0.0498 0.0205,-0.10688 l 0.254765,-0.71305 h 0.531492 l -0.270871,0.76137 z"
         style="font-style:normal;font-variant:normal;font-weight:bold;font-stretch:semi-expanded;font-size:2.99861121px;font-family:Magneto;-inkscape-font-specification:'Magneto, Bold Semi-Expanded';font-variant-ligatures:normal;font-variant-caps:normal;font-variant-numeric:normal;font-feature-settings:normal;text-align:start;writing-mode:lr-tb;text-anchor:start;fill:#908890;fill-opacity:1;stroke-width:0.26458332"
         id="path916"
         inkscape:connector-curvature="0" />
      <path
         d="m -45.701364,196.63918 q -0.07321,0.23426 -0.358721,0.23426 h -0.557847 q -0.241587,0 -0.237195,-0.15227 -0.161058,0.18888 -0.431929,0.18888 -0.177164,0 -0.286976,-0.0996 -0.114205,-0.10249 -0.114205,-0.27819 0,-0.31772 0.257693,-0.49781 0.226946,-0.15667 0.557847,-0.15667 h 0.304547 l 0.273799,-0.77308 h 0.532956 l -0.54467,1.53445 z m -0.947315,-0.5271 h -0.371898 l -0.111277,0.31479 q -0.01464,0.0439 -0.01464,0.0791 0,0.0981 0.124454,0.12445 0.04393,0.009 0.187414,0.009 z"
         style="font-style:normal;font-variant:normal;font-weight:bold;font-stretch:semi-expanded;font-size:2.99861121px;font-family:Magneto;-inkscape-font-specification:'Magneto, Bold Semi-Expanded';font-variant-ligatures:normal;font-variant-caps:normal;font-variant-numeric:normal;font-feature-settings:normal;text-align:start;writing-mode:lr-tb;text-anchor:start;fill:#908890;fill-opacity:1;stroke-width:0.26458332"
         id="path918"
         inkscape:connector-curvature="0" />
      <path
         d="m -44.698411,195.2775 q 0,0.14642 -0.114205,0.24891 -0.112741,0.10249 -0.272335,0.10249 -0.162522,0 -0.276727,-0.10249 -0.112741,-0.10249 -0.112741,-0.24891 0,-0.14495 0.112741,-0.24744 0.114205,-0.10249 0.276727,-0.10249 0.159594,0 0.272335,0.10249 0.114205,0.10249 0.114205,0.24744 z m 0.10542,1.36168 q -0.03807,0.12884 -0.15813,0.19034 -0.08639,0.0439 -0.187413,0.0439 h -0.578346 q -0.209375,0 -0.209375,-0.1757 0,-0.0498 0.0205,-0.10688 l 0.254765,-0.71305 h 0.531492 l -0.270871,0.76137 z"
         style="font-style:normal;font-variant:normal;font-weight:bold;font-stretch:semi-expanded;font-size:2.99861121px;font-family:Magneto;-inkscape-font-specification:'Magneto, Bold Semi-Expanded';font-variant-ligatures:normal;font-variant-caps:normal;font-variant-numeric:normal;font-feature-settings:normal;text-align:start;writing-mode:lr-tb;text-anchor:start;fill:#908890;fill-opacity:1;stroke-width:0.26458332"
         id="path920"
         inkscape:connector-curvature="0" />
    </g>
    <g
       aria-label="Ports"
       style="font-style:normal;font-variant:normal;font-weight:normal;font-stretch:condensed;font-size:3.17499995px;line-height:1.25;font-family:'Agency FB';-inkscape-font-specification:'Agency FB, Condensed';font-variant-ligatures:normal;font-variant-caps:normal;font-variant-numeric:normal;font-feature-settings:normal;text-align:center;letter-spacing:0px;word-spacing:0px;writing-mode:lr-tb;text-anchor:middle;fill:#ffffff;fill-opacity:1;stroke:none;stroke-width:0.26458332"
       id="text963"
       transform="translate(0,-4.968272)">
      <path
         d="m 2.3781494,216.15979 q 0,0.076 -0.049609,0.12558 -0.048059,0.0481 -0.1240235,0.0481 H 1.6324585 v 0.96273 H 1.4169678 v -2.42621 h 0.7875488 q 0.075964,0 0.1240235,0.0481 0.049609,0.0481 0.049609,0.12402 z m -0.2154907,-0.0186 v -1.08055 H 1.6324585 v 1.08055 z"
         style="font-style:normal;font-variant:normal;font-weight:normal;font-stretch:condensed;font-size:3.17499995px;font-family:'Agency FB';-inkscape-font-specification:'Agency FB, Condensed';font-variant-ligatures:normal;font-variant-caps:normal;font-variant-numeric:normal;font-feature-settings:normal;text-align:center;writing-mode:lr-tb;text-anchor:middle;fill:#ffffff;fill-opacity:1;stroke-width:0.26458332"
         id="path997"
         inkscape:connector-curvature="0" />
      <path
         d="m 3.561023,217.12097 q 0,0.17519 -0.1751831,0.17519 H 2.868042 q -0.1736328,0 -0.1736328,-0.17519 v -1.15806 q 0,-0.17519 0.1736328,-0.17519 h 0.5177979 q 0.1751831,0 0.1751831,0.17519 z m -0.206189,-0.006 v -1.14566 H 2.9005982 v 1.14566 z"
         style="font-style:normal;font-variant:normal;font-weight:normal;font-stretch:condensed;font-size:3.17499995px;font-family:'Agency FB';-inkscape-font-specification:'Agency FB, Condensed';font-variant-ligatures:normal;font-variant-caps:normal;font-variant-numeric:normal;font-feature-settings:normal;text-align:center;writing-mode:lr-tb;text-anchor:middle;fill:#ffffff;fill-opacity:1;stroke-width:0.26458332"
         id="path999"
         inkscape:connector-curvature="0" />
      <path
         d="M 4.6865356,216.28382 H 4.4834472 v -0.31161 l -0.3798218,0.0124 v 1.31155 H 3.8974365 v -1.50844 h 0.2061889 v 0.0419 q 0.1023194,-0.0155 0.206189,-0.0326 0.1240234,-0.0186 0.206189,-0.0186 0.1705322,0 0.1705322,0.16898 z"
         style="font-style:normal;font-variant:normal;font-weight:normal;font-stretch:condensed;font-size:3.17499995px;font-family:'Agency FB';-inkscape-font-specification:'Agency FB, Condensed';font-variant-ligatures:normal;font-variant-caps:normal;font-variant-numeric:normal;font-feature-settings:normal;text-align:center;writing-mode:lr-tb;text-anchor:middle;fill:#ffffff;fill-opacity:1;stroke-width:0.26458332"
         id="path1001"
         inkscape:connector-curvature="0" />
      <path
         d="M 5.4942382,217.29616 H 5.2012328 q -0.1736328,0 -0.1736328,-0.17519 v -1.15186 H 4.8462158 v -0.18139 H 5.0276 v -0.46974 h 0.2030884 v 0.46974 h 0.2635498 v 0.18139 H 5.2306884 v 1.14566 h 0.2635498 z"
         style="font-style:normal;font-variant:normal;font-weight:normal;font-stretch:condensed;font-size:3.17499995px;font-family:'Agency FB';-inkscape-font-specification:'Agency FB, Condensed';font-variant-ligatures:normal;font-variant-caps:normal;font-variant-numeric:normal;font-feature-settings:normal;text-align:center;writing-mode:lr-tb;text-anchor:middle;fill:#ffffff;fill-opacity:1;stroke-width:0.26458332"
         id="path1003"
         inkscape:connector-curvature="0" />
      <path
         d="m 6.5701415,217.12097 q 0,0.17519 -0.1751831,0.17519 H 5.9221191 q -0.1751831,0 -0.1751831,-0.17519 v -0.34261 h 0.2030884 v 0.33951 h 0.4170288 v -0.30075 l -0.539502,-0.44184 q -0.077515,-0.062 -0.077515,-0.16123 v -0.25114 q 0,-0.17519 0.1751831,-0.17519 h 0.4666381 q 0.1751831,0 0.1751831,0.17519 v 0.30075 H 6.3670532 v -0.29765 H 5.9500244 v 0.26355 l 0.5441528,0.44183 q 0.075964,0.0605 0.075964,0.16433 z"
         style="font-style:normal;font-variant:normal;font-weight:normal;font-stretch:condensed;font-size:3.17499995px;font-family:'Agency FB';-inkscape-font-specification:'Agency FB, Condensed';font-variant-ligatures:normal;font-variant-caps:normal;font-variant-numeric:normal;font-feature-settings:normal;text-align:center;writing-mode:lr-tb;text-anchor:middle;fill:#ffffff;fill-opacity:1;stroke-width:0.26458332"
         id="path1005"
         inkscape:connector-curvature="0" />
    </g>
    <g
       aria-label="1"
       style="font-style:normal;font-variant:normal;font-weight:normal;font-stretch:condensed;font-size:3.17499995px;line-height:1.25;font-family:'Agency FB';-inkscape-font-specification:'Agency FB, Condensed';font-variant-ligatures:normal;font-variant-caps:normal;font-variant-numeric:normal;font-feature-settings:normal;text-align:center;letter-spacing:0px;word-spacing:0px;writing-mode:lr-tb;text-anchor:middle;fill:#ffffff;fill-opacity:1;stroke:none;stroke-width:0.26458332"
       id="text967"
       transform="translate(2.6922074,-1.9638844)">
      <path
         d="m 4.0896728,217.62498 h -0.217041 v -1.68206 H 3.778064 v -0.008 l 0.1364257,-0.73639 h 0.1751831 z"
         style="font-style:normal;font-variant:normal;font-weight:normal;font-stretch:condensed;font-size:3.17499995px;font-family:'Agency FB';-inkscape-font-specification:'Agency FB, Condensed';font-variant-ligatures:normal;font-variant-caps:normal;font-variant-numeric:normal;font-feature-settings:normal;text-align:center;writing-mode:lr-tb;text-anchor:middle;fill:#ffffff;fill-opacity:1;stroke-width:0.26458332"
         id="path1032"
         inkscape:connector-curvature="0" />
    </g>
    <g
       aria-label="4"
       style="font-style:normal;font-variant:normal;font-weight:normal;font-stretch:condensed;font-size:3.17499995px;line-height:1.25;font-family:'Agency FB';-inkscape-font-specification:'Agency FB, Condensed';font-variant-ligatures:normal;font-variant-caps:normal;font-variant-numeric:normal;font-feature-settings:normal;text-align:center;letter-spacing:0px;word-spacing:0px;writing-mode:lr-tb;text-anchor:middle;fill:#ffffff;fill-opacity:1;stroke:none;stroke-width:0.26458332"
       id="text971"
       transform="translate(2.6922074,-0.37638436)">
      <path
         d="M 4.5082519,244.77372 H 4.3237671 v 0.63251 H 4.1206787 v -0.63251 H 3.4354492 v -0.11008 l 0.5875611,-1.68361 h 0.2030883 q 0,0.009 0,0.009 l -0.5581054,1.60145 h 0.4526855 v -0.88057 h 0.2030884 v 0.88057 h 0.1844848 z"
         style="font-style:normal;font-variant:normal;font-weight:normal;font-stretch:condensed;font-size:3.17499995px;font-family:'Agency FB';-inkscape-font-specification:'Agency FB, Condensed';font-variant-ligatures:normal;font-variant-caps:normal;font-variant-numeric:normal;font-feature-settings:normal;text-align:center;writing-mode:lr-tb;text-anchor:middle;fill:#ffffff;fill-opacity:1;stroke-width:0.26458332"
         id="path1041"
         inkscape:connector-curvature="0" />
    </g>
    <g
       aria-label="3"
       style="font-style:normal;font-variant:normal;font-weight:normal;font-stretch:condensed;font-size:3.17499995px;line-height:1.25;font-family:'Agency FB';-inkscape-font-specification:'Agency FB, Condensed';font-variant-ligatures:normal;font-variant-caps:normal;font-variant-numeric:normal;font-feature-settings:normal;text-align:center;letter-spacing:0px;word-spacing:0px;writing-mode:lr-tb;text-anchor:middle;fill:#ffffff;fill-opacity:1;stroke:none;stroke-width:0.26458332"
       id="text975"
       transform="translate(2.6922074,-0.90555107)">
      <path
         d="m 4.4694946,235.97373 q 0,0.076 -0.048059,0.12402 -0.048059,0.0481 -0.1240234,0.0481 H 3.672644 q -0.075964,0 -0.1240234,-0.0481 -0.048059,-0.0481 -0.048059,-0.12402 v -0.61547 h 0.2154908 v 0.59687 h 0.5364013 v -0.74259 l -0.4278808,-0.32091 v -0.0481 l 0.4247802,-0.31626 v -0.61702 H 3.7191528 v 0.5457 H 3.5036621 v -0.5643 q 0,-0.076 0.048059,-0.12403 0.048059,-0.0481 0.1240234,-0.0481 h 0.6185669 q 0.075964,0 0.1240235,0.0481 0.048059,0.0481 0.048059,0.12403 v 0.59066 q 0,0.11627 -0.093018,0.18138 l -0.2883545,0.20309 0.291455,0.20309 q 0.093018,0.0636 0.093018,0.18448 z"
         style="font-style:normal;font-variant:normal;font-weight:normal;font-stretch:condensed;font-size:3.17499995px;font-family:'Agency FB';-inkscape-font-specification:'Agency FB, Condensed';font-variant-ligatures:normal;font-variant-caps:normal;font-variant-numeric:normal;font-feature-settings:normal;text-align:center;writing-mode:lr-tb;text-anchor:middle;fill:#ffffff;fill-opacity:1;stroke-width:0.26458332"
         id="path1038"
         inkscape:connector-curvature="0" />
    </g>
    <g
       aria-label="2"
       style="font-style:normal;font-variant:normal;font-weight:normal;font-stretch:condensed;font-size:3.17499995px;line-height:1.25;font-family:'Agency FB';-inkscape-font-specification:'Agency FB, Condensed';font-variant-ligatures:normal;font-variant-caps:normal;font-variant-numeric:normal;font-feature-settings:normal;text-align:center;letter-spacing:0px;word-spacing:0px;writing-mode:lr-tb;text-anchor:middle;fill:#ffffff;fill-opacity:1;stroke:none;stroke-width:0.26458332"
       id="text979"
       transform="translate(2.6922074,-1.4347177)">
      <path
         d="M 4.4524414,226.88541 H 3.4897095 v -0.11473 l 0.7425903,-1.54254 v -0.57826 H 3.7377564 v 0.54571 H 3.5207153 v -0.56431 q 0,-0.076 0.048059,-0.12402 0.048059,-0.0481 0.1240235,-0.0481 h 0.5844604 q 0.075964,0 0.1240234,0.0481 0.048059,0.0481 0.048059,0.12402 v 0.5147 q 0,0.093 -0.057361,0.21239 l -0.6418213,1.33635 H 4.452441 Z"
         style="font-style:normal;font-variant:normal;font-weight:normal;font-stretch:condensed;font-size:3.17499995px;font-family:'Agency FB';-inkscape-font-specification:'Agency FB, Condensed';font-variant-ligatures:normal;font-variant-caps:normal;font-variant-numeric:normal;font-feature-settings:normal;text-align:center;writing-mode:lr-tb;text-anchor:middle;fill:#ffffff;fill-opacity:1;stroke-width:0.26458332"
         id="path1035"
         inkscape:connector-curvature="0" />
    </g>
    <g
       aria-label="5"
       style="font-style:normal;font-variant:normal;font-weight:normal;font-stretch:condensed;font-size:3.17499995px;line-height:1.25;font-family:'Agency FB';-inkscape-font-specification:'Agency FB, Condensed';font-variant-ligatures:normal;font-variant-caps:normal;font-variant-numeric:normal;font-feature-settings:normal;text-align:center;letter-spacing:0px;word-spacing:0px;writing-mode:lr-tb;text-anchor:middle;fill:#ffffff;fill-opacity:1;stroke:none;stroke-width:0.26458332"
       id="text983"
       transform="translate(2.6922074,0.15278231)">
      <path
         d="m 4.4493408,254.49457 q 0,0.076 -0.048059,0.12403 -0.048059,0.0481 -0.1240234,0.0481 H 3.6803955 q -0.075964,0 -0.1240234,-0.0481 -0.046509,-0.0481 -0.046509,-0.12403 v -0.61546 H 3.725354 v 0.59686 H 4.2338501 V 253.3334 H 3.5160645 l 0.027905,-1.09295 h 0.8867676 v 0.19068 H 3.7548096 l -0.026355,0.71159 h 0.5488037 q 0.075964,0 0.1240234,0.0481 0.048059,0.0481 0.048059,0.12402 z"
         style="font-style:normal;font-variant:normal;font-weight:normal;font-stretch:condensed;font-size:3.17499995px;font-family:'Agency FB';-inkscape-font-specification:'Agency FB, Condensed';font-variant-ligatures:normal;font-variant-caps:normal;font-variant-numeric:normal;font-feature-settings:normal;text-align:center;writing-mode:lr-tb;text-anchor:middle;fill:#ffffff;fill-opacity:1;stroke-width:0.26458332"
         id="path1044"
         inkscape:connector-curvature="0" />
    </g>
    <g
       aria-label="8"
       style="font-style:normal;font-variant:normal;font-weight:normal;font-stretch:condensed;font-size:3.17499995px;line-height:1.25;font-family:'Agency FB';-inkscape-font-specification:'Agency FB, Condensed';font-variant-ligatures:normal;font-variant-caps:normal;font-variant-numeric:normal;font-feature-settings:normal;text-align:center;letter-spacing:0px;word-spacing:0px;writing-mode:lr-tb;text-anchor:middle;fill:#ffffff;fill-opacity:1;stroke:none;stroke-width:0.26458332"
       id="text987"
       transform="translate(2.6922074,1.7402823)">
      <path
         d="m 4.4632934,282.27582 q 0,0.076 -0.049609,0.12403 -0.049609,0.0481 -0.1255738,0.0481 H 3.6493897 q -0.075964,0 -0.1240235,-0.0481 -0.046509,-0.0481 -0.046509,-0.12403 v -0.79065 q 0,-0.10387 0.079065,-0.15502 l 0.2356445,-0.15193 -0.2294434,-0.14263 q -0.079065,-0.0496 -0.079065,-0.15658 v -0.68523 q 0,-0.076 0.048059,-0.12402 0.048059,-0.0481 0.1240234,-0.0481 h 0.6278687 q 0.075964,0 0.1240234,0.0481 0.048059,0.0481 0.048059,0.12402 v 0.68523 q 0,0.10697 -0.080615,0.15658 l -0.227893,0.14263 0.2309936,0.15193 q 0.083716,0.0543 0.083716,0.15502 z m -0.2232421,-1.36735 v -0.69609 h -0.539502 v 0.69609 l 0.269751,0.17983 z m 0.0062,1.34875 v -0.80305 l -0.2759521,-0.18139 -0.2759522,0.18139 v 0.80305 z"
         style="font-style:normal;font-variant:normal;font-weight:normal;font-stretch:condensed;font-size:3.17499995px;font-family:'Agency FB';-inkscape-font-specification:'Agency FB, Condensed';font-variant-ligatures:normal;font-variant-caps:normal;font-variant-numeric:normal;font-feature-settings:normal;text-align:center;writing-mode:lr-tb;text-anchor:middle;fill:#ffffff;fill-opacity:1;stroke-width:0.26458332"
         id="path1053"
         inkscape:connector-curvature="0" />
    </g>
    <g
       aria-label="7"
       style="font-style:normal;font-variant:normal;font-weight:normal;font-stretch:condensed;font-size:3.17499995px;line-height:1.25;font-family:'Agency FB';-inkscape-font-specification:'Agency FB, Condensed';font-variant-ligatures:normal;font-variant-caps:normal;font-variant-numeric:normal;font-feature-settings:normal;text-align:center;letter-spacing:0px;word-spacing:0px;writing-mode:lr-tb;text-anchor:middle;fill:#ffffff;fill-opacity:1;stroke:none;stroke-width:0.26458332"
       id="text991"
       transform="translate(2.6922074,1.2111156)">
      <path
         d="M 4.4725952,270.87291 3.9516968,273.1875 H 3.7393066 l 0.5053955,-2.23552 H 3.7269043 v 0.35656 H 3.5114136 v -0.54725 h 0.9611816 q 0,0.11162 0,0.11162 z"
         style="font-style:normal;font-variant:normal;font-weight:normal;font-stretch:condensed;font-size:3.17499995px;font-family:'Agency FB';-inkscape-font-specification:'Agency FB, Condensed';font-variant-ligatures:normal;font-variant-caps:normal;font-variant-numeric:normal;font-feature-settings:normal;text-align:center;writing-mode:lr-tb;text-anchor:middle;fill:#ffffff;fill-opacity:1;stroke-width:0.26458332"
         id="path1050"
         inkscape:connector-curvature="0" />
    </g>
    <g
       aria-label="6"
       style="font-style:normal;font-variant:normal;font-weight:normal;font-stretch:condensed;font-size:3.17499995px;line-height:1.25;font-family:'Agency FB';-inkscape-font-specification:'Agency FB, Condensed';font-variant-ligatures:normal;font-variant-caps:normal;font-variant-numeric:normal;font-feature-settings:normal;text-align:center;letter-spacing:0px;word-spacing:0px;writing-mode:lr-tb;text-anchor:middle;fill:#ffffff;fill-opacity:1;stroke:none;stroke-width:0.26458332"
       id="text995"
       transform="translate(2.6922074,0.68194897)">
      <path
         d="m 4.4586426,263.75498 q 0,0.076 -0.048059,0.12402 -0.046509,0.0481 -0.1224732,0.0481 H 3.6695435 q -0.075964,0 -0.1240235,-0.0481 -0.048059,-0.0481 -0.048059,-0.12402 v -2.08204 q 0,-0.076 0.048059,-0.12403 0.048059,-0.0481 0.1240235,-0.0481 h 0.6123657 q 0.075964,0 0.1224731,0.0481 0.048059,0.0481 0.048059,0.12403 v 0.5364 H 4.2369507 v -0.5178 h -0.523999 v 0.89917 h 0.5751586 q 0.075964,0 0.1224732,0.0481 0.048059,0.0465 0.048059,0.12247 z m -0.2154907,-0.0186 V 262.7783 H 3.7129517 v 0.95808 z"
         style="font-style:normal;font-variant:normal;font-weight:normal;font-stretch:condensed;font-size:3.17499995px;font-family:'Agency FB';-inkscape-font-specification:'Agency FB, Condensed';font-variant-ligatures:normal;font-variant-caps:normal;font-variant-numeric:normal;font-feature-settings:normal;text-align:center;writing-mode:lr-tb;text-anchor:middle;fill:#ffffff;fill-opacity:1;stroke-width:0.26458332"
         id="path1047"
         inkscape:connector-curvature="0" />
    </g>
  </g>
</svg>
