<?xml version="1.0" encoding="UTF-8" standalone="no"?>
<!-- Created with Inkscape (http://www.inkscape.org/) -->

<svg
   xmlns:dc="http://purl.org/dc/elements/1.1/"
   xmlns:cc="http://creativecommons.org/ns#"
   xmlns:rdf="http://www.w3.org/1999/02/22-rdf-syntax-ns#"
   xmlns:svg="http://www.w3.org/2000/svg"
   xmlns="http://www.w3.org/2000/svg"
   xmlns:sodipodi="http://sodipodi.sourceforge.net/DTD/sodipodi-0.dtd"
   xmlns:inkscape="http://www.inkscape.org/namespaces/inkscape"
   width="60"
   height="380"
   viewBox="0 0 15.875001 100.54167"
   version="1.1"
   id="svg8"
   inkscape:version="0.92.5 (2060ec1f9f, 2020-04-08)"
   sodipodi:docname="MIDIController.svg">
  <defs
     id="defs2" />
  <sodipodi:namedview
     id="base"
     pagecolor="#ffffff"
     bordercolor="#666666"
     borderopacity="1.0"
     inkscape:pageopacity="0.0"
     inkscape:pageshadow="2"
     inkscape:zoom="1.8591903"
     inkscape:cx="-0.5696028"
     inkscape:cy="262.85946"
     inkscape:document-units="mm"
     inkscape:current-layer="layer1"
     showgrid="false"
     units="px"
     inkscape:snap-bbox="true"
     inkscape:snap-page="true"
     inkscape:bbox-nodes="true"
     inkscape:snap-bbox-edge-midpoints="true"
     inkscape:window-width="2304"
     inkscape:window-height="1355"
     inkscape:window-x="-8"
     inkscape:window-y="0"
     inkscape:window-maximized="0"
     inkscape:snap-global="true"
     inkscape:snap-bbox-midpoints="true"
     showguides="true"
     inkscape:guide-bbox="true">
    <sodipodi:guide
       position="3.9687501,79.375003"
       orientation="1,0"
       id="guide946"
       inkscape:locked="false"
       inkscape:label=""
       inkscape:color="rgb(0,0,255)" />
    <sodipodi:guide
       position="20.81637,10.583334"
       orientation="0,1"
       id="guide948"
       inkscape:locked="false"
       inkscape:label=""
       inkscape:color="rgb(0,0,255)" />
    <sodipodi:guide
       position="37.878969,18.520834"
       orientation="0,1"
       id="guide950"
       inkscape:locked="false"
       inkscape:label=""
       inkscape:color="rgb(0,0,255)" />
    <sodipodi:guide
       position="25.252646,26.458334"
       orientation="0,1"
       id="guide952"
       inkscape:locked="false"
       inkscape:label=""
       inkscape:color="rgb(0,0,255)" />
    <sodipodi:guide
       position="34.238948,34.395835"
       orientation="0,1"
       id="guide954"
       inkscape:locked="false"
       inkscape:label=""
       inkscape:color="rgb(0,0,255)" />
    <sodipodi:guide
       position="16.380095,71.437503"
       orientation="0,1"
       id="guide970"
       inkscape:locked="false"
       inkscape:label="Magneto"
       inkscape:color="rgb(0,0,255)" />
  </sodipodi:namedview>
  <metadata
     id="metadata5">
    <rdf:RDF>
      <cc:Work
         rdf:about="">
        <dc:format>image/svg+xml</dc:format>
        <dc:type
           rdf:resource="http://purl.org/dc/dcmitype/StillImage" />
        <dc:title />
      </cc:Work>
    </rdf:RDF>
  </metadata>
  <g
     inkscape:label="Layer 1"
     inkscape:groupmode="layer"
     id="layer1"
     transform="translate(0,-196.45832)"
     style="display:inline">
    <path
       style="opacity:1;vector-effect:none;fill:#eeffee;fill-opacity:1;fill-rule:evenodd;stroke:none;stroke-width:1.83711743;stroke-linecap:butt;stroke-linejoin:round;stroke-miterlimit:4;stroke-dasharray:none;stroke-dashoffset:0;stroke-opacity:1;paint-order:normal"
       d="M 0,0 V 380 H 60.000001 V 0 Z M 7.5,3.0019531 C 9.9847114,3.0019532 11.999194,5.0155613 12,7.5 12.000272,9.9852014 9.9854741,12 7.5,12 5.0145259,12 2.9997276,9.9852014 3,7.5 3.0008062,5.0155613 5.0152886,3.0019532 7.5,3.0019531 Z m 15,364.9999969 c 2.484713,0 4.499196,2.01361 4.5,4.49805 2.72e-4,2.4852 -2.014526,4.5 -4.5,4.5 -2.485474,0 -4.500272,-2.0148 -4.5,-4.5 8.04e-4,-2.48444 2.015287,-4.49805 4.5,-4.49805 z"
       id="rect817"
       inkscape:connector-curvature="0"
       transform="matrix(0.26458333,0,0,0.26458333,0,196.45832)"
       sodipodi:nodetypes="cccccscscsscscs" />
    <path
       style="opacity:1;vector-effect:none;fill:#c2eec2;fill-opacity:1;fill-rule:evenodd;stroke:none;stroke-width:0.85494161;stroke-linecap:butt;stroke-linejoin:round;stroke-miterlimit:4;stroke-dasharray:none;stroke-dashoffset:0;stroke-opacity:1;paint-order:normal"
       d="M 30,354.59766 0,362.64453 V 380 h 30 z"
       transform="matrix(0.26458333,0,0,0.26458333,0,196.45832)"
       id="path854"
       inkscape:connector-curvature="0"
       sodipodi:nodetypes="ccccc" />
    <g
       aria-label="Ahornberg"
       transform="rotate(-15,-2.7675018,0.49093408)"
       style="font-style:normal;font-weight:normal;font-size:10.58333302px;line-height:1.25;font-family:sans-serif;letter-spacing:0px;word-spacing:0px;fill:#000000;fill-opacity:1;stroke:none;stroke-width:0.26458332"
       id="text3789">
      <path
         d="m -70.389839,285.03322 q -0.09664,0.30317 -0.462332,0.30317 h -1.125513 l -0.356223,0.9853 h -0.678339 l 0.356223,-0.9853 h -0.581705 q -0.95498,1.15204 -1.86638,1.15204 -0.265273,0 -0.447174,-0.0985 -0.229271,-0.12506 -0.229271,-0.36759 0,-0.20654 0.170533,-0.4036 0.274746,-0.31643 0.831818,-0.46801 0.435804,-0.11748 0.96256,-0.11748 h 0.367591 l 1.148251,-1.37752 h 0.913294 l -0.488859,1.37752 z m -1.765956,-1.06298 -0.829924,1.06298 h 0.422541 z m -1.548054,1.36615 q -0.710551,0 -0.996666,0.20464 -0.236851,0.17053 -0.236851,0.3619 0,0.16296 0.170533,0.16296 0.234955,0 0.587388,-0.26527 0.308853,-0.22928 0.475596,-0.46423 z"
         style="font-style:normal;font-variant:normal;font-weight:normal;font-stretch:normal;font-size:3.88055563px;font-family:Magneto;-inkscape-font-specification:Magneto;stroke-width:0.26458332"
         id="path4533"
         inkscape:connector-curvature="0" />
    </g>
    <path
       style="opacity:1;vector-effect:none;fill:#c2eec2;fill-opacity:1;fill-rule:evenodd;stroke:none;stroke-width:0.85494161;stroke-linecap:butt;stroke-linejoin:round;stroke-miterlimit:4;stroke-dasharray:none;stroke-dashoffset:0;stroke-opacity:1;paint-order:normal"
       d="M 0,0 V 50.921875 L 30,42.875 V 0 Z"
       transform="matrix(0.26458333,0,0,0.26458333,0,196.45832)"
       id="path848"
       inkscape:connector-curvature="0"
       sodipodi:nodetypes="ccccc" />
    <g
       aria-label="Midi"
       transform="rotate(-15,3.8916752,0.51234868)"
       style="font-style:normal;font-variant:normal;font-weight:bold;font-stretch:semi-expanded;font-size:2.99861121px;line-height:1.25;font-family:Magneto;-inkscape-font-specification:'Magneto, Bold Semi-Expanded';font-variant-ligatures:normal;font-variant-caps:normal;font-variant-numeric:normal;font-feature-settings:normal;text-align:start;letter-spacing:0px;word-spacing:0px;writing-mode:lr-tb;text-anchor:start;fill:#000000;fill-opacity:1;stroke:none;stroke-width:0.26458332"
       id="text912">
      <path
         d="m -48.774648,196.63918 q -0.0615,0.23426 -0.407038,0.23426 h -0.525636 q -0.245979,0 -0.245979,-0.14202 0,-0.0498 0.03075,-0.13031 l 0.243052,-0.63252 -0.726227,0.79651 q -0.117133,0.13031 -0.256229,0.13031 -0.02636,0 -0.05564,-0.004 -0.166915,-0.019 -0.166915,-0.16691 0,-0.0571 0.02636,-0.12299 l 0.360185,-0.92975 -0.90339,1.09081 q -0.09078,0.11127 -0.266478,0.11127 h -0.297226 l 0.591523,-1.69111 h -0.812612 l 0.221089,-0.36897 h 0.978063 q 0.202055,0 0.202055,0.14788 0,0.0571 -0.02782,0.13763 l -0.314795,0.90779 0.629591,-0.71305 q 0.120062,-0.13763 0.184485,-0.17863 0.106884,-0.0674 0.276727,-0.0674 0.04832,0 0.101028,0.0337 0.08053,0.0527 0.08053,0.15667 0,0.0644 -0.03221,0.14495 l -0.284048,0.73794 0.563704,-0.56663 q 0.120061,-0.12006 0.159594,-0.14495 0.06882,-0.0395 0.197662,-0.0381 0.05125,0 0.108348,0.0381 0.08785,0.0571 0.08785,0.16691 0,0.063 -0.02928,0.1391 l -0.349936,0.92389 z"
         style="font-style:normal;font-variant:normal;font-weight:bold;font-stretch:semi-expanded;font-size:2.99861121px;font-family:Magneto;-inkscape-font-specification:'Magneto, Bold Semi-Expanded';font-variant-ligatures:normal;font-variant-caps:normal;font-variant-numeric:normal;font-feature-settings:normal;text-align:start;writing-mode:lr-tb;text-anchor:start;stroke-width:0.26458332"
         id="path914"
         inkscape:connector-curvature="0" />
      <path
         d="m -47.767302,195.2775 q 0,0.14642 -0.114205,0.24891 -0.112741,0.10249 -0.272335,0.10249 -0.162522,0 -0.276727,-0.10249 -0.112741,-0.10249 -0.112741,-0.24891 0,-0.14495 0.112741,-0.24744 0.114205,-0.10249 0.276727,-0.10249 0.159594,0 0.272335,0.10249 0.114205,0.10249 0.114205,0.24744 z m 0.10542,1.36168 q -0.03807,0.12884 -0.15813,0.19034 -0.08639,0.0439 -0.187413,0.0439 h -0.578346 q -0.209375,0 -0.209375,-0.1757 0,-0.0498 0.0205,-0.10688 l 0.254765,-0.71305 h 0.531492 l -0.270871,0.76137 z"
         style="font-style:normal;font-variant:normal;font-weight:bold;font-stretch:semi-expanded;font-size:2.99861121px;font-family:Magneto;-inkscape-font-specification:'Magneto, Bold Semi-Expanded';font-variant-ligatures:normal;font-variant-caps:normal;font-variant-numeric:normal;font-feature-settings:normal;text-align:start;writing-mode:lr-tb;text-anchor:start;stroke-width:0.26458332"
         id="path916"
         inkscape:connector-curvature="0" />
      <path
         d="m -45.701364,196.63918 q -0.07321,0.23426 -0.358721,0.23426 h -0.557847 q -0.241587,0 -0.237195,-0.15227 -0.161058,0.18888 -0.431929,0.18888 -0.177164,0 -0.286976,-0.0996 -0.114205,-0.10249 -0.114205,-0.27819 0,-0.31772 0.257693,-0.49781 0.226946,-0.15667 0.557847,-0.15667 h 0.304547 l 0.273799,-0.77308 h 0.532956 l -0.54467,1.53445 z m -0.947315,-0.5271 h -0.371898 l -0.111277,0.31479 q -0.01464,0.0439 -0.01464,0.0791 0,0.0981 0.124454,0.12445 0.04393,0.009 0.187414,0.009 z"
         style="font-style:normal;font-variant:normal;font-weight:bold;font-stretch:semi-expanded;font-size:2.99861121px;font-family:Magneto;-inkscape-font-specification:'Magneto, Bold Semi-Expanded';font-variant-ligatures:normal;font-variant-caps:normal;font-variant-numeric:normal;font-feature-settings:normal;text-align:start;writing-mode:lr-tb;text-anchor:start;stroke-width:0.26458332"
         id="path918"
         inkscape:connector-curvature="0" />
      <path
         d="m -44.698411,195.2775 q 0,0.14642 -0.114205,0.24891 -0.112741,0.10249 -0.272335,0.10249 -0.162522,0 -0.276727,-0.10249 -0.112741,-0.10249 -0.112741,-0.24891 0,-0.14495 0.112741,-0.24744 0.114205,-0.10249 0.276727,-0.10249 0.159594,0 0.272335,0.10249 0.114205,0.10249 0.114205,0.24744 z m 0.10542,1.36168 q -0.03807,0.12884 -0.15813,0.19034 -0.08639,0.0439 -0.187413,0.0439 h -0.578346 q -0.209375,0 -0.209375,-0.1757 0,-0.0498 0.0205,-0.10688 l 0.254765,-0.71305 h 0.531492 l -0.270871,0.76137 z"
         style="font-style:normal;font-variant:normal;font-weight:bold;font-stretch:semi-expanded;font-size:2.99861121px;font-family:Magneto;-inkscape-font-specification:'Magneto, Bold Semi-Expanded';font-variant-ligatures:normal;font-variant-caps:normal;font-variant-numeric:normal;font-feature-settings:normal;text-align:start;writing-mode:lr-tb;text-anchor:start;stroke-width:0.26458332"
         id="path920"
         inkscape:connector-curvature="0" />
    </g>
    <path
       style="display:inline;opacity:1;fill:#c2eec2;fill-opacity:1;stroke-width:0.51181155"
       d="m 13.328385,225.56249 h -2.844271 v 61.64791 h 2.844271 z"
       id="rect4537"
       inkscape:connector-curvature="0" />
    <g
       aria-label="Controller"
       transform="matrix(0.91171398,-0.25881905,0.24429302,0.96592583,-0.86608094,0)"
       style="font-style:normal;font-variant:normal;font-weight:bold;font-stretch:semi-expanded;font-size:3.17499995px;line-height:1.25;font-family:Magneto;-inkscape-font-specification:'Magneto, Bold Semi-Expanded';font-variant-ligatures:normal;font-variant-caps:normal;font-variant-numeric:normal;font-feature-settings:normal;text-align:start;letter-spacing:0px;word-spacing:0px;writing-mode:lr-tb;text-anchor:start;fill:#000000;fill-opacity:1;stroke:none;stroke-width:0.26458332"
       id="text869">
      <path
         d="m -50.3936,199.37708 q 0,0.16278 -0.128674,0.2744 -0.122473,0.10542 -0.286804,0.10542 -0.165882,0 -0.289905,-0.10542 -0.128674,-0.11162 -0.128674,-0.2744 0,-0.0543 0.0124,-0.093 -0.331763,0.003 -0.603064,0.34417 -0.254248,0.32246 -0.254248,0.66352 0,0.64027 0.835608,0.64027 h 0.779797 q -0.04806,0.24805 -0.376721,0.24805 h -0.572058 q -0.534851,0 -0.868164,-0.15503 -0.457336,-0.21394 -0.452686,-0.69608 0.0031,-0.26975 0.165882,-0.5395 0.221692,-0.36897 0.629419,-0.58291 0.395324,-0.20774 0.840258,-0.20774 h 0.310059 q 0.150378,0 0.268201,0.11472 0.119372,0.11472 0.119372,0.26355 z"
         style="font-style:normal;font-variant:normal;font-weight:bold;font-stretch:semi-expanded;font-size:3.17499995px;font-family:Magneto;-inkscape-font-specification:'Magneto, Bold Semi-Expanded';font-variant-ligatures:normal;font-variant-caps:normal;font-variant-numeric:normal;font-feature-settings:normal;text-align:start;writing-mode:lr-tb;text-anchor:start;stroke-width:0.26458332"
         id="path871"
         inkscape:connector-curvature="0" />
      <path
         d="m -47.824764,200.12587 q -0.06201,0.24805 -0.372071,0.24805 h -0.970483 q 0.05116,0.0341 0.08372,0.12557 0.03256,0.0899 0.02636,0.15658 -0.0217,0.2589 -0.227893,0.40618 -0.196887,0.14107 -0.511597,0.14262 -0.365869,0.003 -0.562756,-0.14417 -0.175183,-0.13023 -0.175183,-0.34262 0,-0.0419 0.0078,-0.0837 0.04031,-0.2341 0.232544,-0.36742 0.204639,-0.14108 0.545703,-0.14108 z m -1.68982,0.24805 h -0.355017 l -0.139526,0.39687 q -0.01085,0.031 -0.01085,0.0589 0,0.13333 0.248047,0.13333 0.02945,0 0.05116,-0.002 z"
         style="font-style:normal;font-variant:normal;font-weight:bold;font-stretch:semi-expanded;font-size:3.17499995px;font-family:Magneto;-inkscape-font-specification:'Magneto, Bold Semi-Expanded';font-variant-ligatures:normal;font-variant-caps:normal;font-variant-numeric:normal;font-feature-settings:normal;text-align:start;writing-mode:lr-tb;text-anchor:start;stroke-width:0.26458332"
         id="path873"
         inkscape:connector-curvature="0" />
      <path
         d="m -46.491512,200.93202 q -0.04031,0.13643 -0.178284,0.20154 -0.09767,0.0465 -0.20929,0.0465 h -0.618566 q -0.212391,0 -0.212391,-0.13953 0,-0.0465 0.0217,-0.10852 l 0.117822,-0.33331 -0.533301,0.45113 q -0.187585,0.13023 -0.308508,0.13023 h -0.285254 l 0.37052,-1.0542 h 0.559656 l -0.175184,0.49609 0.47284,-0.38757 q 0.192236,-0.15658 0.417029,-0.15038 0.151928,0.006 0.151928,0.16123 0,0.0574 -0.0248,0.12868 l -0.199988,0.5581 z"
         style="font-style:normal;font-variant:normal;font-weight:bold;font-stretch:semi-expanded;font-size:3.17499995px;font-family:Magneto;-inkscape-font-specification:'Magneto, Bold Semi-Expanded';font-variant-ligatures:normal;font-variant-caps:normal;font-variant-numeric:normal;font-feature-settings:normal;text-align:start;writing-mode:lr-tb;text-anchor:start;stroke-width:0.26458332"
         id="path875"
         inkscape:connector-curvature="0" />
      <path
         d="m -45.128805,200.93202 q -0.07286,0.24805 -0.387573,0.24805 h -0.790649 q -0.229444,0 -0.229444,-0.16123 0,-0.0403 0.01705,-0.0868 l 0.196888,-0.5581 h -0.254248 l 0.09767,-0.24805 q 0.271301,-0.0698 0.403076,-0.17828 0.148828,-0.12248 0.31781,-0.44339 h 0.302307 l -0.218591,0.62167 h 0.399976 q -0.09612,0.24805 -0.390674,0.24805 h -0.102319 l -0.193787,0.5581 z"
         style="font-style:normal;font-variant:normal;font-weight:bold;font-stretch:semi-expanded;font-size:3.17499995px;font-family:Magneto;-inkscape-font-specification:'Magneto, Bold Semi-Expanded';font-variant-ligatures:normal;font-variant-caps:normal;font-variant-numeric:normal;font-feature-settings:normal;text-align:start;writing-mode:lr-tb;text-anchor:start;stroke-width:0.26458332"
         id="path877"
         inkscape:connector-curvature="0" />
      <path
         d="m -43.314962,200.93202 q 0,0.10852 -0.119373,0.18294 -0.10542,0.0651 -0.220141,0.0651 h -0.593763 q -0.235644,0 -0.235644,-0.19534 0,-0.0496 0.02015,-0.10697 l 0.175183,-0.50384 h -0.330213 l -0.172082,0.44493 q -0.04341,0.11317 -0.187586,0.11317 h -0.164331 l 0.203089,-0.5581 q -0.09612,-0.0217 -0.15658,-0.0961 -0.05891,-0.076 -0.05891,-0.17363 0,-0.17829 0.165881,-0.27596 0.137976,-0.0806 0.328662,-0.0806 h 0.251148 l -0.130225,0.37827 h 0.857312 l -0.282153,0.80615 z"
         style="font-style:normal;font-variant:normal;font-weight:bold;font-stretch:semi-expanded;font-size:3.17499995px;font-family:Magneto;-inkscape-font-specification:'Magneto, Bold Semi-Expanded';font-variant-ligatures:normal;font-variant-caps:normal;font-variant-numeric:normal;font-feature-settings:normal;text-align:start;writing-mode:lr-tb;text-anchor:start;stroke-width:0.26458332"
         id="path879"
         inkscape:connector-curvature="0" />
      <path
         d="m -40.674813,200.12587 q -0.06201,0.24805 -0.37207,0.24805 h -0.970484 q 0.05116,0.0341 0.08372,0.12557 0.03256,0.0899 0.02635,0.15658 -0.0217,0.2589 -0.227893,0.40618 -0.196887,0.14107 -0.511597,0.14262 -0.365869,0.003 -0.562756,-0.14417 -0.175183,-0.13023 -0.175183,-0.34262 0,-0.0419 0.0078,-0.0837 0.04031,-0.2341 0.232544,-0.36742 0.204639,-0.14108 0.545703,-0.14108 z m -1.689819,0.24805 h -0.355018 l -0.139526,0.39687 q -0.01085,0.031 -0.01085,0.0589 0,0.13333 0.248047,0.13333 0.02946,0 0.05116,-0.002 z"
         style="font-style:normal;font-variant:normal;font-weight:bold;font-stretch:semi-expanded;font-size:3.17499995px;font-family:Magneto;-inkscape-font-specification:'Magneto, Bold Semi-Expanded';font-variant-ligatures:normal;font-variant-caps:normal;font-variant-numeric:normal;font-feature-settings:normal;text-align:start;writing-mode:lr-tb;text-anchor:start;stroke-width:0.26458332"
         id="path881"
         inkscape:connector-curvature="0" />
      <path
         d="m -40.265536,200.93202 q -0.03876,0.13643 -0.178284,0.20154 -0.09767,0.0465 -0.209289,0.0465 h -0.596863 q -0.229443,0 -0.229443,-0.15658 0,-0.0403 0.01705,-0.0915 l 0.575159,-1.6216 h 0.548803 l -0.578259,1.6216 z"
         style="font-style:normal;font-variant:normal;font-weight:bold;font-stretch:semi-expanded;font-size:3.17499995px;font-family:Magneto;-inkscape-font-specification:'Magneto, Bold Semi-Expanded';font-variant-ligatures:normal;font-variant-caps:normal;font-variant-numeric:normal;font-feature-settings:normal;text-align:start;writing-mode:lr-tb;text-anchor:start;stroke-width:0.26458332"
         id="path883"
         inkscape:connector-curvature="0" />
      <path
         d="m -39.074911,200.93202 q -0.03876,0.13643 -0.178283,0.20154 -0.09767,0.0465 -0.20929,0.0465 h -0.596863 q -0.229443,0 -0.229443,-0.15658 0,-0.0403 0.01705,-0.0915 l 0.575159,-1.6216 h 0.548803 l -0.578259,1.6216 z"
         style="font-style:normal;font-variant:normal;font-weight:bold;font-stretch:semi-expanded;font-size:3.17499995px;font-family:Magneto;-inkscape-font-specification:'Magneto, Bold Semi-Expanded';font-variant-ligatures:normal;font-variant-caps:normal;font-variant-numeric:normal;font-feature-settings:normal;text-align:start;writing-mode:lr-tb;text-anchor:start;stroke-width:0.26458332"
         id="path888"
         inkscape:connector-curvature="0" />
      <path
         d="m -37.135495,200.93202 q -0.03256,0.11937 -0.148828,0.18759 -0.10387,0.0605 -0.237195,0.0605 h -0.863513 q -0.753443,0 -0.753443,-0.45424 0,-0.29145 0.257349,-0.45733 0.221692,-0.14263 0.5271,-0.14263 h 0.224792 q 0.196887,0 0.345716,0.0605 0.198437,0.0806 0.207739,0.24495 0.0078,0.16588 -0.15968,0.27595 h -0.513147 l 0.167431,-0.33331 h -0.327112 l -0.127124,0.37362 q -0.01085,0.0326 -0.01085,0.0589 0,0.12557 0.201538,0.12557 z"
         style="font-style:normal;font-variant:normal;font-weight:bold;font-stretch:semi-expanded;font-size:3.17499995px;font-family:Magneto;-inkscape-font-specification:'Magneto, Bold Semi-Expanded';font-variant-ligatures:normal;font-variant-caps:normal;font-variant-numeric:normal;font-feature-settings:normal;text-align:start;writing-mode:lr-tb;text-anchor:start;stroke-width:0.26458332"
         id="path890"
         inkscape:connector-curvature="0" />
      <path
         d="m -35.327853,200.93202 q 0,0.10852 -0.119372,0.18294 -0.10542,0.0651 -0.220142,0.0651 h -0.593762 q -0.235645,0 -0.235645,-0.19534 0,-0.0496 0.02015,-0.10697 l 0.175183,-0.50384 h -0.330212 l -0.172083,0.44493 q -0.04341,0.11317 -0.187585,0.11317 h -0.164331 l 0.203088,-0.5581 q -0.09612,-0.0217 -0.156579,-0.0961 -0.05891,-0.076 -0.05891,-0.17363 0,-0.17829 0.165881,-0.27596 0.137976,-0.0806 0.328662,-0.0806 h 0.251148 l -0.130225,0.37827 h 0.857312 l -0.282153,0.80615 z"
         style="font-style:normal;font-variant:normal;font-weight:bold;font-stretch:semi-expanded;font-size:3.17499995px;font-family:Magneto;-inkscape-font-specification:'Magneto, Bold Semi-Expanded';font-variant-ligatures:normal;font-variant-caps:normal;font-variant-numeric:normal;font-feature-settings:normal;text-align:start;writing-mode:lr-tb;text-anchor:start;stroke-width:0.26458332"
         id="path892"
         inkscape:connector-curvature="0" />
    </g>
  </g>
</svg>
