<?xml version="1.0" encoding="UTF-8" standalone="no"?>
<!-- Created with Inkscape (http://www.inkscape.org/) -->

<svg
   xmlns:dc="http://purl.org/dc/elements/1.1/"
   xmlns:cc="http://creativecommons.org/ns#"
   xmlns:rdf="http://www.w3.org/1999/02/22-rdf-syntax-ns#"
   xmlns:svg="http://www.w3.org/2000/svg"
   xmlns="http://www.w3.org/2000/svg"
   xmlns:sodipodi="http://sodipodi.sourceforge.net/DTD/sodipodi-0.dtd"
   xmlns:inkscape="http://www.inkscape.org/namespaces/inkscape"
   width="28"
   height="28"
   viewBox="0 0 7.4083328 7.4083328"
   version="1.1"
   id="svg16908"
   inkscape:version="0.92.5 (2060ec1f9f, 2020-04-08)"
   sodipodi:docname="Small.svg">
  <defs
     id="defs16902">
    <clipPath
       clipPathUnits="userSpaceOnUse"
       id="clipPath6367">
      <path
         d="M 0,3193 H 2089 V 0 H 0 Z"
         id="path6365"
         inkscape:connector-curvature="0" />
    </clipPath>
  </defs>
  <sodipodi:namedview
     id="base"
     pagecolor="#ffffff"
     bordercolor="#666666"
     borderopacity="1.0"
     inkscape:pageopacity="0.0"
     inkscape:pageshadow="2"
     inkscape:zoom="12.178875"
     inkscape:cx="-12.735082"
     inkscape:cy="13.63747"
     inkscape:document-units="px"
     inkscape:current-layer="g960"
     showgrid="true"
     fit-margin-top="0"
     fit-margin-left="0"
     fit-margin-right="0"
     fit-margin-bottom="0"
     inkscape:window-width="1145"
     inkscape:window-height="1351"
     inkscape:window-x="-8"
     inkscape:window-y="0"
     inkscape:window-maximized="0"
     units="px"
     inkscape:snap-global="true"
     showguides="true"
     inkscape:snap-bbox="true"
     inkscape:guide-bbox="true"
     inkscape:bbox-nodes="true"
     inkscape:snap-object-midpoints="true"
     inkscape:snap-center="true">
    <inkscape:grid
       type="xygrid"
       id="grid2095" />
    <sodipodi:guide
       position="14.287499,-2.3812498"
       orientation="1,0"
       id="guide853"
       inkscape:locked="false" />
    <sodipodi:guide
       position="38.893747,14.816666"
       orientation="0,1"
       id="guide855"
       inkscape:locked="false" />
  </sodipodi:namedview>
  <metadata
     id="metadata16905">
    <rdf:RDF>
      <cc:Work
         rdf:about="">
        <dc:format>image/svg+xml</dc:format>
        <dc:type
           rdf:resource="http://purl.org/dc/dcmitype/StillImage" />
        <dc:title />
      </cc:Work>
    </rdf:RDF>
  </metadata>
  <g
     inkscape:label="Layer 1"
     inkscape:groupmode="layer"
     id="layer1"
     transform="translate(-230.09585,-125.3495)">
    <g
       id="g960"
       transform="matrix(0.9818182,0,0,0.9818182,4.183557,2.4137764)">
      <circle
         r="3.7727621"
         cy="128.98506"
         cx="233.86861"
         id="path886"
         style="opacity:1;fill:#141414;fill-opacity:1;stroke:none;stroke-width:0.06859568;stroke-opacity:1" />
      <path
         id="path851"
         d="m 233.86861,125.2123 a 3.7727612,3.7727612 0 0 0 -0.14737,0.008 2.4008484,2.400848 70 0 1 -0.97883,0.67095 2.4008484,2.400848 70 0 1 -1.17457,0.1183 3.7727612,3.7727612 0 0 0 -0.23231,0.18971 2.400848,2.4008475 30 0 1 -0.31846,1.13973 2.400848,2.4008475 30 0 1 -0.8265,0.84754 3.7727612,3.7727612 0 0 0 -0.0559,0.28952 2.4008474,2.4008479 80 0 1 0.49129,1.08105 2.4008474,2.4008479 80 0 1 -0.0912,1.1889 3.7727612,3.7727612 0 0 0 0.14804,0.2496 2.4008476,2.400848 40 0 1 1.06939,0.51192 2.4008476,2.400848 40 0 1 0.6948,0.97092 3.7727612,3.7727612 0 0 0 0.27197,0.0954 2.4008476,2.4008481 0 0 1 1.14965,-0.29596 2.4008476,2.4008481 0 0 1 1.15568,0.29676 3.7727612,3.7727612 0 0 0 0.27076,-0.10236 2.4008482,2.4008477 50 0 1 0.68998,-0.96476 2.4008482,2.4008477 50 0 1 1.07676,-0.51567 3.7727612,3.7727612 0 0 0 0.14121,-0.25134 2.4008482,2.4008478 10 0 1 -0.0918,-1.18341 2.4008482,2.4008478 10 0 1 0.49075,-1.08427 3.7727612,3.7727612 0 0 0 -0.0543,-0.28818 2.4008478,2.4008483 60 0 1 -0.82756,-0.84566 2.4008478,2.4008483 60 0 1 -0.32088,-1.14723 3.7727612,3.7727612 0 0 0 -0.22548,-0.18502 2.4008479,2.4008484 20 0 1 -1.17899,-0.11549 2.4008479,2.4008484 20 0 1 -0.98566,-0.67564 3.7727612,3.7727612 0 0 0 -0.14054,-0.003 z"
         style="opacity:1;fill:#000000;fill-opacity:1;stroke:none;stroke-width:0.06859567;stroke-opacity:1"
         inkscape:connector-curvature="0" />
      <rect
         y="125.2123"
         x="233.68896"
         height="3.6330299"
         width="0.35930559"
         id="rect888"
         style="opacity:1;fill:#ffffff;fill-opacity:1;stroke:none;stroke-width:0.12043291;stroke-opacity:1" />
    </g>
  </g>
</svg>
