<?xml version="1.0" encoding="utf-8"?>
<!-- Generator: Adobe Illustrator 22.0.1, SVG Export Plug-In . SVG Version: 6.00 Build 0)  -->
<svg xmlns:cc="http://creativecommons.org/ns#" xmlns:dc="http://purl.org/dc/elements/1.1/" xmlns:inkscape="http://www.inkscape.org/namespaces/inkscape" xmlns:rdf="http://www.w3.org/1999/02/22-rdf-syntax-ns#" xmlns:sodipodi="http://sodipodi.sourceforge.net/DTD/sodipodi-0.dtd" xmlns:svg="http://www.w3.org/2000/svg" xmlns="http://www.w3.org/2000/svg" xmlns:xlink="http://www.w3.org/1999/xlink" version="1.1" id="svg8" inkscape:version="0.92.5 (2060ec1f9f, 2020-04-08)" sodipodi:docname="Stripes.svg" x="0px" y="0px" viewBox="0 0 22 150" style="enable-background:new 0 0 22 150;" xml:space="preserve">
<style type="text/css">
	.st0{clip-path:url(#SVGID_2_);fill:#EEFFEE;}
	.st1{clip-path:url(#SVGID_2_);fill:#666666;}
	.st2{clip-path:url(#SVGID_4_);fill:#EEFFEE;}
	.st3{clip-path:url(#SVGID_4_);fill:#666666;}
	.st4{clip-path:url(#SVGID_6_);fill:#C2EEC2;}
	.st5{clip-path:url(#SVGID_6_);fill:#664422;}
	.st6{clip-path:url(#SVGID_8_);fill:#C2EEC2;}
	.st7{clip-path:url(#SVGID_8_);fill:#664422;}
	.st8{clip-path:url(#SVGID_10_);fill:#EEFFEE;}
	.st9{clip-path:url(#SVGID_10_);fill:#C2EEC2;}
	.st10{clip-path:url(#SVGID_12_);fill:#EEFFEE;}
	.st11{clip-path:url(#SVGID_12_);fill:#C2EEC2;}
</style>
<g>
	<g>
		<defs>
			<path id="SVGID_1_" d="M0,0v25.3C3.3,23.2,7.1,22,11,22c3.9,0,7.7,1.2,11,3.3V0H0z"/>
		</defs>
		<clipPath id="SVGID_2_">
			<use xlink:href="#SVGID_1_" style="overflow:visible;"/>
		</clipPath>
		<rect x="-6.9" y="-7.9" class="st0" width="49.7" height="43.3"/>
		<path class="st1" d="M10-0.9c0,0.8,0,1.5,0,2.3l0.8,0.2c0-0.9,0-1.7,0-2.5c0-0.8,0-1.7,0-2.5L10-3.2C10-2.4,10-1.6,10-0.9z"/>
		<path class="st1" d="M11.2-0.9c0,0.8,0,1.7,0,2.5L12,1.4c0-0.8,0-1.6,0-2.3c0-0.7,0-1.5,0-2.3l-0.8-0.2    C11.2-2.6,11.2-1.7,11.2-0.9z"/>
		<path class="st1" d="M8.1-0.9c0,0.6,0,1.2,0,1.8l0.8,0.2c0-0.7,0-1.4,0-2c0-0.7,0-1.3,0-2L8.1-2.7C8.1-2.1,8.1-1.5,8.1-0.9z"/>
		<path class="st1" d="M13.2-0.9c0,0.7,0,1.3,0,2L14,0.9c0-0.6,0-1.2,0-1.8c0-0.6,0-1.2,0-1.8l-0.8-0.2C13.2-2.2,13.2-1.6,13.2-0.9z    "/>
		<path class="st1" d="M6.1-0.9c0,0.4,0,0.9,0,1.3l0.8,0.2c0-0.5,0-1,0-1.5c0-0.5,0-1,0-1.5L6.1-2.2C6.1-1.8,6.1-1.3,6.1-0.9z"/>
		<path class="st1" d="M15.1-0.9c0,0.5,0,1,0,1.5l0.8-0.2c0-0.4,0-0.9,0-1.3c0-0.4,0-0.9,0-1.3l-0.8-0.2C15.1-1.9,15.1-1.4,15.1-0.9    z"/>
		<path class="st1" d="M4.2-0.9c0,0.3,0,0.5,0,0.8l0.8,0.2c0-0.3,0-0.7,0-1c0-0.3,0-0.7,0-1L4.2-1.7C4.2-1.4,4.2-1.2,4.2-0.9z"/>
		<path class="st1" d="M17.1-0.9c0,0.3,0,0.7,0,1l0.8-0.2c0-0.3,0-0.5,0-0.8c0-0.3,0-0.5,0-0.8l-0.8-0.2C17.1-1.6,17.1-1.2,17.1-0.9    z"/>
		<path class="st1" d="M20,1.7c0,0.7,0,1.5,0,2.3l0.8,0.2c0-0.9,0-1.7,0-2.5c0-0.8,0-1.7,0-2.5L20-0.6C20,0.2,20,0.9,20,1.7z"/>
		<path class="st1" d="M21.2,1.7c0,0.8,0,1.7,0,2.5L22,4c0-0.8,0-1.6,0-2.3s0-1.5,0-2.3l-0.8-0.2C21.2,0,21.2,0.9,21.2,1.7z"/>
		<path class="st1" d="M18,1.7c0,0.6,0,1.2,0,1.8l0.8,0.2c0-0.7,0-1.4,0-2s0-1.3,0-2L18-0.1C18,0.5,18,1.1,18,1.7z"/>
		<path class="st1" d="M16.1,1.7c0,0.4,0,0.9,0,1.3l0.8,0.2c0-0.5,0-1,0-1.5c0-0.5,0-1,0-1.5l-0.8,0.2C16.1,0.8,16.1,1.3,16.1,1.7z"/>
		<path class="st1" d="M14.1,1.7c0,0.3,0,0.5,0,0.8l0.8,0.2c0-0.3,0-0.7,0-1s0-0.7,0-1l-0.8,0.2C14.1,1.2,14.1,1.4,14.1,1.7z"/>
		<path class="st1" d="M12.2,1.7c0,0.1,0,0.2,0,0.3l0.8,0.2c0-0.2,0-0.3,0-0.5s0-0.3,0-0.5l-0.8,0.2C12.2,1.5,12.2,1.6,12.2,1.7z"/>
		<path class="st1" d="M0.1,1.7c0,0.7,0,1.5,0,2.3l0.8,0.2c0-0.9,0-1.7,0-2.5c0-0.8,0-1.7,0-2.5L0.1-0.6C0.1,0.2,0.1,0.9,0.1,1.7z"/>
		<path class="st1" d="M1.3,1.7c0,0.8,0,1.7,0,2.5L2.1,4c0-0.8,0-1.6,0-2.3s0-1.5,0-2.3L1.3-0.8C1.3,0,1.3,0.9,1.3,1.7z"/>
		<path class="st1" d="M3.2,1.7c0,0.7,0,1.3,0,2L4,3.5c0-0.6,0-1.2,0-1.8c0-0.6,0-1.2,0-1.8L3.2-0.3C3.2,0.4,3.2,1,3.2,1.7z"/>
		<path class="st1" d="M5.2,1.7c0,0.5,0,1,0,1.5L5.9,3c0-0.4,0-0.9,0-1.3s0-0.9,0-1.3L5.2,0.2C5.2,0.7,5.2,1.2,5.2,1.7z"/>
		<path class="st1" d="M7.1,1.7c0,0.3,0,0.7,0,1l0.8-0.2c0-0.3,0-0.5,0-0.8s0-0.5,0-0.8L7.1,0.7C7.1,1,7.1,1.4,7.1,1.7z"/>
		<path class="st1" d="M9.1,1.7c0,0.2,0,0.3,0,0.5L9.8,2c0-0.1,0-0.2,0-0.3c0-0.1,0-0.2,0-0.3L9.1,1.2C9.1,1.4,9.1,1.5,9.1,1.7z"/>
		<path class="st1" d="M10,4.3c0,0.7,0,1.5,0,2.3l0.8,0.2c0-0.9,0-1.7,0-2.5s0-1.7,0-2.5L10,2C10,2.8,10,3.5,10,4.3z"/>
		<path class="st1" d="M11.2,4.3c0,0.8,0,1.7,0,2.5L12,6.6c0-0.8,0-1.6,0-2.3s0-1.5,0-2.3l-0.8-0.2C11.2,2.6,11.2,3.5,11.2,4.3z"/>
		<path class="st1" d="M8.1,4.3c0,0.6,0,1.2,0,1.8l0.8,0.2c0-0.7,0-1.4,0-2s0-1.3,0-2L8.1,2.5C8.1,3.1,8.1,3.7,8.1,4.3z"/>
		<path class="st1" d="M13.2,4.3c0,0.7,0,1.3,0,2L14,6.1c0-0.6,0-1.2,0-1.8c0-0.6,0-1.2,0-1.8l-0.8-0.2C13.2,3,13.2,3.6,13.2,4.3z"/>
		<path class="st1" d="M6.1,4.3c0,0.4,0,0.9,0,1.3l0.8,0.2c0-0.5,0-1,0-1.5c0-0.5,0-1,0-1.5L6.1,3C6.1,3.4,6.1,3.9,6.1,4.3z"/>
		<path class="st1" d="M15.1,4.3c0,0.5,0,1,0,1.5l0.8-0.2c0-0.4,0-0.9,0-1.3s0-0.9,0-1.3l-0.8-0.2C15.1,3.3,15.1,3.8,15.1,4.3z"/>
		<path class="st1" d="M4.2,4.3c0,0.3,0,0.5,0,0.8l0.8,0.2c0-0.3,0-0.7,0-1s0-0.7,0-1L4.2,3.5C4.2,3.8,4.2,4,4.2,4.3z"/>
		<path class="st1" d="M17.1,4.3c0,0.3,0,0.7,0,1l0.8-0.2c0-0.3,0-0.5,0-0.8s0-0.5,0-0.8l-0.8-0.2C17.1,3.6,17.1,4,17.1,4.3z"/>
		<path class="st1" d="M2.2,4.3c0,0.1,0,0.2,0,0.3L3,4.8c0-0.2,0-0.3,0-0.5S3,4,3,3.8L2.2,4C2.2,4.1,2.2,4.2,2.2,4.3z"/>
		<path class="st1" d="M19,4.3c0,0.2,0,0.3,0,0.5l0.8-0.2c0-0.1,0-0.2,0-0.3c0-0.1,0-0.2,0-0.3L19,3.8C19,4,19,4.1,19,4.3z"/>
		<path class="st1" d="M20,6.9c0,0.8,0,1.5,0,2.3l0.8,0.2c0-0.9,0-1.7,0-2.5c0-0.8,0-1.7,0-2.5L20,4.6C20,5.4,20,6.1,20,6.9z"/>
		<path class="st1" d="M21.2,6.9c0,0.8,0,1.7,0,2.5L22,9.2c0-0.8,0-1.6,0-2.3c0-0.7,0-1.5,0-2.3l-0.8-0.2    C21.2,5.2,21.2,6.1,21.2,6.9z"/>
		<path class="st1" d="M18,6.9c0,0.6,0,1.2,0,1.8l0.8,0.2c0-0.7,0-1.4,0-2c0-0.7,0-1.3,0-2L18,5.1C18,5.7,18,6.3,18,6.9z"/>
		<path class="st1" d="M16.1,6.9c0,0.4,0,0.9,0,1.3l0.8,0.2c0-0.5,0-1,0-1.5c0-0.5,0-1,0-1.5l-0.8,0.2C16.1,6,16.1,6.5,16.1,6.9z"/>
		<path class="st1" d="M14.1,6.9c0,0.3,0,0.5,0,0.8l0.8,0.2c0-0.3,0-0.7,0-1c0-0.3,0-0.7,0-1l-0.8,0.2C14.1,6.4,14.1,6.6,14.1,6.9z"/>
		<path class="st1" d="M12.2,6.9c0,0.1,0,0.2,0,0.3l0.8,0.2c0-0.2,0-0.3,0-0.5c0-0.2,0-0.3,0-0.5l-0.8,0.2    C12.2,6.7,12.2,6.8,12.2,6.9z"/>
		<path class="st1" d="M0.1,6.9c0,0.8,0,1.5,0,2.3l0.8,0.2c0-0.9,0-1.7,0-2.5c0-0.8,0-1.7,0-2.5L0.1,4.6C0.1,5.4,0.1,6.1,0.1,6.9z"/>
		<path class="st1" d="M1.3,6.9c0,0.8,0,1.7,0,2.5l0.8-0.2c0-0.8,0-1.6,0-2.3c0-0.7,0-1.5,0-2.3L1.3,4.3C1.3,5.2,1.3,6.1,1.3,6.9z"/>
		<path class="st1" d="M3.2,6.9c0,0.7,0,1.3,0,2L4,8.7c0-0.6,0-1.2,0-1.8c0-0.6,0-1.2,0-1.8L3.2,4.9C3.2,5.6,3.2,6.2,3.2,6.9z"/>
		<path class="st1" d="M5.2,6.9c0,0.5,0,1,0,1.5l0.8-0.2c0-0.4,0-0.9,0-1.3c0-0.4,0-0.9,0-1.3L5.2,5.4C5.2,5.9,5.2,6.4,5.2,6.9z"/>
		<path class="st1" d="M7.1,6.9c0,0.3,0,0.7,0,1l0.8-0.2c0-0.3,0-0.5,0-0.8c0-0.3,0-0.5,0-0.8L7.1,5.9C7.1,6.2,7.1,6.6,7.1,6.9z"/>
		<path class="st1" d="M9.1,6.9c0,0.2,0,0.3,0,0.5l0.8-0.2c0-0.1,0-0.2,0-0.3c0-0.1,0-0.2,0-0.3L9.1,6.4C9.1,6.6,9.1,6.7,9.1,6.9z"/>
		<path class="st1" d="M10,9.5c0,0.7,0,1.5,0,2.3l0.8,0.2c0-0.9,0-1.7,0-2.5c0-0.8,0-1.7,0-2.5L10,7.1C10,7.9,10,8.7,10,9.5z"/>
		<path class="st1" d="M11.2,9.5c0,0.8,0,1.7,0,2.5l0.8-0.2c0-0.8,0-1.6,0-2.3s0-1.5,0-2.3l-0.8-0.2C11.2,7.8,11.2,8.7,11.2,9.5z"/>
		<path class="st1" d="M8.1,9.5c0,0.6,0,1.2,0,1.8l0.8,0.2c0-0.7,0-1.4,0-2c0-0.7,0-1.3,0-2L8.1,7.7C8.1,8.3,8.1,8.9,8.1,9.5z"/>
		<path class="st1" d="M13.2,9.5c0,0.7,0,1.3,0,2l0.8-0.2c0-0.6,0-1.2,0-1.8c0-0.6,0-1.2,0-1.8l-0.8-0.2C13.2,8.1,13.2,8.8,13.2,9.5    z"/>
		<path class="st1" d="M6.1,9.5c0,0.4,0,0.9,0,1.3L6.9,11c0-0.5,0-1,0-1.5c0-0.5,0-1,0-1.5L6.1,8.2C6.1,8.6,6.1,9.1,6.1,9.5z"/>
		<path class="st1" d="M15.1,9.5c0,0.5,0,1,0,1.5l0.8-0.2c0-0.4,0-0.9,0-1.3c0-0.4,0-0.9,0-1.3L15.1,8C15.1,8.5,15.1,9,15.1,9.5z"/>
		<path class="st1" d="M4.2,9.5c0,0.3,0,0.5,0,0.8l0.8,0.2c0-0.3,0-0.7,0-1c0-0.3,0-0.7,0-1L4.2,8.7C4.2,8.9,4.2,9.2,4.2,9.5z"/>
		<path class="st1" d="M17.1,9.5c0,0.3,0,0.7,0,1l0.8-0.2c0-0.3,0-0.5,0-0.8s0-0.5,0-0.8l-0.8-0.2C17.1,8.8,17.1,9.2,17.1,9.5z"/>
		<path class="st1" d="M2.2,9.5c0,0.1,0,0.2,0,0.3L3,10c0-0.2,0-0.3,0-0.5C3,9.3,3,9.1,3,9L2.2,9.2C2.2,9.3,2.2,9.4,2.2,9.5z"/>
		<path class="st1" d="M19,9.5c0,0.2,0,0.3,0,0.5l0.8-0.2c0-0.1,0-0.2,0-0.3c0-0.1,0-0.2,0-0.3L19,9C19,9.1,19,9.3,19,9.5z"/>
		<path class="st1" d="M20,12.1c0,0.7,0,1.5,0,2.3l0.8,0.2c0-0.9,0-1.7,0-2.5s0-1.7,0-2.5L20,9.7C20,10.5,20,11.3,20,12.1z"/>
		<path class="st1" d="M21.2,12.1c0,0.8,0,1.7,0,2.5l0.8-0.2c0-0.8,0-1.6,0-2.3s0-1.5,0-2.3l-0.8-0.2C21.2,10.4,21.2,11.3,21.2,12.1    z"/>
		<path class="st1" d="M18,12.1c0,0.6,0,1.2,0,1.8l0.8,0.2c0-0.7,0-1.4,0-2s0-1.3,0-2L18,10.3C18,10.9,18,11.5,18,12.1z"/>
		<path class="st1" d="M16.1,12.1c0,0.4,0,0.9,0,1.3l0.8,0.2c0-0.5,0-1,0-1.5s0-1,0-1.5l-0.8,0.2C16.1,11.2,16.1,11.6,16.1,12.1z"/>
		<path class="st1" d="M14.1,12.1c0,0.3,0,0.5,0,0.8l0.8,0.2c0-0.3,0-0.7,0-1s0-0.7,0-1l-0.8,0.2C14.1,11.5,14.1,11.8,14.1,12.1z"/>
		<path class="st1" d="M12.2,12.1c0,0.1,0,0.2,0,0.3l0.8,0.2c0-0.2,0-0.3,0-0.5s0-0.3,0-0.5l-0.8,0.2C12.2,11.9,12.2,12,12.2,12.1z"/>
		<path class="st1" d="M0.1,12.1c0,0.7,0,1.5,0,2.3l0.8,0.2c0-0.9,0-1.7,0-2.5s0-1.7,0-2.5L0.1,9.7C0.1,10.5,0.1,11.3,0.1,12.1z"/>
		<path class="st1" d="M1.3,12.1c0,0.8,0,1.7,0,2.5l0.8-0.2c0-0.8,0-1.6,0-2.3s0-1.5,0-2.3L1.3,9.5C1.3,10.4,1.3,11.3,1.3,12.1z"/>
		<path class="st1" d="M3.2,12.1c0,0.7,0,1.3,0,2L4,13.9c0-0.6,0-1.2,0-1.8c0-0.6,0-1.2,0-1.8L3.2,10C3.2,10.7,3.2,11.4,3.2,12.1z"/>
		<path class="st1" d="M5.2,12.1c0,0.5,0,1,0,1.5l0.8-0.2c0-0.4,0-0.9,0-1.3s0-0.9,0-1.3l-0.8-0.2C5.2,11.1,5.2,11.6,5.2,12.1z"/>
		<path class="st1" d="M7.1,12.1c0,0.3,0,0.7,0,1l0.8-0.2c0-0.3,0-0.5,0-0.8s0-0.5,0-0.8l-0.8-0.2C7.1,11.4,7.1,11.7,7.1,12.1z"/>
		<path class="st1" d="M9.1,12.1c0,0.2,0,0.3,0,0.5l0.8-0.2c0-0.1,0-0.2,0-0.3s0-0.2,0-0.3l-0.8-0.2C9.1,11.7,9.1,11.9,9.1,12.1z"/>
		<path class="st1" d="M10,14.7c0,0.7,0,1.5,0,2.3l0.8,0.2c0-0.9,0-1.7,0-2.5c0-0.8,0-1.7,0-2.5L10,12.3C10,13.1,10,13.9,10,14.7z"/>
		<path class="st1" d="M11.2,14.7c0,0.8,0,1.7,0,2.5L12,17c0-0.8,0-1.6,0-2.3s0-1.5,0-2.3l-0.8-0.2C11.2,13,11.2,13.9,11.2,14.7z"/>
		<path class="st1" d="M8.1,14.7c0,0.6,0,1.2,0,1.8l0.8,0.2c0-0.7,0-1.4,0-2c0-0.7,0-1.3,0-2l-0.8,0.2C8.1,13.5,8.1,14.1,8.1,14.7z"/>
		<path class="st1" d="M13.2,14.7c0,0.7,0,1.3,0,2l0.8-0.2c0-0.6,0-1.2,0-1.8c0-0.6,0-1.2,0-1.8l-0.8-0.2    C13.2,13.3,13.2,14,13.2,14.7z"/>
		<path class="st1" d="M6.1,14.7c0,0.4,0,0.9,0,1.3l0.8,0.2c0-0.5,0-1,0-1.5c0-0.5,0-1,0-1.5l-0.8,0.2C6.1,13.8,6.1,14.2,6.1,14.7z"/>
		<path class="st1" d="M15.1,14.7c0,0.5,0,1,0,1.5l0.8-0.2c0-0.4,0-0.9,0-1.3c0-0.4,0-0.9,0-1.3l-0.8-0.2    C15.1,13.7,15.1,14.2,15.1,14.7z"/>
		<path class="st1" d="M4.2,14.7c0,0.3,0,0.5,0,0.8l0.8,0.2c0-0.3,0-0.7,0-1c0-0.3,0-0.7,0-1l-0.8,0.2C4.2,14.1,4.2,14.4,4.2,14.7z"/>
		<path class="st1" d="M17.1,14.7c0,0.3,0,0.7,0,1l0.8-0.2c0-0.3,0-0.5,0-0.8s0-0.5,0-0.8l-0.8-0.2C17.1,14,17.1,14.3,17.1,14.7z"/>
		<path class="st1" d="M2.2,14.7c0,0.1,0,0.2,0,0.3L3,15.2c0-0.2,0-0.3,0-0.5c0-0.2,0-0.3,0-0.5l-0.8,0.2    C2.2,14.5,2.2,14.6,2.2,14.7z"/>
		<path class="st1" d="M19,14.7c0,0.2,0,0.3,0,0.5l0.8-0.2c0-0.1,0-0.2,0-0.3c0-0.1,0-0.2,0-0.3L19,14.2C19,14.3,19,14.5,19,14.7z"/>
		<path class="st1" d="M20,17.3c0,0.7,0,1.5,0,2.3l0.8,0.2c0-0.9,0-1.7,0-2.5c0-0.8,0-1.7,0-2.5L20,14.9C20,15.7,20,16.5,20,17.3z"/>
		<path class="st1" d="M21.2,17.3c0,0.8,0,1.7,0,2.5l0.8-0.2c0-0.8,0-1.6,0-2.3s0-1.5,0-2.3l-0.8-0.2C21.2,15.6,21.2,16.5,21.2,17.3    z"/>
		<path class="st1" d="M18,17.3c0,0.6,0,1.2,0,1.8l0.8,0.2c0-0.7,0-1.4,0-2c0-0.7,0-1.3,0-2L18,15.4C18,16.1,18,16.7,18,17.3z"/>
		<path class="st1" d="M16.1,17.3c0,0.4,0,0.9,0,1.3l0.8,0.2c0-0.5,0-1,0-1.5c0-0.5,0-1,0-1.5L16.1,16    C16.1,16.4,16.1,16.8,16.1,17.3z"/>
		<path class="st1" d="M14.1,17.3c0,0.3,0,0.5,0,0.8l0.8,0.2c0-0.3,0-0.7,0-1c0-0.3,0-0.7,0-1l-0.8,0.2C14.1,16.7,14.1,17,14.1,17.3    z"/>
		<path class="st1" d="M12.2,17.3c0,0.1,0,0.2,0,0.3l0.8,0.2c0-0.2,0-0.3,0-0.5c0-0.2,0-0.3,0-0.5L12.2,17    C12.2,17.1,12.2,17.2,12.2,17.3z"/>
		<path class="st1" d="M0.1,17.3c0,0.7,0,1.5,0,2.3l0.8,0.2c0-0.9,0-1.7,0-2.5c0-0.8,0-1.7,0-2.5l-0.8,0.2    C0.1,15.7,0.1,16.5,0.1,17.3z"/>
		<path class="st1" d="M1.3,17.3c0,0.8,0,1.7,0,2.5l0.8-0.2c0-0.8,0-1.6,0-2.3s0-1.5,0-2.3l-0.8-0.2C1.3,15.6,1.3,16.5,1.3,17.3z"/>
		<path class="st1" d="M3.2,17.3c0,0.7,0,1.3,0,2L4,19.1c0-0.6,0-1.2,0-1.8c0-0.6,0-1.2,0-1.8l-0.8-0.2C3.2,15.9,3.2,16.6,3.2,17.3z    "/>
		<path class="st1" d="M5.2,17.3c0,0.5,0,1,0,1.5l0.8-0.2c0-0.4,0-0.9,0-1.3c0-0.4,0-0.9,0-1.3l-0.8-0.2C5.2,16.3,5.2,16.8,5.2,17.3    z"/>
		<path class="st1" d="M7.1,17.3c0,0.3,0,0.7,0,1l0.8-0.2c0-0.3,0-0.5,0-0.8c0-0.3,0-0.5,0-0.8l-0.8-0.2C7.1,16.6,7.1,16.9,7.1,17.3    z"/>
		<path class="st1" d="M9.1,17.3c0,0.2,0,0.3,0,0.5l0.8-0.2c0-0.1,0-0.2,0-0.3c0-0.1,0-0.2,0-0.3l-0.8-0.2    C9.1,16.9,9.1,17.1,9.1,17.3z"/>
		<path class="st1" d="M10,19.9c0,0.7,0,1.5,0,2.3l0.8,0.2c0-0.9,0-1.7,0-2.5s0-1.7,0-2.5L10,17.5C10,18.3,10,19.1,10,19.9z"/>
		<path class="st1" d="M11.2,19.9c0,0.8,0,1.7,0,2.5l0.8-0.2c0-0.8,0-1.6,0-2.3s0-1.5,0-2.3l-0.8-0.2C11.2,18.2,11.2,19.1,11.2,19.9    z"/>
		<path class="st1" d="M8.1,19.9c0,0.6,0,1.2,0,1.8l0.8,0.2c0-0.7,0-1.4,0-2s0-1.3,0-2L8.1,18C8.1,18.7,8.1,19.3,8.1,19.9z"/>
		<path class="st1" d="M13.2,19.9c0,0.7,0,1.3,0,2l0.8-0.2c0-0.6,0-1.2,0-1.8c0-0.6,0-1.2,0-1.8l-0.8-0.2    C13.2,18.5,13.2,19.2,13.2,19.9z"/>
		<path class="st1" d="M6.1,19.9c0,0.4,0,0.9,0,1.3l0.8,0.2c0-0.5,0-1,0-1.5s0-1,0-1.5l-0.8,0.2C6.1,19,6.1,19.4,6.1,19.9z"/>
		<path class="st1" d="M15.1,19.9c0,0.5,0,1,0,1.5l0.8-0.2c0-0.4,0-0.9,0-1.3s0-0.9,0-1.3l-0.8-0.2C15.1,18.9,15.1,19.4,15.1,19.9z"/>
		<path class="st1" d="M4.2,19.9c0,0.3,0,0.5,0,0.8l0.8,0.2c0-0.3,0-0.7,0-1s0-0.7,0-1l-0.8,0.2C4.2,19.3,4.2,19.6,4.2,19.9z"/>
		<path class="st1" d="M17.1,19.9c0,0.3,0,0.7,0,1l0.8-0.2c0-0.3,0-0.5,0-0.8s0-0.5,0-0.8l-0.8-0.2C17.1,19.2,17.1,19.5,17.1,19.9z"/>
		<path class="st1" d="M2.2,19.9c0,0.1,0,0.2,0,0.3L3,20.4c0-0.2,0-0.3,0-0.5s0-0.3,0-0.5l-0.8,0.2C2.2,19.7,2.2,19.8,2.2,19.9z"/>
		<path class="st1" d="M19,19.9c0,0.2,0,0.3,0,0.5l0.8-0.2c0-0.1,0-0.2,0-0.3c0-0.1,0-0.2,0-0.3L19,19.4C19,19.5,19,19.7,19,19.9z"/>
		<path class="st1" d="M20,22.5c0,0.7,0,1.5,0,2.3l0.8,0.2c0-0.9,0-1.7,0-2.5c0-0.8,0-1.7,0-2.5L20,20.1C20,20.9,20,21.7,20,22.5z"/>
		<path class="st1" d="M21.2,22.5c0,0.8,0,1.7,0,2.5l0.8-0.2c0-0.8,0-1.6,0-2.3s0-1.5,0-2.3l-0.8-0.2C21.2,20.8,21.2,21.6,21.2,22.5    z"/>
		<path class="st1" d="M18,22.5c0,0.6,0,1.2,0,1.8l0.8,0.2c0-0.7,0-1.4,0-2c0-0.7,0-1.3,0-2L18,20.6C18,21.3,18,21.9,18,22.5z"/>
		<path class="st1" d="M16.1,22.5c0,0.4,0,0.9,0,1.3l0.8,0.2c0-0.5,0-1,0-1.5c0-0.5,0-1,0-1.5l-0.8,0.2C16.1,21.6,16.1,22,16.1,22.5    z"/>
		<path class="st1" d="M14.1,22.5c0,0.3,0,0.5,0,0.8l0.8,0.2c0-0.3,0-0.7,0-1c0-0.3,0-0.7,0-1l-0.8,0.2    C14.1,21.9,14.1,22.2,14.1,22.5z"/>
		<path class="st1" d="M12.2,22.5c0,0.1,0,0.2,0,0.3l0.8,0.2c0-0.2,0-0.3,0-0.5c0-0.2,0-0.3,0-0.5l-0.8,0.2    C12.2,22.3,12.2,22.4,12.2,22.5z"/>
		<path class="st1" d="M0.1,22.5c0,0.7,0,1.5,0,2.3L0.8,25c0-0.9,0-1.7,0-2.5c0-0.8,0-1.7,0-2.5l-0.8,0.2    C0.1,20.9,0.1,21.7,0.1,22.5z"/>
		<path class="st1" d="M1.3,22.5c0,0.8,0,1.7,0,2.5l0.8-0.2c0-0.8,0-1.6,0-2.3s0-1.5,0-2.3l-0.8-0.2C1.3,20.8,1.3,21.6,1.3,22.5z"/>
		<path class="st1" d="M3.2,22.5c0,0.7,0,1.3,0,2L4,24.3c0-0.6,0-1.2,0-1.8c0-0.6,0-1.2,0-1.8l-0.8-0.2C3.2,21.1,3.2,21.8,3.2,22.5z    "/>
		<path class="st1" d="M5.2,22.5c0,0.5,0,1,0,1.5l0.8-0.2c0-0.4,0-0.9,0-1.3s0-0.9,0-1.3l-0.8-0.2C5.2,21.5,5.2,22,5.2,22.5z"/>
		<path class="st1" d="M7.1,22.5c0,0.3,0,0.7,0,1l0.8-0.2c0-0.3,0-0.5,0-0.8s0-0.5,0-0.8l-0.8-0.2C7.1,21.8,7.1,22.1,7.1,22.5z"/>
		<path class="st1" d="M9.1,22.5c0,0.2,0,0.3,0,0.5l0.8-0.2c0-0.1,0-0.2,0-0.3c0-0.1,0-0.2,0-0.3L9.1,22C9.1,22.1,9.1,22.3,9.1,22.5    z"/>
		<path class="st1" d="M10,25.1c0,0.7,0,1.5,0,2.3l0.8,0.2c0-0.9,0-1.7,0-2.5c0-0.8,0-1.7,0-2.5L10,22.7C10,23.5,10,24.3,10,25.1z"/>
		<path class="st1" d="M11.2,25.1c0,0.8,0,1.7,0,2.5l0.8-0.2c0-0.8,0-1.6,0-2.3c0-0.8,0-1.5,0-2.3l-0.8-0.2    C11.2,23.4,11.2,24.2,11.2,25.1z"/>
		<path class="st1" d="M8.1,25.1c0,0.6,0,1.2,0,1.8l0.8,0.2c0-0.7,0-1.4,0-2c0-0.7,0-1.3,0-2l-0.8,0.2C8.1,23.9,8.1,24.5,8.1,25.1z"/>
		<path class="st1" d="M13.2,25.1c0,0.7,0,1.3,0,2l0.8-0.2c0-0.6,0-1.2,0-1.8c0-0.6,0-1.2,0-1.8L13.2,23    C13.2,23.7,13.2,24.4,13.2,25.1z"/>
		<path class="st1" d="M6.1,25.1c0,0.4,0,0.9,0,1.3l0.8,0.2c0-0.5,0-1,0-1.5c0-0.5,0-1,0-1.5l-0.8,0.2C6.1,24.2,6.1,24.6,6.1,25.1z"/>
		<path class="st1" d="M15.1,25.1c0,0.5,0,1,0,1.5l0.8-0.2c0-0.4,0-0.9,0-1.3c0-0.4,0-0.9,0-1.3l-0.8-0.2    C15.1,24.1,15.1,24.6,15.1,25.1z"/>
		<path class="st1" d="M4.2,25.1c0,0.3,0,0.5,0,0.8l0.8,0.2c0-0.3,0-0.7,0-1c0-0.3,0-0.7,0-1l-0.8,0.2C4.2,24.5,4.2,24.8,4.2,25.1z"/>
		<path class="st1" d="M17.1,25.1c0,0.3,0,0.7,0,1l0.8-0.2c0-0.3,0-0.5,0-0.8c0-0.3,0-0.5,0-0.8L17.1,24    C17.1,24.4,17.1,24.7,17.1,25.1z"/>
		<path class="st1" d="M2.2,25.1c0,0.1,0,0.2,0,0.3L3,25.6c0-0.2,0-0.3,0-0.5c0-0.2,0-0.3,0-0.5l-0.8,0.2C2.2,24.9,2.2,25,2.2,25.1z    "/>
		<path class="st1" d="M19,25.1c0,0.2,0,0.3,0,0.5l0.8-0.2c0-0.1,0-0.2,0-0.3c0-0.1,0-0.2,0-0.3L19,24.5C19,24.7,19,24.9,19,25.1z"/>
		<path class="st1" d="M20,27.7c0,0.2,0,0.3,0,0.5h0.8c0-0.2,0-0.3,0-0.5c0-0.8,0-1.7,0-2.5L20,25.3C20,26.1,20,26.9,20,27.7z"/>
		<path class="st1" d="M21.2,27.7c0,0.2,0,0.3,0,0.5H22c0-0.2,0-0.3,0-0.5c0-0.7,0-1.5,0-2.3l-0.8-0.2C21.2,26,21.2,26.8,21.2,27.7z    "/>
		<path class="st1" d="M0.1,27.7c0,0.2,0,0.3,0,0.5h0.8c0-0.2,0-0.3,0-0.5c0-0.8,0-1.7,0-2.5l-0.8,0.2C0.1,26.1,0.1,26.9,0.1,27.7z"/>
		<path class="st1" d="M1.3,27.7c0,0.2,0,0.3,0,0.5h0.8c0-0.2,0-0.3,0-0.5c0-0.7,0-1.5,0-2.3l-0.8-0.2C1.3,26,1.3,26.8,1.3,27.7z"/>
	</g>
	<g>
		<defs>
			<path id="SVGID_3_" d="M22,150v-25.3c-3.3,2.2-7.1,3.3-11,3.3c-3.9,0-7.7-1.2-11-3.3V150H22z"/>
		</defs>
		<clipPath id="SVGID_4_">
			<use xlink:href="#SVGID_3_" style="overflow:visible;"/>
		</clipPath>
		<rect x="-20.8" y="114.6" class="st2" width="49.7" height="43.3"/>
		<path class="st3" d="M12,150.9c0-0.7,0-1.5,0-2.3l-0.8-0.2c0,0.9,0,1.7,0,2.5c0,0.8,0,1.7,0,2.5l0.8-0.2    C12,152.4,12,151.6,12,150.9z"/>
		<path class="st3" d="M10.8,150.9c0-0.8,0-1.7,0-2.5l-0.8,0.2c0,0.8,0,1.6,0,2.3c0,0.8,0,1.5,0,2.3l0.8,0.2    C10.8,152.6,10.8,151.7,10.8,150.9z"/>
		<path class="st3" d="M13.9,150.9c0-0.6,0-1.2,0-1.8l-0.8-0.2c0,0.7,0,1.4,0,2s0,1.3,0,2l0.8-0.2C13.9,152.1,13.9,151.5,13.9,150.9    z"/>
		<path class="st3" d="M8.8,150.9c0-0.7,0-1.3,0-2L8,149.1c0,0.6,0,1.2,0,1.8c0,0.6,0,1.2,0,1.8l0.8,0.2    C8.8,152.2,8.8,151.6,8.8,150.9z"/>
		<path class="st3" d="M15.9,150.9c0-0.4,0-0.9,0-1.3l-0.8-0.2c0,0.5,0,1,0,1.5c0,0.5,0,1,0,1.5l0.8-0.2    C15.9,151.8,15.9,151.3,15.9,150.9z"/>
		<path class="st3" d="M6.9,150.9c0-0.5,0-1,0-1.5l-0.8,0.2c0,0.4,0,0.9,0,1.3c0,0.4,0,0.9,0,1.3l0.8,0.2    C6.9,151.9,6.9,151.4,6.9,150.9z"/>
		<path class="st3" d="M17.8,150.9c0-0.3,0-0.5,0-0.8l-0.8-0.2c0,0.3,0,0.7,0,1c0,0.3,0,0.7,0,1l0.8-0.2    C17.8,151.4,17.8,151.2,17.8,150.9z"/>
		<path class="st3" d="M4.9,150.9c0-0.3,0-0.7,0-1l-0.8,0.2c0,0.3,0,0.5,0,0.8c0,0.3,0,0.5,0,0.8l0.8,0.2    C4.9,151.6,4.9,151.2,4.9,150.9z"/>
		<path class="st3" d="M2.1,148.3c0-0.8,0-1.5,0-2.3l-0.8-0.2c0,0.9,0,1.7,0,2.5c0,0.8,0,1.7,0,2.5l0.8-0.2    C2.1,149.8,2.1,149.1,2.1,148.3z"/>
		<path class="st3" d="M0.8,148.3c0-0.8,0-1.7,0-2.5L0,146c0,0.8,0,1.6,0,2.3c0,0.7,0,1.5,0,2.3l0.8,0.2    C0.8,150,0.8,149.1,0.8,148.3z"/>
		<path class="st3" d="M4,148.3c0-0.6,0-1.2,0-1.8l-0.8-0.2c0,0.7,0,1.4,0,2c0,0.7,0,1.3,0,2l0.8-0.2C4,149.5,4,148.9,4,148.3z"/>
		<path class="st3" d="M5.9,148.3c0-0.4,0-0.9,0-1.3l-0.8-0.2c0,0.5,0,1,0,1.5c0,0.5,0,1,0,1.5l0.8-0.2    C5.9,149.2,5.9,148.7,5.9,148.3z"/>
		<path class="st3" d="M7.9,148.3c0-0.3,0-0.5,0-0.8l-0.8-0.2c0,0.3,0,0.7,0,1c0,0.3,0,0.7,0,1l0.8-0.2    C7.9,148.8,7.9,148.6,7.9,148.3z"/>
		<path class="st3" d="M9.8,148.3c0-0.1,0-0.2,0-0.3l-0.8-0.2c0,0.2,0,0.3,0,0.5c0,0.2,0,0.3,0,0.5l0.8-0.2    C9.8,148.5,9.8,148.4,9.8,148.3z"/>
		<path class="st3" d="M21.9,148.3c0-0.8,0-1.5,0-2.3l-0.8-0.2c0,0.9,0,1.7,0,2.5c0,0.8,0,1.7,0,2.5l0.8-0.2    C21.9,149.8,21.9,149.1,21.9,148.3z"/>
		<path class="st3" d="M20.7,148.3c0-0.8,0-1.7,0-2.5l-0.8,0.2c0,0.8,0,1.6,0,2.3c0,0.7,0,1.5,0,2.3l0.8,0.2    C20.7,150,20.7,149.1,20.7,148.3z"/>
		<path class="st3" d="M18.8,148.3c0-0.7,0-1.3,0-2l-0.8,0.2c0,0.6,0,1.2,0,1.8c0,0.6,0,1.2,0,1.8l0.8,0.2    C18.8,149.6,18.8,149,18.8,148.3z"/>
		<path class="st3" d="M16.8,148.3c0-0.5,0-1,0-1.5l-0.8,0.2c0,0.4,0,0.9,0,1.3c0,0.4,0,0.9,0,1.3l0.8,0.2    C16.8,149.3,16.8,148.8,16.8,148.3z"/>
		<path class="st3" d="M14.9,148.3c0-0.3,0-0.7,0-1l-0.8,0.2c0,0.3,0,0.5,0,0.8c0,0.3,0,0.5,0,0.8l0.8,0.2    C14.9,149,14.9,148.6,14.9,148.3z"/>
		<path class="st3" d="M12.9,148.3c0-0.2,0-0.3,0-0.5l-0.8,0.2c0,0.1,0,0.2,0,0.3c0,0.1,0,0.2,0,0.3l0.8,0.2    C12.9,148.6,12.9,148.5,12.9,148.3z"/>
		<path class="st3" d="M12,145.7c0-0.8,0-1.5,0-2.3l-0.8-0.2c0,0.9,0,1.7,0,2.5s0,1.7,0,2.5L12,148C12,147.2,12,146.5,12,145.7z"/>
		<path class="st3" d="M10.8,145.7c0-0.8,0-1.7,0-2.5l-0.8,0.2c0,0.8,0,1.6,0,2.3c0,0.7,0,1.5,0,2.3l0.8,0.2    C10.8,147.4,10.8,146.5,10.8,145.7z"/>
		<path class="st3" d="M13.9,145.7c0-0.6,0-1.2,0-1.8l-0.8-0.2c0,0.7,0,1.4,0,2s0,1.3,0,2l0.8-0.2C13.9,146.9,13.9,146.3,13.9,145.7    z"/>
		<path class="st3" d="M8.8,145.7c0-0.7,0-1.3,0-2L8,143.9c0,0.6,0,1.2,0,1.8s0,1.2,0,1.8l0.8,0.2C8.8,147,8.8,146.4,8.8,145.7z"/>
		<path class="st3" d="M15.9,145.7c0-0.4,0-0.9,0-1.3l-0.8-0.2c0,0.5,0,1,0,1.5s0,1,0,1.5l0.8-0.2C15.9,146.6,15.9,146.1,15.9,145.7    z"/>
		<path class="st3" d="M6.9,145.7c0-0.5,0-1,0-1.5l-0.8,0.2c0,0.4,0,0.9,0,1.3s0,0.9,0,1.3l0.8,0.2C6.9,146.7,6.9,146.2,6.9,145.7z"/>
		<path class="st3" d="M17.8,145.7c0-0.3,0-0.5,0-0.8l-0.8-0.2c0,0.3,0,0.7,0,1s0,0.7,0,1l0.8-0.2C17.8,146.2,17.8,146,17.8,145.7z"/>
		<path class="st3" d="M4.9,145.7c0-0.3,0-0.7,0-1l-0.8,0.2c0,0.3,0,0.5,0,0.8s0,0.5,0,0.8l0.8,0.2C4.9,146.4,4.9,146,4.9,145.7z"/>
		<path class="st3" d="M19.8,145.7c0-0.1,0-0.2,0-0.3l-0.8-0.2c0,0.2,0,0.3,0,0.5s0,0.3,0,0.5l0.8-0.2    C19.8,145.9,19.8,145.8,19.8,145.7z"/>
		<path class="st3" d="M3,145.7c0-0.2,0-0.3,0-0.5l-0.8,0.2c0,0.1,0,0.2,0,0.3s0,0.2,0,0.3l0.8,0.2C3,146,3,145.9,3,145.7z"/>
		<path class="st3" d="M2.1,143.1c0-0.7,0-1.5,0-2.3l-0.8-0.2c0,0.9,0,1.7,0,2.5c0,0.8,0,1.7,0,2.5l0.8-0.2    C2.1,144.6,2.1,143.9,2.1,143.1z"/>
		<path class="st3" d="M0.8,143.1c0-0.8,0-1.7,0-2.5L0,140.8c0,0.8,0,1.6,0,2.3c0,0.8,0,1.5,0,2.3l0.8,0.2    C0.8,144.8,0.8,143.9,0.8,143.1z"/>
		<path class="st3" d="M4,143.1c0-0.6,0-1.2,0-1.8l-0.8-0.2c0,0.7,0,1.4,0,2s0,1.3,0,2l0.8-0.2C4,144.3,4,143.7,4,143.1z"/>
		<path class="st3" d="M5.9,143.1c0-0.4,0-0.9,0-1.3l-0.8-0.2c0,0.5,0,1,0,1.5c0,0.5,0,1,0,1.5l0.8-0.2C5.9,144,5.9,143.5,5.9,143.1    z"/>
		<path class="st3" d="M7.9,143.1c0-0.3,0-0.5,0-0.8l-0.8-0.2c0,0.3,0,0.7,0,1c0,0.3,0,0.7,0,1l0.8-0.2    C7.9,143.6,7.9,143.4,7.9,143.1z"/>
		<path class="st3" d="M9.8,143.1c0-0.1,0-0.2,0-0.3l-0.8-0.2c0,0.2,0,0.3,0,0.5s0,0.3,0,0.5l0.8-0.2C9.8,143.3,9.8,143.2,9.8,143.1    z"/>
		<path class="st3" d="M21.9,143.1c0-0.7,0-1.5,0-2.3l-0.8-0.2c0,0.9,0,1.7,0,2.5c0,0.8,0,1.7,0,2.5l0.8-0.2    C21.9,144.6,21.9,143.9,21.9,143.1z"/>
		<path class="st3" d="M20.7,143.1c0-0.8,0-1.7,0-2.5l-0.8,0.2c0,0.8,0,1.6,0,2.3c0,0.8,0,1.5,0,2.3l0.8,0.2    C20.7,144.8,20.7,143.9,20.7,143.1z"/>
		<path class="st3" d="M18.8,143.1c0-0.7,0-1.3,0-2l-0.8,0.2c0,0.6,0,1.2,0,1.8c0,0.6,0,1.2,0,1.8l0.8,0.2    C18.8,144.4,18.8,143.8,18.8,143.1z"/>
		<path class="st3" d="M16.8,143.1c0-0.5,0-1,0-1.5l-0.8,0.2c0,0.4,0,0.9,0,1.3c0,0.4,0,0.9,0,1.3l0.8,0.2    C16.8,144.1,16.8,143.6,16.8,143.1z"/>
		<path class="st3" d="M14.9,143.1c0-0.3,0-0.7,0-1l-0.8,0.2c0,0.3,0,0.5,0,0.8c0,0.3,0,0.5,0,0.8l0.8,0.2    C14.9,143.8,14.9,143.4,14.9,143.1z"/>
		<path class="st3" d="M12.9,143.1c0-0.2,0-0.3,0-0.5l-0.8,0.2c0,0.1,0,0.2,0,0.3c0,0.1,0,0.2,0,0.3l0.8,0.2    C12.9,143.4,12.9,143.3,12.9,143.1z"/>
		<path class="st3" d="M12,140.5c0-0.8,0-1.5,0-2.3l-0.8-0.2c0,0.9,0,1.7,0,2.5c0,0.8,0,1.7,0,2.5l0.8-0.2    C12,142.1,12,141.3,12,140.5z"/>
		<path class="st3" d="M10.8,140.5c0-0.8,0-1.7,0-2.5l-0.8,0.2c0,0.8,0,1.6,0,2.3c0,0.7,0,1.5,0,2.3l0.8,0.2    C10.8,142.2,10.8,141.3,10.8,140.5z"/>
		<path class="st3" d="M13.9,140.5c0-0.6,0-1.2,0-1.8l-0.8-0.2c0,0.7,0,1.4,0,2s0,1.3,0,2l0.8-0.2C13.9,141.7,13.9,141.1,13.9,140.5    z"/>
		<path class="st3" d="M8.8,140.5c0-0.7,0-1.3,0-2L8,138.7c0,0.6,0,1.2,0,1.8c0,0.6,0,1.2,0,1.8l0.8,0.2    C8.8,141.9,8.8,141.2,8.8,140.5z"/>
		<path class="st3" d="M15.9,140.5c0-0.4,0-0.9,0-1.3l-0.8-0.2c0,0.5,0,1,0,1.5c0,0.5,0,1,0,1.5l0.8-0.2    C15.9,141.4,15.9,140.9,15.9,140.5z"/>
		<path class="st3" d="M6.9,140.5c0-0.5,0-1,0-1.5l-0.8,0.2c0,0.4,0,0.9,0,1.3c0,0.4,0,0.9,0,1.3l0.8,0.2    C6.9,141.5,6.9,141,6.9,140.5z"/>
		<path class="st3" d="M17.8,140.5c0-0.3,0-0.5,0-0.8l-0.8-0.2c0,0.3,0,0.7,0,1c0,0.3,0,0.7,0,1l0.8-0.2    C17.8,141.1,17.8,140.8,17.8,140.5z"/>
		<path class="st3" d="M4.9,140.5c0-0.3,0-0.7,0-1l-0.8,0.2c0,0.3,0,0.5,0,0.8c0,0.3,0,0.5,0,0.8l0.8,0.2    C4.9,141.2,4.9,140.8,4.9,140.5z"/>
		<path class="st3" d="M19.8,140.5c0-0.1,0-0.2,0-0.3L19,140c0,0.2,0,0.3,0,0.5c0,0.2,0,0.3,0,0.5l0.8-0.2    C19.8,140.7,19.8,140.6,19.8,140.5z"/>
		<path class="st3" d="M3,140.5c0-0.2,0-0.3,0-0.5l-0.8,0.2c0,0.1,0,0.2,0,0.3c0,0.1,0,0.2,0,0.3L3,141C3,140.9,3,140.7,3,140.5z"/>
		<path class="st3" d="M2.1,137.9c0-0.7,0-1.5,0-2.3l-0.8-0.2c0,0.9,0,1.7,0,2.5s0,1.7,0,2.5l0.8-0.2C2.1,139.5,2.1,138.7,2.1,137.9    z"/>
		<path class="st3" d="M0.8,137.9c0-0.8,0-1.7,0-2.5L0,135.6c0,0.8,0,1.6,0,2.3s0,1.5,0,2.3l0.8,0.2C0.8,139.6,0.8,138.7,0.8,137.9z    "/>
		<path class="st3" d="M4,137.9c0-0.6,0-1.2,0-1.8l-0.8-0.2c0,0.7,0,1.4,0,2s0,1.3,0,2l0.8-0.2C4,139.1,4,138.5,4,137.9z"/>
		<path class="st3" d="M5.9,137.9c0-0.4,0-0.9,0-1.3l-0.8-0.2c0,0.5,0,1,0,1.5s0,1,0,1.5l0.8-0.2C5.9,138.8,5.9,138.4,5.9,137.9z"/>
		<path class="st3" d="M7.9,137.9c0-0.3,0-0.5,0-0.8l-0.8-0.2c0,0.3,0,0.7,0,1s0,0.7,0,1l0.8-0.2C7.9,138.5,7.9,138.2,7.9,137.9z"/>
		<path class="st3" d="M9.8,137.9c0-0.1,0-0.2,0-0.3l-0.8-0.2c0,0.2,0,0.3,0,0.5s0,0.3,0,0.5l0.8-0.2C9.8,138.1,9.8,138,9.8,137.9z"/>
		<path class="st3" d="M21.9,137.9c0-0.7,0-1.5,0-2.3l-0.8-0.2c0,0.9,0,1.7,0,2.5s0,1.7,0,2.5l0.8-0.2    C21.9,139.5,21.9,138.7,21.9,137.9z"/>
		<path class="st3" d="M20.7,137.9c0-0.8,0-1.7,0-2.5l-0.8,0.2c0,0.8,0,1.6,0,2.3s0,1.5,0,2.3l0.8,0.2    C20.7,139.6,20.7,138.7,20.7,137.9z"/>
		<path class="st3" d="M18.8,137.9c0-0.7,0-1.3,0-2l-0.8,0.2c0,0.6,0,1.2,0,1.8c0,0.6,0,1.2,0,1.8l0.8,0.2    C18.8,139.3,18.8,138.6,18.8,137.9z"/>
		<path class="st3" d="M16.8,137.9c0-0.5,0-1,0-1.5l-0.8,0.2c0,0.4,0,0.9,0,1.3s0,0.9,0,1.3l0.8,0.2    C16.8,138.9,16.8,138.4,16.8,137.9z"/>
		<path class="st3" d="M14.9,137.9c0-0.3,0-0.7,0-1l-0.8,0.2c0,0.3,0,0.5,0,0.8s0,0.5,0,0.8l0.8,0.2    C14.9,138.6,14.9,138.3,14.9,137.9z"/>
		<path class="st3" d="M12.9,137.9c0-0.2,0-0.3,0-0.5l-0.8,0.2c0,0.1,0,0.2,0,0.3s0,0.2,0,0.3l0.8,0.2    C12.9,138.3,12.9,138.1,12.9,137.9z"/>
		<path class="st3" d="M12,135.3c0-0.7,0-1.5,0-2.3l-0.8-0.2c0,0.9,0,1.7,0,2.5c0,0.8,0,1.7,0,2.5l0.8-0.2    C12,136.9,12,136.1,12,135.3z"/>
		<path class="st3" d="M10.8,135.3c0-0.8,0-1.7,0-2.5L10,133c0,0.8,0,1.6,0,2.3s0,1.5,0,2.3l0.8,0.2C10.8,137,10.8,136.1,10.8,135.3    z"/>
		<path class="st3" d="M13.9,135.3c0-0.6,0-1.2,0-1.8l-0.8-0.2c0,0.7,0,1.4,0,2c0,0.7,0,1.3,0,2l0.8-0.2    C13.9,136.5,13.9,135.9,13.9,135.3z"/>
		<path class="st3" d="M8.8,135.3c0-0.7,0-1.3,0-2L8,133.5c0,0.6,0,1.2,0,1.8c0,0.6,0,1.2,0,1.8l0.8,0.2    C8.8,136.7,8.8,136,8.8,135.3z"/>
		<path class="st3" d="M15.9,135.3c0-0.4,0-0.9,0-1.3l-0.8-0.2c0,0.5,0,1,0,1.5c0,0.5,0,1,0,1.5l0.8-0.2    C15.9,136.2,15.9,135.8,15.9,135.3z"/>
		<path class="st3" d="M6.9,135.3c0-0.5,0-1,0-1.5L6.1,134c0,0.4,0,0.9,0,1.3c0,0.4,0,0.9,0,1.3l0.8,0.2    C6.9,136.3,6.9,135.8,6.9,135.3z"/>
		<path class="st3" d="M17.8,135.3c0-0.3,0-0.5,0-0.8l-0.8-0.2c0,0.3,0,0.7,0,1c0,0.3,0,0.7,0,1l0.8-0.2    C17.8,135.9,17.8,135.6,17.8,135.3z"/>
		<path class="st3" d="M4.9,135.3c0-0.3,0-0.7,0-1l-0.8,0.2c0,0.3,0,0.5,0,0.8s0,0.5,0,0.8l0.8,0.2C4.9,136,4.9,135.7,4.9,135.3z"/>
		<path class="st3" d="M19.8,135.3c0-0.1,0-0.2,0-0.3l-0.8-0.2c0,0.2,0,0.3,0,0.5c0,0.2,0,0.3,0,0.5l0.8-0.2    C19.8,135.5,19.8,135.4,19.8,135.3z"/>
		<path class="st3" d="M3,135.3c0-0.2,0-0.3,0-0.5L2.2,135c0,0.1,0,0.2,0,0.3c0,0.1,0,0.2,0,0.3l0.8,0.2C3,135.7,3,135.5,3,135.3z"/>
		<path class="st3" d="M2.1,132.7c0-0.7,0-1.5,0-2.3l-0.8-0.2c0,0.9,0,1.7,0,2.5c0,0.8,0,1.7,0,2.5l0.8-0.2    C2.1,134.3,2.1,133.5,2.1,132.7z"/>
		<path class="st3" d="M0.8,132.7c0-0.8,0-1.7,0-2.5L0,130.4c0,0.8,0,1.6,0,2.3s0,1.5,0,2.3l0.8,0.2C0.8,134.4,0.8,133.5,0.8,132.7z    "/>
		<path class="st3" d="M4,132.7c0-0.6,0-1.2,0-1.8l-0.8-0.2c0,0.7,0,1.4,0,2c0,0.7,0,1.3,0,2l0.8-0.2C4,133.9,4,133.3,4,132.7z"/>
		<path class="st3" d="M5.9,132.7c0-0.4,0-0.9,0-1.3l-0.8-0.2c0,0.5,0,1,0,1.5c0,0.5,0,1,0,1.5l0.8-0.2    C5.9,133.6,5.9,133.2,5.9,132.7z"/>
		<path class="st3" d="M7.9,132.7c0-0.3,0-0.5,0-0.8l-0.8-0.2c0,0.3,0,0.7,0,1c0,0.3,0,0.7,0,1l0.8-0.2C7.9,133.3,7.9,133,7.9,132.7    z"/>
		<path class="st3" d="M9.8,132.7c0-0.1,0-0.2,0-0.3l-0.8-0.2c0,0.2,0,0.3,0,0.5c0,0.2,0,0.3,0,0.5l0.8-0.2    C9.8,132.9,9.8,132.8,9.8,132.7z"/>
		<path class="st3" d="M21.9,132.7c0-0.7,0-1.5,0-2.3l-0.8-0.2c0,0.9,0,1.7,0,2.5c0,0.8,0,1.7,0,2.5l0.8-0.2    C21.9,134.3,21.9,133.5,21.9,132.7z"/>
		<path class="st3" d="M20.7,132.7c0-0.8,0-1.7,0-2.5l-0.8,0.2c0,0.8,0,1.6,0,2.3s0,1.5,0,2.3l0.8,0.2    C20.7,134.4,20.7,133.5,20.7,132.7z"/>
		<path class="st3" d="M18.8,132.7c0-0.7,0-1.3,0-2l-0.8,0.2c0,0.6,0,1.2,0,1.8c0,0.6,0,1.2,0,1.8l0.8,0.2    C18.8,134.1,18.8,133.4,18.8,132.7z"/>
		<path class="st3" d="M16.8,132.7c0-0.5,0-1,0-1.5l-0.8,0.2c0,0.4,0,0.9,0,1.3c0,0.4,0,0.9,0,1.3l0.8,0.2    C16.8,133.7,16.8,133.2,16.8,132.7z"/>
		<path class="st3" d="M14.9,132.7c0-0.3,0-0.7,0-1l-0.8,0.2c0,0.3,0,0.5,0,0.8c0,0.3,0,0.5,0,0.8l0.8,0.2    C14.9,133.4,14.9,133.1,14.9,132.7z"/>
		<path class="st3" d="M12.9,132.7c0-0.2,0-0.3,0-0.5l-0.8,0.2c0,0.1,0,0.2,0,0.3c0,0.1,0,0.2,0,0.3l0.8,0.2    C12.9,133.1,12.9,132.9,12.9,132.7z"/>
		<path class="st3" d="M12,130.1c0-0.7,0-1.5,0-2.3l-0.8-0.2c0,0.9,0,1.7,0,2.5s0,1.7,0,2.5l0.8-0.2C12,131.7,12,130.9,12,130.1z"/>
		<path class="st3" d="M10.8,130.1c0-0.8,0-1.7,0-2.5l-0.8,0.2c0,0.8,0,1.6,0,2.3s0,1.5,0,2.3l0.8,0.2    C10.8,131.8,10.8,130.9,10.8,130.1z"/>
		<path class="st3" d="M13.9,130.1c0-0.6,0-1.2,0-1.8l-0.8-0.2c0,0.7,0,1.4,0,2s0,1.3,0,2l0.8-0.2C13.9,131.3,13.9,130.7,13.9,130.1    z"/>
		<path class="st3" d="M8.8,130.1c0-0.7,0-1.3,0-2L8,128.3c0,0.6,0,1.2,0,1.8c0,0.6,0,1.2,0,1.8l0.8,0.2    C8.8,131.5,8.8,130.8,8.8,130.1z"/>
		<path class="st3" d="M15.9,130.1c0-0.4,0-0.9,0-1.3l-0.8-0.2c0,0.5,0,1,0,1.5s0,1,0,1.5l0.8-0.2C15.9,131,15.9,130.6,15.9,130.1z"/>
		<path class="st3" d="M6.9,130.1c0-0.5,0-1,0-1.5l-0.8,0.2c0,0.4,0,0.9,0,1.3s0,0.9,0,1.3l0.8,0.2C6.9,131.1,6.9,130.6,6.9,130.1z"/>
		<path class="st3" d="M17.8,130.1c0-0.3,0-0.5,0-0.8l-0.8-0.2c0,0.3,0,0.7,0,1s0,0.7,0,1l0.8-0.2C17.8,130.7,17.8,130.4,17.8,130.1    z"/>
		<path class="st3" d="M4.9,130.1c0-0.3,0-0.7,0-1l-0.8,0.2c0,0.3,0,0.5,0,0.8s0,0.5,0,0.8l0.8,0.2C4.9,130.8,4.9,130.5,4.9,130.1z"/>
		<path class="st3" d="M19.8,130.1c0-0.1,0-0.2,0-0.3l-0.8-0.2c0,0.2,0,0.3,0,0.5s0,0.3,0,0.5l0.8-0.2    C19.8,130.3,19.8,130.2,19.8,130.1z"/>
		<path class="st3" d="M3,130.1c0-0.2,0-0.3,0-0.5l-0.8,0.2c0,0.1,0,0.2,0,0.3c0,0.1,0,0.2,0,0.3l0.8,0.2C3,130.5,3,130.3,3,130.1z"/>
		<path class="st3" d="M2.1,127.5c0-0.7,0-1.5,0-2.3L1.3,125c0,0.9,0,1.7,0,2.5c0,0.8,0,1.7,0,2.5l0.8-0.2    C2.1,129.1,2.1,128.3,2.1,127.5z"/>
		<path class="st3" d="M0.8,127.5c0-0.8,0-1.7,0-2.5L0,125.2c0,0.8,0,1.6,0,2.3s0,1.5,0,2.3l0.8,0.2C0.8,129.2,0.8,128.4,0.8,127.5z    "/>
		<path class="st3" d="M4,127.5c0-0.6,0-1.2,0-1.8l-0.8-0.2c0,0.7,0,1.4,0,2c0,0.7,0,1.3,0,2l0.8-0.2C4,128.7,4,128.1,4,127.5z"/>
		<path class="st3" d="M5.9,127.5c0-0.4,0-0.9,0-1.3L5.2,126c0,0.5,0,1,0,1.5c0,0.5,0,1,0,1.5l0.8-0.2C5.9,128.4,5.9,128,5.9,127.5z    "/>
		<path class="st3" d="M7.9,127.5c0-0.3,0-0.5,0-0.8l-0.8-0.2c0,0.3,0,0.7,0,1c0,0.3,0,0.7,0,1l0.8-0.2    C7.9,128.1,7.9,127.8,7.9,127.5z"/>
		<path class="st3" d="M9.8,127.5c0-0.1,0-0.2,0-0.3L9.1,127c0,0.2,0,0.3,0,0.5c0,0.2,0,0.3,0,0.5l0.8-0.2    C9.8,127.7,9.8,127.6,9.8,127.5z"/>
		<path class="st3" d="M21.9,127.5c0-0.7,0-1.5,0-2.3l-0.8-0.2c0,0.9,0,1.7,0,2.5c0,0.8,0,1.7,0,2.5l0.8-0.2    C21.9,129.1,21.9,128.3,21.9,127.5z"/>
		<path class="st3" d="M20.7,127.5c0-0.8,0-1.7,0-2.5l-0.8,0.2c0,0.8,0,1.6,0,2.3s0,1.5,0,2.3l0.8,0.2    C20.7,129.2,20.7,128.4,20.7,127.5z"/>
		<path class="st3" d="M18.8,127.5c0-0.7,0-1.3,0-2l-0.8,0.2c0,0.6,0,1.2,0,1.8c0,0.6,0,1.2,0,1.8l0.8,0.2    C18.8,128.9,18.8,128.2,18.8,127.5z"/>
		<path class="st3" d="M16.8,127.5c0-0.5,0-1,0-1.5l-0.8,0.2c0,0.4,0,0.9,0,1.3s0,0.9,0,1.3l0.8,0.2C16.8,128.5,16.8,128,16.8,127.5    z"/>
		<path class="st3" d="M14.9,127.5c0-0.3,0-0.7,0-1l-0.8,0.2c0,0.3,0,0.5,0,0.8s0,0.5,0,0.8l0.8,0.2    C14.9,128.2,14.9,127.9,14.9,127.5z"/>
		<path class="st3" d="M12.9,127.5c0-0.2,0-0.3,0-0.5l-0.8,0.2c0,0.1,0,0.2,0,0.3c0,0.1,0,0.2,0,0.3l0.8,0.2    C12.9,127.9,12.9,127.7,12.9,127.5z"/>
		<path class="st3" d="M12,124.9c0-0.7,0-1.5,0-2.3l-0.8-0.2c0,0.9,0,1.7,0,2.5c0,0.8,0,1.7,0,2.5l0.8-0.2    C12,126.5,12,125.7,12,124.9z"/>
		<path class="st3" d="M10.8,124.9c0-0.8,0-1.7,0-2.5l-0.8,0.2c0,0.8,0,1.6,0,2.3c0,0.8,0,1.5,0,2.3l0.8,0.2    C10.8,126.6,10.8,125.8,10.8,124.9z"/>
		<path class="st3" d="M13.9,124.9c0-0.6,0-1.2,0-1.8l-0.8-0.2c0,0.7,0,1.4,0,2c0,0.7,0,1.3,0,2l0.8-0.2    C13.9,126.1,13.9,125.5,13.9,124.9z"/>
		<path class="st3" d="M8.8,124.9c0-0.7,0-1.3,0-2L8,123.1c0,0.6,0,1.2,0,1.8c0,0.6,0,1.2,0,1.8l0.8,0.2    C8.8,126.3,8.8,125.6,8.8,124.9z"/>
		<path class="st3" d="M15.9,124.9c0-0.4,0-0.9,0-1.3l-0.8-0.2c0,0.5,0,1,0,1.5c0,0.5,0,1,0,1.5l0.8-0.2    C15.9,125.8,15.9,125.4,15.9,124.9z"/>
		<path class="st3" d="M6.9,124.9c0-0.5,0-1,0-1.5l-0.8,0.2c0,0.4,0,0.9,0,1.3c0,0.4,0,0.9,0,1.3l0.8,0.2    C6.9,125.9,6.9,125.4,6.9,124.9z"/>
		<path class="st3" d="M17.8,124.9c0-0.3,0-0.5,0-0.8l-0.8-0.2c0,0.3,0,0.7,0,1c0,0.3,0,0.7,0,1l0.8-0.2    C17.8,125.5,17.8,125.2,17.8,124.9z"/>
		<path class="st3" d="M4.9,124.9c0-0.3,0-0.7,0-1l-0.8,0.2c0,0.3,0,0.5,0,0.8c0,0.3,0,0.5,0,0.8l0.8,0.2    C4.9,125.6,4.9,125.3,4.9,124.9z"/>
		<path class="st3" d="M19.8,124.9c0-0.1,0-0.2,0-0.3l-0.8-0.2c0,0.2,0,0.3,0,0.5c0,0.2,0,0.3,0,0.5l0.8-0.2    C19.8,125.1,19.8,125,19.8,124.9z"/>
		<path class="st3" d="M3,124.9c0-0.2,0-0.3,0-0.5l-0.8,0.2c0,0.1,0,0.2,0,0.3c0,0.1,0,0.2,0,0.3l0.8,0.2C3,125.3,3,125.1,3,124.9z"/>
		<path class="st3" d="M2.1,122.3c0-0.2,0-0.3,0-0.5H1.3c0,0.2,0,0.3,0,0.5c0,0.8,0,1.7,0,2.5l0.8-0.2    C2.1,123.9,2.1,123.1,2.1,122.3z"/>
		<path class="st3" d="M0.8,122.3c0-0.2,0-0.3,0-0.5H0c0,0.2,0,0.3,0,0.5c0,0.7,0,1.5,0,2.3l0.8,0.2C0.8,124,0.8,123.2,0.8,122.3z"/>
		<path class="st3" d="M21.9,122.3c0-0.2,0-0.3,0-0.5h-0.8c0,0.2,0,0.3,0,0.5c0,0.8,0,1.7,0,2.5l0.8-0.2    C21.9,123.9,21.9,123.1,21.9,122.3z"/>
		<path class="st3" d="M20.7,122.3c0-0.2,0-0.3,0-0.5h-0.8c0,0.2,0,0.3,0,0.5c0,0.7,0,1.5,0,2.3l0.8,0.2    C20.7,124,20.7,123.2,20.7,122.3z"/>
	</g>
</g>
</svg>
