<?xml version="1.0" encoding="utf-8"?>
<!-- Generator: Adobe Illustrator 22.0.1, SVG Export Plug-In . SVG Version: 6.00 Build 0)  -->
<svg xmlns:cc="http://creativecommons.org/ns#" xmlns:dc="http://purl.org/dc/elements/1.1/" xmlns:inkscape="http://www.inkscape.org/namespaces/inkscape" xmlns:rdf="http://www.w3.org/1999/02/22-rdf-syntax-ns#" xmlns:sodipodi="http://sodipodi.sourceforge.net/DTD/sodipodi-0.dtd" xmlns:svg="http://www.w3.org/2000/svg" xmlns="http://www.w3.org/2000/svg" xmlns:xlink="http://www.w3.org/1999/xlink" version="1.1" id="svg8" inkscape:version="0.92.5 (2060ec1f9f, 2020-04-08)" sodipodi:docname="Stripes.svg" x="0px" y="0px" viewBox="0 0 22 150" style="enable-background:new 0 0 22 150;" xml:space="preserve">
<style type="text/css">
	.st0{clip-path:url(#SVGID_2_);fill:#EEFFEE;}
	.st1{clip-path:url(#SVGID_2_);fill:#666666;}
	.st2{clip-path:url(#SVGID_4_);fill:#EEFFEE;}
	.st3{clip-path:url(#SVGID_4_);fill:#666666;}
	.st4{clip-path:url(#SVGID_6_);fill:#C2EEC2;}
	.st5{clip-path:url(#SVGID_6_);fill:#664422;}
	.st6{clip-path:url(#SVGID_8_);fill:#C2EEC2;}
	.st7{clip-path:url(#SVGID_8_);fill:#664422;}
	.st8{clip-path:url(#SVGID_10_);fill:#EEFFEE;}
	.st9{clip-path:url(#SVGID_10_);fill:#C2EEC2;}
	.st10{clip-path:url(#SVGID_12_);fill:#EEFFEE;}
	.st11{clip-path:url(#SVGID_12_);fill:#C2EEC2;}
</style>
<g>
	<g>
		<defs>
			<path id="SVGID_5_" d="M0,0v25.3C3.3,23.2,7.1,22,11,22c3.9,0,7.7,1.2,11,3.3V0H0z"/>
		</defs>
		<clipPath id="SVGID_2_">
			<use xlink:href="#SVGID_5_" style="overflow:visible;"/>
		</clipPath>
		<rect x="-3.4" y="-0.4" style="clip-path:url(#SVGID_2_);fill:#C2EEC2;" width="39.2" height="31.5"/>
		<path style="clip-path:url(#SVGID_2_);fill:#664422;" d="M20.1,4c-1.2,0.7-2.4,1.4-3.5,2c0,1.2,0,2.6,0,4c1.2-0.7,2.4-1.4,3.5-2    C20.1,6.8,20.1,5.4,20.1,4z M16.7,9.9c0-1.3,0-2.6,0-3.8c1-0.6,2.2-1.3,3.3-1.9c0,1.3,0,2.6,0,3.8C19,8.6,17.9,9.2,16.7,9.9z"/>
		<path style="clip-path:url(#SVGID_2_);fill:#664422;" d="M17.9,2.8c-0.7-0.4-1.4-0.8-2-1.2c-0.6,0.4-1.3,0.8-2,1.2    c0.7,0.4,1.4,0.8,2,1.2C16.6,3.5,17.2,3.2,17.9,2.8z M14.1,2.8c0.6-0.4,1.3-0.7,1.8-1.1c0.6,0.3,1.2,0.7,1.8,1.1    c-0.6,0.4-1.3,0.7-1.8,1.1C15.3,3.5,14.7,3.1,14.1,2.8z"/>
		<path style="clip-path:url(#SVGID_2_);fill:#664422;" d="M16.5,2.8c-0.2-0.1-0.4-0.2-0.5-0.3c-0.2,0.1-0.4,0.2-0.5,0.3    c0.2,0.1,0.4,0.2,0.5,0.3C16.1,3,16.3,2.9,16.5,2.8z M15.5,2.8c0.1-0.1,0.3-0.1,0.4-0.2c0.1,0.1,0.2,0.1,0.4,0.2    C16.2,2.8,16,2.9,15.9,3C15.8,2.9,15.7,2.8,15.5,2.8z"/>
		<path style="clip-path:url(#SVGID_2_);fill:#664422;" d="M20.1-0.1L20.1-0.1C20,0.4,20,0.9,20,1.3c-0.8-0.5-1.7-1-2.5-1.4h-0.2    c0.9,0.5,1.8,1,2.7,1.6C20.1,1,20.1,0.4,20.1-0.1z"/>
		<path style="clip-path:url(#SVGID_2_);fill:#664422;" d="M19.4-0.1L19.4-0.1l-0.1,0.2C19.2,0,19.1,0,19-0.1h-0.2    C19,0,19.2,0.1,19.4,0.2C19.4,0.1,19.4,0,19.4-0.1z"/>
		<path style="clip-path:url(#SVGID_2_);fill:#664422;" d="M20.9,2.6c0-0.9,0-1.8,0-2.7h-0.1h-0.1c0,0.9,0,1.8,0,2.7    c-1.5-0.9-3.3-1.9-4.7-2.7h-0.2h0h0h-0.2c-1.4,0.8-3.1,1.8-4.7,2.7c0-0.9,0-1.8,0-2.7H11h-0.1c0,0.9,0,1.8,0,2.7    C9.4,1.7,7.6,0.7,6.2-0.1H6.1h0h0H5.9C4.5,0.7,2.7,1.7,1.2,2.6c0-0.9,0-1.8,0-2.7H1.1H1c0,0.9,0,1.8,0,2.7c-0.6-0.3-1.2-0.7-1.8-1    v0.1v0.1c0.6,0.3,1.2,0.7,1.7,1c-0.6,0.3-1.1,0.7-1.7,1v0.1v0.1c0.6-0.3,1.2-0.7,1.8-1c0,1.8,0,3.9,0,5.5c-0.6,0.3-1.2,0.7-1.8,1    v0.1v0.1c0.7-0.4,1.3-0.7,1.9-1.1c1.4,0.8,3.2,1.8,4.8,2.8c-1.6,0.9-3.4,1.9-4.8,2.8c-0.6-0.3-1.2-0.7-1.9-1.1v0.1v0.1    c0.6,0.4,1.2,0.7,1.8,1c0,1.6,0,3.7,0,5.5c-0.6-0.3-1.2-0.7-1.8-1v0.1v0.1c0.6,0.3,1.2,0.7,1.7,1c-0.6,0.3-1.1,0.7-1.7,1v0.1V21    c0.6-0.3,1.2-0.7,1.8-1c0,1.8,0,3.9,0,5.5c-0.6,0.3-1.2,0.7-1.8,1v0.1v0.1c0.7-0.4,1.3-0.7,1.9-1.1c1.4,0.8,3.2,1.8,4.8,2.8    c-1.1,0.6-2.2,1.3-3.3,1.9h0.2h0.2c1-0.6,2.1-1.2,3.1-1.8c0,0.6,0,1.2,0,1.8H6h0.1c0-0.6,0-1.2,0-1.8c1,0.6,2.1,1.2,3.1,1.8h0.2    h0.2c-1.1-0.6-2.3-1.3-3.3-1.9c1.6-0.9,3.4-1.9,4.8-2.8c1.4,0.8,3.2,1.8,4.8,2.8c-1.1,0.6-2.2,1.3-3.3,1.9h0.2h0.2    c1-0.6,2.1-1.2,3.1-1.8c0,0.6,0,1.2,0,1.8h0.1H16c0-0.6,0-1.2,0-1.8c1,0.6,2.1,1.2,3.1,1.8h0.2h0.2c-1.1-0.6-2.3-1.3-3.3-1.9    c1.6-0.9,3.4-1.9,4.8-2.8c1.4,0.8,3.1,1.8,4.6,2.7v-0.1v-0.1c-1.5-0.9-3.2-1.8-4.5-2.6c0-1.6,0-3.7,0-5.5c1.5,0.9,3.1,1.8,4.5,2.6    v-0.1v-0.1c-1.4-0.8-3-1.7-4.4-2.6c1.4-0.8,3.1-1.8,4.4-2.6v-0.1v-0.1c-1.4,0.8-3,1.8-4.5,2.6c0-1.8,0-3.9,0-5.5    c1.3-0.8,3-1.7,4.5-2.6v-0.1v-0.1c-1.5,0.9-3.2,1.9-4.6,2.7c-1.4-0.8-3.2-1.8-4.8-2.8c1.6-0.9,3.4-1.9,4.8-2.8    c1.4,0.8,3.1,1.8,4.6,2.7v-0.1V11c-1.5-0.9-3.2-1.8-4.5-2.6c0-1.6,0-3.7,0-5.5c1.5,0.9,3.1,1.8,4.5,2.6V5.4V5.3    c-1.4-0.8-3-1.7-4.4-2.6c1.4-0.8,3.1-1.8,4.4-2.6V0.1V0C24.1,0.8,22.4,1.8,20.9,2.6z M15.9,0c1.4,0.8,3.2,1.8,4.8,2.8    c-1.6,0.9-3.4,1.9-4.8,2.8c-1.4-0.8-3.2-1.8-4.8-2.8C12.7,1.9,14.5,0.8,15.9,0z M20.8,8.4c-1.4,0.8-3.2,1.8-4.8,2.8    c0-1.8,0-3.9,0-5.5c1.4-0.8,3.2-1.8,4.8-2.8C20.8,4.7,20.8,6.8,20.8,8.4z M15.8,11.2c-1.6-0.9-3.4-1.9-4.8-2.8c0-1.6,0-3.7,0-5.5    c1.6,0.9,3.4,1.9,4.8,2.8C15.8,7.3,15.8,9.4,15.8,11.2z M16,11.5c1.6,0.9,3.4,1.9,4.8,2.8c0,1.6,0,3.7,0,5.5    c-1.6-0.9-3.4-1.9-4.8-2.8C16,15.3,16,13.3,16,11.5z M20.8,25.5c-1.4,0.8-3.2,1.8-4.8,2.8c0-1.8,0-3.9,0-5.5    c1.4-0.8,3.2-1.8,4.8-2.8C20.8,21.8,20.8,23.9,20.8,25.5z M15.8,28.3c-1.6-0.9-3.4-1.9-4.8-2.8c0-1.6,0-3.7,0-5.5    c1.6,0.9,3.4,1.9,4.8,2.8C15.8,24.4,15.8,26.5,15.8,28.3z M10.9,25.5c-1.4,0.8-3.2,1.8-4.8,2.8c0-1.8,0-3.9,0-5.5    c1.4-0.8,3.2-1.8,4.8-2.8C10.9,21.8,10.9,23.9,10.9,25.5z M6,28.3c-1.6-0.9-3.4-1.9-4.8-2.8c0-1.6,0-3.7,0-5.5    c1.6,0.9,3.4,1.9,4.8,2.8C6,24.4,6,26.5,6,28.3z M1.2,14.2c1.4-0.8,3.2-1.8,4.8-2.8c0,1.8,0,3.9,0,5.5c-1.4,0.8-3.2,1.8-4.8,2.8    C1.2,17.9,1.2,15.8,1.2,14.2z M6.1,11.5c1.6,0.9,3.4,1.9,4.8,2.8c0,1.6,0,3.7,0,5.5c-1.6-0.9-3.4-1.9-4.8-2.8    C6.1,15.3,6.1,13.3,6.1,11.5z M6,17.1c1.4,0.8,3.2,1.8,4.8,2.8c-1.6,0.9-3.4,1.9-4.8,2.8c-1.4-0.8-3.2-1.8-4.8-2.8    C2.8,19,4.6,17.9,6,17.1z M15.9,22.6c-1.4-0.8-3.2-1.8-4.8-2.8c1.6-0.9,3.4-1.9,4.8-2.8c1.4,0.8,3.2,1.8,4.8,2.8    C19.1,20.8,17.3,21.8,15.9,22.6z M15.8,17c-1.4,0.8-3.2,1.8-4.8,2.8c0-1.8,0-3.9,0-5.5c1.4-0.8,3.2-1.8,4.8-2.8    C15.8,13.3,15.8,15.3,15.8,17z M11,14.1c-1.4-0.8-3.2-1.8-4.8-2.8c1.6-0.9,3.4-1.9,4.8-2.8c1.4,0.8,3.2,1.8,4.8,2.8    C14.2,12.2,12.4,13.2,11,14.1z M6,11.2c-1.6-0.9-3.4-1.9-4.8-2.8c0-1.6,0-3.7,0-5.5C2.8,3.8,4.5,4.8,6,5.7C6,7.3,6,9.4,6,11.2z     M6.1,5.7c1.4-0.8,3.2-1.8,4.8-2.8c0,1.8,0,3.9,0,5.5c-1.4,0.8-3.2,1.8-4.8,2.8C6.1,9.4,6.1,7.3,6.1,5.7z M6,0    c1.4,0.8,3.2,1.8,4.8,2.8C9.3,3.7,7.5,4.7,6,5.5C4.6,4.7,2.8,3.7,1.3,2.8C2.8,1.9,4.6,0.8,6,0z"/>
		<path style="clip-path:url(#SVGID_2_);fill:#664422;" d="M24.1-0.1c-0.8,0.5-1.6,0.9-2.5,1.4c0-0.5,0-1,0-1.4h-0.1    c0,0.5,0,1,0,1.6c0.9-0.5,1.8-1.1,2.7-1.6H24.1z"/>
		<path style="clip-path:url(#SVGID_2_);fill:#664422;" d="M15.9,4.8c1.1-0.6,2.3-1.3,3.5-2c-1.2-0.7-2.4-1.4-3.5-2    c-1.1,0.6-2.3,1.3-3.5,2C13.6,3.4,14.9,4.1,15.9,4.8z M15.9,0.8c1,0.6,2.2,1.3,3.3,1.9c-1.1,0.7-2.3,1.3-3.3,1.9    c-1-0.6-2.2-1.3-3.3-1.9C13.7,2.1,14.9,1.4,15.9,0.8z"/>
		<path style="clip-path:url(#SVGID_2_);fill:#664422;" d="M12.5,7.6c0.6,0.4,1.3,0.8,2,1.2c0-0.8,0-1.6,0-2.3    c-0.6-0.4-1.3-0.8-2-1.2C12.5,6.1,12.5,6.9,12.5,7.6z M14.4,6.5c0,0.7,0,1.4,0,2.1c-0.6-0.4-1.3-0.7-1.8-1.1c0-0.7,0-1.4,0-2.1    C13.2,5.8,13.8,6.2,14.4,6.5z"/>
		<path style="clip-path:url(#SVGID_2_);fill:#664422;" d="M9.5,5.3c-0.7,0.4-1.4,0.8-2,1.2c0,0.7,0,1.5,0,2.3    c0.7-0.4,1.4-0.8,2-1.2C9.5,6.9,9.5,6.1,9.5,5.3z M7.6,8.6c0-0.7,0-1.5,0-2.1c0.6-0.3,1.2-0.7,1.8-1.1c0,0.7,0,1.5,0,2.1    C8.9,7.9,8.2,8.3,7.6,8.6z"/>
		<path style="clip-path:url(#SVGID_2_);fill:#664422;" d="M8.1,2.8C7.4,2.4,6.7,2,6,1.6C5.4,2,4.7,2.4,4,2.8c0.7,0.4,1.4,0.8,2,1.2    C6.7,3.5,7.4,3.2,8.1,2.8z M4.2,2.8C4.8,2.4,5.5,2,6,1.7C6.6,2,7.3,2.4,7.9,2.8C7.3,3.1,6.6,3.5,6,3.8C5.5,3.5,4.8,3.1,4.2,2.8z"/>
		<path style="clip-path:url(#SVGID_2_);fill:#664422;" d="M6.6,2.8C6.4,2.7,6.2,2.5,6,2.4C5.9,2.5,5.7,2.7,5.5,2.8    C5.7,2.9,5.9,3,6,3.1C6.2,3,6.4,2.9,6.6,2.8z M5.7,2.8C5.8,2.7,5.9,2.6,6,2.5c0.1,0.1,0.2,0.1,0.4,0.2C6.3,2.8,6.2,2.9,6,3    C5.9,2.9,5.8,2.8,5.7,2.8z"/>
		<path style="clip-path:url(#SVGID_2_);fill:#664422;" d="M10.3-0.1L10.3-0.1c-0.1,0.5-0.1,1-0.1,1.4c-0.8-0.5-1.7-1-2.5-1.4H7.5    c0.9,0.5,1.8,1,2.7,1.6C10.3,1,10.3,0.4,10.3-0.1z"/>
		<path style="clip-path:url(#SVGID_2_);fill:#664422;" d="M9.5-0.1L9.5-0.1L9.4,0.1C9.3,0,9.3,0,9.2-0.1H9C9.2,0,9.3,0.1,9.5,0.2    C9.5,0.1,9.5,0,9.5-0.1z"/>
		<path style="clip-path:url(#SVGID_2_);fill:#664422;" d="M14.3-0.1c-0.8,0.5-1.6,0.9-2.5,1.4c0-0.5,0-1,0-1.4h-0.1    c0,0.5,0,1,0,1.6c0.9-0.5,1.8-1.1,2.7-1.6H14.3z"/>
		<path style="clip-path:url(#SVGID_2_);fill:#664422;" d="M12.8-0.1C12.7,0,12.6,0,12.5,0.1v-0.2h-0.1c0,0.1,0,0.2,0,0.3    C12.6,0.1,12.8,0,13-0.1H12.8z"/>
		<path style="clip-path:url(#SVGID_2_);fill:#664422;" d="M6,4.8c1.1-0.6,2.3-1.3,3.5-2C8.3,2.1,7.1,1.4,6,0.8    C5,1.4,3.8,2.1,2.6,2.8C3.8,3.4,5,4.1,6,4.8z M6,0.8c1,0.6,2.2,1.3,3.3,1.9C8.2,3.4,7.1,4.1,6,4.7C5,4.1,3.9,3.4,2.7,2.8    C3.9,2.1,5,1.4,6,0.8z"/>
		<path style="clip-path:url(#SVGID_2_);fill:#664422;" d="M2.6,7.6c0.6,0.4,1.3,0.8,2,1.2c0-0.8,0-1.6,0-2.3    c-0.6-0.4-1.3-0.8-2-1.2C2.6,6.1,2.6,6.9,2.6,7.6z M4.5,6.5c0,0.7,0,1.4,0,2.1C3.9,8.3,3.2,7.9,2.7,7.6c0-0.7,0-1.4,0-2.1    C3.3,5.8,3.9,6.2,4.5,6.5z"/>
		<path style="clip-path:url(#SVGID_2_);fill:#664422;" d="M0.4,4C0,4.2-0.4,4.5-0.8,4.7v0.1c0.4-0.2,0.7-0.4,1.1-0.6    c0,1.3,0,2.6,0,3.8C0,8.2-0.4,8.4-0.8,8.6v0.1C-0.4,8.5,0,8.2,0.4,8C0.4,6.8,0.4,5.4,0.4,4z"/>
		<path style="clip-path:url(#SVGID_2_);fill:#664422;" d="M0.4-0.1L0.4-0.1c-0.1,0.5-0.1,1-0.1,1.4c-0.3-0.2-0.7-0.4-1.1-0.6v0.1    C-0.4,1.1,0,1.3,0.4,1.5C0.4,1,0.4,0.4,0.4-0.1z"/>
		<path style="clip-path:url(#SVGID_2_);fill:#664422;" d="M4.6-0.1L4.6-0.1H4.4C3.6,0.4,2.8,0.9,1.9,1.3c0-0.5,0-1,0-1.4H1.8    c0,0.5,0,1,0,1.6C2.3,1.2,2.8,1,3.2,0.7C3.7,0.4,4.1,0.2,4.6-0.1z"/>
		<path style="clip-path:url(#SVGID_2_);fill:#664422;" d="M2.9-0.1C2.8,0,2.8,0,2.7,0.1v-0.2H2.6c0,0.1,0,0.2,0,0.3    C2.8,0.1,2.9,0,3.1-0.1H2.9z"/>
		<path style="clip-path:url(#SVGID_2_);fill:#664422;" d="M25.1,10c0-1.4,0-2.8,0-4c-1.1-0.6-2.3-1.3-3.5-2c0,1.4,0,2.8,0,4    C22.7,8.6,23.9,9.4,25.1,10z M25,6.1c0,1.2,0,2.5,0,3.8c-1.1-0.7-2.3-1.3-3.3-1.9c0-1.2,0-2.5,0-3.8C22.8,4.8,24,5.5,25,6.1z"/>
		<path style="clip-path:url(#SVGID_2_);fill:#664422;" d="M17.4,11.3c1.2,0.7,2.4,1.4,3.5,2c1.1-0.6,2.3-1.3,3.5-2    c-1.2-0.7-2.4-1.4-3.5-2C19.8,9.9,18.6,10.6,17.4,11.3z M24.2,11.3c-1.1,0.7-2.3,1.3-3.3,1.9c-1-0.6-2.2-1.3-3.3-1.9    c1.1-0.7,2.3-1.3,3.3-1.9C21.9,10,23,10.7,24.2,11.3z"/>
		<path style="clip-path:url(#SVGID_2_);fill:#664422;" d="M18.9,11.3c0.7,0.4,1.4,0.8,2,1.2c0.6-0.4,1.3-0.8,2-1.2    c-0.7-0.4-1.4-0.8-2-1.2C20.2,10.5,19.5,10.9,18.9,11.3z M22.7,11.3c-0.6,0.4-1.3,0.7-1.8,1.1c-0.6-0.3-1.2-0.7-1.8-1.1    c0.6-0.4,1.3-0.7,1.8-1.1C21.4,10.6,22.1,10.9,22.7,11.3z"/>
		<path style="clip-path:url(#SVGID_2_);fill:#664422;" d="M20.3,11.3c0.2,0.1,0.4,0.2,0.5,0.3c0.2-0.1,0.4-0.2,0.5-0.3    c-0.2-0.1-0.4-0.2-0.5-0.3C20.7,11.1,20.5,11.2,20.3,11.3z M21.2,11.3c-0.1,0.1-0.3,0.1-0.4,0.2c-0.1-0.1-0.2-0.1-0.4-0.2    c0.1-0.1,0.3-0.1,0.4-0.2C21,11.2,21.1,11.2,21.2,11.3z"/>
		<path style="clip-path:url(#SVGID_2_);fill:#664422;" d="M16.7,16.6c1.1,0.6,2.3,1.3,3.5,2c0-1.4,0-2.8,0-4    c-1.1-0.6-2.3-1.3-3.5-2C16.7,13.9,16.7,15.4,16.7,16.6z M20,14.6c0,1.2,0,2.5,0,3.8c-1.1-0.7-2.3-1.3-3.3-1.9c0-1.2,0-2.5,0-3.8    C17.9,13.4,19,14,20,14.6z"/>
		<path style="clip-path:url(#SVGID_2_);fill:#664422;" d="M18.1,15.1c0,0.2,0,0.4,0,0.6c0.2,0.1,0.4,0.2,0.5,0.3c0-0.2,0-0.4,0-0.6    C18.5,15.3,18.3,15.2,18.1,15.1z M18.6,15.9c-0.1-0.1-0.3-0.1-0.4-0.2c0-0.1,0-0.3,0-0.4c0.1,0.1,0.3,0.1,0.4,0.2    C18.6,15.6,18.6,15.8,18.6,15.9z"/>
		<path style="clip-path:url(#SVGID_2_);fill:#664422;" d="M13.7,15.1c-0.2,0.1-0.4,0.2-0.5,0.3c0,0.2,0,0.4,0,0.6    c0.2-0.1,0.4-0.2,0.5-0.3C13.7,15.5,13.7,15.3,13.7,15.1z M13.3,15.9c0-0.1,0-0.3,0-0.4c0.1-0.1,0.2-0.1,0.4-0.2    c0,0.1,0,0.3,0,0.4C13.5,15.8,13.4,15.8,13.3,15.9z"/>
		<path style="clip-path:url(#SVGID_2_);fill:#664422;" d="M15.2,6c-1.1-0.6-2.3-1.3-3.5-2c0,1.4,0,2.8,0,4c1.1,0.6,2.3,1.3,3.5,2    C15.2,8.7,15.2,7.3,15.2,6z M11.8,8c0-1.2,0-2.5,0-3.8c1.1,0.7,2.3,1.3,3.3,1.9c0,1.2,0,2.5,0,3.8C14,9.2,12.8,8.6,11.8,8z"/>
		<path style="clip-path:url(#SVGID_2_);fill:#664422;" d="M13.7,6.9c-0.2-0.1-0.4-0.2-0.5-0.3c0,0.2,0,0.4,0,0.6    c0.2,0.1,0.4,0.2,0.5,0.3C13.7,7.3,13.7,7.1,13.7,6.9z M13.3,7.1c0-0.1,0-0.3,0-0.4c0.1,0.1,0.3,0.1,0.4,0.2c0,0.1,0,0.3,0,0.4    C13.5,7.3,13.4,7.2,13.3,7.1z"/>
		<path style="clip-path:url(#SVGID_2_);fill:#664422;" d="M17.4,8.8c0.7-0.4,1.4-0.8,2-1.2c0-0.7,0-1.5,0-2.3    c-0.7,0.4-1.4,0.8-2,1.2C17.4,7.2,17.4,8,17.4,8.8z M19.3,5.4c0,0.7,0,1.5,0,2.1c-0.6,0.3-1.2,0.7-1.8,1.1c0-0.7,0-1.5,0-2.1    C18.1,6.2,18.7,5.8,19.3,5.4z"/>
		<path style="clip-path:url(#SVGID_2_);fill:#664422;" d="M18.7,7.2c0-0.2,0-0.4,0-0.6c-0.2,0.1-0.4,0.2-0.5,0.3c0,0.2,0,0.4,0,0.6    C18.3,7.4,18.5,7.3,18.7,7.2L18.7,7.2z M18.2,7.4c0-0.1,0-0.3,0-0.4c0.1-0.1,0.2-0.1,0.4-0.2c0,0.1,0,0.3,0,0.4    C18.5,7.2,18.3,7.3,18.2,7.4z"/>
		<path style="clip-path:url(#SVGID_2_);fill:#664422;" d="M7.5,11.3c1.2,0.7,2.4,1.4,3.5,2c1.1-0.6,2.3-1.3,3.5-2    c-1.2-0.7-2.4-1.4-3.5-2C9.9,9.9,8.7,10.6,7.5,11.3z M14.3,11.3C13.2,12,12,12.6,11,13.2c-1-0.6-2.2-1.3-3.3-1.9    C8.8,10.7,10,10,11,9.4C12,10,13.2,10.7,14.3,11.3z"/>
		<path style="clip-path:url(#SVGID_2_);fill:#664422;" d="M9,11.3c0.7,0.4,1.4,0.8,2,1.2c0.6-0.4,1.3-0.8,2-1.2    c-0.7-0.4-1.4-0.8-2-1.2C10.4,10.5,9.7,10.9,9,11.3z M12.8,11.3c-0.6,0.4-1.3,0.7-1.8,1.1c-0.6-0.3-1.2-0.7-1.8-1.1    c0.6-0.4,1.3-0.7,1.8-1.1C11.6,10.6,12.2,10.9,12.8,11.3z"/>
		<path style="clip-path:url(#SVGID_2_);fill:#664422;" d="M10.4,11.3c0.2,0.1,0.4,0.2,0.5,0.3c0.2-0.1,0.4-0.2,0.5-0.3    c-0.2-0.1-0.4-0.2-0.5-0.3C10.8,11.1,10.6,11.2,10.4,11.3z M11.4,11.3c-0.1,0.1-0.3,0.1-0.4,0.2c-0.1-0.1-0.2-0.1-0.4-0.2    c0.1-0.1,0.3-0.1,0.4-0.2C11.1,11.2,11.2,11.2,11.4,11.3z"/>
		<path style="clip-path:url(#SVGID_2_);fill:#664422;" d="M6.8,16.6c1.1,0.6,2.3,1.3,3.5,2c0-1.4,0-2.8,0-4c-1.1-0.6-2.3-1.3-3.5-2    C6.8,13.9,6.8,15.4,6.8,16.6z M10.2,14.6c0,1.2,0,2.5,0,3.8c-1.1-0.7-2.3-1.3-3.3-1.9c0-1.2,0-2.5,0-3.8C8,13.4,9.2,14,10.2,14.6z    "/>
		<path style="clip-path:url(#SVGID_2_);fill:#664422;" d="M8.2,15.7c0.2,0.1,0.4,0.2,0.5,0.3c0-0.2,0-0.4,0-0.6    c-0.2-0.1-0.4-0.2-0.5-0.3C8.2,15.3,8.2,15.5,8.2,15.7z M8.7,15.5c0,0.1,0,0.3,0,0.4c-0.1-0.1-0.3-0.1-0.4-0.2c0-0.1,0-0.3,0-0.4    C8.5,15.3,8.6,15.4,8.7,15.5z"/>
		<path style="clip-path:url(#SVGID_2_);fill:#664422;" d="M4.6,13.8c-0.7,0.4-1.4,0.8-2,1.2c0,0.7,0,1.5,0,2.3    c0.7-0.4,1.4-0.8,2-1.2C4.6,15.4,4.6,14.6,4.6,13.8z M2.7,17.2c0-0.7,0-1.5,0-2.1c0.6-0.3,1.2-0.7,1.8-1.1c0,0.7,0,1.5,0,2.1    C3.9,16.5,3.3,16.8,2.7,17.2z"/>
		<path style="clip-path:url(#SVGID_2_);fill:#664422;" d="M4.6,11.3c-1.2-0.7-2.4-1.4-3.5-2C0.5,9.6-0.1,10-0.8,10.4v0.1    c0.6-0.4,1.3-0.7,1.9-1.1c1,0.6,2.2,1.3,3.3,1.9c-1.1,0.7-2.3,1.3-3.3,1.9c-0.6-0.3-1.2-0.7-1.9-1.1v0.1c0.6,0.4,1.3,0.7,1.9,1.1    C2.2,12.7,3.4,12,4.6,11.3z"/>
		<path style="clip-path:url(#SVGID_2_);fill:#664422;" d="M3.1,11.3c-0.7-0.4-1.4-0.8-2-1.2c-0.6,0.3-1.2,0.7-1.9,1.1v0.1v0.1    c0.6,0.4,1.3,0.7,1.9,1.1C1.7,12.1,2.4,11.7,3.1,11.3z M-0.7,11.3c0.6-0.4,1.3-0.7,1.8-1.1c0.6,0.3,1.2,0.7,1.8,1.1    c-0.6,0.4-1.3,0.7-1.8,1.1C0.5,12-0.1,11.7-0.7,11.3z"/>
		<path style="clip-path:url(#SVGID_2_);fill:#664422;" d="M1.7,11.3c-0.2-0.1-0.4-0.2-0.5-0.3c-0.2,0.1-0.4,0.2-0.5,0.3    c0.2,0.1,0.4,0.2,0.5,0.3C1.3,11.5,1.5,11.4,1.7,11.3z M0.7,11.3c0.1-0.1,0.3-0.1,0.4-0.2c0.1,0.1,0.2,0.1,0.4,0.2    c-0.1,0.1-0.3,0.1-0.4,0.2C1,11.5,0.9,11.4,0.7,11.3z"/>
		<path style="clip-path:url(#SVGID_2_);fill:#664422;" d="M5.3,6C4.3,5.4,3,4.7,1.8,4c0,1.4,0,2.8,0,4c1.1,0.6,2.3,1.3,3.5,2    C5.3,8.7,5.3,7.3,5.3,6z M1.9,8c0-1.2,0-2.5,0-3.8c1.1,0.7,2.3,1.3,3.3,1.9c0,1.2,0,2.5,0,3.8C4.1,9.2,2.9,8.6,1.9,8z"/>
		<path style="clip-path:url(#SVGID_2_);fill:#664422;" d="M3.9,6.9C3.7,6.8,3.5,6.7,3.3,6.6c0,0.2,0,0.4,0,0.6    c0.2,0.1,0.4,0.2,0.5,0.3C3.9,7.3,3.9,7.1,3.9,6.9z M3.4,7.1c0-0.1,0-0.3,0-0.4c0.1,0.1,0.3,0.1,0.4,0.2c0,0.1,0,0.3,0,0.4    C3.6,7.3,3.5,7.2,3.4,7.1z"/>
		<path style="clip-path:url(#SVGID_2_);fill:#664422;" d="M6.8,10C8,9.4,9.2,8.6,10.3,8c0-1.2,0-2.6,0-4C9.1,4.7,7.8,5.4,6.8,6    C6.8,7.3,6.8,8.7,6.8,10z M10.2,4.2c0,1.3,0,2.6,0,3.8C9.2,8.6,8,9.2,6.9,9.9c0-1.3,0-2.6,0-3.8C7.9,5.5,9,4.8,10.2,4.2z"/>
		<path style="clip-path:url(#SVGID_2_);fill:#664422;" d="M8.2,7.5c0.2-0.1,0.4-0.2,0.5-0.3c0-0.2,0-0.4,0-0.6    C8.6,6.7,8.4,6.8,8.2,6.9C8.2,7.1,8.2,7.3,8.2,7.5z M8.3,6.9c0.1-0.1,0.2-0.1,0.4-0.2c0,0.1,0,0.3,0,0.4C8.6,7.2,8.5,7.3,8.3,7.4    C8.3,7.2,8.3,7.1,8.3,6.9z"/>
		<path style="clip-path:url(#SVGID_2_);fill:#664422;" d="M19.4,15c-0.6-0.4-1.3-0.8-2-1.2c0,0.8,0,1.6,0,2.3    c0.6,0.4,1.3,0.8,2,1.2C19.4,16.5,19.4,15.7,19.4,15z M17.5,16.1c0-0.7,0-1.4,0-2.1c0.6,0.4,1.3,0.7,1.8,1.1c0,0.7,0,1.4,0,2.1    C18.7,16.8,18.1,16.5,17.5,16.1z"/>
		<path style="clip-path:url(#SVGID_2_);fill:#664422;" d="M25.1,16.6c0-1.2,0-2.6,0-4c-1.2,0.7-2.4,1.4-3.5,2c0,1.2,0,2.6,0,4    C22.8,17.9,24,17.2,25.1,16.6z M25,12.7c0,1.3,0,2.6,0,3.8c-1,0.6-2.2,1.3-3.3,1.9c0-1.3,0-2.6,0-3.8C22.7,14,23.9,13.4,25,12.7z"/>
		<path style="clip-path:url(#SVGID_2_);fill:#664422;" d="M12.5,19.9c1.2,0.7,2.4,1.4,3.5,2c1.1-0.6,2.3-1.3,3.5-2    c-1.2-0.7-2.4-1.4-3.5-2C14.9,18.5,13.6,19.2,12.5,19.9z M19.2,19.9c-1.1,0.7-2.3,1.3-3.3,1.9c-1-0.6-2.2-1.3-3.3-1.9    c1.1-0.7,2.3-1.3,3.3-1.9C16.9,18.5,18.1,19.2,19.2,19.9z"/>
		<path style="clip-path:url(#SVGID_2_);fill:#664422;" d="M13.9,19.9c0.7,0.4,1.4,0.8,2,1.2c0.6-0.4,1.3-0.8,2-1.2    c-0.7-0.4-1.4-0.8-2-1.2C15.3,19.1,14.6,19.5,13.9,19.9z M17.8,19.9c-0.6,0.4-1.3,0.7-1.8,1.1c-0.6-0.3-1.2-0.7-1.8-1.1    c0.6-0.4,1.3-0.7,1.8-1.1C16.5,19.1,17.1,19.5,17.8,19.9z"/>
		<path style="clip-path:url(#SVGID_2_);fill:#664422;" d="M15.4,19.9c0.2,0.1,0.4,0.2,0.5,0.3c0.2-0.1,0.4-0.2,0.5-0.3    c-0.2-0.1-0.4-0.2-0.5-0.3C15.7,19.7,15.6,19.8,15.4,19.9z M16.3,19.9c-0.1,0.1-0.3,0.1-0.4,0.2c-0.1-0.1-0.2-0.1-0.4-0.2    c0.1-0.1,0.3-0.1,0.4-0.2C16,19.7,16.2,19.8,16.3,19.9z"/>
		<path style="clip-path:url(#SVGID_2_);fill:#664422;" d="M12.5,24.7c0.6,0.4,1.3,0.8,2,1.2c0-0.8,0-1.6,0-2.3    c-0.6-0.4-1.3-0.8-2-1.2C12.5,23.2,12.5,24,12.5,24.7z M14.4,23.6c0,0.7,0,1.4,0,2.1c-0.6-0.4-1.3-0.7-1.8-1.1c0-0.7,0-1.4,0-2.1    C13.2,22.9,13.8,23.3,14.4,23.6z"/>
		<path style="clip-path:url(#SVGID_2_);fill:#664422;" d="M8.8,23.7c-0.2,0.1-0.4,0.2-0.5,0.3c0,0.2,0,0.4,0,0.6    c0.2-0.1,0.4-0.2,0.5-0.3C8.8,24.1,8.8,23.9,8.8,23.7z M8.3,24.5c0-0.1,0-0.3,0-0.4c0.1-0.1,0.2-0.1,0.4-0.2c0,0.1,0,0.3,0,0.4    C8.6,24.3,8.5,24.4,8.3,24.5z"/>
		<path style="clip-path:url(#SVGID_2_);fill:#664422;" d="M9.5,19.9c-1.2-0.7-2.4-1.4-3.5-2c-1.1,0.6-2.3,1.3-3.5,2    c1.2,0.7,2.4,1.4,3.5,2C7.1,21.2,8.3,20.5,9.5,19.9z M2.7,19.9C3.9,19.2,5,18.5,6,17.9c1,0.6,2.2,1.3,3.3,1.9    c-1.1,0.7-2.3,1.3-3.3,1.9C5,21.2,3.9,20.5,2.7,19.9z"/>
		<path style="clip-path:url(#SVGID_2_);fill:#664422;" d="M8.1,19.9c-0.7-0.4-1.4-0.8-2-1.2c-0.6,0.4-1.3,0.8-2,1.2    c0.7,0.4,1.4,0.8,2,1.2C6.7,20.7,7.4,20.3,8.1,19.9z M4.2,19.9c0.6-0.4,1.3-0.7,1.8-1.1c0.6,0.3,1.2,0.7,1.8,1.1    c-0.6,0.4-1.3,0.7-1.8,1.1C5.5,20.6,4.8,20.2,4.2,19.9z"/>
		<path style="clip-path:url(#SVGID_2_);fill:#664422;" d="M6.6,19.9c-0.2-0.1-0.4-0.2-0.5-0.3c-0.2,0.1-0.4,0.2-0.5,0.3    C5.7,20,5.9,20.1,6,20.2C6.2,20.1,6.4,20,6.6,19.9z M5.7,19.9c0.1-0.1,0.3-0.1,0.4-0.2c0.1,0.1,0.2,0.1,0.4,0.2    C6.3,19.9,6.2,20,6,20.1C5.9,20,5.8,19.9,5.7,19.9z"/>
		<path style="clip-path:url(#SVGID_2_);fill:#664422;" d="M9.5,15c-0.6-0.4-1.3-0.8-2-1.2c0,0.8,0,1.6,0,2.3c0.6,0.4,1.3,0.8,2,1.2    C9.5,16.5,9.5,15.7,9.5,15z M7.6,16.1c0-0.7,0-1.4,0-2.1c0.6,0.4,1.3,0.7,1.8,1.1c0,0.7,0,1.4,0,2.1C8.8,16.8,8.2,16.5,7.6,16.1z"/>
		<path style="clip-path:url(#SVGID_2_);fill:#664422;" d="M15.2,16.6c0-1.2,0-2.6,0-4c-1.2,0.7-2.4,1.4-3.5,2c0,1.2,0,2.6,0,4    c0.6-0.3,1.2-0.7,1.8-1C14.1,17.2,14.7,16.9,15.2,16.6z M11.8,18.4c0-1.3,0-2.6,0-3.8c1-0.6,2.2-1.3,3.3-1.9c0,1.3,0,2.6,0,3.8    C14.1,17.1,12.9,17.8,11.8,18.4z"/>
		<path style="clip-path:url(#SVGID_2_);fill:#664422;" d="M12.5,17.3c0.7-0.4,1.4-0.8,2-1.2c0-0.7,0-1.5,0-2.3    c-0.7,0.4-1.4,0.8-2,1.2C12.5,15.7,12.5,16.5,12.5,17.3z M14.4,14c0,0.7,0,1.5,0,2.1c-0.6,0.3-1.2,0.7-1.8,1.1c0-0.7,0-1.5,0-2.1    C13.1,14.7,13.7,14.4,14.4,14z"/>
		<path style="clip-path:url(#SVGID_2_);fill:#664422;" d="M2.6,24.7c0.6,0.4,1.3,0.8,2,1.2c0-0.8,0-1.6,0-2.3    c-0.6-0.4-1.3-0.8-2-1.2C2.6,23.2,2.6,24,2.6,24.7z M4.5,23.6c0,0.7,0,1.4,0,2.1c-0.6-0.4-1.3-0.7-1.8-1.1c0-0.7,0-1.4,0-2.1    C3.3,22.9,3.9,23.3,4.5,23.6z"/>
		<path style="clip-path:url(#SVGID_2_);fill:#664422;" d="M0.4,21.1c-0.4,0.2-0.8,0.4-1.1,0.7v0.1c0.4-0.2,0.7-0.4,1.1-0.6    c0,1.3,0,2.6,0,3.8c-0.3,0.2-0.7,0.4-1.1,0.6v0.1c0.4-0.2,0.8-0.4,1.1-0.7C0.4,23.9,0.4,22.5,0.4,21.1z"/>
		<path style="clip-path:url(#SVGID_2_);fill:#664422;" d="M0.4,14.6c-0.4-0.2-0.7-0.4-1.1-0.7V14C-0.4,14.2,0,14.4,0.4,14.6    c-0.1,1.2-0.1,2.6-0.1,3.9c-0.3-0.2-0.7-0.4-1.1-0.6v0.1c0.4,0.2,0.8,0.4,1.1,0.7C0.4,17.2,0.4,15.8,0.4,14.6z"/>
		<path style="clip-path:url(#SVGID_2_);fill:#664422;" d="M1.8,18.6c1.2-0.7,2.4-1.4,3.5-2c0-1.2,0-2.6,0-4c-1.2,0.7-2.4,1.4-3.5,2    C1.8,15.8,1.8,17.2,1.8,18.6z M5.2,12.7c0,1.3,0,2.6,0,3.8c-1,0.6-2.2,1.3-3.3,1.9c0-1.3,0-2.6,0-3.8C2.9,14,4.1,13.4,5.2,12.7z"/>
		<path style="clip-path:url(#SVGID_2_);fill:#664422;" d="M3.3,16.1c0.2-0.1,0.4-0.2,0.5-0.3c0-0.2,0-0.4,0-0.6    c-0.2,0.1-0.4,0.2-0.5,0.3C3.3,15.6,3.3,15.8,3.3,16.1z M3.8,15.3c0,0.1,0,0.3,0,0.4c-0.1,0.1-0.2,0.1-0.4,0.2c0-0.1,0-0.3,0-0.4    C3.5,15.4,3.6,15.3,3.8,15.3z"/>
		<path style="clip-path:url(#SVGID_2_);fill:#664422;" d="M25.1,27.1c0-1.4,0-2.8,0-4c-1.1-0.6-2.3-1.3-3.5-2c0,1.4,0,2.8,0,4    C22.7,25.8,23.9,26.5,25.1,27.1z M25,23.2c0,1.2,0,2.5,0,3.8c-1.1-0.7-2.3-1.3-3.3-1.9c0-1.2,0-2.5,0-3.8    C22.8,21.9,24,22.6,25,23.2z"/>
		<path style="clip-path:url(#SVGID_2_);fill:#664422;" d="M18.7,24.3c0-0.2,0-0.4,0-0.6c-0.2,0.1-0.4,0.2-0.5,0.3    c0,0.2,0,0.4,0,0.6C18.3,24.5,18.5,24.4,18.7,24.3z M18.2,24c0.1-0.1,0.2-0.1,0.4-0.2c0,0.1,0,0.3,0,0.4c-0.1,0.1-0.2,0.1-0.4,0.2    C18.2,24.3,18.2,24.2,18.2,24z"/>
		<path style="clip-path:url(#SVGID_2_);fill:#664422;" d="M15.2,23.1c-1.1-0.6-2.3-1.3-3.5-2c0,1.4,0,2.8,0,4    c1.1,0.6,2.3,1.3,3.5,2C15.2,25.8,15.2,24.4,15.2,23.1z M11.8,25.1c0-1.2,0-2.5,0-3.8c1.1,0.7,2.3,1.3,3.3,1.9c0,1.2,0,2.5,0,3.8    C14,26.3,12.8,25.7,11.8,25.1z"/>
		<path style="clip-path:url(#SVGID_2_);fill:#664422;" d="M13.7,24c-0.2-0.1-0.4-0.2-0.5-0.3c0,0.2,0,0.4,0,0.6    c0.2,0.1,0.4,0.2,0.5,0.3C13.7,24.4,13.7,24.2,13.7,24z M13.3,24.2c0-0.1,0-0.3,0-0.4c0.1,0.1,0.3,0.1,0.4,0.2c0,0.1,0,0.3,0,0.4    C13.5,24.4,13.4,24.3,13.3,24.2z"/>
		<path style="clip-path:url(#SVGID_2_);fill:#664422;" d="M20.1,25.1c0-1.2,0-2.6,0-4c-1.2,0.7-2.4,1.4-3.5,2c0,1.2,0,2.6,0,4    c0.9-0.5,1.8-1,2.6-1.5C19.6,25.4,19.9,25.3,20.1,25.1z M16.7,23.2c1-0.6,2.2-1.3,3.3-1.9c0,1.3,0,2.6,0,3.8    c-1,0.6-2.2,1.3-3.3,1.9C16.7,25.7,16.7,24.4,16.7,23.2z"/>
		<path style="clip-path:url(#SVGID_2_);fill:#664422;" d="M17.4,25.9c0.7-0.4,1.4-0.8,2-1.2c0-0.7,0-1.5,0-2.3    c-0.7,0.4-1.4,0.8-2,1.2C17.4,24.3,17.4,25.1,17.4,25.9z M19.3,22.5c0,0.7,0,1.5,0,2.1c-0.6,0.3-1.2,0.7-1.8,1.1    c0-0.7,0-1.5,0-2.1C18.1,23.3,18.7,22.9,19.3,22.5z"/>
		<path style="clip-path:url(#SVGID_2_);fill:#664422;" d="M5.3,23.1c-1.1-0.6-2.3-1.3-3.5-2c0,1.4,0,2.8,0,4c1.1,0.6,2.3,1.3,3.5,2    C5.3,25.8,5.3,24.4,5.3,23.1z M1.9,25.1c0-1.2,0-2.5,0-3.8c1.1,0.7,2.3,1.3,3.3,1.9c0,1.2,0,2.5,0,3.8C4.1,26.3,2.9,25.7,1.9,25.1    z"/>
		<path style="clip-path:url(#SVGID_2_);fill:#664422;" d="M3.9,24c-0.2-0.1-0.4-0.2-0.5-0.3c0,0.2,0,0.4,0,0.6    c0.2,0.1,0.4,0.2,0.5,0.3C3.9,24.4,3.9,24.2,3.9,24z M3.4,24.2c0-0.1,0-0.3,0-0.4C3.5,23.9,3.6,24,3.8,24c0,0.1,0,0.3,0,0.4    C3.6,24.4,3.5,24.3,3.4,24.2z"/>
		<path style="clip-path:url(#SVGID_2_);fill:#664422;" d="M10.3,25.1c0-1.2,0-2.6,0-4c-1.2,0.7-2.4,1.4-3.5,2c0,1.2,0,2.6,0,4    c0.9-0.5,1.8-1,2.6-1.5C9.7,25.4,10,25.3,10.3,25.1z M6.9,23.2c1-0.6,2.2-1.3,3.3-1.9c0,1.3,0,2.6,0,3.8c-1,0.6-2.2,1.3-3.3,1.9    C6.9,25.7,6.9,24.4,6.9,23.2z"/>
		<path style="clip-path:url(#SVGID_2_);fill:#664422;" d="M7.5,25.9c0.7-0.4,1.4-0.8,2-1.2c0-0.7,0-1.5,0-2.3    c-0.7,0.4-1.4,0.8-2,1.2C7.5,24.3,7.5,25.1,7.5,25.9z M9.4,22.5c0,0.7,0,1.5,0,2.1c-0.6,0.3-1.2,0.7-1.8,1.1c0-0.7,0-1.5,0-2.1    C8.2,23.3,8.8,22.9,9.4,22.5z"/>
	</g>
	<g>
		<defs>
			<path id="SVGID_7_" d="M22,150v-25.3c-3.3,2.2-7.1,3.3-11,3.3c-3.9,0-7.7-1.2-11-3.3V150H22z"/>
		</defs>
		<clipPath id="SVGID_4_">
			<use xlink:href="#SVGID_7_" style="overflow:visible;"/>
		</clipPath>
		<rect x="-13.9" y="118.9" style="clip-path:url(#SVGID_4_);fill:#C2EEC2;" width="39.2" height="31.5"/>
		<path style="clip-path:url(#SVGID_4_);fill:#664422;" d="M1.9,146c1.2-0.7,2.4-1.4,3.5-2c0-1.2,0-2.6,0-4c-1.2,0.7-2.4,1.4-3.5,2    C1.9,143.2,1.9,144.6,1.9,146z M5.3,140.1c0,1.3,0,2.6,0,3.8c-1,0.6-2.2,1.3-3.3,1.9c0-1.3,0-2.6,0-3.8    C3,141.4,4.1,140.8,5.3,140.1z"/>
		<path style="clip-path:url(#SVGID_4_);fill:#664422;" d="M4.1,147.2c0.7,0.4,1.4,0.8,2,1.2c0.6-0.4,1.3-0.8,2-1.2    c-0.7-0.4-1.4-0.8-2-1.2C5.4,146.5,4.8,146.8,4.1,147.2z M7.9,147.2c-0.6,0.4-1.3,0.7-1.8,1.1c-0.6-0.3-1.2-0.7-1.8-1.1    c0.6-0.4,1.3-0.7,1.8-1.1C6.7,146.5,7.3,146.9,7.9,147.2z"/>
		<path style="clip-path:url(#SVGID_4_);fill:#664422;" d="M5.5,147.2c0.2,0.1,0.4,0.2,0.5,0.3c0.2-0.1,0.4-0.2,0.5-0.3    c-0.2-0.1-0.4-0.2-0.5-0.3C5.9,147,5.7,147.1,5.5,147.2z M6.5,147.2c-0.1,0.1-0.3,0.1-0.4,0.2c-0.1-0.1-0.2-0.1-0.4-0.2    c0.1-0.1,0.3-0.1,0.4-0.2C6.2,147.1,6.3,147.2,6.5,147.2z"/>
		<path style="clip-path:url(#SVGID_4_);fill:#664422;" d="M1.9,150.1L1.9,150.1c0.1-0.5,0.1-1,0.1-1.4c0.8,0.5,1.7,1,2.5,1.4h0.2    c-0.9-0.5-1.8-1-2.7-1.6C1.9,149,1.9,149.6,1.9,150.1z"/>
		<path style="clip-path:url(#SVGID_4_);fill:#664422;" d="M2.6,150.1L2.6,150.1l0.1-0.2c0.1,0.1,0.2,0.1,0.3,0.2h0.2    c-0.2-0.1-0.3-0.2-0.5-0.3C2.6,149.9,2.6,150,2.6,150.1z"/>
		<path style="clip-path:url(#SVGID_4_);fill:#664422;" d="M1.1,147.4c0,0.9,0,1.8,0,2.7h0.1h0.1c0-0.9,0-1.8,0-2.7    c1.5,0.9,3.3,1.9,4.7,2.7h0.2h0h0h0.2c1.4-0.8,3.1-1.8,4.7-2.7c0,0.9,0,1.8,0,2.7H11h0.1c0-0.9,0-1.8,0-2.7    c1.5,0.9,3.3,1.9,4.7,2.7h0.2h0h0h0.2c1.4-0.8,3.1-1.8,4.7-2.7c0,0.9,0,1.8,0,2.7h0.1H21c0-0.9,0-1.8,0-2.7c0.6,0.3,1.2,0.7,1.8,1    v-0.1v-0.1c-0.6-0.3-1.2-0.7-1.7-1c0.6-0.3,1.1-0.7,1.7-1v-0.1v-0.1c-0.6,0.3-1.2,0.7-1.8,1c0-1.8,0-3.9,0-5.5    c0.6-0.3,1.2-0.7,1.8-1v-0.1v-0.1c-0.7,0.4-1.3,0.7-1.9,1.1c-1.4-0.8-3.2-1.8-4.8-2.8c1.6-0.9,3.4-1.9,4.8-2.8    c0.6,0.3,1.2,0.7,1.9,1.1v-0.1v-0.1c-0.6-0.4-1.2-0.7-1.8-1c0-1.6,0-3.7,0-5.5c0.6,0.3,1.2,0.7,1.8,1v-0.1v-0.1    c-0.6-0.3-1.2-0.7-1.7-1c0.6-0.3,1.1-0.7,1.7-1v-0.1V129c-0.6,0.3-1.2,0.7-1.8,1c0-1.8,0-3.9,0-5.5c0.6-0.3,1.2-0.7,1.8-1v-0.1    v-0.1c-0.7,0.4-1.3,0.7-1.9,1.1c-1.4-0.8-3.2-1.8-4.8-2.8c1.1-0.6,2.2-1.3,3.3-1.9h-0.2h-0.2c-1,0.6-2.1,1.2-3.1,1.8    c0-0.6,0-1.2,0-1.8H16h-0.1c0,0.6,0,1.2,0,1.8c-1-0.6-2.1-1.2-3.1-1.8h-0.2h-0.2c1.1,0.6,2.3,1.3,3.3,1.9    c-1.6,0.9-3.4,1.9-4.8,2.8c-1.4-0.8-3.2-1.8-4.8-2.8c1.1-0.6,2.2-1.3,3.3-1.9H9.4H9.2c-1,0.6-2.1,1.2-3.1,1.8c0-0.6,0-1.2,0-1.8    H6.1H6c0,0.6,0,1.2,0,1.8c-1-0.6-2.1-1.2-3.1-1.8H2.7H2.6c1.1,0.6,2.3,1.3,3.3,1.9c-1.6,0.9-3.4,1.9-4.8,2.8    c-1.4-0.8-3.1-1.8-4.6-2.7v0.1v0.1c1.5,0.9,3.2,1.8,4.5,2.6c0,1.6,0,3.7,0,5.5c-1.5-0.9-3.1-1.8-4.5-2.6v0.1v0.1    c1.4,0.8,3,1.7,4.4,2.6c-1.4,0.8-3.1,1.8-4.4,2.6v0.1v0.1c1.4-0.8,3-1.8,4.5-2.6c0,1.8,0,3.9,0,5.5c-1.3,0.8-3,1.7-4.5,2.6v0.1    v0.1c1.5-0.9,3.2-1.9,4.6-2.7c1.4,0.8,3.2,1.8,4.8,2.8c-1.6,0.9-3.4,1.9-4.8,2.8c-1.4-0.8-3.1-1.8-4.6-2.7v0.1v0.1    c1.5,0.9,3.2,1.8,4.5,2.6c0,1.6,0,3.7,0,5.5c-1.5-0.9-3.1-1.8-4.5-2.6v0.1v0.1c1.4,0.8,3,1.7,4.4,2.6c-1.4,0.8-3.1,1.8-4.4,2.6    v0.1v0.1C-2.1,149.2-0.4,148.2,1.1,147.4z M6.1,150c-1.4-0.8-3.2-1.8-4.8-2.8c1.6-0.9,3.4-1.9,4.8-2.8c1.4,0.8,3.2,1.8,4.8,2.8    C9.3,148.1,7.5,149.2,6.1,150z M1.2,141.6c1.4-0.8,3.2-1.8,4.8-2.8c0,1.8,0,3.9,0,5.5c-1.4,0.8-3.2,1.8-4.8,2.8    C1.2,145.3,1.2,143.2,1.2,141.6z M6.2,138.8c1.6,0.9,3.4,1.9,4.8,2.8c0,1.6,0,3.7,0,5.5c-1.6-0.9-3.4-1.9-4.8-2.8    C6.2,142.7,6.2,140.6,6.2,138.8z M6,138.6c-1.6-0.9-3.4-1.9-4.8-2.8c0-1.6,0-3.7,0-5.5c1.6,0.9,3.4,1.9,4.8,2.8    C6,134.7,6,136.7,6,138.6z M1.2,124.5c1.4-0.8,3.2-1.8,4.8-2.8c0,1.8,0,3.9,0,5.5c-1.4,0.8-3.2,1.8-4.8,2.8    C1.2,128.2,1.2,126.1,1.2,124.5z M6.2,121.7c1.6,0.9,3.4,1.9,4.8,2.8c0,1.6,0,3.7,0,5.5c-1.6-0.9-3.4-1.9-4.8-2.8    C6.2,125.6,6.2,123.5,6.2,121.7z M11.1,124.5c1.4-0.8,3.2-1.8,4.8-2.8c0,1.8,0,3.9,0,5.5c-1.4,0.8-3.2,1.8-4.8,2.8    C11.1,128.2,11.1,126.1,11.1,124.5z M16,121.7c1.6,0.9,3.4,1.9,4.8,2.8c0,1.6,0,3.7,0,5.5c-1.6-0.9-3.4-1.9-4.8-2.8    C16,125.6,16,123.5,16,121.7z M20.8,135.8c-1.4,0.8-3.2,1.8-4.8,2.8c0-1.8,0-3.9,0-5.5c1.4-0.8,3.2-1.8,4.8-2.8    C20.8,132.1,20.8,134.2,20.8,135.8z M15.9,138.6c-1.6-0.9-3.4-1.9-4.8-2.8c0-1.6,0-3.7,0-5.5c1.6,0.9,3.4,1.9,4.8,2.8    C15.9,134.7,15.9,136.7,15.9,138.6z M16,132.9c-1.4-0.8-3.2-1.8-4.8-2.8c1.6-0.9,3.4-1.9,4.8-2.8c1.4,0.8,3.2,1.8,4.8,2.8    C19.2,131,17.4,132.1,16,132.9z M6.1,127.4c1.4,0.8,3.2,1.8,4.8,2.8c-1.6,0.9-3.4,1.9-4.8,2.8c-1.4-0.8-3.2-1.8-4.8-2.8    C2.9,129.2,4.7,128.2,6.1,127.4z M6.2,133c1.4-0.8,3.2-1.8,4.8-2.8c0,1.8,0,3.9,0,5.5c-1.4,0.8-3.2,1.8-4.8,2.8    C6.2,136.7,6.2,134.7,6.2,133z M11,135.9c1.4,0.8,3.2,1.8,4.8,2.8c-1.6,0.9-3.4,1.9-4.8,2.8c-1.4-0.8-3.2-1.8-4.8-2.8    C7.8,137.8,9.6,136.8,11,135.9z M16,138.8c1.6,0.9,3.4,1.9,4.8,2.8c0,1.6,0,3.7,0,5.5c-1.6-0.9-3.4-1.9-4.8-2.8    C16,142.7,16,140.6,16,138.8z M15.9,144.3c-1.4,0.8-3.2,1.8-4.8,2.8c0-1.8,0-3.9,0-5.5c1.4-0.8,3.2-1.8,4.8-2.8    C15.9,140.6,15.9,142.7,15.9,144.3z M16,150c-1.4-0.8-3.2-1.8-4.8-2.8c1.6-0.9,3.4-1.9,4.8-2.8c1.4,0.8,3.2,1.8,4.8,2.8    C19.2,148.1,17.4,149.2,16,150z"/>
		<path style="clip-path:url(#SVGID_4_);fill:#664422;" d="M-2.1,150.1c0.8-0.5,1.6-0.9,2.5-1.4c0,0.5,0,1,0,1.4h0.1    c0-0.5,0-1,0-1.6c-0.9,0.5-1.8,1.1-2.7,1.6H-2.1z"/>
		<path style="clip-path:url(#SVGID_4_);fill:#664422;" d="M6.1,145.2c-1.1,0.6-2.3,1.3-3.5,2c1.2,0.7,2.4,1.4,3.5,2    c1.1-0.6,2.3-1.3,3.5-2C8.4,146.6,7.1,145.9,6.1,145.2z M6.1,149.2c-1-0.6-2.2-1.3-3.3-1.9c1.1-0.7,2.3-1.3,3.3-1.9    c1,0.6,2.2,1.3,3.3,1.9C8.3,147.9,7.1,148.6,6.1,149.2z"/>
		<path style="clip-path:url(#SVGID_4_);fill:#664422;" d="M9.5,142.4c-0.6-0.4-1.3-0.8-2-1.2c0,0.8,0,1.6,0,2.3    c0.6,0.4,1.3,0.8,2,1.2C9.5,143.9,9.5,143.1,9.5,142.4z M7.6,143.5c0-0.7,0-1.4,0-2.1c0.6,0.4,1.3,0.7,1.8,1.1c0,0.7,0,1.4,0,2.1    C8.8,144.2,8.2,143.8,7.6,143.5z"/>
		<path style="clip-path:url(#SVGID_4_);fill:#664422;" d="M12.5,144.7c0.7-0.4,1.4-0.8,2-1.2c0-0.7,0-1.5,0-2.3    c-0.7,0.4-1.4,0.8-2,1.2C12.5,143.1,12.5,143.9,12.5,144.7z M14.4,141.4c0,0.7,0,1.5,0,2.1c-0.6,0.3-1.2,0.7-1.8,1.1    c0-0.7,0-1.5,0-2.1C13.1,142.1,13.8,141.7,14.4,141.4z"/>
		<path style="clip-path:url(#SVGID_4_);fill:#664422;" d="M13.9,147.2c0.7,0.4,1.4,0.8,2,1.2c0.6-0.4,1.3-0.8,2-1.2    c-0.7-0.4-1.4-0.8-2-1.2C15.3,146.5,14.6,146.8,13.9,147.2z M17.8,147.2c-0.6,0.4-1.3,0.7-1.8,1.1c-0.6-0.3-1.2-0.7-1.8-1.1    c0.6-0.4,1.3-0.7,1.8-1.1C16.5,146.5,17.2,146.9,17.8,147.2z"/>
		<path style="clip-path:url(#SVGID_4_);fill:#664422;" d="M15.4,147.2c0.2,0.1,0.4,0.2,0.5,0.3c0.2-0.1,0.4-0.2,0.5-0.3    c-0.2-0.1-0.4-0.2-0.5-0.3C15.8,147,15.6,147.1,15.4,147.2z M16.3,147.2c-0.1,0.1-0.3,0.1-0.4,0.2c-0.1-0.1-0.2-0.1-0.4-0.2    c0.1-0.1,0.3-0.1,0.4-0.2C16.1,147.1,16.2,147.2,16.3,147.2z"/>
		<path style="clip-path:url(#SVGID_4_);fill:#664422;" d="M11.7,150.1L11.7,150.1c0.1-0.5,0.1-1,0.1-1.4c0.8,0.5,1.7,1,2.5,1.4h0.2    c-0.9-0.5-1.8-1-2.7-1.6C11.7,149,11.7,149.6,11.7,150.1z"/>
		<path style="clip-path:url(#SVGID_4_);fill:#664422;" d="M12.5,150.1L12.5,150.1l0.1-0.2c0.1,0.1,0.2,0.1,0.3,0.2H13    c-0.2-0.1-0.3-0.2-0.5-0.3C12.5,149.9,12.5,150,12.5,150.1z"/>
		<path style="clip-path:url(#SVGID_4_);fill:#664422;" d="M7.7,150.1c0.8-0.5,1.6-0.9,2.5-1.4c0,0.5,0,1,0,1.4h0.1c0-0.5,0-1,0-1.6    c-0.9,0.5-1.8,1.1-2.7,1.6H7.7z"/>
		<path style="clip-path:url(#SVGID_4_);fill:#664422;" d="M9.2,150.1c0.1-0.1,0.2-0.1,0.3-0.2v0.2h0.1c0-0.1,0-0.2,0-0.3    c-0.2,0.1-0.3,0.2-0.5,0.3H9.2z"/>
		<path style="clip-path:url(#SVGID_4_);fill:#664422;" d="M16,145.2c-1.1,0.6-2.3,1.3-3.5,2c1.2,0.7,2.4,1.4,3.5,2    c1.1-0.6,2.3-1.3,3.5-2C18.2,146.6,17,145.9,16,145.2z M16,149.2c-1-0.6-2.2-1.3-3.3-1.9c1.1-0.7,2.3-1.3,3.3-1.9    c1,0.6,2.2,1.3,3.3,1.9C18.1,147.9,17,148.6,16,149.2z"/>
		<path style="clip-path:url(#SVGID_4_);fill:#664422;" d="M19.4,142.4c-0.6-0.4-1.3-0.8-2-1.2c0,0.8,0,1.6,0,2.3    c0.6,0.4,1.3,0.8,2,1.2C19.4,143.9,19.4,143.1,19.4,142.4z M17.5,143.5c0-0.7,0-1.4,0-2.1c0.6,0.4,1.3,0.7,1.8,1.1    c0,0.7,0,1.4,0,2.1C18.7,144.2,18.1,143.8,17.5,143.5z"/>
		<path style="clip-path:url(#SVGID_4_);fill:#664422;" d="M21.6,146c0.4-0.2,0.8-0.4,1.1-0.7v-0.1c-0.4,0.2-0.7,0.4-1.1,0.6    c0-1.3,0-2.6,0-3.8c0.3-0.2,0.7-0.4,1.1-0.6v-0.1c-0.4,0.2-0.8,0.4-1.1,0.7C21.6,143.2,21.6,144.6,21.6,146z"/>
		<path style="clip-path:url(#SVGID_4_);fill:#664422;" d="M21.6,150.1L21.6,150.1c0.1-0.5,0.1-1,0.1-1.4c0.4,0.2,0.7,0.4,1.1,0.6    v-0.1c-0.4-0.2-0.8-0.4-1.1-0.7C21.6,149,21.6,149.6,21.6,150.1z"/>
		<path style="clip-path:url(#SVGID_4_);fill:#664422;" d="M17.4,150.1L17.4,150.1h0.2c0.8-0.5,1.6-0.9,2.5-1.4c0,0.5,0,1,0,1.4h0.1    c0-0.5,0-1,0-1.6c-0.5,0.3-0.9,0.5-1.4,0.8C18.3,149.6,17.9,149.8,17.4,150.1z"/>
		<path style="clip-path:url(#SVGID_4_);fill:#664422;" d="M19.1,150.1c0.1-0.1,0.2-0.1,0.3-0.2v0.2h0.1c0-0.1,0-0.2,0-0.3    c-0.2,0.1-0.3,0.2-0.5,0.3H19.1z"/>
		<path style="clip-path:url(#SVGID_4_);fill:#664422;" d="M-3.1,140c0,1.4,0,2.8,0,4c1.1,0.6,2.3,1.3,3.5,2c0-1.4,0-2.8,0-4    C-0.7,141.4-1.9,140.6-3.1,140z M-3,143.9c0-1.2,0-2.5,0-3.8c1.1,0.7,2.3,1.3,3.3,1.9c0,1.2,0,2.5,0,3.8    C-0.8,145.2-2,144.5-3,143.9z"/>
		<path style="clip-path:url(#SVGID_4_);fill:#664422;" d="M4.6,138.7c-1.2-0.7-2.4-1.4-3.5-2c-1.1,0.6-2.3,1.3-3.5,2    c1.2,0.7,2.4,1.4,3.5,2C2.2,140.1,3.4,139.4,4.6,138.7z M-2.2,138.7c1.1-0.7,2.3-1.3,3.3-1.9c1,0.6,2.2,1.3,3.3,1.9    c-1.1,0.7-2.3,1.3-3.3,1.9C0.1,140-1,139.3-2.2,138.7z"/>
		<path style="clip-path:url(#SVGID_4_);fill:#664422;" d="M3.1,138.7c-0.7-0.4-1.4-0.8-2-1.2c-0.6,0.4-1.3,0.8-2,1.2    c0.7,0.4,1.4,0.8,2,1.2C1.8,139.5,2.5,139.1,3.1,138.7z M-0.7,138.7c0.6-0.4,1.3-0.7,1.8-1.1c0.6,0.3,1.2,0.7,1.8,1.1    c-0.6,0.4-1.3,0.7-1.8,1.1C0.6,139.4-0.1,139.1-0.7,138.7z"/>
		<path style="clip-path:url(#SVGID_4_);fill:#664422;" d="M1.7,138.7c-0.2-0.1-0.4-0.2-0.5-0.3c-0.2,0.1-0.4,0.2-0.5,0.3    c0.2,0.1,0.4,0.2,0.5,0.3C1.3,138.9,1.5,138.8,1.7,138.7z M0.8,138.7c0.1-0.1,0.3-0.1,0.4-0.2c0.1,0.1,0.2,0.1,0.4,0.2    c-0.1,0.1-0.3,0.1-0.4,0.2C1,138.8,0.9,138.8,0.8,138.7z"/>
		<path style="clip-path:url(#SVGID_4_);fill:#664422;" d="M5.3,133.4c-1.1-0.6-2.3-1.3-3.5-2c0,1.4,0,2.8,0,4    c1.1,0.6,2.3,1.3,3.5,2C5.3,136.1,5.3,134.6,5.3,133.4z M2,135.4c0-1.2,0-2.5,0-3.8c1.1,0.7,2.3,1.3,3.3,1.9c0,1.2,0,2.5,0,3.8    C4.1,136.6,3,136,2,135.4z"/>
		<path style="clip-path:url(#SVGID_4_);fill:#664422;" d="M3.9,134.9c0-0.2,0-0.4,0-0.6c-0.2-0.1-0.4-0.2-0.5-0.3    c0,0.2,0,0.4,0,0.6C3.5,134.7,3.7,134.8,3.9,134.9z M3.4,134.1c0.1,0.1,0.3,0.1,0.4,0.2c0,0.1,0,0.3,0,0.4    c-0.1-0.1-0.3-0.1-0.4-0.2C3.4,134.4,3.4,134.2,3.4,134.1z"/>
		<path style="clip-path:url(#SVGID_4_);fill:#664422;" d="M8.3,134.9c0.2-0.1,0.4-0.2,0.5-0.3c0-0.2,0-0.4,0-0.6    c-0.2,0.1-0.4,0.2-0.5,0.3C8.3,134.5,8.3,134.7,8.3,134.9z M8.7,134.1c0,0.1,0,0.3,0,0.4c-0.1,0.1-0.2,0.1-0.4,0.2    c0-0.1,0-0.3,0-0.4C8.5,134.2,8.6,134.2,8.7,134.1z"/>
		<path style="clip-path:url(#SVGID_4_);fill:#664422;" d="M6.8,144c1.1,0.6,2.3,1.3,3.5,2c0-1.4,0-2.8,0-4c-1.1-0.6-2.3-1.3-3.5-2    C6.8,141.3,6.8,142.7,6.8,144z M10.2,142c0,1.2,0,2.5,0,3.8c-1.1-0.7-2.3-1.3-3.3-1.9c0-1.2,0-2.5,0-3.8    C8,140.8,9.2,141.4,10.2,142z"/>
		<path style="clip-path:url(#SVGID_4_);fill:#664422;" d="M8.3,143.1c0.2,0.1,0.4,0.2,0.5,0.3c0-0.2,0-0.4,0-0.6    c-0.2-0.1-0.4-0.2-0.5-0.3C8.3,142.7,8.3,142.9,8.3,143.1z M8.7,142.9c0,0.1,0,0.3,0,0.4c-0.1-0.1-0.3-0.1-0.4-0.2    c0-0.1,0-0.3,0-0.4C8.5,142.7,8.6,142.8,8.7,142.9z"/>
		<path style="clip-path:url(#SVGID_4_);fill:#664422;" d="M4.6,141.2c-0.7,0.4-1.4,0.8-2,1.2c0,0.7,0,1.5,0,2.3    c0.7-0.4,1.4-0.8,2-1.2C4.6,142.8,4.6,142,4.6,141.2z M2.7,144.6c0-0.7,0-1.5,0-2.1c0.6-0.3,1.2-0.7,1.8-1.1c0,0.7,0,1.5,0,2.1    C3.9,143.8,3.3,144.2,2.7,144.6z"/>
		<path style="clip-path:url(#SVGID_4_);fill:#664422;" d="M3.3,142.8c0,0.2,0,0.4,0,0.6c0.2-0.1,0.4-0.2,0.5-0.3c0-0.2,0-0.4,0-0.6    C3.7,142.6,3.5,142.7,3.3,142.8z M3.8,142.6c0,0.1,0,0.3,0,0.4c-0.1,0.1-0.2,0.1-0.4,0.2c0-0.1,0-0.3,0-0.4    C3.5,142.8,3.7,142.7,3.8,142.6z"/>
		<path style="clip-path:url(#SVGID_4_);fill:#664422;" d="M14.5,138.7c-1.2-0.7-2.4-1.4-3.5-2c-1.1,0.6-2.3,1.3-3.5,2    c1.2,0.7,2.4,1.4,3.5,2C12.1,140.1,13.3,139.4,14.5,138.7z M7.7,138.7c1.1-0.7,2.3-1.3,3.3-1.9c1,0.6,2.2,1.3,3.3,1.9    c-1.1,0.7-2.3,1.3-3.3,1.9C10,140,8.8,139.3,7.7,138.7z"/>
		<path style="clip-path:url(#SVGID_4_);fill:#664422;" d="M13,138.7c-0.7-0.4-1.4-0.8-2-1.2c-0.6,0.4-1.3,0.8-2,1.2    c0.7,0.4,1.4,0.8,2,1.2C11.6,139.5,12.3,139.1,13,138.7z M9.2,138.7c0.6-0.4,1.3-0.7,1.8-1.1c0.6,0.3,1.2,0.7,1.8,1.1    c-0.6,0.4-1.3,0.7-1.8,1.1C10.4,139.4,9.8,139.1,9.2,138.7z"/>
		<path style="clip-path:url(#SVGID_4_);fill:#664422;" d="M11.6,138.7c-0.2-0.1-0.4-0.2-0.5-0.3c-0.2,0.1-0.4,0.2-0.5,0.3    c0.2,0.1,0.4,0.2,0.5,0.3C11.2,138.9,11.4,138.8,11.6,138.7z M10.6,138.7c0.1-0.1,0.3-0.1,0.4-0.2c0.1,0.1,0.2,0.1,0.4,0.2    c-0.1,0.1-0.3,0.1-0.4,0.2C10.9,138.8,10.8,138.8,10.6,138.7z"/>
		<path style="clip-path:url(#SVGID_4_);fill:#664422;" d="M15.2,133.4c-1.1-0.6-2.3-1.3-3.5-2c0,1.4,0,2.8,0,4    c1.1,0.6,2.3,1.3,3.5,2C15.2,136.1,15.2,134.6,15.2,133.4z M11.8,135.4c0-1.2,0-2.5,0-3.8c1.1,0.7,2.3,1.3,3.3,1.9    c0,1.2,0,2.5,0,3.8C14,136.6,12.8,136,11.8,135.4z"/>
		<path style="clip-path:url(#SVGID_4_);fill:#664422;" d="M13.8,134.3c-0.2-0.1-0.4-0.2-0.5-0.3c0,0.2,0,0.4,0,0.6    c0.2,0.1,0.4,0.2,0.5,0.3C13.8,134.7,13.8,134.5,13.8,134.3z M13.3,134.5c0-0.1,0-0.3,0-0.4c0.1,0.1,0.3,0.1,0.4,0.2    c0,0.1,0,0.3,0,0.4C13.5,134.7,13.4,134.6,13.3,134.5z"/>
		<path style="clip-path:url(#SVGID_4_);fill:#664422;" d="M17.4,136.2c0.7-0.4,1.4-0.8,2-1.2c0-0.7,0-1.5,0-2.3    c-0.7,0.4-1.4,0.8-2,1.2C17.4,134.6,17.4,135.4,17.4,136.2z M19.3,132.8c0,0.7,0,1.5,0,2.1c-0.6,0.3-1.2,0.7-1.8,1.1    c0-0.7,0-1.5,0-2.1C18.1,133.5,18.7,133.2,19.3,132.8z"/>
		<path style="clip-path:url(#SVGID_4_);fill:#664422;" d="M17.4,138.7c1.2,0.7,2.4,1.4,3.5,2c0.6-0.3,1.2-0.7,1.9-1.1v-0.1    c-0.6,0.4-1.3,0.7-1.9,1.1c-1-0.6-2.2-1.3-3.3-1.9c1.1-0.7,2.3-1.3,3.3-1.9c0.6,0.3,1.2,0.7,1.9,1.1v-0.1    c-0.6-0.4-1.3-0.7-1.9-1.1C19.8,137.3,18.6,138,17.4,138.7z"/>
		<path style="clip-path:url(#SVGID_4_);fill:#664422;" d="M18.9,138.7c0.7,0.4,1.4,0.8,2,1.2c0.6-0.3,1.2-0.7,1.9-1.1v-0.1v-0.1    c-0.6-0.4-1.3-0.7-1.9-1.1C20.3,137.9,19.6,138.3,18.9,138.7z M22.7,138.7c-0.6,0.4-1.3,0.7-1.8,1.1c-0.6-0.3-1.2-0.7-1.8-1.1    c0.6-0.4,1.3-0.7,1.8-1.1C21.5,138,22.1,138.3,22.7,138.7z"/>
		<path style="clip-path:url(#SVGID_4_);fill:#664422;" d="M20.3,138.7c0.2,0.1,0.4,0.2,0.5,0.3c0.2-0.1,0.4-0.2,0.5-0.3    c-0.2-0.1-0.4-0.2-0.5-0.3C20.7,138.5,20.5,138.6,20.3,138.7z M21.3,138.7c-0.1,0.1-0.3,0.1-0.4,0.2c-0.1-0.1-0.2-0.1-0.4-0.2    c0.1-0.1,0.3-0.1,0.4-0.2C21,138.5,21.1,138.6,21.3,138.7z"/>
		<path style="clip-path:url(#SVGID_4_);fill:#664422;" d="M16.7,144c1.1,0.6,2.3,1.3,3.5,2c0-1.4,0-2.8,0-4c-1.1-0.6-2.3-1.3-3.5-2    C16.7,141.3,16.7,142.7,16.7,144z M20.1,142c0,1.2,0,2.5,0,3.8c-1.1-0.7-2.3-1.3-3.3-1.9c0-1.2,0-2.5,0-3.8    C17.9,140.8,19.1,141.4,20.1,142z"/>
		<path style="clip-path:url(#SVGID_4_);fill:#664422;" d="M18.1,143.1c0.2,0.1,0.4,0.2,0.5,0.3c0-0.2,0-0.4,0-0.6    c-0.2-0.1-0.4-0.2-0.5-0.3C18.1,142.7,18.1,142.9,18.1,143.1z M18.6,142.9c0,0.1,0,0.3,0,0.4c-0.1-0.1-0.3-0.1-0.4-0.2    c0-0.1,0-0.3,0-0.4C18.4,142.7,18.5,142.8,18.6,142.9z"/>
		<path style="clip-path:url(#SVGID_4_);fill:#664422;" d="M15.2,140c-1.2,0.7-2.4,1.4-3.5,2c0,1.2,0,2.6,0,4c1.2-0.7,2.4-1.4,3.5-2    C15.2,142.7,15.2,141.3,15.2,140z M11.8,145.8c0-1.3,0-2.6,0-3.8c1-0.6,2.2-1.3,3.3-1.9c0,1.3,0,2.6,0,3.8    C14.1,144.5,13,145.2,11.8,145.8z"/>
		<path style="clip-path:url(#SVGID_4_);fill:#664422;" d="M13.8,142.5c-0.2,0.1-0.4,0.2-0.5,0.3c0,0.2,0,0.4,0,0.6    c0.2-0.1,0.4-0.2,0.5-0.3C13.8,142.9,13.8,142.7,13.8,142.5z M13.7,143.1c-0.1,0.1-0.2,0.1-0.4,0.2c0-0.1,0-0.3,0-0.4    c0.1-0.1,0.2-0.1,0.4-0.2C13.7,142.8,13.7,142.9,13.7,143.1z"/>
		<path style="clip-path:url(#SVGID_4_);fill:#664422;" d="M2.6,135c0.6,0.4,1.3,0.8,2,1.2c0-0.8,0-1.6,0-2.3    c-0.6-0.4-1.3-0.8-2-1.2C2.6,133.5,2.6,134.3,2.6,135z M4.5,133.9c0,0.7,0,1.4,0,2.1c-0.6-0.4-1.3-0.7-1.8-1.1c0-0.7,0-1.4,0-2.1    C3.3,133.2,3.9,133.5,4.5,133.9z"/>
		<path style="clip-path:url(#SVGID_4_);fill:#664422;" d="M-3.1,133.4c0,1.2,0,2.6,0,4c1.2-0.7,2.4-1.4,3.5-2c0-1.2,0-2.6,0-4    C-0.8,132.1-2,132.8-3.1,133.4z M-3,137.3c0-1.3,0-2.6,0-3.8c1-0.6,2.2-1.3,3.3-1.9c0,1.3,0,2.6,0,3.8C-0.7,136-1.9,136.6-3,137.3    z"/>
		<path style="clip-path:url(#SVGID_4_);fill:#664422;" d="M9.5,130.1c-1.2-0.7-2.4-1.4-3.5-2c-1.1,0.6-2.3,1.3-3.5,2    c1.2,0.7,2.4,1.4,3.5,2C7.1,131.5,8.4,130.8,9.5,130.1z M2.8,130.1c1.1-0.7,2.3-1.3,3.3-1.9c1,0.6,2.2,1.3,3.3,1.9    c-1.1,0.7-2.3,1.3-3.3,1.9C5.1,131.5,3.9,130.8,2.8,130.1z"/>
		<path style="clip-path:url(#SVGID_4_);fill:#664422;" d="M8.1,130.1c-0.7-0.4-1.4-0.8-2-1.2c-0.6,0.4-1.3,0.8-2,1.2    c0.7,0.4,1.4,0.8,2,1.2C6.7,130.9,7.4,130.5,8.1,130.1z M4.2,130.1c0.6-0.4,1.3-0.7,1.8-1.1c0.6,0.3,1.2,0.7,1.8,1.1    c-0.6,0.4-1.3,0.7-1.8,1.1C5.5,130.9,4.9,130.5,4.2,130.1z"/>
		<path style="clip-path:url(#SVGID_4_);fill:#664422;" d="M6.6,130.1c-0.2-0.1-0.4-0.2-0.5-0.3c-0.2,0.1-0.4,0.2-0.5,0.3    c0.2,0.1,0.4,0.2,0.5,0.3C6.3,130.4,6.4,130.2,6.6,130.1z M5.7,130.1c0.1-0.1,0.3-0.1,0.4-0.2c0.1,0.1,0.2,0.1,0.4,0.2    c-0.1,0.1-0.3,0.1-0.4,0.2C6,130.3,5.8,130.2,5.7,130.1z"/>
		<path style="clip-path:url(#SVGID_4_);fill:#664422;" d="M9.5,125.3c-0.6-0.4-1.3-0.8-2-1.2c0,0.8,0,1.6,0,2.3    c0.6,0.4,1.3,0.8,2,1.2C9.5,126.8,9.5,126,9.5,125.3z M7.6,126.4c0-0.7,0-1.4,0-2.1c0.6,0.4,1.3,0.7,1.8,1.1c0,0.7,0,1.4,0,2.1    C8.8,127.1,8.2,126.7,7.6,126.4z"/>
		<path style="clip-path:url(#SVGID_4_);fill:#664422;" d="M13.2,126.3c0.2-0.1,0.4-0.2,0.5-0.3c0-0.2,0-0.4,0-0.6    c-0.2,0.1-0.4,0.2-0.5,0.3C13.2,125.9,13.2,126.1,13.2,126.3z M13.7,125.5c0,0.1,0,0.3,0,0.4c-0.1,0.1-0.2,0.1-0.4,0.2    c0-0.1,0-0.3,0-0.4C13.4,125.7,13.5,125.6,13.7,125.5z"/>
		<path style="clip-path:url(#SVGID_4_);fill:#664422;" d="M12.5,130.1c1.2,0.7,2.4,1.4,3.5,2c1.1-0.6,2.3-1.3,3.5-2    c-1.2-0.7-2.4-1.4-3.5-2C14.9,128.8,13.7,129.5,12.5,130.1z M19.3,130.1c-1.1,0.7-2.3,1.3-3.3,1.9c-1-0.6-2.2-1.3-3.3-1.9    c1.1-0.7,2.3-1.3,3.3-1.9C17,128.8,18.1,129.5,19.3,130.1z"/>
		<path style="clip-path:url(#SVGID_4_);fill:#664422;" d="M13.9,130.1c0.7,0.4,1.4,0.8,2,1.2c0.6-0.4,1.3-0.8,2-1.2    c-0.7-0.4-1.4-0.8-2-1.2C15.3,129.4,14.6,129.7,13.9,130.1z M17.8,130.1c-0.6,0.4-1.3,0.7-1.8,1.1c-0.6-0.3-1.2-0.7-1.8-1.1    c0.6-0.4,1.3-0.7,1.8-1.1C16.5,129.4,17.2,129.8,17.8,130.1z"/>
		<path style="clip-path:url(#SVGID_4_);fill:#664422;" d="M15.4,130.1c0.2,0.1,0.4,0.2,0.5,0.3c0.2-0.1,0.4-0.2,0.5-0.3    c-0.2-0.1-0.4-0.2-0.5-0.3C15.8,129.9,15.6,130,15.4,130.1z M16.3,130.1c-0.1,0.1-0.3,0.1-0.4,0.2c-0.1-0.1-0.2-0.1-0.4-0.2    c0.1-0.1,0.3-0.1,0.4-0.2C16.1,130,16.2,130.1,16.3,130.1z"/>
		<path style="clip-path:url(#SVGID_4_);fill:#664422;" d="M12.5,135c0.6,0.4,1.3,0.8,2,1.2c0-0.8,0-1.6,0-2.3    c-0.6-0.4-1.3-0.8-2-1.2C12.5,133.5,12.5,134.3,12.5,135z M14.4,133.9c0,0.7,0,1.4,0,2.1c-0.6-0.4-1.3-0.7-1.8-1.1    c0-0.7,0-1.4,0-2.1C13.2,133.2,13.8,133.5,14.4,133.9z"/>
		<path style="clip-path:url(#SVGID_4_);fill:#664422;" d="M6.8,133.4c0,1.2,0,2.6,0,4c1.2-0.7,2.4-1.4,3.5-2c0-1.2,0-2.6,0-4    c-0.6,0.3-1.2,0.7-1.8,1C7.9,132.8,7.3,133.1,6.8,133.4z M10.2,131.6c0,1.3,0,2.6,0,3.8c-1,0.6-2.2,1.3-3.3,1.9c0-1.3,0-2.6,0-3.8    C7.9,132.9,9.1,132.2,10.2,131.6z"/>
		<path style="clip-path:url(#SVGID_4_);fill:#664422;" d="M9.5,132.7c-0.7,0.4-1.4,0.8-2,1.2c0,0.7,0,1.5,0,2.3    c0.7-0.4,1.4-0.8,2-1.2C9.5,134.3,9.5,133.5,9.5,132.7z M7.6,136c0-0.7,0-1.5,0-2.1c0.6-0.3,1.2-0.7,1.8-1.1c0,0.7,0,1.5,0,2.1    C8.9,135.3,8.3,135.6,7.6,136z"/>
		<path style="clip-path:url(#SVGID_4_);fill:#664422;" d="M19.4,125.3c-0.6-0.4-1.3-0.8-2-1.2c0,0.8,0,1.6,0,2.3    c0.6,0.4,1.3,0.8,2,1.2C19.4,126.8,19.4,126,19.4,125.3z M17.5,126.4c0-0.7,0-1.4,0-2.1c0.6,0.4,1.3,0.7,1.8,1.1    c0,0.7,0,1.4,0,2.1C18.7,127.1,18.1,126.7,17.5,126.4z"/>
		<path style="clip-path:url(#SVGID_4_);fill:#664422;" d="M21.6,128.9c0.4-0.2,0.8-0.4,1.1-0.7v-0.1c-0.4,0.2-0.7,0.4-1.1,0.6    c0-1.3,0-2.6,0-3.8c0.3-0.2,0.7-0.4,1.1-0.6v-0.1c-0.4,0.2-0.8,0.4-1.1,0.7C21.6,126.1,21.6,127.5,21.6,128.9z"/>
		<path style="clip-path:url(#SVGID_4_);fill:#664422;" d="M21.6,135.4c0.4,0.2,0.7,0.4,1.1,0.7V136C22.4,135.8,22,135.6,21.6,135.4    c0.1-1.2,0.1-2.6,0.1-3.9c0.4,0.2,0.7,0.4,1.1,0.6v-0.1c-0.4-0.2-0.8-0.4-1.1-0.7C21.6,132.8,21.6,134.2,21.6,135.4z"/>
		<path style="clip-path:url(#SVGID_4_);fill:#664422;" d="M20.2,131.4c-1.2,0.7-2.4,1.4-3.5,2c0,1.2,0,2.6,0,4    c1.2-0.7,2.4-1.4,3.5-2C20.2,134.2,20.2,132.8,20.2,131.4z M16.8,137.3c0-1.3,0-2.6,0-3.8c1-0.6,2.2-1.3,3.3-1.9    c0,1.3,0,2.6,0,3.8C19.1,136,17.9,136.6,16.8,137.3z"/>
		<path style="clip-path:url(#SVGID_4_);fill:#664422;" d="M18.7,133.9c-0.2,0.1-0.4,0.2-0.5,0.3c0,0.2,0,0.4,0,0.6    c0.2-0.1,0.4-0.2,0.5-0.3C18.7,134.4,18.7,134.2,18.7,133.9z M18.2,134.7c0-0.1,0-0.3,0-0.4c0.1-0.1,0.2-0.1,0.4-0.2    c0,0.1,0,0.3,0,0.4C18.5,134.6,18.4,134.7,18.2,134.7z"/>
		<path style="clip-path:url(#SVGID_4_);fill:#664422;" d="M-3.1,122.9c0,1.4,0,2.8,0,4c1.1,0.6,2.3,1.3,3.5,2c0-1.4,0-2.8,0-4    C-0.7,124.2-1.9,123.5-3.1,122.9z M-3,126.8c0-1.2,0-2.5,0-3.8c1.1,0.7,2.3,1.3,3.3,1.9c0,1.2,0,2.5,0,3.8    C-0.8,128.1-2,127.4-3,126.8z"/>
		<path style="clip-path:url(#SVGID_4_);fill:#664422;" d="M3.3,125.7c0,0.2,0,0.4,0,0.6c0.2-0.1,0.4-0.2,0.5-0.3c0-0.2,0-0.4,0-0.6    C3.7,125.5,3.5,125.6,3.3,125.7L3.3,125.7z M3.8,126c-0.1,0.1-0.2,0.1-0.4,0.2c0-0.1,0-0.3,0-0.4c0.1-0.1,0.2-0.1,0.4-0.2    C3.8,125.7,3.8,125.8,3.8,126z"/>
		<path style="clip-path:url(#SVGID_4_);fill:#664422;" d="M6.8,126.9c1.1,0.6,2.3,1.3,3.5,2c0-1.4,0-2.8,0-4    c-1.1-0.6-2.3-1.3-3.5-2C6.8,124.2,6.8,125.6,6.8,126.9z M10.2,124.9c0,1.2,0,2.5,0,3.8c-1.1-0.7-2.3-1.3-3.3-1.9    c0-1.2,0-2.5,0-3.8C8,123.7,9.2,124.3,10.2,124.9z"/>
		<path style="clip-path:url(#SVGID_4_);fill:#664422;" d="M8.3,126c0.2,0.1,0.4,0.2,0.5,0.3c0-0.2,0-0.4,0-0.6    c-0.2-0.1-0.4-0.2-0.5-0.3C8.3,125.6,8.3,125.8,8.3,126z M8.7,125.8c0,0.1,0,0.3,0,0.4c-0.1-0.1-0.3-0.1-0.4-0.2    c0-0.1,0-0.3,0-0.4C8.5,125.6,8.6,125.7,8.7,125.8z"/>
		<path style="clip-path:url(#SVGID_4_);fill:#664422;" d="M1.9,124.9c0,1.2,0,2.6,0,4c1.2-0.7,2.4-1.4,3.5-2c0-1.2,0-2.6,0-4    c-0.9,0.5-1.8,1-2.6,1.5C2.4,124.6,2.1,124.7,1.9,124.9z M5.3,126.8c-1,0.6-2.2,1.3-3.3,1.9c0-1.3,0-2.6,0-3.8    c1-0.6,2.2-1.3,3.3-1.9C5.3,124.3,5.3,125.6,5.3,126.8z"/>
		<path style="clip-path:url(#SVGID_4_);fill:#664422;" d="M4.6,124.1c-0.7,0.4-1.4,0.8-2,1.2c0,0.7,0,1.5,0,2.3    c0.7-0.4,1.4-0.8,2-1.2C4.6,125.7,4.6,124.9,4.6,124.1z M2.7,127.5c0-0.7,0-1.5,0-2.1c0.6-0.3,1.2-0.7,1.8-1.1c0,0.7,0,1.5,0,2.1    C3.9,126.7,3.3,127.1,2.7,127.5z"/>
		<path style="clip-path:url(#SVGID_4_);fill:#664422;" d="M16.7,126.9c1.1,0.6,2.3,1.3,3.5,2c0-1.4,0-2.8,0-4    c-1.1-0.6-2.3-1.3-3.5-2C16.7,124.2,16.7,125.6,16.7,126.9z M20.1,124.9c0,1.2,0,2.5,0,3.8c-1.1-0.7-2.3-1.3-3.3-1.9    c0-1.2,0-2.5,0-3.8C17.9,123.7,19.1,124.3,20.1,124.9z"/>
		<path style="clip-path:url(#SVGID_4_);fill:#664422;" d="M18.1,126c0.2,0.1,0.4,0.2,0.5,0.3c0-0.2,0-0.4,0-0.6    c-0.2-0.1-0.4-0.2-0.5-0.3C18.1,125.6,18.1,125.8,18.1,126z M18.6,125.8c0,0.1,0,0.3,0,0.4c-0.1-0.1-0.3-0.1-0.4-0.2    c0-0.1,0-0.3,0-0.4C18.4,125.6,18.5,125.7,18.6,125.8z"/>
		<path style="clip-path:url(#SVGID_4_);fill:#664422;" d="M11.7,124.9c0,1.2,0,2.6,0,4c1.2-0.7,2.4-1.4,3.5-2c0-1.2,0-2.6,0-4    c-0.9,0.5-1.8,1-2.6,1.5C12.3,124.6,12,124.7,11.7,124.9z M15.1,126.8c-1,0.6-2.2,1.3-3.3,1.9c0-1.3,0-2.6,0-3.8    c1-0.6,2.2-1.3,3.3-1.9C15.1,124.3,15.1,125.6,15.1,126.8z"/>
		<path style="clip-path:url(#SVGID_4_);fill:#664422;" d="M14.5,124.1c-0.7,0.4-1.4,0.8-2,1.2c0,0.7,0,1.5,0,2.3    c0.7-0.4,1.4-0.8,2-1.2C14.5,125.7,14.5,124.9,14.5,124.1z M12.6,127.5c0-0.7,0-1.5,0-2.1c0.6-0.3,1.2-0.7,1.8-1.1    c0,0.7,0,1.5,0,2.1C13.8,126.7,13.2,127.1,12.6,127.5z"/>
	</g>
</g>
</svg>
