<?xml version="1.0" encoding="UTF-8" standalone="no"?>
<!-- Generator: Adobe Illustrator 22.0.1, SVG Export Plug-In . SVG Version: 6.00 Build 0)  -->

<svg
   xmlns:dc="http://purl.org/dc/elements/1.1/"
   xmlns:cc="http://creativecommons.org/ns#"
   xmlns:rdf="http://www.w3.org/1999/02/22-rdf-syntax-ns#"
   xmlns:svg="http://www.w3.org/2000/svg"
   xmlns="http://www.w3.org/2000/svg"
   xmlns:xlink="http://www.w3.org/1999/xlink"
   xmlns:sodipodi="http://sodipodi.sourceforge.net/DTD/sodipodi-0.dtd"
   xmlns:inkscape="http://www.inkscape.org/namespaces/inkscape"
   version="1.1"
   id="svg8"
   inkscape:version="0.92.5 (2060ec1f9f, 2020-04-08)"
   sodipodi:docname="fra_dsprds_2_.svg"
   x="0px"
   y="0px"
   viewBox="0 0 22 150"
   style="enable-background:new 0 0 22 150;"
   xml:space="preserve"><metadata
   id="metadata327"><rdf:RDF><cc:Work
       rdf:about=""><dc:format>image/svg+xml</dc:format><dc:type
         rdf:resource="http://purl.org/dc/dcmitype/StillImage" /><dc:title></dc:title></cc:Work></rdf:RDF></metadata><defs
   id="defs325" /><sodipodi:namedview
   pagecolor="#ffffff"
   bordercolor="#666666"
   borderopacity="1"
   objecttolerance="10"
   gridtolerance="10"
   guidetolerance="10"
   inkscape:pageopacity="0"
   inkscape:pageshadow="2"
   inkscape:window-width="2302"
   inkscape:window-height="1825"
   id="namedview323"
   showgrid="false"
   inkscape:zoom="14.681104"
   inkscape:cx="15.572034"
   inkscape:cy="20.630749"
   inkscape:window-x="0"
   inkscape:window-y="0"
   inkscape:window-maximized="0"
   inkscape:current-layer="g320" />
<style
   type="text/css"
   id="style2">
	.st0{clip-path:url(#SVGID_2_);fill:#EEFFEE;}
	.st1{clip-path:url(#SVGID_2_);fill:#666666;}
	.st2{clip-path:url(#SVGID_4_);fill:#EEFFEE;}
	.st3{clip-path:url(#SVGID_4_);fill:#666666;}
	.st4{clip-path:url(#SVGID_6_);fill:#C2EEC2;}
	.st5{clip-path:url(#SVGID_6_);fill:#664422;}
	.st6{clip-path:url(#SVGID_8_);fill:#C2EEC2;}
	.st7{clip-path:url(#SVGID_8_);fill:#664422;}
	.st8{clip-path:url(#SVGID_10_);fill:#EEFFEE;}
	.st9{clip-path:url(#SVGID_10_);fill:#C2EEC2;}
	.st10{clip-path:url(#SVGID_12_);fill:#EEFFEE;}
	.st11{clip-path:url(#SVGID_12_);fill:#C2EEC2;}
</style>
<g
   id="g320">
	<g
   id="g160">
		<defs
   id="defs5">
			<path
   id="SVGID_5_"
   d="M 0,0 V 25.3 C 3.3,23.2 7.1,22 11,22 c 3.9,0 7.7,1.2 11,3.3 V 0 Z"
   inkscape:connector-curvature="0" />
		</defs>
		<clipPath
   id="SVGID_2_">
			<use
   xlink:href="#SVGID_5_"
   style="overflow:visible"
   id="use7"
   x="0"
   y="0"
   width="100%"
   height="100%" />
		</clipPath>
		<path
   style="fill:#c2eec2"
   clip-path="url(#SVGID_2_)"
   d="M -3.4000001,-0.40000001 H 35.800001 V 31.1 H -3.4000001 Z"
   id="rect10"
   inkscape:connector-curvature="0" />
		<path
   style="fill:#664422"
   d="m 20.1,4 c -1.2,0.7 -2.4,1.4 -3.5,2 0,1.2 0,2.6 0,4 1.2,-0.7 2.4,-1.4 3.5,-2 0,-1.2 0,-2.6 0,-4 z m -3.4,5.9 c 0,-1.3 0,-2.6 0,-3.8 1,-0.6 2.2,-1.3 3.3,-1.9 0,1.3 0,2.6 0,3.8 -1,0.6 -2.1,1.2 -3.3,1.9 z"
   clip-path="url(#SVGID_2_)"
   id="path12"
   inkscape:connector-curvature="0" />
		<path
   style="fill:#664422"
   d="M 17.9,2.8 C 17.2,2.4 16.5,2 15.9,1.6 c -0.6,0.4 -1.3,0.8 -2,1.2 0.7,0.4 1.4,0.8 2,1.2 0.7,-0.5 1.3,-0.8 2,-1.2 z m -3.8,0 C 14.7,2.4 15.4,2.1 15.9,1.7 16.5,2 17.1,2.4 17.7,2.8 17.1,3.2 16.4,3.5 15.9,3.9 15.3,3.5 14.7,3.1 14.1,2.8 Z"
   clip-path="url(#SVGID_2_)"
   id="path14"
   inkscape:connector-curvature="0" />
		<path
   style="fill:#664422"
   d="M 16.5,2.8 C 16.3,2.7 16.1,2.6 16,2.5 15.8,2.6 15.6,2.7 15.5,2.8 15.7,2.9 15.9,3 16,3.1 16.1,3 16.3,2.9 16.5,2.8 Z m -1,0 C 15.6,2.7 15.8,2.7 15.9,2.6 16,2.7 16.1,2.7 16.3,2.8 16.2,2.8 16,2.9 15.9,3 15.8,2.9 15.7,2.8 15.5,2.8 Z"
   clip-path="url(#SVGID_2_)"
   id="path16"
   inkscape:connector-curvature="0" />
		<path
   style="fill:#664422"
   d="m 20.1,-0.1 v 0 C 20,0.4 20,0.9 20,1.3 19.2,0.8 18.3,0.3 17.5,-0.1 h -0.2 c 0.9,0.5 1.8,1 2.7,1.6 0.1,-0.5 0.1,-1.1 0.1,-1.6 z"
   clip-path="url(#SVGID_2_)"
   id="path18"
   inkscape:connector-curvature="0" />
		<path
   style="fill:#664422"
   d="m 19.4,-0.1 v 0 L 19.3,0.1 C 19.2,0 19.1,0 19,-0.1 h -0.2 c 0.2,0.1 0.4,0.2 0.6,0.3 0,-0.1 0,-0.2 0,-0.3 z"
   clip-path="url(#SVGID_2_)"
   id="path20"
   inkscape:connector-curvature="0" />
		<path
   style="fill:#664422"
   d="m 20.9,2.6 c 0,-0.9 0,-1.8 0,-2.7 h -0.1 -0.1 c 0,0.9 0,1.8 0,2.7 C 19.2,1.7 17.4,0.7 16,-0.1 h -0.2 v 0 0 h -0.2 c -1.4,0.8 -3.1,1.8 -4.7,2.7 0,-0.9 0,-1.8 0,-2.7 H 11 10.9 c 0,0.9 0,1.8 0,2.7 C 9.4,1.7 7.6,0.7 6.2,-0.1 H 6.1 v 0 0 H 5.9 C 4.5,0.7 2.7,1.7 1.2,2.6 c 0,-0.9 0,-1.8 0,-2.7 H 1.1 1 C 1,0.8 1,1.7 1,2.6 0.4,2.3 -0.2,1.9 -0.8,1.6 v 0.1 0.1 c 0.6,0.3 1.2,0.7 1.7,1 -0.6,0.3 -1.1,0.7 -1.7,1 V 3.9 4 C -0.2,3.7 0.4,3.3 1,3 1,4.8 1,6.9 1,8.5 0.4,8.8 -0.2,9.2 -0.8,9.5 V 9.6 9.7 C -0.1,9.3 0.5,9 1.1,8.6 2.5,9.4 4.3,10.4 5.9,11.4 4.3,12.3 2.5,13.3 1.1,14.2 0.5,13.9 -0.1,13.5 -0.8,13.1 v 0.1 0.1 c 0.6,0.4 1.2,0.7 1.8,1 0,1.6 0,3.7 0,5.5 -0.6,-0.3 -1.2,-0.7 -1.8,-1 v 0.1 0.1 c 0.6,0.3 1.2,0.7 1.7,1 -0.6,0.3 -1.1,0.7 -1.7,1 V 21.1 21 c 0.6,-0.3 1.2,-0.7 1.8,-1 0,1.8 0,3.9 0,5.5 -0.6,0.3 -1.2,0.7 -1.8,1 v 0.1 0.1 C -0.1,26.3 0.5,26 1.1,25.6 2.5,26.4 4.3,27.4 5.9,28.4 4.8,29 3.7,29.7 2.6,30.3 H 2.8 3 c 1,-0.6 2.1,-1.2 3.1,-1.8 0,0.6 0,1.2 0,1.8 H 6 6.1 c 0,-0.6 0,-1.2 0,-1.8 1,0.6 2.1,1.2 3.1,1.8 H 9.4 9.6 C 8.5,29.7 7.3,29 6.3,28.4 c 1.6,-0.9 3.4,-1.9 4.8,-2.8 1.4,0.8 3.2,1.8 4.8,2.8 -1.1,0.6 -2.2,1.3 -3.3,1.9 h 0.2 0.2 c 1,-0.6 2.1,-1.2 3.1,-1.8 0,0.6 0,1.2 0,1.8 H 16.2 16 c 0,-0.6 0,-1.2 0,-1.8 1,0.6 2.1,1.2 3.1,1.8 h 0.2 0.2 c -1.1,-0.6 -2.3,-1.3 -3.3,-1.9 1.6,-0.9 3.4,-1.9 4.8,-2.8 1.4,0.8 3.1,1.8 4.6,2.7 v -0.1 -0.1 c -1.5,-0.9 -3.2,-1.8 -4.5,-2.6 0,-1.6 0,-3.7 0,-5.5 1.5,0.9 3.1,1.8 4.5,2.6 v -0.1 -0.1 c -1.4,-0.8 -3,-1.7 -4.4,-2.6 1.4,-0.8 3.1,-1.8 4.4,-2.6 V 17.1 17 c -1.4,0.8 -3,1.8 -4.5,2.6 0,-1.8 0,-3.9 0,-5.5 1.3,-0.8 3,-1.7 4.5,-2.6 v -0.1 -0.1 c -1.5,0.9 -3.2,1.9 -4.6,2.7 -1.4,-0.8 -3.2,-1.8 -4.8,-2.8 1.6,-0.9 3.4,-1.9 4.8,-2.8 1.4,0.8 3.1,1.8 4.6,2.7 V 11 11 c -1.5,-0.9 -3.2,-1.8 -4.5,-2.6 0,-1.6 0,-3.7 0,-5.5 1.5,0.9 3.1,1.8 4.5,2.6 V 5.4 5.3 C 24.2,4.5 22.6,3.6 21.2,2.7 22.6,1.9 24.3,0.9 25.6,0.1 V 0.1 0 C 24.1,0.8 22.4,1.8 20.9,2.6 Z M 15.9,0 c 1.4,0.8 3.2,1.8 4.8,2.8 C 19.1,3.7 17.3,4.7 15.9,5.6 14.5,4.8 12.7,3.8 11.1,2.8 12.7,1.9 14.5,0.8 15.9,0 Z m 4.9,8.4 c -1.4,0.8 -3.2,1.8 -4.8,2.8 0,-1.8 0,-3.9 0,-5.5 1.4,-0.8 3.2,-1.8 4.8,-2.8 0,1.8 0,3.9 0,5.5 z m -5,2.8 C 14.2,10.3 12.4,9.3 11,8.4 c 0,-1.6 0,-3.7 0,-5.5 1.6,0.9 3.4,1.9 4.8,2.8 0,1.6 0,3.7 0,5.5 z m 0.2,0.3 c 1.6,0.9 3.4,1.9 4.8,2.8 0,1.6 0,3.7 0,5.5 -1.6,-0.9 -3.4,-1.9 -4.8,-2.8 0,-1.7 0,-3.7 0,-5.5 z m 4.8,14 c -1.4,0.8 -3.2,1.8 -4.8,2.8 0,-1.8 0,-3.9 0,-5.5 1.4,-0.8 3.2,-1.8 4.8,-2.8 0,1.8 0,3.9 0,5.5 z m -5,2.8 c -1.6,-0.9 -3.4,-1.9 -4.8,-2.8 0,-1.6 0,-3.7 0,-5.5 1.6,0.9 3.4,1.9 4.8,2.8 0,1.6 0,3.7 0,5.5 z m -4.9,-2.8 c -1.4,0.8 -3.2,1.8 -4.8,2.8 0,-1.8 0,-3.9 0,-5.5 C 7.5,22 9.3,21 10.9,20 c 0,1.8 0,3.9 0,5.5 z M 6,28.3 C 4.4,27.4 2.6,26.4 1.2,25.5 c 0,-1.6 0,-3.7 0,-5.5 1.6,0.9 3.4,1.9 4.8,2.8 0,1.6 0,3.7 0,5.5 z M 1.2,14.2 c 1.4,-0.8 3.2,-1.8 4.8,-2.8 0,1.8 0,3.9 0,5.5 -1.4,0.8 -3.2,1.8 -4.8,2.8 0,-1.8 0,-3.9 0,-5.5 z m 4.9,-2.7 c 1.6,0.9 3.4,1.9 4.8,2.8 0,1.6 0,3.7 0,5.5 C 9.3,18.9 7.5,17.9 6.1,17 c 0,-1.7 0,-3.7 0,-5.5 z M 6,17.1 c 1.4,0.8 3.2,1.8 4.8,2.8 C 9.2,20.8 7.4,21.8 6,22.7 4.6,21.9 2.8,20.9 1.2,19.9 2.8,19 4.6,17.9 6,17.1 Z m 9.9,5.5 c -1.4,-0.8 -3.2,-1.8 -4.8,-2.8 1.6,-0.9 3.4,-1.9 4.8,-2.8 1.4,0.8 3.2,1.8 4.8,2.8 -1.6,1 -3.4,2 -4.8,2.8 z M 15.8,17 c -1.4,0.8 -3.2,1.8 -4.8,2.8 0,-1.8 0,-3.9 0,-5.5 1.4,-0.8 3.2,-1.8 4.8,-2.8 0,1.8 0,3.8 0,5.5 z M 11,14.1 C 9.6,13.3 7.8,12.3 6.2,11.3 7.8,10.4 9.6,9.4 11,8.5 c 1.4,0.8 3.2,1.8 4.8,2.8 -1.6,0.9 -3.4,1.9 -4.8,2.8 z M 6,11.2 C 4.4,10.3 2.6,9.3 1.2,8.4 1.2,6.8 1.2,4.7 1.2,2.9 2.8,3.8 4.5,4.8 6,5.7 6,7.3 6,9.4 6,11.2 Z M 6.1,5.7 c 1.4,-0.8 3.2,-1.8 4.8,-2.8 0,1.8 0,3.9 0,5.5 -1.4,0.8 -3.2,1.8 -4.8,2.8 0,-1.8 0,-3.9 0,-5.5 z M 6,0 C 7.4,0.8 9.2,1.8 10.8,2.8 9.3,3.7 7.5,4.7 6,5.5 4.6,4.7 2.8,3.7 1.3,2.8 2.8,1.9 4.6,0.8 6,0 Z"
   clip-path="url(#SVGID_2_)"
   id="path22"
   inkscape:connector-curvature="0" />
		<path
   style="fill:#664422"
   d="m 24.1,-0.1 c -0.8,0.5 -1.6,0.9 -2.5,1.4 0,-0.5 0,-1 0,-1.4 h -0.1 c 0,0.5 0,1 0,1.6 0.9,-0.5 1.8,-1.1 2.7,-1.6 z"
   clip-path="url(#SVGID_2_)"
   id="path24"
   inkscape:connector-curvature="0" />
		<path
   style="fill:#664422"
   d="M 15.9,4.8 C 17,4.2 18.2,3.5 19.4,2.8 18.2,2.1 17,1.4 15.9,0.8 c -1.1,0.6 -2.3,1.3 -3.5,2 1.2,0.6 2.5,1.3 3.5,2 z m 0,-4 c 1,0.6 2.2,1.3 3.3,1.9 C 18.1,3.4 16.9,4 15.9,4.6 14.9,4 13.7,3.3 12.6,2.7 13.7,2.1 14.9,1.4 15.9,0.8 Z"
   clip-path="url(#SVGID_2_)"
   id="path26"
   inkscape:connector-curvature="0" />
		<path
   style="fill:#664422"
   d="m 12.5,7.6 c 0.6,0.4 1.3,0.8 2,1.2 0,-0.8 0,-1.6 0,-2.3 -0.6,-0.4 -1.3,-0.8 -2,-1.2 0,0.8 0,1.6 0,2.3 z m 1.9,-1.1 c 0,0.7 0,1.4 0,2.1 -0.6,-0.4 -1.3,-0.7 -1.8,-1.1 0,-0.7 0,-1.4 0,-2.1 0.6,0.4 1.2,0.8 1.8,1.1 z"
   clip-path="url(#SVGID_2_)"
   id="path28"
   inkscape:connector-curvature="0" />
		<path
   style="fill:#664422"
   d="m 9.5,5.3 c -0.7,0.4 -1.4,0.8 -2,1.2 0,0.7 0,1.5 0,2.3 0.7,-0.4 1.4,-0.8 2,-1.2 0,-0.7 0,-1.5 0,-2.3 z M 7.6,8.6 c 0,-0.7 0,-1.5 0,-2.1 0.6,-0.3 1.2,-0.7 1.8,-1.1 0,0.7 0,1.5 0,2.1 C 8.9,7.9 8.2,8.3 7.6,8.6 Z"
   clip-path="url(#SVGID_2_)"
   id="path30"
   inkscape:connector-curvature="0" />
		<path
   style="fill:#664422"
   d="M 8.1,2.8 C 7.4,2.4 6.7,2 6,1.6 5.4,2 4.7,2.4 4,2.8 4.7,3.2 5.4,3.6 6,4 6.7,3.5 7.4,3.2 8.1,2.8 Z m -3.9,0 C 4.8,2.4 5.5,2 6,1.7 6.6,2 7.3,2.4 7.9,2.8 7.3,3.1 6.6,3.5 6,3.8 5.5,3.5 4.8,3.1 4.2,2.8 Z"
   clip-path="url(#SVGID_2_)"
   id="path32"
   inkscape:connector-curvature="0" />
		<path
   style="fill:#664422"
   d="M 6.6,2.8 C 6.4,2.7 6.2,2.5 6,2.4 5.9,2.5 5.7,2.7 5.5,2.8 5.7,2.9 5.9,3 6,3.1 6.2,3 6.4,2.9 6.6,2.8 Z m -0.9,0 C 5.8,2.7 5.9,2.6 6,2.5 6.1,2.6 6.2,2.6 6.4,2.7 6.3,2.8 6.2,2.9 6,3 5.9,2.9 5.8,2.8 5.7,2.8 Z"
   clip-path="url(#SVGID_2_)"
   id="path34"
   inkscape:connector-curvature="0" />
		<path
   style="fill:#664422"
   d="m 10.3,-0.1 v 0 C 10.2,0.4 10.2,0.9 10.2,1.3 9.4,0.8 8.5,0.3 7.7,-0.1 H 7.5 c 0.9,0.5 1.8,1 2.7,1.6 0.1,-0.5 0.1,-1.1 0.1,-1.6 z"
   clip-path="url(#SVGID_2_)"
   id="path36"
   inkscape:connector-curvature="0" />
		<path
   style="fill:#664422"
   d="m 9.5,-0.1 v 0 L 9.4,0.1 C 9.3,0 9.3,0 9.2,-0.1 H 9 c 0.2,0.1 0.3,0.2 0.5,0.3 0,-0.1 0,-0.2 0,-0.3 z"
   clip-path="url(#SVGID_2_)"
   id="path38"
   inkscape:connector-curvature="0" />
		<path
   style="fill:#664422"
   d="m 14.3,-0.1 c -0.8,0.5 -1.6,0.9 -2.5,1.4 0,-0.5 0,-1 0,-1.4 h -0.1 c 0,0.5 0,1 0,1.6 0.9,-0.5 1.8,-1.1 2.7,-1.6 z"
   clip-path="url(#SVGID_2_)"
   id="path40"
   inkscape:connector-curvature="0" />
		<path
   style="fill:#664422"
   d="M 12.8,-0.1 C 12.7,0 12.6,0 12.5,0.1 v -0.2 h -0.1 c 0,0.1 0,0.2 0,0.3 C 12.6,0.1 12.8,0 13,-0.1 Z"
   clip-path="url(#SVGID_2_)"
   id="path42"
   inkscape:connector-curvature="0" />
		<path
   style="fill:#664422"
   d="M 6,4.8 C 7.1,4.2 8.3,3.5 9.5,2.8 8.3,2.1 7.1,1.4 6,0.8 5,1.4 3.8,2.1 2.6,2.8 3.8,3.4 5,4.1 6,4.8 Z m 0,-4 C 7,1.4 8.2,2.1 9.3,2.7 8.2,3.4 7.1,4.1 6,4.7 5,4.1 3.9,3.4 2.7,2.8 3.9,2.1 5,1.4 6,0.8 Z"
   clip-path="url(#SVGID_2_)"
   id="path44"
   inkscape:connector-curvature="0" />
		<path
   style="fill:#664422"
   d="M 2.6,7.6 C 3.2,8 3.9,8.4 4.6,8.8 4.6,8 4.6,7.2 4.6,6.5 4,6.1 3.3,5.7 2.6,5.3 c 0,0.8 0,1.6 0,2.3 z M 4.5,6.5 c 0,0.7 0,1.4 0,2.1 -0.6,-0.3 -1.3,-0.7 -1.8,-1 0,-0.7 0,-1.4 0,-2.1 0.6,0.3 1.2,0.7 1.8,1 z"
   clip-path="url(#SVGID_2_)"
   id="path46"
   inkscape:connector-curvature="0" />
		<path
   style="fill:#664422"
   d="M 0.4,4 C 0,4.2 -0.4,4.5 -0.8,4.7 v 0.1 c 0.4,-0.2 0.7,-0.4 1.1,-0.6 0,1.3 0,2.6 0,3.8 C 0,8.2 -0.4,8.4 -0.8,8.6 V 8.7 C -0.4,8.5 0,8.2 0.4,8 c 0,-1.2 0,-2.6 0,-4 z"
   clip-path="url(#SVGID_2_)"
   id="path48"
   inkscape:connector-curvature="0" />
		<path
   style="fill:#664422"
   d="m 0.4,-0.1 v 0 C 0.3,0.4 0.3,0.9 0.3,1.3 0,1.1 -0.4,0.9 -0.8,0.7 v 0.1 c 0.4,0.3 0.8,0.5 1.2,0.7 0,-0.5 0,-1.1 0,-1.6 z"
   clip-path="url(#SVGID_2_)"
   id="path50"
   inkscape:connector-curvature="0" />
		<path
   style="fill:#664422"
   d="m 4.6,-0.1 v 0 H 4.4 c -0.8,0.5 -1.6,1 -2.5,1.4 0,-0.5 0,-1 0,-1.4 H 1.8 c 0,0.5 0,1 0,1.6 C 2.3,1.2 2.8,1 3.2,0.7 3.7,0.4 4.1,0.2 4.6,-0.1 Z"
   clip-path="url(#SVGID_2_)"
   id="path52"
   inkscape:connector-curvature="0" />
		<path
   style="fill:#664422"
   d="M 2.9,-0.1 C 2.8,0 2.8,0 2.7,0.1 V -0.1 H 2.6 c 0,0.1 0,0.2 0,0.3 C 2.8,0.1 2.9,0 3.1,-0.1 Z"
   clip-path="url(#SVGID_2_)"
   id="path54"
   inkscape:connector-curvature="0" />
		<path
   style="fill:#664422"
   d="m 25.1,10 c 0,-1.4 0,-2.8 0,-4 C 24,5.4 22.8,4.7 21.6,4 c 0,1.4 0,2.8 0,4 1.1,0.6 2.3,1.4 3.5,2 z M 25,6.1 c 0,1.2 0,2.5 0,3.8 C 23.9,9.2 22.7,8.6 21.7,8 c 0,-1.2 0,-2.5 0,-3.8 1.1,0.6 2.3,1.3 3.3,1.9 z"
   clip-path="url(#SVGID_2_)"
   id="path56"
   inkscape:connector-curvature="0" />
		<path
   style="fill:#664422"
   d="m 17.4,11.3 c 1.2,0.7 2.4,1.4 3.5,2 1.1,-0.6 2.3,-1.3 3.5,-2 -1.2,-0.7 -2.4,-1.4 -3.5,-2 -1.1,0.6 -2.3,1.3 -3.5,2 z m 6.8,0 c -1.1,0.7 -2.3,1.3 -3.3,1.9 -1,-0.6 -2.2,-1.3 -3.3,-1.9 1.1,-0.7 2.3,-1.3 3.3,-1.9 1,0.6 2.1,1.3 3.3,1.9 z"
   clip-path="url(#SVGID_2_)"
   id="path58"
   inkscape:connector-curvature="0" />
		<path
   style="fill:#664422"
   d="m 18.9,11.3 c 0.7,0.4 1.4,0.8 2,1.2 0.6,-0.4 1.3,-0.8 2,-1.2 -0.7,-0.4 -1.4,-0.8 -2,-1.2 -0.7,0.4 -1.4,0.8 -2,1.2 z m 3.8,0 c -0.6,0.4 -1.3,0.7 -1.8,1.1 -0.6,-0.3 -1.2,-0.7 -1.8,-1.1 0.6,-0.4 1.3,-0.7 1.8,-1.1 0.5,0.4 1.2,0.7 1.8,1.1 z"
   clip-path="url(#SVGID_2_)"
   id="path60"
   inkscape:connector-curvature="0" />
		<path
   style="fill:#664422"
   d="m 20.3,11.3 c 0.2,0.1 0.4,0.2 0.5,0.3 0.2,-0.1 0.4,-0.2 0.5,-0.3 -0.2,-0.1 -0.4,-0.2 -0.5,-0.3 -0.1,0.1 -0.3,0.2 -0.5,0.3 z m 0.9,0 c -0.1,0.1 -0.3,0.1 -0.4,0.2 -0.1,-0.1 -0.2,-0.1 -0.4,-0.2 0.1,-0.1 0.3,-0.1 0.4,-0.2 0.2,0.1 0.3,0.1 0.4,0.2 z"
   clip-path="url(#SVGID_2_)"
   id="path62"
   inkscape:connector-curvature="0" />
		<path
   style="fill:#664422"
   d="m 16.7,16.6 c 1.1,0.6 2.3,1.3 3.5,2 0,-1.4 0,-2.8 0,-4 -1.1,-0.6 -2.3,-1.3 -3.5,-2 0,1.3 0,2.8 0,4 z m 3.3,-2 c 0,1.2 0,2.5 0,3.8 -1.1,-0.7 -2.3,-1.3 -3.3,-1.9 0,-1.2 0,-2.5 0,-3.8 1.2,0.7 2.3,1.3 3.3,1.9 z"
   clip-path="url(#SVGID_2_)"
   id="path64"
   inkscape:connector-curvature="0" />
		<path
   style="fill:#664422"
   d="m 18.1,15.1 c 0,0.2 0,0.4 0,0.6 0.2,0.1 0.4,0.2 0.5,0.3 0,-0.2 0,-0.4 0,-0.6 -0.1,-0.1 -0.3,-0.2 -0.5,-0.3 z m 0.5,0.8 c -0.1,-0.1 -0.3,-0.1 -0.4,-0.2 0,-0.1 0,-0.3 0,-0.4 0.1,0.1 0.3,0.1 0.4,0.2 0,0.1 0,0.3 0,0.4 z"
   clip-path="url(#SVGID_2_)"
   id="path66"
   inkscape:connector-curvature="0" />
		<path
   style="fill:#664422"
   d="m 13.7,15.1 c -0.2,0.1 -0.4,0.2 -0.5,0.3 0,0.2 0,0.4 0,0.6 0.2,-0.1 0.4,-0.2 0.5,-0.3 0,-0.2 0,-0.4 0,-0.6 z m -0.4,0.8 c 0,-0.1 0,-0.3 0,-0.4 0.1,-0.1 0.2,-0.1 0.4,-0.2 0,0.1 0,0.3 0,0.4 -0.2,0.1 -0.3,0.1 -0.4,0.2 z"
   clip-path="url(#SVGID_2_)"
   id="path68"
   inkscape:connector-curvature="0" />
		<path
   style="fill:#664422"
   d="M 15.2,6 C 14.1,5.4 12.9,4.7 11.7,4 c 0,1.4 0,2.8 0,4 1.1,0.6 2.3,1.3 3.5,2 0,-1.3 0,-2.7 0,-4 z m -3.4,2 c 0,-1.2 0,-2.5 0,-3.8 1.1,0.7 2.3,1.3 3.3,1.9 0,1.2 0,2.5 0,3.8 C 14,9.2 12.8,8.6 11.8,8 Z"
   clip-path="url(#SVGID_2_)"
   id="path70"
   inkscape:connector-curvature="0" />
		<path
   style="fill:#664422"
   d="M 13.7,6.9 C 13.5,6.8 13.3,6.7 13.2,6.6 c 0,0.2 0,0.4 0,0.6 0.2,0.1 0.4,0.2 0.5,0.3 0,-0.2 0,-0.4 0,-0.6 z m -0.4,0.2 c 0,-0.1 0,-0.3 0,-0.4 0.1,0.1 0.3,0.1 0.4,0.2 0,0.1 0,0.3 0,0.4 -0.2,0 -0.3,-0.1 -0.4,-0.2 z"
   clip-path="url(#SVGID_2_)"
   id="path72"
   inkscape:connector-curvature="0" />
		<path
   style="fill:#664422"
   d="m 17.4,8.8 c 0.7,-0.4 1.4,-0.8 2,-1.2 0,-0.7 0,-1.5 0,-2.3 -0.7,0.4 -1.4,0.8 -2,1.2 0,0.7 0,1.5 0,2.3 z m 1.9,-3.4 c 0,0.7 0,1.5 0,2.1 -0.6,0.3 -1.2,0.7 -1.8,1.1 0,-0.7 0,-1.5 0,-2.1 0.6,-0.3 1.2,-0.7 1.8,-1.1 z"
   clip-path="url(#SVGID_2_)"
   id="path74"
   inkscape:connector-curvature="0" />
		<path
   style="fill:#664422"
   d="m 18.7,7.2 c 0,-0.2 0,-0.4 0,-0.6 -0.2,0.1 -0.4,0.2 -0.5,0.3 0,0.2 0,0.4 0,0.6 0.1,-0.1 0.3,-0.2 0.5,-0.3 z m -0.5,0.2 c 0,-0.1 0,-0.3 0,-0.4 0.1,-0.1 0.2,-0.1 0.4,-0.2 0,0.1 0,0.3 0,0.4 -0.1,0 -0.3,0.1 -0.4,0.2 z"
   clip-path="url(#SVGID_2_)"
   id="path76"
   inkscape:connector-curvature="0" />
		<path
   style="fill:#664422"
   d="m 7.5,11.3 c 1.2,0.7 2.4,1.4 3.5,2 1.1,-0.6 2.3,-1.3 3.5,-2 -1.2,-0.7 -2.4,-1.4 -3.5,-2 -1.1,0.6 -2.3,1.3 -3.5,2 z m 6.8,0 C 13.2,12 12,12.6 11,13.2 10,12.6 8.8,11.9 7.7,11.3 8.8,10.7 10,10 11,9.4 c 1,0.6 2.2,1.3 3.3,1.9 z"
   clip-path="url(#SVGID_2_)"
   id="path78"
   inkscape:connector-curvature="0" />
		<path
   style="fill:#664422"
   d="m 9,11.3 c 0.7,0.4 1.4,0.8 2,1.2 0.6,-0.4 1.3,-0.8 2,-1.2 -0.7,-0.4 -1.4,-0.8 -2,-1.2 -0.6,0.4 -1.3,0.8 -2,1.2 z m 3.8,0 C 12.2,11.7 11.5,12 11,12.4 10.4,12.1 9.8,11.7 9.2,11.3 c 0.6,-0.4 1.3,-0.7 1.8,-1.1 0.6,0.4 1.2,0.7 1.8,1.1 z"
   clip-path="url(#SVGID_2_)"
   id="path80"
   inkscape:connector-curvature="0" />
		<path
   style="fill:#664422"
   d="m 10.4,11.3 c 0.2,0.1 0.4,0.2 0.5,0.3 0.2,-0.1 0.4,-0.2 0.5,-0.3 -0.2,-0.1 -0.4,-0.2 -0.5,-0.3 -0.1,0.1 -0.3,0.2 -0.5,0.3 z m 1,0 c -0.1,0.1 -0.3,0.1 -0.4,0.2 -0.1,-0.1 -0.2,-0.1 -0.4,-0.2 0.1,-0.1 0.3,-0.1 0.4,-0.2 0.1,0.1 0.2,0.1 0.4,0.2 z"
   clip-path="url(#SVGID_2_)"
   id="path82"
   inkscape:connector-curvature="0" />
		<path
   style="fill:#664422"
   d="m 6.8,16.6 c 1.1,0.6 2.3,1.3 3.5,2 0,-1.4 0,-2.8 0,-4 C 9.2,14 8,13.3 6.8,12.6 c 0,1.3 0,2.8 0,4 z m 3.4,-2 c 0,1.2 0,2.5 0,3.8 -1.1,-0.7 -2.3,-1.3 -3.3,-1.9 0,-1.2 0,-2.5 0,-3.8 1.1,0.7 2.3,1.3 3.3,1.9 z"
   clip-path="url(#SVGID_2_)"
   id="path84"
   inkscape:connector-curvature="0" />
		<path
   style="fill:#664422"
   d="m 8.2,15.7 c 0.2,0.1 0.4,0.2 0.5,0.3 0,-0.2 0,-0.4 0,-0.6 -0.2,-0.1 -0.4,-0.2 -0.5,-0.3 0,0.2 0,0.4 0,0.6 z m 0.5,-0.2 c 0,0.1 0,0.3 0,0.4 -0.1,-0.1 -0.3,-0.1 -0.4,-0.2 0,-0.1 0,-0.3 0,-0.4 0.2,0 0.3,0.1 0.4,0.2 z"
   clip-path="url(#SVGID_2_)"
   id="path86"
   inkscape:connector-curvature="0" />
		<path
   style="fill:#664422"
   d="m 4.6,13.8 c -0.7,0.4 -1.4,0.8 -2,1.2 0,0.7 0,1.5 0,2.3 0.7,-0.4 1.4,-0.8 2,-1.2 0,-0.7 0,-1.5 0,-2.3 z m -1.9,3.4 c 0,-0.7 0,-1.5 0,-2.1 0.6,-0.3 1.2,-0.7 1.8,-1.1 0,0.7 0,1.5 0,2.1 -0.6,0.4 -1.2,0.7 -1.8,1.1 z"
   clip-path="url(#SVGID_2_)"
   id="path88"
   inkscape:connector-curvature="0" />
		<path
   style="fill:#664422"
   d="M 4.6,11.3 C 3.4,10.6 2.2,9.9 1.1,9.3 0.5,9.6 -0.1,10 -0.8,10.4 v 0.1 C -0.2,10.1 0.5,9.8 1.1,9.4 2.1,10 3.3,10.7 4.4,11.3 3.3,12 2.1,12.6 1.1,13.2 0.5,12.9 -0.1,12.5 -0.8,12.1 v 0.1 c 0.6,0.4 1.3,0.7 1.9,1.1 1.1,-0.6 2.3,-1.3 3.5,-2 z"
   clip-path="url(#SVGID_2_)"
   id="path90"
   inkscape:connector-curvature="0" />
		<path
   style="fill:#664422"
   d="m 3.1,11.3 c -0.7,-0.4 -1.4,-0.8 -2,-1.2 -0.6,0.3 -1.2,0.7 -1.9,1.1 v 0.1 0.1 c 0.6,0.4 1.3,0.7 1.9,1.1 0.6,-0.4 1.3,-0.8 2,-1.2 z m -3.8,0 c 0.6,-0.4 1.3,-0.7 1.8,-1.1 0.6,0.3 1.2,0.7 1.8,1.1 C 2.3,11.7 1.6,12 1.1,12.4 0.5,12 -0.1,11.7 -0.7,11.3 Z"
   clip-path="url(#SVGID_2_)"
   id="path92"
   inkscape:connector-curvature="0" />
		<path
   style="fill:#664422"
   d="M 1.7,11.3 C 1.5,11.2 1.3,11.1 1.2,11 1,11.1 0.8,11.2 0.7,11.3 c 0.2,0.1 0.4,0.2 0.5,0.3 0.1,-0.1 0.3,-0.2 0.5,-0.3 z m -1,0 C 0.8,11.2 1,11.2 1.1,11.1 1.2,11.2 1.3,11.2 1.5,11.3 1.4,11.4 1.2,11.4 1.1,11.5 1,11.5 0.9,11.4 0.7,11.3 Z"
   clip-path="url(#SVGID_2_)"
   id="path94"
   inkscape:connector-curvature="0" />
		<path
   style="fill:#664422"
   d="M 5.3,6 C 4.3,5.4 3,4.7 1.8,4 c 0,1.4 0,2.8 0,4 1.1,0.6 2.3,1.3 3.5,2 0,-1.3 0,-2.7 0,-4 z M 1.9,8 c 0,-1.2 0,-2.5 0,-3.8 1.1,0.7 2.3,1.3 3.3,1.9 0,1.2 0,2.5 0,3.8 C 4.1,9.2 2.9,8.6 1.9,8 Z"
   clip-path="url(#SVGID_2_)"
   id="path96"
   inkscape:connector-curvature="0" />
		<path
   style="fill:#664422"
   d="M 3.9,6.9 C 3.7,6.8 3.5,6.7 3.3,6.6 3.3,6.8 3.3,7 3.3,7.2 3.5,7.3 3.7,7.4 3.8,7.5 3.9,7.3 3.9,7.1 3.9,6.9 Z M 3.4,7.1 c 0,-0.1 0,-0.3 0,-0.4 0.1,0.1 0.3,0.1 0.4,0.2 0,0.1 0,0.3 0,0.4 C 3.6,7.3 3.5,7.2 3.4,7.1 Z"
   clip-path="url(#SVGID_2_)"
   id="path98"
   inkscape:connector-curvature="0" />
		<path
   style="fill:#664422"
   d="M 6.8,10 C 8,9.4 9.2,8.6 10.3,8 c 0,-1.2 0,-2.6 0,-4 -1.2,0.7 -2.5,1.4 -3.5,2 0,1.3 0,2.7 0,4 z m 3.4,-5.8 c 0,1.3 0,2.6 0,3.8 -1,0.6 -2.2,1.2 -3.3,1.9 0,-1.3 0,-2.6 0,-3.8 1,-0.6 2.1,-1.3 3.3,-1.9 z"
   clip-path="url(#SVGID_2_)"
   id="path100"
   inkscape:connector-curvature="0" />
		<path
   style="fill:#664422"
   d="M 8.2,7.5 C 8.4,7.4 8.6,7.3 8.7,7.2 8.7,7 8.7,6.8 8.7,6.6 8.6,6.7 8.4,6.8 8.2,6.9 c 0,0.2 0,0.4 0,0.6 z M 8.3,6.9 C 8.4,6.8 8.5,6.8 8.7,6.7 c 0,0.1 0,0.3 0,0.4 -0.1,0.1 -0.2,0.2 -0.4,0.3 0,-0.2 0,-0.3 0,-0.5 z"
   clip-path="url(#SVGID_2_)"
   id="path102"
   inkscape:connector-curvature="0" />
		<path
   style="fill:#664422"
   d="m 19.4,15 c -0.6,-0.4 -1.3,-0.8 -2,-1.2 0,0.8 0,1.6 0,2.3 0.6,0.4 1.3,0.8 2,1.2 0,-0.8 0,-1.6 0,-2.3 z m -1.9,1.1 c 0,-0.7 0,-1.4 0,-2.1 0.6,0.4 1.3,0.7 1.8,1.1 0,0.7 0,1.4 0,2.1 -0.6,-0.4 -1.2,-0.7 -1.8,-1.1 z"
   clip-path="url(#SVGID_2_)"
   id="path104"
   inkscape:connector-curvature="0" />
		<path
   style="fill:#664422"
   d="m 25.1,16.6 c 0,-1.2 0,-2.6 0,-4 -1.2,0.7 -2.4,1.4 -3.5,2 0,1.2 0,2.6 0,4 1.2,-0.7 2.4,-1.4 3.5,-2 z M 25,12.7 c 0,1.3 0,2.6 0,3.8 -1,0.6 -2.2,1.3 -3.3,1.9 0,-1.3 0,-2.6 0,-3.8 1,-0.6 2.2,-1.2 3.3,-1.9 z"
   clip-path="url(#SVGID_2_)"
   id="path106"
   inkscape:connector-curvature="0" />
		<path
   style="fill:#664422"
   d="m 12.5,19.9 c 1.2,0.7 2.4,1.4 3.5,2 1.1,-0.6 2.3,-1.3 3.5,-2 -1.2,-0.7 -2.4,-1.4 -3.5,-2 -1.1,0.6 -2.4,1.3 -3.5,2 z m 6.7,0 c -1.1,0.7 -2.3,1.3 -3.3,1.9 -1,-0.6 -2.2,-1.3 -3.3,-1.9 1.1,-0.7 2.3,-1.3 3.3,-1.9 1,0.5 2.2,1.2 3.3,1.9 z"
   clip-path="url(#SVGID_2_)"
   id="path108"
   inkscape:connector-curvature="0" />
		<path
   style="fill:#664422"
   d="m 13.9,19.9 c 0.7,0.4 1.4,0.8 2,1.2 0.6,-0.4 1.3,-0.8 2,-1.2 -0.7,-0.4 -1.4,-0.8 -2,-1.2 -0.6,0.4 -1.3,0.8 -2,1.2 z m 3.9,0 c -0.6,0.4 -1.3,0.7 -1.8,1.1 -0.6,-0.3 -1.2,-0.7 -1.8,-1.1 0.6,-0.4 1.3,-0.7 1.8,-1.1 0.5,0.3 1.1,0.7 1.8,1.1 z"
   clip-path="url(#SVGID_2_)"
   id="path110"
   inkscape:connector-curvature="0" />
		<path
   style="fill:#664422"
   d="m 15.4,19.9 c 0.2,0.1 0.4,0.2 0.5,0.3 0.2,-0.1 0.4,-0.2 0.5,-0.3 -0.2,-0.1 -0.4,-0.2 -0.5,-0.3 -0.2,0.1 -0.3,0.2 -0.5,0.3 z m 0.9,0 C 16.2,20 16,20 15.9,20.1 15.8,20 15.7,20 15.5,19.9 c 0.1,-0.1 0.3,-0.1 0.4,-0.2 0.1,0 0.3,0.1 0.4,0.2 z"
   clip-path="url(#SVGID_2_)"
   id="path112"
   inkscape:connector-curvature="0" />
		<path
   style="fill:#664422"
   d="m 12.5,24.7 c 0.6,0.4 1.3,0.8 2,1.2 0,-0.8 0,-1.6 0,-2.3 -0.6,-0.4 -1.3,-0.8 -2,-1.2 0,0.8 0,1.6 0,2.3 z m 1.9,-1.1 c 0,0.7 0,1.4 0,2.1 -0.6,-0.4 -1.3,-0.7 -1.8,-1.1 0,-0.7 0,-1.4 0,-2.1 0.6,0.4 1.2,0.8 1.8,1.1 z"
   clip-path="url(#SVGID_2_)"
   id="path114"
   inkscape:connector-curvature="0" />
		<path
   style="fill:#664422"
   d="m 8.8,23.7 c -0.2,0.1 -0.4,0.2 -0.5,0.3 0,0.2 0,0.4 0,0.6 0.2,-0.1 0.4,-0.2 0.5,-0.3 0,-0.2 0,-0.4 0,-0.6 z m -0.5,0.8 c 0,-0.1 0,-0.3 0,-0.4 0.1,-0.1 0.2,-0.1 0.4,-0.2 0,0.1 0,0.3 0,0.4 -0.1,0 -0.2,0.1 -0.4,0.2 z"
   clip-path="url(#SVGID_2_)"
   id="path116"
   inkscape:connector-curvature="0" />
		<path
   style="fill:#664422"
   d="M 9.5,19.9 C 8.3,19.2 7.1,18.5 6,17.9 c -1.1,0.6 -2.3,1.3 -3.5,2 1.2,0.7 2.4,1.4 3.5,2 1.1,-0.7 2.3,-1.4 3.5,-2 z m -6.8,0 C 3.9,19.2 5,18.5 6,17.9 7,18.5 8.2,19.2 9.3,19.8 8.2,20.5 7,21.1 6,21.7 5,21.2 3.9,20.5 2.7,19.9 Z"
   clip-path="url(#SVGID_2_)"
   id="path118"
   inkscape:connector-curvature="0" />
		<path
   style="fill:#664422"
   d="m 8.1,19.9 c -0.7,-0.4 -1.4,-0.8 -2,-1.2 -0.6,0.4 -1.3,0.8 -2,1.2 0.7,0.4 1.4,0.8 2,1.2 0.6,-0.4 1.3,-0.8 2,-1.2 z m -3.9,0 C 4.8,19.5 5.5,19.2 6,18.8 6.6,19.1 7.2,19.5 7.8,19.9 7.2,20.3 6.5,20.6 6,21 5.5,20.6 4.8,20.2 4.2,19.9 Z"
   clip-path="url(#SVGID_2_)"
   id="path120"
   inkscape:connector-curvature="0" />
		<path
   style="fill:#664422"
   d="M 6.6,19.9 C 6.4,19.8 6.2,19.7 6.1,19.6 5.9,19.7 5.7,19.8 5.6,19.9 5.7,20 5.9,20.1 6,20.2 6.2,20.1 6.4,20 6.6,19.9 Z m -0.9,0 C 5.8,19.8 6,19.8 6.1,19.7 6.2,19.8 6.3,19.8 6.5,19.9 6.3,19.9 6.2,20 6,20.1 5.9,20 5.8,19.9 5.7,19.9 Z"
   clip-path="url(#SVGID_2_)"
   id="path122"
   inkscape:connector-curvature="0" />
		<path
   style="fill:#664422"
   d="m 9.5,15 c -0.6,-0.4 -1.3,-0.8 -2,-1.2 0,0.8 0,1.6 0,2.3 0.6,0.4 1.3,0.8 2,1.2 0,-0.8 0,-1.6 0,-2.3 z m -1.9,1.1 c 0,-0.7 0,-1.4 0,-2.1 0.6,0.4 1.3,0.7 1.8,1.1 0,0.7 0,1.4 0,2.1 C 8.8,16.8 8.2,16.5 7.6,16.1 Z"
   clip-path="url(#SVGID_2_)"
   id="path124"
   inkscape:connector-curvature="0" />
		<path
   style="fill:#664422"
   d="m 15.2,16.6 c 0,-1.2 0,-2.6 0,-4 -1.2,0.7 -2.4,1.4 -3.5,2 0,1.2 0,2.6 0,4 0.6,-0.3 1.2,-0.7 1.8,-1 0.6,-0.4 1.2,-0.7 1.7,-1 z m -3.4,1.8 c 0,-1.3 0,-2.6 0,-3.8 1,-0.6 2.2,-1.3 3.3,-1.9 0,1.3 0,2.6 0,3.8 -1,0.6 -2.2,1.3 -3.3,1.9 z"
   clip-path="url(#SVGID_2_)"
   id="path126"
   inkscape:connector-curvature="0" />
		<path
   style="fill:#664422"
   d="m 12.5,17.3 c 0.7,-0.4 1.4,-0.8 2,-1.2 0,-0.7 0,-1.5 0,-2.3 -0.7,0.4 -1.4,0.8 -2,1.2 0,0.7 0,1.5 0,2.3 z M 14.4,14 c 0,0.7 0,1.5 0,2.1 -0.6,0.3 -1.2,0.7 -1.8,1.1 0,-0.7 0,-1.5 0,-2.1 0.5,-0.4 1.1,-0.7 1.8,-1.1 z"
   clip-path="url(#SVGID_2_)"
   id="path128"
   inkscape:connector-curvature="0" />
		<path
   style="fill:#664422"
   d="m 2.6,24.7 c 0.6,0.4 1.3,0.8 2,1.2 0,-0.8 0,-1.6 0,-2.3 -0.6,-0.4 -1.3,-0.8 -2,-1.2 0,0.8 0,1.6 0,2.3 z m 1.9,-1.1 c 0,0.7 0,1.4 0,2.1 C 3.9,25.3 3.2,25 2.7,24.6 c 0,-0.7 0,-1.4 0,-2.1 0.6,0.4 1.2,0.8 1.8,1.1 z"
   clip-path="url(#SVGID_2_)"
   id="path130"
   inkscape:connector-curvature="0" />
		<path
   style="fill:#664422"
   d="m 0.4,21.1 c -0.4,0.2 -0.8,0.4 -1.1,0.7 v 0.1 c 0.4,-0.2 0.7,-0.4 1.1,-0.6 0,1.3 0,2.6 0,3.8 -0.3,0.2 -0.7,0.4 -1.1,0.6 v 0.1 c 0.4,-0.2 0.8,-0.4 1.1,-0.7 0,-1.2 0,-2.6 0,-4 z"
   clip-path="url(#SVGID_2_)"
   id="path132"
   inkscape:connector-curvature="0" />
		<path
   style="fill:#664422"
   d="M 0.4,14.6 C 0,14.4 -0.3,14.2 -0.7,13.9 V 14 C -0.4,14.2 0,14.4 0.4,14.6 0.3,15.8 0.3,17.2 0.3,18.5 0,18.3 -0.4,18.1 -0.8,17.9 V 18 c 0.4,0.2 0.8,0.4 1.1,0.7 0.1,-1.5 0.1,-2.9 0.1,-4.1 z"
   clip-path="url(#SVGID_2_)"
   id="path134"
   inkscape:connector-curvature="0" />
		<path
   style="fill:#664422"
   d="m 1.8,18.6 c 1.2,-0.7 2.4,-1.4 3.5,-2 0,-1.2 0,-2.6 0,-4 -1.2,0.7 -2.4,1.4 -3.5,2 0,1.2 0,2.6 0,4 z m 3.4,-5.9 c 0,1.3 0,2.6 0,3.8 -1,0.6 -2.2,1.3 -3.3,1.9 0,-1.3 0,-2.6 0,-3.8 1,-0.6 2.2,-1.2 3.3,-1.9 z"
   clip-path="url(#SVGID_2_)"
   id="path136"
   inkscape:connector-curvature="0" />
		<path
   style="fill:#664422"
   d="m 3.3,16.1 c 0.2,-0.1 0.4,-0.2 0.5,-0.3 0,-0.2 0,-0.4 0,-0.6 -0.2,0.1 -0.4,0.2 -0.5,0.3 0,0.1 0,0.3 0,0.6 z m 0.5,-0.8 c 0,0.1 0,0.3 0,0.4 -0.1,0.1 -0.2,0.1 -0.4,0.2 0,-0.1 0,-0.3 0,-0.4 0.1,-0.1 0.2,-0.2 0.4,-0.2 z"
   clip-path="url(#SVGID_2_)"
   id="path138"
   inkscape:connector-curvature="0" />
		<path
   style="fill:#664422"
   d="m 25.1,27.1 c 0,-1.4 0,-2.8 0,-4 -1.1,-0.6 -2.3,-1.3 -3.5,-2 0,1.4 0,2.8 0,4 1.1,0.7 2.3,1.4 3.5,2 z M 25,23.2 c 0,1.2 0,2.5 0,3.8 -1.1,-0.7 -2.3,-1.3 -3.3,-1.9 0,-1.2 0,-2.5 0,-3.8 1.1,0.6 2.3,1.3 3.3,1.9 z"
   clip-path="url(#SVGID_2_)"
   id="path140"
   inkscape:connector-curvature="0" />
		<path
   style="fill:#664422"
   d="m 18.7,24.3 c 0,-0.2 0,-0.4 0,-0.6 -0.2,0.1 -0.4,0.2 -0.5,0.3 0,0.2 0,0.4 0,0.6 0.1,-0.1 0.3,-0.2 0.5,-0.3 z M 18.2,24 c 0.1,-0.1 0.2,-0.1 0.4,-0.2 0,0.1 0,0.3 0,0.4 -0.1,0.1 -0.2,0.1 -0.4,0.2 0,-0.1 0,-0.2 0,-0.4 z"
   clip-path="url(#SVGID_2_)"
   id="path142"
   inkscape:connector-curvature="0" />
		<path
   style="fill:#664422"
   d="m 15.2,23.1 c -1.1,-0.6 -2.3,-1.3 -3.5,-2 0,1.4 0,2.8 0,4 1.1,0.6 2.3,1.3 3.5,2 0,-1.3 0,-2.7 0,-4 z m -3.4,2 c 0,-1.2 0,-2.5 0,-3.8 1.1,0.7 2.3,1.3 3.3,1.9 0,1.2 0,2.5 0,3.8 -1.1,-0.7 -2.3,-1.3 -3.3,-1.9 z"
   clip-path="url(#SVGID_2_)"
   id="path144"
   inkscape:connector-curvature="0" />
		<path
   style="fill:#664422"
   d="m 13.7,24 c -0.2,-0.1 -0.4,-0.2 -0.5,-0.3 0,0.2 0,0.4 0,0.6 0.2,0.1 0.4,0.2 0.5,0.3 0,-0.2 0,-0.4 0,-0.6 z m -0.4,0.2 c 0,-0.1 0,-0.3 0,-0.4 0.1,0.1 0.3,0.1 0.4,0.2 0,0.1 0,0.3 0,0.4 -0.2,0 -0.3,-0.1 -0.4,-0.2 z"
   clip-path="url(#SVGID_2_)"
   id="path146"
   inkscape:connector-curvature="0" />
		<path
   style="fill:#664422"
   d="m 20.1,25.1 c 0,-1.2 0,-2.6 0,-4 -1.2,0.7 -2.4,1.4 -3.5,2 0,1.2 0,2.6 0,4 0.9,-0.5 1.8,-1 2.6,-1.5 0.4,-0.2 0.7,-0.3 0.9,-0.5 z m -3.4,-1.9 c 1,-0.6 2.2,-1.3 3.3,-1.9 0,1.3 0,2.6 0,3.8 -1,0.6 -2.2,1.3 -3.3,1.9 0,-1.3 0,-2.6 0,-3.8 z"
   clip-path="url(#SVGID_2_)"
   id="path148"
   inkscape:connector-curvature="0" />
		<path
   style="fill:#664422"
   d="m 17.4,25.9 c 0.7,-0.4 1.4,-0.8 2,-1.2 0,-0.7 0,-1.5 0,-2.3 -0.7,0.4 -1.4,0.8 -2,1.2 0,0.7 0,1.5 0,2.3 z m 1.9,-3.4 c 0,0.7 0,1.5 0,2.1 -0.6,0.3 -1.2,0.7 -1.8,1.1 0,-0.7 0,-1.5 0,-2.1 0.6,-0.3 1.2,-0.7 1.8,-1.1 z"
   clip-path="url(#SVGID_2_)"
   id="path150"
   inkscape:connector-curvature="0" />
		<path
   style="fill:#664422"
   d="M 5.3,23.1 C 4.2,22.5 3,21.8 1.8,21.1 c 0,1.4 0,2.8 0,4 1.1,0.6 2.3,1.3 3.5,2 0,-1.3 0,-2.7 0,-4 z m -3.4,2 c 0,-1.2 0,-2.5 0,-3.8 1.1,0.7 2.3,1.3 3.3,1.9 0,1.2 0,2.5 0,3.8 C 4.1,26.3 2.9,25.7 1.9,25.1 Z"
   clip-path="url(#SVGID_2_)"
   id="path152"
   inkscape:connector-curvature="0" />
		<path
   style="fill:#664422"
   d="M 3.9,24 C 3.7,23.9 3.5,23.8 3.4,23.7 c 0,0.2 0,0.4 0,0.6 0.2,0.1 0.4,0.2 0.5,0.3 0,-0.2 0,-0.4 0,-0.6 z m -0.5,0.2 c 0,-0.1 0,-0.3 0,-0.4 0.1,0.1 0.2,0.2 0.4,0.2 0,0.1 0,0.3 0,0.4 -0.2,0 -0.3,-0.1 -0.4,-0.2 z"
   clip-path="url(#SVGID_2_)"
   id="path154"
   inkscape:connector-curvature="0" />
		<path
   style="fill:#664422"
   d="m 10.3,25.1 c 0,-1.2 0,-2.6 0,-4 -1.2,0.7 -2.4,1.4 -3.5,2 0,1.2 0,2.6 0,4 0.9,-0.5 1.8,-1 2.6,-1.5 0.3,-0.2 0.6,-0.3 0.9,-0.5 z M 6.9,23.2 c 1,-0.6 2.2,-1.3 3.3,-1.9 0,1.3 0,2.6 0,3.8 -1,0.6 -2.2,1.3 -3.3,1.9 0,-1.3 0,-2.6 0,-3.8 z"
   clip-path="url(#SVGID_2_)"
   id="path156"
   inkscape:connector-curvature="0" />
		<path
   style="fill:#664422"
   d="m 7.5,25.9 c 0.7,-0.4 1.4,-0.8 2,-1.2 0,-0.7 0,-1.5 0,-2.3 -0.7,0.4 -1.4,0.8 -2,1.2 0,0.7 0,1.5 0,2.3 z m 1.9,-3.4 c 0,0.7 0,1.5 0,2.1 -0.6,0.3 -1.2,0.7 -1.8,1.1 0,-0.7 0,-1.5 0,-2.1 0.6,-0.3 1.2,-0.7 1.8,-1.1 z"
   clip-path="url(#SVGID_2_)"
   id="path158"
   inkscape:connector-curvature="0" />
	</g>
	<g
   id="g318">
		<defs
   id="defs163">
			<path
   id="SVGID_7_"
   d="m 22,150 v -25.3 c -3.3,2.2 -7.1,3.3 -11,3.3 -3.9,0 -7.7,-1.2 -11,-3.3 V 150 Z"
   inkscape:connector-curvature="0" />
		</defs>
		<clipPath
   id="SVGID_4_">
			<use
   xlink:href="#SVGID_7_"
   style="overflow:visible"
   id="use165"
   x="0"
   y="0"
   width="100%"
   height="100%" />
		</clipPath>
		<path
   style="fill:#c2eec2"
   clip-path="url(#SVGID_4_)"
   d="m -13.9,118.9 h 39.200001 v 31.5 H -13.9 Z"
   id="rect168"
   inkscape:connector-curvature="0" />
		<path
   style="fill:#664422"
   d="m 1.9,146 c 1.2,-0.7 2.4,-1.4 3.5,-2 0,-1.2 0,-2.6 0,-4 -1.2,0.7 -2.4,1.4 -3.5,2 0,1.2 0,2.6 0,4 z m 3.4,-5.9 c 0,1.3 0,2.6 0,3.8 -1,0.6 -2.2,1.3 -3.3,1.9 0,-1.3 0,-2.6 0,-3.8 1,-0.6 2.1,-1.2 3.3,-1.9 z"
   clip-path="url(#SVGID_4_)"
   id="path170"
   inkscape:connector-curvature="0" />
		<path
   style="fill:#664422"
   d="m 4.1,147.2 c 0.7,0.4 1.4,0.8 2,1.2 0.6,-0.4 1.3,-0.8 2,-1.2 -0.7,-0.4 -1.4,-0.8 -2,-1.2 -0.7,0.5 -1.3,0.8 -2,1.2 z m 3.8,0 c -0.6,0.4 -1.3,0.7 -1.8,1.1 -0.6,-0.3 -1.2,-0.7 -1.8,-1.1 0.6,-0.4 1.3,-0.7 1.8,-1.1 0.6,0.4 1.2,0.8 1.8,1.1 z"
   clip-path="url(#SVGID_4_)"
   id="path172"
   inkscape:connector-curvature="0" />
		<path
   style="fill:#664422"
   d="m 5.5,147.2 c 0.2,0.1 0.4,0.2 0.5,0.3 0.2,-0.1 0.4,-0.2 0.5,-0.3 C 6.3,147.1 6.1,147 6,146.9 5.9,147 5.7,147.1 5.5,147.2 Z m 1,0 c -0.1,0.1 -0.3,0.1 -0.4,0.2 -0.1,-0.1 -0.2,-0.1 -0.4,-0.2 0.1,-0.1 0.3,-0.1 0.4,-0.2 0.1,0.1 0.2,0.2 0.4,0.2 z"
   clip-path="url(#SVGID_4_)"
   id="path174"
   inkscape:connector-curvature="0" />
		<path
   style="fill:#664422"
   d="m 1.9,150.1 v 0 c 0.1,-0.5 0.1,-1 0.1,-1.4 0.8,0.5 1.7,1 2.5,1.4 h 0.2 c -0.9,-0.5 -1.8,-1 -2.7,-1.6 -0.1,0.5 -0.1,1.1 -0.1,1.6 z"
   clip-path="url(#SVGID_4_)"
   id="path176"
   inkscape:connector-curvature="0" />
		<path
   style="fill:#664422"
   d="m 2.6,150.1 v 0 l 0.1,-0.2 C 2.8,150 2.9,150 3,150.1 H 3.2 C 3,150 2.9,149.9 2.7,149.8 2.6,149.9 2.6,150 2.6,150.1 Z"
   clip-path="url(#SVGID_4_)"
   id="path178"
   inkscape:connector-curvature="0" />
		<path
   style="fill:#664422"
   d="m 1.1,147.4 c 0,0.9 0,1.8 0,2.7 h 0.1 0.1 c 0,-0.9 0,-1.8 0,-2.7 1.5,0.9 3.3,1.9 4.7,2.7 h 0.2 v 0 0 h 0.2 c 1.4,-0.8 3.1,-1.8 4.7,-2.7 0,0.9 0,1.8 0,2.7 H 11 11.1 c 0,-0.9 0,-1.8 0,-2.7 1.5,0.9 3.3,1.9 4.7,2.7 H 16 v 0 0 h 0.2 c 1.4,-0.8 3.1,-1.8 4.7,-2.7 0,0.9 0,1.8 0,2.7 H 21 v 0 c 0,-0.9 0,-1.8 0,-2.7 0.6,0.3 1.2,0.7 1.8,1 v -0.1 -0.1 c -0.6,-0.3 -1.2,-0.7 -1.7,-1 0.6,-0.3 1.1,-0.7 1.7,-1 v -0.1 -0.1 c -0.6,0.3 -1.2,0.7 -1.8,1 0,-1.8 0,-3.9 0,-5.5 0.6,-0.3 1.2,-0.7 1.8,-1 v -0.1 -0.1 c -0.7,0.4 -1.3,0.7 -1.9,1.1 -1.4,-0.8 -3.2,-1.8 -4.8,-2.8 1.6,-0.9 3.4,-1.9 4.8,-2.8 0.6,0.3 1.2,0.7 1.9,1.1 v -0.1 -0.1 c -0.6,-0.4 -1.2,-0.7 -1.8,-1 0,-1.6 0,-3.7 0,-5.5 0.6,0.3 1.2,0.7 1.8,1 v -0.1 -0.1 c -0.6,-0.3 -1.2,-0.7 -1.7,-1 0.6,-0.3 1.1,-0.7 1.7,-1 v -0.1 0.1 c -0.6,0.3 -1.2,0.7 -1.8,1 0,-1.8 0,-3.9 0,-5.5 0.6,-0.3 1.2,-0.7 1.8,-1 v -0.1 -0.1 c -0.7,0.4 -1.3,0.7 -1.9,1.1 -1.4,-0.8 -3.2,-1.8 -4.8,-2.8 1.1,-0.6 2.2,-1.3 3.3,-1.9 H 19.2 19 c -1,0.6 -2.1,1.2 -3.1,1.8 0,-0.6 0,-1.2 0,-1.8 H 16 15.9 c 0,0.6 0,1.2 0,1.8 -1,-0.6 -2.1,-1.2 -3.1,-1.8 h -0.2 -0.2 c 1.1,0.6 2.3,1.3 3.3,1.9 -1.6,0.9 -3.4,1.9 -4.8,2.8 -1.4,-0.8 -3.2,-1.8 -4.8,-2.8 1.1,-0.6 2.2,-1.3 3.3,-1.9 v 0 H 9.2 c -1,0.6 -2.1,1.2 -3.1,1.8 0,-0.6 0,-1.2 0,-1.8 v 0 H 6 c 0,0.6 0,1.2 0,1.8 -1,-0.6 -2.1,-1.2 -3.1,-1.8 H 2.7 2.6 c 1.1,0.6 2.3,1.3 3.3,1.9 -1.6,0.9 -3.4,1.9 -4.8,2.8 -1.4,-0.8 -3.1,-1.8 -4.6,-2.7 v 0.1 0.1 c 1.5,0.9 3.2,1.8 4.5,2.6 0,1.6 0,3.7 0,5.5 -1.5,-0.9 -3.1,-1.8 -4.5,-2.6 v 0.1 0.1 c 1.4,0.8 3,1.7 4.4,2.6 -1.4,0.8 -3.1,1.8 -4.4,2.6 v 0.1 0.1 c 1.4,-0.8 3,-1.8 4.5,-2.6 0,1.8 0,3.9 0,5.5 -1.3,0.8 -3,1.7 -4.5,2.6 v 0.1 0.1 c 1.5,-0.9 3.2,-1.9 4.6,-2.7 1.4,0.8 3.2,1.8 4.8,2.8 -1.6,0.9 -3.4,1.9 -4.8,2.8 -1.4,-0.8 -3.1,-1.8 -4.6,-2.7 v 0.1 0.1 c 1.5,0.9 3.2,1.8 4.5,2.6 0,1.6 0,3.7 0,5.5 -1.5,-0.9 -3.1,-1.8 -4.5,-2.6 v 0.1 0.1 c 1.4,0.8 3,1.7 4.4,2.6 -1.4,0.8 -3.1,1.8 -4.4,2.6 v 0.1 0.1 c 1.4,-1 3.1,-2 4.6,-2.8 z m 5,2.6 c -1.4,-0.8 -3.2,-1.8 -4.8,-2.8 1.6,-0.9 3.4,-1.9 4.8,-2.8 1.4,0.8 3.2,1.8 4.8,2.8 -1.6,0.9 -3.4,2 -4.8,2.8 z m -4.9,-8.4 c 1.4,-0.8 3.2,-1.8 4.8,-2.8 0,1.8 0,3.9 0,5.5 -1.4,0.8 -3.2,1.8 -4.8,2.8 0,-1.8 0,-3.9 0,-5.5 z m 5,-2.8 c 1.6,0.9 3.4,1.9 4.8,2.8 0,1.6 0,3.7 0,5.5 -1.6,-0.9 -3.4,-1.9 -4.8,-2.8 0,-1.6 0,-3.7 0,-5.5 z M 6,138.6 c -1.6,-0.9 -3.4,-1.9 -4.8,-2.8 0,-1.6 0,-3.7 0,-5.5 1.6,0.9 3.4,1.9 4.8,2.8 0,1.6 0,3.6 0,5.5 z M 1.2,124.5 c 1.4,-0.8 3.2,-1.8 4.8,-2.8 0,1.8 0,3.9 0,5.5 -1.4,0.8 -3.2,1.8 -4.8,2.8 0,-1.8 0,-3.9 0,-5.5 z m 5,-2.8 c 1.6,0.9 3.4,1.9 4.8,2.8 0,1.6 0,3.7 0,5.5 -1.6,-0.9 -3.4,-1.9 -4.8,-2.8 0,-1.6 0,-3.7 0,-5.5 z m 4.9,2.8 c 1.4,-0.8 3.2,-1.8 4.8,-2.8 0,1.8 0,3.9 0,5.5 -1.4,0.8 -3.2,1.8 -4.8,2.8 0,-1.8 0,-3.9 0,-5.5 z m 4.9,-2.8 c 1.6,0.9 3.4,1.9 4.8,2.8 0,1.6 0,3.7 0,5.5 -1.6,-0.9 -3.4,-1.9 -4.8,-2.8 0,-1.6 0,-3.7 0,-5.5 z m 4.8,14.1 c -1.4,0.8 -3.2,1.8 -4.8,2.8 0,-1.8 0,-3.9 0,-5.5 1.4,-0.8 3.2,-1.8 4.8,-2.8 0,1.8 0,3.9 0,5.5 z m -4.9,2.8 c -1.6,-0.9 -3.4,-1.9 -4.8,-2.8 0,-1.6 0,-3.7 0,-5.5 1.6,0.9 3.4,1.9 4.8,2.8 0,1.6 0,3.6 0,5.5 z m 0.1,-5.7 c -1.4,-0.8 -3.2,-1.8 -4.8,-2.8 1.6,-0.9 3.4,-1.9 4.8,-2.8 1.4,0.8 3.2,1.8 4.8,2.8 -1.6,0.9 -3.4,2 -4.8,2.8 z m -9.9,-5.5 c 1.4,0.8 3.2,1.8 4.8,2.8 -1.6,0.9 -3.4,1.9 -4.8,2.8 -1.4,-0.8 -3.2,-1.8 -4.8,-2.8 1.6,-1 3.4,-2 4.8,-2.8 z m 0.1,5.6 c 1.4,-0.8 3.2,-1.8 4.8,-2.8 0,1.8 0,3.9 0,5.5 -1.4,0.8 -3.2,1.8 -4.8,2.8 0,-1.8 0,-3.8 0,-5.5 z m 4.8,2.9 c 1.4,0.8 3.2,1.8 4.8,2.8 -1.6,0.9 -3.4,1.9 -4.8,2.8 -1.4,-0.8 -3.2,-1.8 -4.8,-2.8 1.6,-0.9 3.4,-1.9 4.8,-2.8 z m 5,2.9 c 1.6,0.9 3.4,1.9 4.8,2.8 0,1.6 0,3.7 0,5.5 -1.6,-0.9 -3.4,-1.9 -4.8,-2.8 0,-1.6 0,-3.7 0,-5.5 z m -0.1,5.5 c -1.4,0.8 -3.2,1.8 -4.8,2.8 0,-1.8 0,-3.9 0,-5.5 1.4,-0.8 3.2,-1.8 4.8,-2.8 0,1.8 0,3.9 0,5.5 z M 16,150 c -1.4,-0.8 -3.2,-1.8 -4.8,-2.8 1.6,-0.9 3.4,-1.9 4.8,-2.8 1.4,0.8 3.2,1.8 4.8,2.8 -1.6,0.9 -3.4,2 -4.8,2.8 z"
   clip-path="url(#SVGID_4_)"
   id="path180"
   inkscape:connector-curvature="0" />
		<path
   style="fill:#664422"
   d="m -2.1,150.1 c 0.8,-0.5 1.6,-0.9 2.5,-1.4 0,0.5 0,1 0,1.4 h 0.1 c 0,-0.5 0,-1 0,-1.6 -0.9,0.5 -1.8,1.1 -2.7,1.6 z"
   clip-path="url(#SVGID_4_)"
   id="path182"
   inkscape:connector-curvature="0" />
		<path
   style="fill:#664422"
   d="m 6.1,145.2 c -1.1,0.6 -2.3,1.3 -3.5,2 1.2,0.7 2.4,1.4 3.5,2 1.1,-0.6 2.3,-1.3 3.5,-2 -1.2,-0.6 -2.5,-1.3 -3.5,-2 z m 0,4 c -1,-0.6 -2.2,-1.3 -3.3,-1.9 1.1,-0.7 2.3,-1.3 3.3,-1.9 1,0.6 2.2,1.3 3.3,1.9 -1.1,0.6 -2.3,1.3 -3.3,1.9 z"
   clip-path="url(#SVGID_4_)"
   id="path184"
   inkscape:connector-curvature="0" />
		<path
   style="fill:#664422"
   d="m 9.5,142.4 c -0.6,-0.4 -1.3,-0.8 -2,-1.2 0,0.8 0,1.6 0,2.3 0.6,0.4 1.3,0.8 2,1.2 0,-0.8 0,-1.6 0,-2.3 z m -1.9,1.1 c 0,-0.7 0,-1.4 0,-2.1 0.6,0.4 1.3,0.7 1.8,1.1 0,0.7 0,1.4 0,2.1 -0.6,-0.4 -1.2,-0.8 -1.8,-1.1 z"
   clip-path="url(#SVGID_4_)"
   id="path186"
   inkscape:connector-curvature="0" />
		<path
   style="fill:#664422"
   d="m 12.5,144.7 c 0.7,-0.4 1.4,-0.8 2,-1.2 0,-0.7 0,-1.5 0,-2.3 -0.7,0.4 -1.4,0.8 -2,1.2 0,0.7 0,1.5 0,2.3 z m 1.9,-3.3 c 0,0.7 0,1.5 0,2.1 -0.6,0.3 -1.2,0.7 -1.8,1.1 0,-0.7 0,-1.5 0,-2.1 0.5,-0.4 1.2,-0.8 1.8,-1.1 z"
   clip-path="url(#SVGID_4_)"
   id="path188"
   inkscape:connector-curvature="0" />
		<path
   style="fill:#664422"
   d="m 13.9,147.2 c 0.7,0.4 1.4,0.8 2,1.2 0.6,-0.4 1.3,-0.8 2,-1.2 -0.7,-0.4 -1.4,-0.8 -2,-1.2 -0.6,0.5 -1.3,0.8 -2,1.2 z m 3.9,0 c -0.6,0.4 -1.3,0.7 -1.8,1.1 -0.6,-0.3 -1.2,-0.7 -1.8,-1.1 0.6,-0.4 1.3,-0.7 1.8,-1.1 0.5,0.4 1.2,0.8 1.8,1.1 z"
   clip-path="url(#SVGID_4_)"
   id="path190"
   inkscape:connector-curvature="0" />
		<path
   style="fill:#664422"
   d="m 15.4,147.2 c 0.2,0.1 0.4,0.2 0.5,0.3 0.2,-0.1 0.4,-0.2 0.5,-0.3 -0.2,-0.1 -0.4,-0.2 -0.5,-0.3 -0.1,0.1 -0.3,0.2 -0.5,0.3 z m 0.9,0 c -0.1,0.1 -0.3,0.1 -0.4,0.2 -0.1,-0.1 -0.2,-0.1 -0.4,-0.2 0.1,-0.1 0.3,-0.1 0.4,-0.2 0.2,0.1 0.3,0.2 0.4,0.2 z"
   clip-path="url(#SVGID_4_)"
   id="path192"
   inkscape:connector-curvature="0" />
		<path
   style="fill:#664422"
   d="m 11.7,150.1 v 0 c 0.1,-0.5 0.1,-1 0.1,-1.4 0.8,0.5 1.7,1 2.5,1.4 h 0.2 c -0.9,-0.5 -1.8,-1 -2.7,-1.6 -0.1,0.5 -0.1,1.1 -0.1,1.6 z"
   clip-path="url(#SVGID_4_)"
   id="path194"
   inkscape:connector-curvature="0" />
		<path
   style="fill:#664422"
   d="m 12.5,150.1 v 0 l 0.1,-0.2 c 0.1,0.1 0.2,0.1 0.3,0.2 H 13 c -0.2,-0.1 -0.3,-0.2 -0.5,-0.3 0,0.1 0,0.2 0,0.3 z"
   clip-path="url(#SVGID_4_)"
   id="path196"
   inkscape:connector-curvature="0" />
		<path
   style="fill:#664422"
   d="m 7.7,150.1 c 0.8,-0.5 1.6,-0.9 2.5,-1.4 0,0.5 0,1 0,1.4 h 0.1 c 0,-0.5 0,-1 0,-1.6 -0.9,0.5 -1.8,1.1 -2.7,1.6 z"
   clip-path="url(#SVGID_4_)"
   id="path198"
   inkscape:connector-curvature="0" />
		<path
   style="fill:#664422"
   d="M 9.2,150.1 C 9.3,150 9.4,150 9.5,149.9 v 0.2 h 0.1 c 0,-0.1 0,-0.2 0,-0.3 -0.2,0.1 -0.3,0.2 -0.5,0.3 z"
   clip-path="url(#SVGID_4_)"
   id="path200"
   inkscape:connector-curvature="0" />
		<path
   style="fill:#664422"
   d="m 16,145.2 c -1.1,0.6 -2.3,1.3 -3.5,2 1.2,0.7 2.4,1.4 3.5,2 1.1,-0.6 2.3,-1.3 3.5,-2 -1.3,-0.6 -2.5,-1.3 -3.5,-2 z m 0,4 c -1,-0.6 -2.2,-1.3 -3.3,-1.9 1.1,-0.7 2.3,-1.3 3.3,-1.9 1,0.6 2.2,1.3 3.3,1.9 -1.2,0.6 -2.3,1.3 -3.3,1.9 z"
   clip-path="url(#SVGID_4_)"
   id="path202"
   inkscape:connector-curvature="0" />
		<path
   style="fill:#664422"
   d="m 19.4,142.4 c -0.6,-0.4 -1.3,-0.8 -2,-1.2 0,0.8 0,1.6 0,2.3 0.6,0.4 1.3,0.8 2,1.2 0,-0.8 0,-1.6 0,-2.3 z m -1.9,1.1 c 0,-0.7 0,-1.4 0,-2.1 0.6,0.4 1.3,0.7 1.8,1.1 0,0.7 0,1.4 0,2.1 -0.6,-0.4 -1.2,-0.8 -1.8,-1.1 z"
   clip-path="url(#SVGID_4_)"
   id="path204"
   inkscape:connector-curvature="0" />
		<path
   style="fill:#664422"
   d="m 21.6,146 c 0.4,-0.2 0.8,-0.4 1.1,-0.7 v -0.1 c -0.4,0.2 -0.7,0.4 -1.1,0.6 0,-1.3 0,-2.6 0,-3.8 0.3,-0.2 0.7,-0.4 1.1,-0.6 v -0.1 c -0.4,0.2 -0.8,0.4 -1.1,0.7 0,1.2 0,2.6 0,4 z"
   clip-path="url(#SVGID_4_)"
   id="path206"
   inkscape:connector-curvature="0" />
		<path
   style="fill:#664422"
   d="m 21.6,150.1 v 0 c 0.1,-0.5 0.1,-1 0.1,-1.4 0.4,0.2 0.7,0.4 1.1,0.6 v -0.1 c -0.4,-0.2 -0.8,-0.4 -1.1,-0.7 -0.1,0.5 -0.1,1.1 -0.1,1.6 z"
   clip-path="url(#SVGID_4_)"
   id="path208"
   inkscape:connector-curvature="0" />
		<path
   style="fill:#664422"
   d="m 17.4,150.1 v 0 h 0.2 c 0.8,-0.5 1.6,-0.9 2.5,-1.4 0,0.5 0,1 0,1.4 h 0.1 c 0,-0.5 0,-1 0,-1.6 -0.5,0.3 -0.9,0.5 -1.4,0.8 -0.5,0.3 -0.9,0.5 -1.4,0.8 z"
   clip-path="url(#SVGID_4_)"
   id="path210"
   inkscape:connector-curvature="0" />
		<path
   style="fill:#664422"
   d="m 19.1,150.1 c 0.1,-0.1 0.2,-0.1 0.3,-0.2 v 0.2 h 0.1 c 0,-0.1 0,-0.2 0,-0.3 -0.2,0.1 -0.3,0.2 -0.5,0.3 z"
   clip-path="url(#SVGID_4_)"
   id="path212"
   inkscape:connector-curvature="0" />
		<path
   style="fill:#664422"
   d="m -3.1,140 c 0,1.4 0,2.8 0,4 1.1,0.6 2.3,1.3 3.5,2 0,-1.4 0,-2.8 0,-4 -1.1,-0.6 -2.3,-1.4 -3.5,-2 z m 0.1,3.9 c 0,-1.2 0,-2.5 0,-3.8 1.1,0.7 2.3,1.3 3.3,1.9 0,1.2 0,2.5 0,3.8 -1.1,-0.6 -2.3,-1.3 -3.3,-1.9 z"
   clip-path="url(#SVGID_4_)"
   id="path214"
   inkscape:connector-curvature="0" />
		<path
   style="fill:#664422"
   d="m 4.6,138.7 c -1.2,-0.7 -2.4,-1.4 -3.5,-2 -1.1,0.6 -2.3,1.3 -3.5,2 1.2,0.7 2.4,1.4 3.5,2 1.1,-0.6 2.3,-1.3 3.5,-2 z m -6.8,0 c 1.1,-0.7 2.3,-1.3 3.3,-1.9 1,0.6 2.2,1.3 3.3,1.9 -1.1,0.7 -2.3,1.3 -3.3,1.9 -1,-0.6 -2.1,-1.3 -3.3,-1.9 z"
   clip-path="url(#SVGID_4_)"
   id="path216"
   inkscape:connector-curvature="0" />
		<path
   style="fill:#664422"
   d="m 3.1,138.7 c -0.7,-0.4 -1.4,-0.8 -2,-1.2 -0.6,0.4 -1.3,0.8 -2,1.2 0.7,0.4 1.4,0.8 2,1.2 0.7,-0.4 1.4,-0.8 2,-1.2 z m -3.8,0 c 0.6,-0.4 1.3,-0.7 1.8,-1.1 0.6,0.3 1.2,0.7 1.8,1.1 -0.6,0.4 -1.3,0.7 -1.8,1.1 -0.5,-0.4 -1.2,-0.7 -1.8,-1.1 z"
   clip-path="url(#SVGID_4_)"
   id="path218"
   inkscape:connector-curvature="0" />
		<path
   style="fill:#664422"
   d="m 1.7,138.7 c -0.2,-0.1 -0.4,-0.2 -0.5,-0.3 -0.2,0.1 -0.4,0.2 -0.5,0.3 0.2,0.1 0.4,0.2 0.5,0.3 0.1,-0.1 0.3,-0.2 0.5,-0.3 z m -0.9,0 c 0.1,-0.1 0.3,-0.1 0.4,-0.2 0.1,0.1 0.2,0.1 0.4,0.2 -0.1,0.1 -0.3,0.1 -0.4,0.2 -0.2,-0.1 -0.3,-0.1 -0.4,-0.2 z"
   clip-path="url(#SVGID_4_)"
   id="path220"
   inkscape:connector-curvature="0" />
		<path
   style="fill:#664422"
   d="m 5.3,133.4 c -1.1,-0.6 -2.3,-1.3 -3.5,-2 0,1.4 0,2.8 0,4 1.1,0.6 2.3,1.3 3.5,2 0,-1.3 0,-2.8 0,-4 z m -3.3,2 c 0,-1.2 0,-2.5 0,-3.8 1.1,0.7 2.3,1.3 3.3,1.9 0,1.2 0,2.5 0,3.8 C 4.1,136.6 3,136 2,135.4 Z"
   clip-path="url(#SVGID_4_)"
   id="path222"
   inkscape:connector-curvature="0" />
		<path
   style="fill:#664422"
   d="m 3.9,134.9 c 0,-0.2 0,-0.4 0,-0.6 -0.2,-0.1 -0.4,-0.2 -0.5,-0.3 0,0.2 0,0.4 0,0.6 0.1,0.1 0.3,0.2 0.5,0.3 z m -0.5,-0.8 c 0.1,0.1 0.3,0.1 0.4,0.2 0,0.1 0,0.3 0,0.4 -0.1,-0.1 -0.3,-0.1 -0.4,-0.2 0,-0.1 0,-0.3 0,-0.4 z"
   clip-path="url(#SVGID_4_)"
   id="path224"
   inkscape:connector-curvature="0" />
		<path
   style="fill:#664422"
   d="m 8.3,134.9 c 0.2,-0.1 0.4,-0.2 0.5,-0.3 0,-0.2 0,-0.4 0,-0.6 -0.2,0.1 -0.4,0.2 -0.5,0.3 0,0.2 0,0.4 0,0.6 z m 0.4,-0.8 c 0,0.1 0,0.3 0,0.4 -0.1,0.1 -0.2,0.1 -0.4,0.2 0,-0.1 0,-0.3 0,-0.4 0.2,-0.1 0.3,-0.1 0.4,-0.2 z"
   clip-path="url(#SVGID_4_)"
   id="path226"
   inkscape:connector-curvature="0" />
		<path
   style="fill:#664422"
   d="m 6.8,144 c 1.1,0.6 2.3,1.3 3.5,2 0,-1.4 0,-2.8 0,-4 -1.1,-0.6 -2.3,-1.3 -3.5,-2 0,1.3 0,2.7 0,4 z m 3.4,-2 c 0,1.2 0,2.5 0,3.8 -1.1,-0.7 -2.3,-1.3 -3.3,-1.9 0,-1.2 0,-2.5 0,-3.8 1.1,0.7 2.3,1.3 3.3,1.9 z"
   clip-path="url(#SVGID_4_)"
   id="path228"
   inkscape:connector-curvature="0" />
		<path
   style="fill:#664422"
   d="m 8.3,143.1 c 0.2,0.1 0.4,0.2 0.5,0.3 0,-0.2 0,-0.4 0,-0.6 -0.2,-0.1 -0.4,-0.2 -0.5,-0.3 0,0.2 0,0.4 0,0.6 z m 0.4,-0.2 c 0,0.1 0,0.3 0,0.4 -0.1,-0.1 -0.3,-0.1 -0.4,-0.2 0,-0.1 0,-0.3 0,-0.4 0.2,0 0.3,0.1 0.4,0.2 z"
   clip-path="url(#SVGID_4_)"
   id="path230"
   inkscape:connector-curvature="0" />
		<path
   style="fill:#664422"
   d="m 4.6,141.2 c -0.7,0.4 -1.4,0.8 -2,1.2 0,0.7 0,1.5 0,2.3 0.7,-0.4 1.4,-0.8 2,-1.2 0,-0.7 0,-1.5 0,-2.3 z m -1.9,3.4 c 0,-0.7 0,-1.5 0,-2.1 0.6,-0.3 1.2,-0.7 1.8,-1.1 0,0.7 0,1.5 0,2.1 -0.6,0.3 -1.2,0.7 -1.8,1.1 z"
   clip-path="url(#SVGID_4_)"
   id="path232"
   inkscape:connector-curvature="0" />
		<path
   style="fill:#664422"
   d="m 3.3,142.8 c 0,0.2 0,0.4 0,0.6 0.2,-0.1 0.4,-0.2 0.5,-0.3 0,-0.2 0,-0.4 0,-0.6 -0.1,0.1 -0.3,0.2 -0.5,0.3 z m 0.5,-0.2 c 0,0.1 0,0.3 0,0.4 -0.1,0.1 -0.2,0.1 -0.4,0.2 0,-0.1 0,-0.3 0,-0.4 0.1,0 0.3,-0.1 0.4,-0.2 z"
   clip-path="url(#SVGID_4_)"
   id="path234"
   inkscape:connector-curvature="0" />
		<path
   style="fill:#664422"
   d="m 14.5,138.7 c -1.2,-0.7 -2.4,-1.4 -3.5,-2 -1.1,0.6 -2.3,1.3 -3.5,2 1.2,0.7 2.4,1.4 3.5,2 1.1,-0.6 2.3,-1.3 3.5,-2 z m -6.8,0 c 1.1,-0.7 2.3,-1.3 3.3,-1.9 1,0.6 2.2,1.3 3.3,1.9 -1.1,0.7 -2.3,1.3 -3.3,1.9 -1,-0.6 -2.2,-1.3 -3.3,-1.9 z"
   clip-path="url(#SVGID_4_)"
   id="path236"
   inkscape:connector-curvature="0" />
		<path
   style="fill:#664422"
   d="m 13,138.7 c -0.7,-0.4 -1.4,-0.8 -2,-1.2 -0.6,0.4 -1.3,0.8 -2,1.2 0.7,0.4 1.4,0.8 2,1.2 0.6,-0.4 1.3,-0.8 2,-1.2 z m -3.8,0 c 0.6,-0.4 1.3,-0.7 1.8,-1.1 0.6,0.3 1.2,0.7 1.8,1.1 -0.6,0.4 -1.3,0.7 -1.8,1.1 -0.6,-0.4 -1.2,-0.7 -1.8,-1.1 z"
   clip-path="url(#SVGID_4_)"
   id="path238"
   inkscape:connector-curvature="0" />
		<path
   style="fill:#664422"
   d="m 11.6,138.7 c -0.2,-0.1 -0.4,-0.2 -0.5,-0.3 -0.2,0.1 -0.4,0.2 -0.5,0.3 0.2,0.1 0.4,0.2 0.5,0.3 0.1,-0.1 0.3,-0.2 0.5,-0.3 z m -1,0 c 0.1,-0.1 0.3,-0.1 0.4,-0.2 0.1,0.1 0.2,0.1 0.4,0.2 -0.1,0.1 -0.3,0.1 -0.4,0.2 -0.1,-0.1 -0.2,-0.1 -0.4,-0.2 z"
   clip-path="url(#SVGID_4_)"
   id="path240"
   inkscape:connector-curvature="0" />
		<path
   style="fill:#664422"
   d="m 15.2,133.4 c -1.1,-0.6 -2.3,-1.3 -3.5,-2 0,1.4 0,2.8 0,4 1.1,0.6 2.3,1.3 3.5,2 0,-1.3 0,-2.8 0,-4 z m -3.4,2 c 0,-1.2 0,-2.5 0,-3.8 1.1,0.7 2.3,1.3 3.3,1.9 0,1.2 0,2.5 0,3.8 -1.1,-0.7 -2.3,-1.3 -3.3,-1.9 z"
   clip-path="url(#SVGID_4_)"
   id="path242"
   inkscape:connector-curvature="0" />
		<path
   style="fill:#664422"
   d="m 13.8,134.3 c -0.2,-0.1 -0.4,-0.2 -0.5,-0.3 0,0.2 0,0.4 0,0.6 0.2,0.1 0.4,0.2 0.5,0.3 0,-0.2 0,-0.4 0,-0.6 z m -0.5,0.2 c 0,-0.1 0,-0.3 0,-0.4 0.1,0.1 0.3,0.1 0.4,0.2 0,0.1 0,0.3 0,0.4 -0.2,0 -0.3,-0.1 -0.4,-0.2 z"
   clip-path="url(#SVGID_4_)"
   id="path244"
   inkscape:connector-curvature="0" />
		<path
   style="fill:#664422"
   d="m 17.4,136.2 c 0.7,-0.4 1.4,-0.8 2,-1.2 0,-0.7 0,-1.5 0,-2.3 -0.7,0.4 -1.4,0.8 -2,1.2 0,0.7 0,1.5 0,2.3 z m 1.9,-3.4 c 0,0.7 0,1.5 0,2.1 -0.6,0.3 -1.2,0.7 -1.8,1.1 0,-0.7 0,-1.5 0,-2.1 0.6,-0.4 1.2,-0.7 1.8,-1.1 z"
   clip-path="url(#SVGID_4_)"
   id="path246"
   inkscape:connector-curvature="0" />
		<path
   style="fill:#664422"
   d="m 17.4,138.7 c 1.2,0.7 2.4,1.4 3.5,2 0.6,-0.3 1.2,-0.7 1.9,-1.1 v -0.1 c -0.6,0.4 -1.3,0.7 -1.9,1.1 -1,-0.6 -2.2,-1.3 -3.3,-1.9 1.1,-0.7 2.3,-1.3 3.3,-1.9 0.6,0.3 1.2,0.7 1.9,1.1 v -0.1 c -0.6,-0.4 -1.3,-0.7 -1.9,-1.1 -1.1,0.6 -2.3,1.3 -3.5,2 z"
   clip-path="url(#SVGID_4_)"
   id="path248"
   inkscape:connector-curvature="0" />
		<path
   style="fill:#664422"
   d="m 18.9,138.7 c 0.7,0.4 1.4,0.8 2,1.2 0.6,-0.3 1.2,-0.7 1.9,-1.1 v -0.1 -0.1 c -0.6,-0.4 -1.3,-0.7 -1.9,-1.1 -0.6,0.4 -1.3,0.8 -2,1.2 z m 3.8,0 c -0.6,0.4 -1.3,0.7 -1.8,1.1 -0.6,-0.3 -1.2,-0.7 -1.8,-1.1 0.6,-0.4 1.3,-0.7 1.8,-1.1 0.6,0.4 1.2,0.7 1.8,1.1 z"
   clip-path="url(#SVGID_4_)"
   id="path250"
   inkscape:connector-curvature="0" />
		<path
   style="fill:#664422"
   d="m 20.3,138.7 c 0.2,0.1 0.4,0.2 0.5,0.3 0.2,-0.1 0.4,-0.2 0.5,-0.3 -0.2,-0.1 -0.4,-0.2 -0.5,-0.3 -0.1,0.1 -0.3,0.2 -0.5,0.3 z m 1,0 c -0.1,0.1 -0.3,0.1 -0.4,0.2 -0.1,-0.1 -0.2,-0.1 -0.4,-0.2 0.1,-0.1 0.3,-0.1 0.4,-0.2 0.1,0 0.2,0.1 0.4,0.2 z"
   clip-path="url(#SVGID_4_)"
   id="path252"
   inkscape:connector-curvature="0" />
		<path
   style="fill:#664422"
   d="m 16.7,144 c 1.1,0.6 2.3,1.3 3.5,2 0,-1.4 0,-2.8 0,-4 -1.1,-0.6 -2.3,-1.3 -3.5,-2 0,1.3 0,2.7 0,4 z m 3.4,-2 c 0,1.2 0,2.5 0,3.8 -1.1,-0.7 -2.3,-1.3 -3.3,-1.9 0,-1.2 0,-2.5 0,-3.8 1.1,0.7 2.3,1.3 3.3,1.9 z"
   clip-path="url(#SVGID_4_)"
   id="path254"
   inkscape:connector-curvature="0" />
		<path
   style="fill:#664422"
   d="m 18.1,143.1 c 0.2,0.1 0.4,0.2 0.5,0.3 0,-0.2 0,-0.4 0,-0.6 -0.2,-0.1 -0.4,-0.2 -0.5,-0.3 0,0.2 0,0.4 0,0.6 z m 0.5,-0.2 c 0,0.1 0,0.3 0,0.4 -0.1,-0.1 -0.3,-0.1 -0.4,-0.2 0,-0.1 0,-0.3 0,-0.4 0.2,0 0.3,0.1 0.4,0.2 z"
   clip-path="url(#SVGID_4_)"
   id="path256"
   inkscape:connector-curvature="0" />
		<path
   style="fill:#664422"
   d="m 15.2,140 c -1.2,0.7 -2.4,1.4 -3.5,2 0,1.2 0,2.6 0,4 1.2,-0.7 2.4,-1.4 3.5,-2 0,-1.3 0,-2.7 0,-4 z m -3.4,5.8 c 0,-1.3 0,-2.6 0,-3.8 1,-0.6 2.2,-1.3 3.3,-1.9 0,1.3 0,2.6 0,3.8 -1,0.6 -2.1,1.3 -3.3,1.9 z"
   clip-path="url(#SVGID_4_)"
   id="path258"
   inkscape:connector-curvature="0" />
		<path
   style="fill:#664422"
   d="m 13.8,142.5 c -0.2,0.1 -0.4,0.2 -0.5,0.3 0,0.2 0,0.4 0,0.6 0.2,-0.1 0.4,-0.2 0.5,-0.3 0,-0.2 0,-0.4 0,-0.6 z m -0.1,0.6 c -0.1,0.1 -0.2,0.1 -0.4,0.2 0,-0.1 0,-0.3 0,-0.4 0.1,-0.1 0.2,-0.1 0.4,-0.2 0,0.1 0,0.2 0,0.4 z"
   clip-path="url(#SVGID_4_)"
   id="path260"
   inkscape:connector-curvature="0" />
		<path
   style="fill:#664422"
   d="m 2.6,135 c 0.6,0.4 1.3,0.8 2,1.2 0,-0.8 0,-1.6 0,-2.3 -0.6,-0.4 -1.3,-0.8 -2,-1.2 0,0.8 0,1.6 0,2.3 z m 1.9,-1.1 c 0,0.7 0,1.4 0,2.1 -0.6,-0.4 -1.3,-0.7 -1.8,-1.1 0,-0.7 0,-1.4 0,-2.1 0.6,0.4 1.2,0.7 1.8,1.1 z"
   clip-path="url(#SVGID_4_)"
   id="path262"
   inkscape:connector-curvature="0" />
		<path
   style="fill:#664422"
   d="m -3.1,133.4 c 0,1.2 0,2.6 0,4 1.2,-0.7 2.4,-1.4 3.5,-2 0,-1.2 0,-2.6 0,-4 -1.2,0.7 -2.4,1.4 -3.5,2 z m 0.1,3.9 c 0,-1.3 0,-2.6 0,-3.8 1,-0.6 2.2,-1.3 3.3,-1.9 0,1.3 0,2.6 0,3.8 -1,0.6 -2.2,1.2 -3.3,1.9 z"
   clip-path="url(#SVGID_4_)"
   id="path264"
   inkscape:connector-curvature="0" />
		<path
   style="fill:#664422"
   d="m 9.5,130.1 c -1.2,-0.7 -2.4,-1.4 -3.5,-2 -1.1,0.6 -2.3,1.3 -3.5,2 1.2,0.7 2.4,1.4 3.5,2 1.1,-0.6 2.4,-1.3 3.5,-2 z m -6.7,0 c 1.1,-0.7 2.3,-1.3 3.3,-1.9 1,0.6 2.2,1.3 3.3,1.9 -1.1,0.7 -2.3,1.3 -3.3,1.9 -1,-0.5 -2.2,-1.2 -3.3,-1.9 z"
   clip-path="url(#SVGID_4_)"
   id="path266"
   inkscape:connector-curvature="0" />
		<path
   style="fill:#664422"
   d="m 8.1,130.1 c -0.7,-0.4 -1.4,-0.8 -2,-1.2 -0.6,0.4 -1.3,0.8 -2,1.2 0.7,0.4 1.4,0.8 2,1.2 0.6,-0.4 1.3,-0.8 2,-1.2 z m -3.9,0 c 0.6,-0.4 1.3,-0.7 1.8,-1.1 0.6,0.3 1.2,0.7 1.8,1.1 -0.6,0.4 -1.3,0.7 -1.8,1.1 -0.5,-0.3 -1.1,-0.7 -1.8,-1.1 z"
   clip-path="url(#SVGID_4_)"
   id="path268"
   inkscape:connector-curvature="0" />
		<path
   style="fill:#664422"
   d="m 6.6,130.1 c -0.2,-0.1 -0.4,-0.2 -0.5,-0.3 -0.2,0.1 -0.4,0.2 -0.5,0.3 0.2,0.1 0.4,0.2 0.5,0.3 0.2,0 0.3,-0.2 0.5,-0.3 z m -0.9,0 C 5.8,130 6,130 6.1,129.9 c 0.1,0.1 0.2,0.1 0.4,0.2 -0.1,0.1 -0.3,0.1 -0.4,0.2 -0.1,0 -0.3,-0.1 -0.4,-0.2 z"
   clip-path="url(#SVGID_4_)"
   id="path270"
   inkscape:connector-curvature="0" />
		<path
   style="fill:#664422"
   d="m 9.5,125.3 c -0.6,-0.4 -1.3,-0.8 -2,-1.2 0,0.8 0,1.6 0,2.3 0.6,0.4 1.3,0.8 2,1.2 0,-0.8 0,-1.6 0,-2.3 z m -1.9,1.1 c 0,-0.7 0,-1.4 0,-2.1 0.6,0.4 1.3,0.7 1.8,1.1 0,0.7 0,1.4 0,2.1 -0.6,-0.4 -1.2,-0.8 -1.8,-1.1 z"
   clip-path="url(#SVGID_4_)"
   id="path272"
   inkscape:connector-curvature="0" />
		<path
   style="fill:#664422"
   d="m 13.2,126.3 c 0.2,-0.1 0.4,-0.2 0.5,-0.3 0,-0.2 0,-0.4 0,-0.6 -0.2,0.1 -0.4,0.2 -0.5,0.3 0,0.2 0,0.4 0,0.6 z m 0.5,-0.8 c 0,0.1 0,0.3 0,0.4 -0.1,0.1 -0.2,0.1 -0.4,0.2 0,-0.1 0,-0.3 0,-0.4 0.1,0 0.2,-0.1 0.4,-0.2 z"
   clip-path="url(#SVGID_4_)"
   id="path274"
   inkscape:connector-curvature="0" />
		<path
   style="fill:#664422"
   d="m 12.5,130.1 c 1.2,0.7 2.4,1.4 3.5,2 1.1,-0.6 2.3,-1.3 3.5,-2 -1.2,-0.7 -2.4,-1.4 -3.5,-2 -1.1,0.7 -2.3,1.4 -3.5,2 z m 6.8,0 c -1.1,0.7 -2.3,1.3 -3.3,1.9 -1,-0.6 -2.2,-1.3 -3.3,-1.9 1.1,-0.7 2.3,-1.3 3.3,-1.9 1,0.6 2.1,1.3 3.3,1.9 z"
   clip-path="url(#SVGID_4_)"
   id="path276"
   inkscape:connector-curvature="0" />
		<path
   style="fill:#664422"
   d="m 13.9,130.1 c 0.7,0.4 1.4,0.8 2,1.2 0.6,-0.4 1.3,-0.8 2,-1.2 -0.7,-0.4 -1.4,-0.8 -2,-1.2 -0.6,0.5 -1.3,0.8 -2,1.2 z m 3.9,0 c -0.6,0.4 -1.3,0.7 -1.8,1.1 -0.6,-0.3 -1.2,-0.7 -1.8,-1.1 0.6,-0.4 1.3,-0.7 1.8,-1.1 0.5,0.4 1.2,0.8 1.8,1.1 z"
   clip-path="url(#SVGID_4_)"
   id="path278"
   inkscape:connector-curvature="0" />
		<path
   style="fill:#664422"
   d="m 15.4,130.1 c 0.2,0.1 0.4,0.2 0.5,0.3 0.2,-0.1 0.4,-0.2 0.5,-0.3 -0.2,-0.1 -0.4,-0.2 -0.5,-0.3 -0.1,0.1 -0.3,0.2 -0.5,0.3 z m 0.9,0 c -0.1,0.1 -0.3,0.1 -0.4,0.2 -0.1,-0.1 -0.2,-0.1 -0.4,-0.2 0.1,-0.1 0.3,-0.1 0.4,-0.2 0.2,0.1 0.3,0.2 0.4,0.2 z"
   clip-path="url(#SVGID_4_)"
   id="path280"
   inkscape:connector-curvature="0" />
		<path
   style="fill:#664422"
   d="m 12.5,135 c 0.6,0.4 1.3,0.8 2,1.2 0,-0.8 0,-1.6 0,-2.3 -0.6,-0.4 -1.3,-0.8 -2,-1.2 0,0.8 0,1.6 0,2.3 z m 1.9,-1.1 c 0,0.7 0,1.4 0,2.1 -0.6,-0.4 -1.3,-0.7 -1.8,-1.1 0,-0.7 0,-1.4 0,-2.1 0.6,0.4 1.2,0.7 1.8,1.1 z"
   clip-path="url(#SVGID_4_)"
   id="path282"
   inkscape:connector-curvature="0" />
		<path
   style="fill:#664422"
   d="m 6.8,133.4 c 0,1.2 0,2.6 0,4 1.2,-0.7 2.4,-1.4 3.5,-2 0,-1.2 0,-2.6 0,-4 -0.6,0.3 -1.2,0.7 -1.8,1 -0.6,0.4 -1.2,0.7 -1.7,1 z m 3.4,-1.8 c 0,1.3 0,2.6 0,3.8 -1,0.6 -2.2,1.3 -3.3,1.9 0,-1.3 0,-2.6 0,-3.8 1,-0.6 2.2,-1.3 3.3,-1.9 z"
   clip-path="url(#SVGID_4_)"
   id="path284"
   inkscape:connector-curvature="0" />
		<path
   style="fill:#664422"
   d="m 9.5,132.7 c -0.7,0.4 -1.4,0.8 -2,1.2 0,0.7 0,1.5 0,2.3 0.7,-0.4 1.4,-0.8 2,-1.2 0,-0.7 0,-1.5 0,-2.3 z M 7.6,136 c 0,-0.7 0,-1.5 0,-2.1 0.6,-0.3 1.2,-0.7 1.8,-1.1 0,0.7 0,1.5 0,2.1 -0.5,0.4 -1.1,0.7 -1.8,1.1 z"
   clip-path="url(#SVGID_4_)"
   id="path286"
   inkscape:connector-curvature="0" />
		<path
   style="fill:#664422"
   d="m 19.4,125.3 c -0.6,-0.4 -1.3,-0.8 -2,-1.2 0,0.8 0,1.6 0,2.3 0.6,0.4 1.3,0.8 2,1.2 0,-0.8 0,-1.6 0,-2.3 z m -1.9,1.1 c 0,-0.7 0,-1.4 0,-2.1 0.6,0.4 1.3,0.7 1.8,1.1 0,0.7 0,1.4 0,2.1 -0.6,-0.4 -1.2,-0.8 -1.8,-1.1 z"
   clip-path="url(#SVGID_4_)"
   id="path288"
   inkscape:connector-curvature="0" />
		<path
   style="fill:#664422"
   d="m 21.6,128.9 c 0.4,-0.2 0.8,-0.4 1.1,-0.7 v -0.1 c -0.4,0.2 -0.7,0.4 -1.1,0.6 0,-1.3 0,-2.6 0,-3.8 0.3,-0.2 0.7,-0.4 1.1,-0.6 v -0.1 c -0.4,0.2 -0.8,0.4 -1.1,0.7 0,1.2 0,2.6 0,4 z"
   clip-path="url(#SVGID_4_)"
   id="path290"
   inkscape:connector-curvature="0" />
		<path
   style="fill:#664422"
   d="m 21.6,135.4 c 0.4,0.2 0.7,0.4 1.1,0.7 V 136 c -0.3,-0.2 -0.7,-0.4 -1.1,-0.6 0.1,-1.2 0.1,-2.6 0.1,-3.9 0.4,0.2 0.7,0.4 1.1,0.6 V 132 c -0.4,-0.2 -0.8,-0.4 -1.1,-0.7 -0.1,1.5 -0.1,2.9 -0.1,4.1 z"
   clip-path="url(#SVGID_4_)"
   id="path292"
   inkscape:connector-curvature="0" />
		<path
   style="fill:#664422"
   d="m 20.2,131.4 c -1.2,0.7 -2.4,1.4 -3.5,2 0,1.2 0,2.6 0,4 1.2,-0.7 2.4,-1.4 3.5,-2 0,-1.2 0,-2.6 0,-4 z m -3.4,5.9 c 0,-1.3 0,-2.6 0,-3.8 1,-0.6 2.2,-1.3 3.3,-1.9 0,1.3 0,2.6 0,3.8 -1,0.6 -2.2,1.2 -3.3,1.9 z"
   clip-path="url(#SVGID_4_)"
   id="path294"
   inkscape:connector-curvature="0" />
		<path
   style="fill:#664422"
   d="m 18.7,133.9 c -0.2,0.1 -0.4,0.2 -0.5,0.3 0,0.2 0,0.4 0,0.6 0.2,-0.1 0.4,-0.2 0.5,-0.3 0,-0.1 0,-0.3 0,-0.6 z m -0.5,0.8 c 0,-0.1 0,-0.3 0,-0.4 0.1,-0.1 0.2,-0.1 0.4,-0.2 0,0.1 0,0.3 0,0.4 -0.1,0.1 -0.2,0.2 -0.4,0.2 z"
   clip-path="url(#SVGID_4_)"
   id="path296"
   inkscape:connector-curvature="0" />
		<path
   style="fill:#664422"
   d="m -3.1,122.9 c 0,1.4 0,2.8 0,4 1.1,0.6 2.3,1.3 3.5,2 0,-1.4 0,-2.8 0,-4 -1.1,-0.7 -2.3,-1.4 -3.5,-2 z m 0.1,3.9 c 0,-1.2 0,-2.5 0,-3.8 1.1,0.7 2.3,1.3 3.3,1.9 0,1.2 0,2.5 0,3.8 -1.1,-0.6 -2.3,-1.3 -3.3,-1.9 z"
   clip-path="url(#SVGID_4_)"
   id="path298"
   inkscape:connector-curvature="0" />
		<path
   style="fill:#664422"
   d="m 3.3,125.7 c 0,0.2 0,0.4 0,0.6 0.2,-0.1 0.4,-0.2 0.5,-0.3 0,-0.2 0,-0.4 0,-0.6 -0.1,0.1 -0.3,0.2 -0.5,0.3 z m 0.5,0.3 c -0.1,0.1 -0.2,0.1 -0.4,0.2 0,-0.1 0,-0.3 0,-0.4 0.1,-0.1 0.2,-0.1 0.4,-0.2 0,0.1 0,0.2 0,0.4 z"
   clip-path="url(#SVGID_4_)"
   id="path300"
   inkscape:connector-curvature="0" />
		<path
   style="fill:#664422"
   d="m 6.8,126.9 c 1.1,0.6 2.3,1.3 3.5,2 0,-1.4 0,-2.8 0,-4 -1.1,-0.6 -2.3,-1.3 -3.5,-2 0,1.3 0,2.7 0,4 z m 3.4,-2 c 0,1.2 0,2.5 0,3.8 -1.1,-0.7 -2.3,-1.3 -3.3,-1.9 0,-1.2 0,-2.5 0,-3.8 1.1,0.7 2.3,1.3 3.3,1.9 z"
   clip-path="url(#SVGID_4_)"
   id="path302"
   inkscape:connector-curvature="0" />
		<path
   style="fill:#664422"
   d="m 8.3,126 c 0.2,0.1 0.4,0.2 0.5,0.3 0,-0.2 0,-0.4 0,-0.6 -0.2,-0.1 -0.4,-0.2 -0.5,-0.3 0,0.2 0,0.4 0,0.6 z m 0.4,-0.2 c 0,0.1 0,0.3 0,0.4 -0.1,-0.1 -0.3,-0.1 -0.4,-0.2 0,-0.1 0,-0.3 0,-0.4 0.2,0 0.3,0.1 0.4,0.2 z"
   clip-path="url(#SVGID_4_)"
   id="path304"
   inkscape:connector-curvature="0" />
		<path
   style="fill:#664422"
   d="m 1.9,124.9 c 0,1.2 0,2.6 0,4 1.2,-0.7 2.4,-1.4 3.5,-2 0,-1.2 0,-2.6 0,-4 -0.9,0.5 -1.8,1 -2.6,1.5 -0.4,0.2 -0.7,0.3 -0.9,0.5 z m 3.4,1.9 c -1,0.6 -2.2,1.3 -3.3,1.9 0,-1.3 0,-2.6 0,-3.8 1,-0.6 2.2,-1.3 3.3,-1.9 0,1.3 0,2.6 0,3.8 z"
   clip-path="url(#SVGID_4_)"
   id="path306"
   inkscape:connector-curvature="0" />
		<path
   style="fill:#664422"
   d="m 4.6,124.1 c -0.7,0.4 -1.4,0.8 -2,1.2 0,0.7 0,1.5 0,2.3 0.7,-0.4 1.4,-0.8 2,-1.2 0,-0.7 0,-1.5 0,-2.3 z m -1.9,3.4 c 0,-0.7 0,-1.5 0,-2.1 0.6,-0.3 1.2,-0.7 1.8,-1.1 0,0.7 0,1.5 0,2.1 -0.6,0.3 -1.2,0.7 -1.8,1.1 z"
   clip-path="url(#SVGID_4_)"
   id="path308"
   inkscape:connector-curvature="0" />
		<path
   style="fill:#664422"
   d="m 16.7,126.9 c 1.1,0.6 2.3,1.3 3.5,2 0,-1.4 0,-2.8 0,-4 -1.1,-0.6 -2.3,-1.3 -3.5,-2 0,1.3 0,2.7 0,4 z m 3.4,-2 c 0,1.2 0,2.5 0,3.8 -1.1,-0.7 -2.3,-1.3 -3.3,-1.9 0,-1.2 0,-2.5 0,-3.8 1.1,0.7 2.3,1.3 3.3,1.9 z"
   clip-path="url(#SVGID_4_)"
   id="path310"
   inkscape:connector-curvature="0" />
		<path
   style="fill:#664422"
   d="m 18.1,126 c 0.2,0.1 0.4,0.2 0.5,0.3 0,-0.2 0,-0.4 0,-0.6 -0.2,-0.1 -0.4,-0.2 -0.5,-0.3 0,0.2 0,0.4 0,0.6 z m 0.5,-0.2 c 0,0.1 0,0.3 0,0.4 -0.1,-0.1 -0.3,-0.1 -0.4,-0.2 0,-0.1 0,-0.3 0,-0.4 0.2,0 0.3,0.1 0.4,0.2 z"
   clip-path="url(#SVGID_4_)"
   id="path312"
   inkscape:connector-curvature="0" />
		<path
   style="fill:#664422"
   d="m 11.7,124.9 c 0,1.2 0,2.6 0,4 1.2,-0.7 2.4,-1.4 3.5,-2 0,-1.2 0,-2.6 0,-4 -0.9,0.5 -1.8,1 -2.6,1.5 -0.3,0.2 -0.6,0.3 -0.9,0.5 z m 3.4,1.9 c -1,0.6 -2.2,1.3 -3.3,1.9 0,-1.3 0,-2.6 0,-3.8 1,-0.6 2.2,-1.3 3.3,-1.9 0,1.3 0,2.6 0,3.8 z"
   clip-path="url(#SVGID_4_)"
   id="path314"
   inkscape:connector-curvature="0" />
		<path
   style="fill:#664422"
   d="m 14.5,124.1 c -0.7,0.4 -1.4,0.8 -2,1.2 0,0.7 0,1.5 0,2.3 0.7,-0.4 1.4,-0.8 2,-1.2 0,-0.7 0,-1.5 0,-2.3 z m -1.9,3.4 c 0,-0.7 0,-1.5 0,-2.1 0.6,-0.3 1.2,-0.7 1.8,-1.1 0,0.7 0,1.5 0,2.1 -0.6,0.3 -1.2,0.7 -1.8,1.1 z"
   clip-path="url(#SVGID_4_)"
   id="path316"
   inkscape:connector-curvature="0" />
	</g>
</g>
</svg>