<?xml version="1.0" encoding="UTF-8"?>
<!DOCTYPE svg PUBLIC "-//W3C//DTD SVG 1.1//EN" "http://www.w3.org/Graphics/SVG/1.1/DTD/svg11.dtd">
<svg xmlns="http://www.w3.org/2000/svg" xmlns:xlink="http://www.w3.org/1999/xlink" version="1.1" x="0" y="0" width="22" height="150" viewBox="0, 0, 22, 150">
  <g id="Layer_1">
    <path d="M-0,-0 L-0,25.309 C3.264,23.154 7.089,22.004 11,22 C14.912,22.005 18.736,23.158 22,25.314 L22,-0 z M-0,124.688 L-0,150 L22,150 L22,124.691 C18.736,126.846 14.911,127.996 11,128 C7.088,127.995 3.264,126.844 -0,124.688 z" fill="#EE34EE" id="rect938"/>
    <g>
      <g>
        <path d="M18,145 C18.552,145 19,145.448 19,146 C19,146.552 18.552,147 18,147 C17.448,147 17,146.552 17,146 C17,145.448 17.448,145 18,145 z" fill="#FFFFFF"/>
        <path d="M18,145 C18.552,145 19,145.448 19,146 C19,146.552 18.552,147 18,147 C17.448,147 17,146.552 17,146 C17,145.448 17.448,145 18,145 z" fill-opacity="0" stroke="#000000" stroke-width="0.25" stroke-linecap="round"/>
      </g>
      <g>
        <path d="M16,129 C16.552,129 17,129.448 17,130 C17,130.552 16.552,131 16,131 C15.448,131 15,130.552 15,130 C15,129.448 15.448,129 16,129 z" fill="#FFFFFF"/>
        <path d="M16,129 C16.552,129 17,129.448 17,130 C17,130.552 16.552,131 16,131 C15.448,131 15,130.552 15,130 C15,129.448 15.448,129 16,129 z" fill-opacity="0" stroke="#000000" stroke-width="0.25" stroke-linecap="round"/>
      </g>
      <g>
        <path d="M20,127 C20.552,127 21,127.448 21,128 C21,128.552 20.552,129 20,129 C19.448,129 19,128.552 19,128 C19,127.448 19.448,127 20,127 z" fill="#FFFFFF"/>
        <path d="M20,127 C20.552,127 21,127.448 21,128 C21,128.552 20.552,129 20,129 C19.448,129 19,128.552 19,128 C19,127.448 19.448,127 20,127 z" fill-opacity="0" stroke="#000000" stroke-width="0.25" stroke-linecap="round"/>
      </g>
      <g>
        <path d="M2,127 C2.552,127 3,127.448 3,128 C3,128.552 2.552,129 2,129 C1.448,129 1,128.552 1,128 C1,127.448 1.448,127 2,127 z" fill="#FFFFFF"/>
        <path d="M2,127 C2.552,127 3,127.448 3,128 C3,128.552 2.552,129 2,129 C1.448,129 1,128.552 1,128 C1,127.448 1.448,127 2,127 z" fill-opacity="0" stroke="#000000" stroke-width="0.25" stroke-linecap="round"/>
      </g>
      <g>
        <path d="M6,129 C6.552,129 7,129.448 7,130 C7,130.552 6.552,131 6,131 C5.448,131 5,130.552 5,130 C5,129.448 5.448,129 6,129 z" fill="#FFFFFF"/>
        <path d="M6,129 C6.552,129 7,129.448 7,130 C7,130.552 6.552,131 6,131 C5.448,131 5,130.552 5,130 C5,129.448 5.448,129 6,129 z" fill-opacity="0" stroke="#000000" stroke-width="0.25" stroke-linecap="round"/>
      </g>
      <g>
        <path d="M13,129 C13.552,129 14,129.448 14,130 C14,130.552 13.552,131 13,131 C12.448,131 12,130.552 12,130 C12,129.448 12.448,129 13,129 z" fill="#FFFFFF"/>
        <path d="M13,129 C13.552,129 14,129.448 14,130 C14,130.552 13.552,131 13,131 C12.448,131 12,130.552 12,130 C12,129.448 12.448,129 13,129 z" fill-opacity="0" stroke="#000000" stroke-width="0.25" stroke-linecap="round"/>
      </g>
      <g>
        <path d="M9,129 C9.552,129 10,129.448 10,130 C10,130.552 9.552,131 9,131 C8.448,131 8,130.552 8,130 C8,129.448 8.448,129 9,129 z" fill="#FFFFFF"/>
        <path d="M9,129 C9.552,129 10,129.448 10,130 C10,130.552 9.552,131 9,131 C8.448,131 8,130.552 8,130 C8,129.448 8.448,129 9,129 z" fill-opacity="0" stroke="#000000" stroke-width="0.25" stroke-linecap="round"/>
      </g>
      <g>
        <path d="M4,145 C4.552,145 5,145.448 5,146 C5,146.552 4.552,147 4,147 C3.448,147 3,146.552 3,146 C3,145.448 3.448,145 4,145 z" fill="#FFFFFF"/>
        <path d="M4,145 C4.552,145 5,145.448 5,146 C5,146.552 4.552,147 4,147 C3.448,147 3,146.552 3,146 C3,145.448 3.448,145 4,145 z" fill-opacity="0" stroke="#000000" stroke-width="0.25" stroke-linecap="round"/>
      </g>
      <g>
        <path d="M11,143 C11.552,143 12,143.448 12,144 C12,144.552 11.552,145 11,145 C10.448,145 10,144.552 10,144 C10,143.448 10.448,143 11,143 z" fill="#FFFFFF"/>
        <path d="M11,143 C11.552,143 12,143.448 12,144 C12,144.552 11.552,145 11,145 C10.448,145 10,144.552 10,144 C10,143.448 10.448,143 11,143 z" fill-opacity="0" stroke="#000000" stroke-width="0.25" stroke-linecap="round"/>
      </g>
      <path d="M17,146 L17,130" fill-opacity="0" stroke="#000000" stroke-width="0.25" stroke-linecap="round"/>
      <path d="M19,146 L19,128" fill-opacity="0" stroke="#000000" stroke-width="0.25" stroke-linecap="round"/>
      <path d="M3,146 L3,128" fill-opacity="0" stroke="#000000" stroke-width="0.25" stroke-linecap="round"/>
      <path d="M5,146 L5,130" fill-opacity="0" stroke="#000000" stroke-width="0.25" stroke-linecap="round"/>
      <path d="M10,144 L10,130" fill-opacity="0" stroke="#000000" stroke-width="0.25" stroke-linecap="round"/>
      <path d="M16,129 L13,129" fill-opacity="0" stroke="#000000" stroke-width="0.25" stroke-linecap="round"/>
      <path d="M16,146 L6,146" fill-opacity="0" stroke="#000000" stroke-width="1" stroke-linecap="round"/>
      <path d="M14,148 L8,148" fill-opacity="0" stroke="#000000" stroke-width="1" stroke-linecap="round"/>
      <path d="M9,144 L6,144" fill-opacity="0" stroke="#000000" stroke-width="1" stroke-linecap="round"/>
      <path d="M16,144 L13,144" fill-opacity="0" stroke="#000000" stroke-width="1" stroke-linecap="round"/>
      <path d="M9,133 L6,133" fill-opacity="0" stroke="#000000" stroke-width="1" stroke-linecap="round"/>
      <path d="M16,133 L13,133" fill-opacity="0" stroke="#000000" stroke-width="1" stroke-linecap="round"/>
      <path d="M9,129 L6,129" fill-opacity="0" stroke="#000000" stroke-width="0.25" stroke-linecap="round"/>
      <path d="M2,127 L0,127" fill-opacity="0" stroke="#000000" stroke-width="0.25" stroke-linecap="round"/>
      <path d="M22,127 L20,127" fill-opacity="0" stroke="#000000" stroke-width="0.25" stroke-linecap="round"/>
      <path d="M12,144 L12,130" fill-opacity="0" stroke="#000000" stroke-width="0.25" stroke-linecap="round"/>
    </g>
    <g>
      <g>
        <path d="M4,5 C3.448,5 3,4.552 3,4 C3,3.448 3.448,3 4,3 C4.552,3 5,3.448 5,4 C5,4.552 4.552,5 4,5 z" fill="#FFFFFF"/>
        <path d="M4,5 C3.448,5 3,4.552 3,4 C3,3.448 3.448,3 4,3 C4.552,3 5,3.448 5,4 C5,4.552 4.552,5 4,5 z" fill-opacity="0" stroke="#000000" stroke-width="0.25" stroke-linecap="round"/>
      </g>
      <g>
        <path d="M6,21 C5.448,21 5,20.552 5,20 C5,19.448 5.448,19 6,19 C6.552,19 7,19.448 7,20 C7,20.552 6.552,21 6,21 z" fill="#FFFFFF"/>
        <path d="M6,21 C5.448,21 5,20.552 5,20 C5,19.448 5.448,19 6,19 C6.552,19 7,19.448 7,20 C7,20.552 6.552,21 6,21 z" fill-opacity="0" stroke="#000000" stroke-width="0.25" stroke-linecap="round"/>
      </g>
      <g>
        <path d="M2,23 C1.448,23 1,22.552 1,22 C1,21.448 1.448,21 2,21 C2.552,21 3,21.448 3,22 C3,22.552 2.552,23 2,23 z" fill="#FFFFFF"/>
        <path d="M2,23 C1.448,23 1,22.552 1,22 C1,21.448 1.448,21 2,21 C2.552,21 3,21.448 3,22 C3,22.552 2.552,23 2,23 z" fill-opacity="0" stroke="#000000" stroke-width="0.25" stroke-linecap="round"/>
      </g>
      <g>
        <path d="M20,23 C19.448,23 19,22.552 19,22 C19,21.448 19.448,21 20,21 C20.552,21 21,21.448 21,22 C21,22.552 20.552,23 20,23 z" fill="#FFFFFF"/>
        <path d="M20,23 C19.448,23 19,22.552 19,22 C19,21.448 19.448,21 20,21 C20.552,21 21,21.448 21,22 C21,22.552 20.552,23 20,23 z" fill-opacity="0" stroke="#000000" stroke-width="0.25" stroke-linecap="round"/>
      </g>
      <g>
        <path d="M16,21 C15.448,21 15,20.552 15,20 C15,19.448 15.448,19 16,19 C16.552,19 17,19.448 17,20 C17,20.552 16.552,21 16,21 z" fill="#FFFFFF"/>
        <path d="M16,21 C15.448,21 15,20.552 15,20 C15,19.448 15.448,19 16,19 C16.552,19 17,19.448 17,20 C17,20.552 16.552,21 16,21 z" fill-opacity="0" stroke="#000000" stroke-width="0.25" stroke-linecap="round"/>
      </g>
      <g>
        <path d="M9,21 C8.448,21 8,20.552 8,20 C8,19.448 8.448,19 9,19 C9.552,19 10,19.448 10,20 C10,20.552 9.552,21 9,21 z" fill="#FFFFFF"/>
        <path d="M9,21 C8.448,21 8,20.552 8,20 C8,19.448 8.448,19 9,19 C9.552,19 10,19.448 10,20 C10,20.552 9.552,21 9,21 z" fill-opacity="0" stroke="#000000" stroke-width="0.25" stroke-linecap="round"/>
      </g>
      <g>
        <path d="M13,21 C12.448,21 12,20.552 12,20 C12,19.448 12.448,19 13,19 C13.552,19 14,19.448 14,20 C14,20.552 13.552,21 13,21 z" fill="#FFFFFF"/>
        <path d="M13,21 C12.448,21 12,20.552 12,20 C12,19.448 12.448,19 13,19 C13.552,19 14,19.448 14,20 C14,20.552 13.552,21 13,21 z" fill-opacity="0" stroke="#000000" stroke-width="0.25" stroke-linecap="round"/>
      </g>
      <g>
        <path d="M18,5 C17.448,5 17,4.552 17,4 C17,3.448 17.448,3 18,3 C18.552,3 19,3.448 19,4 C19,4.552 18.552,5 18,5 z" fill="#FFFFFF"/>
        <path d="M18,5 C17.448,5 17,4.552 17,4 C17,3.448 17.448,3 18,3 C18.552,3 19,3.448 19,4 C19,4.552 18.552,5 18,5 z" fill-opacity="0" stroke="#000000" stroke-width="0.25" stroke-linecap="round"/>
      </g>
      <g>
        <path d="M11,7 C10.448,7 10,6.552 10,6 C10,5.448 10.448,5 11,5 C11.552,5 12,5.448 12,6 C12,6.552 11.552,7 11,7 z" fill="#FFFFFF"/>
        <path d="M11,7 C10.448,7 10,6.552 10,6 C10,5.448 10.448,5 11,5 C11.552,5 12,5.448 12,6 C12,6.552 11.552,7 11,7 z" fill-opacity="0" stroke="#000000" stroke-width="0.25" stroke-linecap="round"/>
      </g>
      <path d="M5,4 L5,20" fill-opacity="0" stroke="#000000" stroke-width="0.25" stroke-linecap="round"/>
      <path d="M3,4 L3,22" fill-opacity="0" stroke="#000000" stroke-width="0.25" stroke-linecap="round"/>
      <path d="M19,4 L19,22" fill-opacity="0" stroke="#000000" stroke-width="0.25" stroke-linecap="round"/>
      <path d="M17,4 L17,20" fill-opacity="0" stroke="#000000" stroke-width="0.25" stroke-linecap="round"/>
      <path d="M12,6 L12,20" fill-opacity="0" stroke="#000000" stroke-width="0.25" stroke-linecap="round"/>
      <path d="M6,21 L9,21" fill-opacity="0" stroke="#000000" stroke-width="0.25" stroke-linecap="round"/>
      <path d="M6,4 L16,4" fill-opacity="0" stroke="#000000" stroke-width="1" stroke-linecap="round"/>
      <path d="M8,2 L14,2" fill-opacity="0" stroke="#000000" stroke-width="1" stroke-linecap="round"/>
      <path d="M13,6 L16,6" fill-opacity="0" stroke="#000000" stroke-width="1" stroke-linecap="round"/>
      <path d="M6,6 L9,6" fill-opacity="0" stroke="#000000" stroke-width="1" stroke-linecap="round"/>
      <path d="M13,17 L16,17" fill-opacity="0" stroke="#000000" stroke-width="1" stroke-linecap="round"/>
      <path d="M6,17 L9,17" fill-opacity="0" stroke="#000000" stroke-width="1" stroke-linecap="round"/>
      <path d="M13,21 L16,21" fill-opacity="0" stroke="#000000" stroke-width="0.25" stroke-linecap="round"/>
      <path d="M20,23 L22,23" fill-opacity="0" stroke="#000000" stroke-width="0.25" stroke-linecap="round"/>
      <path d="M0,23 L2,23" fill-opacity="0" stroke="#000000" stroke-width="0.25" stroke-linecap="round"/>
      <path d="M10,6 L10,20" fill-opacity="0" stroke="#000000" stroke-width="0.25" stroke-linecap="round"/>
    </g>
  </g>
</svg>
